<?xml version="1.0" encoding="UTF-8" standalone="no"?>
<!DOCTYPE svg PUBLIC "-//W3C//DTD SVG 1.1//EN"
 "http://www.w3.org/Graphics/SVG/1.1/DTD/svg11.dtd">
<!-- Generated by graphviz version 15.0.0 (20260523.1842)
 -->
<!-- Title: maas_flow Pages: 1 -->
<svg width="840pt" height="581pt"
 viewBox="0.00 0.00 840.00 581.00" xmlns="http://www.w3.org/2000/svg" xmlns:xlink="http://www.w3.org/1999/xlink">
<g id="graph0" class="graph" transform="scale(1 1) rotate(0) translate(36 545)">
<title>maas_flow</title>
<polygon fill="white" stroke="none" points="-36,36 -36,-545 804.48,-545 804.48,36 -36,36"/>
<text xml:space="preserve" text-anchor="middle" x="384.24" y="-491.7" font-family="Helvetica,sans-Serif" font-size="14.00">MaaS Inference Flow — IPP Metering Integration</text>
<g id="clust1" class="cluster">
<title>cluster_gateway</title>
<polygon fill="#fff9c4" stroke="#f57f17" points="44,-131.75 44,-311.5 566,-311.5 566,-131.75 44,-131.75"/>
<text xml:space="preserve" text-anchor="middle" x="305" y="-297.05" font-family="Helvetica,sans-Serif" font-size="11.00" fill="#f57f17">OSAC AI Gateway (Envoy proxy, managed by Istio)</text>
<text xml:space="preserve" text-anchor="middle" x="305" y="-285.05" font-family="Helvetica,sans-Serif" font-size="11.00" fill="#f57f17">IPP ext_proc Plugin Chain</text>
</g>
<g id="clust2" class="cluster">
<title>cluster_cost</title>
<polygon fill="#e8f5e9" stroke="#2e7d32" points="8,-8 8,-87.25 445,-87.25 445,-8 8,-8"/>
<text xml:space="preserve" text-anchor="middle" x="226.5" y="-72.8" font-family="Helvetica,sans-Serif" font-size="11.00" fill="#2e7d32">Cost Event Consumer (our service)</text>
</g>
<!-- user -->
<g id="node1" class="node">
<title>user</title>
<path fill="#e1f5fe" stroke="#0277bd" d="M292.88,-486C292.88,-486 177.12,-486 177.12,-486 171.12,-486 165.12,-480 165.12,-474 165.12,-474 165.12,-462 165.12,-462 165.12,-456 171.12,-450 177.12,-450 177.12,-450 292.88,-450 292.88,-450 298.88,-450 304.88,-456 304.88,-462 304.88,-462 304.88,-474 304.88,-474 304.88,-480 298.88,-486 292.88,-486"/>
<text xml:space="preserve" text-anchor="middle" x="235" y="-464.12" font-family="Helvetica,sans-Serif" font-size="10.00">User (API key or K8s token)</text>
</g>
<!-- auth -->
<g id="node2" class="node">
<title>auth</title>
<path fill="#ffe0b2" stroke="#e65100" d="M342,-390.25C342,-390.25 128,-390.25 128,-390.25 122,-390.25 116,-384.25 116,-378.25 116,-378.25 116,-366.25 116,-366.25 116,-360.25 122,-354.25 128,-354.25 128,-354.25 342,-354.25 342,-354.25 348,-354.25 354,-360.25 354,-366.25 354,-366.25 354,-378.25 354,-378.25 354,-384.25 348,-390.25 342,-390.25"/>
<text xml:space="preserve" text-anchor="middle" x="235" y="-368.38" font-family="Helvetica,sans-Serif" font-size="10.00">Authorino — authenticate, inject X&#45;MaaS&#45;* headers</text>
</g>
<!-- user&#45;&gt;auth -->
<g id="edge2" class="edge">
<title>user&#45;&gt;auth</title>
<path fill="none" stroke="#0277bd" d="M235,-449.8C235,-436.41 235,-417.52 235,-401.86"/>
<polygon fill="#0277bd" stroke="#0277bd" points="238.5,-402.17 235,-392.17 231.5,-402.17 238.5,-402.17"/>
<text xml:space="preserve" text-anchor="middle" x="275.5" y="-416.45" font-family="Helvetica,sans-Serif" font-size="9.00" fill="#0277bd">1. inference request</text>
</g>
<!-- req_plugins -->
<g id="node3" class="node">
<title>req_plugins</title>
<path fill="#ffecb3" stroke="#f57f17" d="M405.75,-271.5C405.75,-271.5 64.25,-271.5 64.25,-271.5 58.25,-271.5 52.25,-265.5 52.25,-259.5 52.25,-259.5 52.25,-247.5 52.25,-247.5 52.25,-241.5 58.25,-235.5 64.25,-235.5 64.25,-235.5 405.75,-235.5 405.75,-235.5 411.75,-235.5 417.75,-241.5 417.75,-247.5 417.75,-247.5 417.75,-259.5 417.75,-259.5 417.75,-265.5 411.75,-271.5 405.75,-271.5"/>
<text xml:space="preserve" text-anchor="middle" x="235" y="-256" font-family="Helvetica,sans-Serif" font-size="10.00">Request plugins:</text>
<text xml:space="preserve" text-anchor="middle" x="235" y="-244.75" font-family="Helvetica,sans-Serif" font-size="10.00">maas&#45;headers&#45;guard → body&#45;field&#45;to&#45;header → api&#45;translation → apikey&#45;injection</text>
</g>
<!-- auth&#45;&gt;req_plugins -->
<g id="edge3" class="edge">
<title>auth&#45;&gt;req_plugins</title>
<path fill="none" stroke="#e65100" d="M235,-353.77C235,-335.09 235,-305.19 235,-283.08"/>
<polygon fill="#e65100" stroke="#e65100" points="238.5,-283.23 235,-273.23 231.5,-283.23 238.5,-283.23"/>
<text xml:space="preserve" text-anchor="middle" x="276.25" y="-320.7" font-family="Helvetica,sans-Serif" font-size="9.00" fill="#e65100">2. + identity headers</text>
</g>
<!-- metering_req -->
<g id="node4" class="node">
<title>metering_req</title>
<path fill="#c8e6c9" stroke="#2e7d32" d="M318.88,-175.75C318.88,-175.75 149.12,-175.75 149.12,-175.75 143.12,-175.75 137.12,-169.75 137.12,-163.75 137.12,-163.75 137.12,-151.75 137.12,-151.75 137.12,-145.75 143.12,-139.75 149.12,-139.75 149.12,-139.75 318.88,-139.75 318.88,-139.75 324.88,-139.75 330.88,-145.75 330.88,-151.75 330.88,-151.75 330.88,-163.75 330.88,-163.75 330.88,-169.75 324.88,-175.75 318.88,-175.75"/>
<text xml:space="preserve" text-anchor="middle" x="234" y="-159.88" font-family="Helvetica,sans-Serif" font-size="10.00">① external&#45;metering ON REQUEST</text>
<text xml:space="preserve" text-anchor="middle" x="234" y="-147.88" font-family="Helvetica,sans-Serif" font-size="10.00">checkBalance: has this user got budget?</text>
</g>
<!-- req_plugins&#45;&gt;metering_req -->
<g id="edge4" class="edge">
<title>req_plugins&#45;&gt;metering_req</title>
<path fill="none" stroke="#f57f17" d="M234.82,-235.3C234.67,-221.91 234.47,-203.02 234.31,-187.36"/>
<polygon fill="#f57f17" stroke="#f57f17" points="237.81,-187.63 234.2,-177.67 230.81,-187.7 237.81,-187.63"/>
<text xml:space="preserve" text-anchor="middle" x="275.4" y="-201.95" font-family="Helvetica,sans-Serif" font-size="9.00" fill="#f57f17">3. before forwarding</text>
</g>
<!-- llm -->
<g id="node7" class="node">
<title>llm</title>
<path fill="#f3e5f5" stroke="#7b1fa2" d="M708,-55.62C708,-55.62 554,-55.62 554,-55.62 548,-55.62 542,-49.62 542,-43.62 542,-43.62 542,-31.62 542,-31.62 542,-25.62 548,-19.62 554,-19.62 554,-19.62 708,-19.62 708,-19.62 714,-19.62 720,-25.62 720,-31.62 720,-31.62 720,-43.62 720,-43.62 720,-49.62 714,-55.62 708,-55.62"/>
<text xml:space="preserve" text-anchor="middle" x="631" y="-39.38" font-family="Helvetica,sans-Serif" font-size="10.00">LLM Provider</text>
<text xml:space="preserve" text-anchor="middle" x="631" y="-28.12" font-family="Helvetica,sans-Serif" font-size="10.00">(Anthropic, OpenAI, vLLM, llm&#45;katan)</text>
</g>
<!-- metering_req&#45;&gt;llm -->
<g id="edge7" class="edge">
<title>metering_req&#45;&gt;llm</title>
<path fill="none" stroke="#7b1fa2" d="M237.28,-139.45C241.02,-124.97 248.68,-105.15 263.75,-95.25 281.53,-83.58 433.99,-90.55 455,-87.25 493.55,-81.2 535.71,-69.73 569.11,-59.44"/>
<polygon fill="#7b1fa2" stroke="#7b1fa2" points="570.13,-62.79 578.63,-56.46 568.04,-56.11 570.13,-62.79"/>
<text xml:space="preserve" text-anchor="middle" x="306.88" y="-106.2" font-family="Helvetica,sans-Serif" font-size="9.00" fill="#7b1fa2">5. forward to provider</text>
<text xml:space="preserve" text-anchor="middle" x="306.88" y="-96.45" font-family="Helvetica,sans-Serif" font-size="9.00" fill="#7b1fa2">(or 429 if no budget)</text>
</g>
<!-- balance -->
<g id="node8" class="node">
<title>balance</title>
<path fill="#a5d6a7" stroke="#2e7d32" d="M215.88,-59.25C215.88,-59.25 28.13,-59.25 28.13,-59.25 22.12,-59.25 16.12,-53.25 16.12,-47.25 16.12,-47.25 16.12,-28 16.12,-28 16.12,-22 22.12,-16 28.12,-16 28.12,-16 215.88,-16 215.88,-16 221.88,-16 227.88,-22 227.88,-28 227.88,-28 227.88,-47.25 227.88,-47.25 227.88,-53.25 221.88,-59.25 215.88,-59.25"/>
<text xml:space="preserve" text-anchor="middle" x="122" y="-45.75" font-family="Helvetica,sans-Serif" font-size="10.00">Balance Check</text>
<text xml:space="preserve" text-anchor="middle" x="122" y="-34.5" font-family="Helvetica,sans-Serif" font-size="10.00">GET /customers/{id}/entitlements/{key}/value</text>
<text xml:space="preserve" text-anchor="middle" x="122" y="-23.25" font-family="Helvetica,sans-Serif" font-size="10.00">→ {hasAccess, balance, usage, overage}</text>
</g>
<!-- metering_req&#45;&gt;balance -->
<g id="edge5" class="edge">
<title>metering_req&#45;&gt;balance</title>
<path fill="none" stroke="#2e7d32" stroke-dasharray="5,2" d="M136.94,-146.16C119.21,-139.72 102.78,-129.83 91.5,-114.75 81.29,-101.09 87.31,-83.55 96.6,-68.75"/>
<polygon fill="#2e7d32" stroke="#2e7d32" points="99.35,-70.94 102.19,-60.73 93.6,-66.94 99.35,-70.94"/>
<text xml:space="preserve" text-anchor="middle" x="141.75" y="-101.33" font-family="Helvetica,sans-Serif" font-size="9.00" fill="#2e7d32">4. sync call: has budget?</text>
</g>
<!-- metering_resp -->
<g id="node5" class="node">
<title>metering_resp</title>
<path fill="#c8e6c9" stroke="#2e7d32" d="M546.38,-175.75C546.38,-175.75 385.62,-175.75 385.62,-175.75 379.62,-175.75 373.62,-169.75 373.62,-163.75 373.62,-163.75 373.62,-151.75 373.62,-151.75 373.62,-145.75 379.62,-139.75 385.62,-139.75 385.62,-139.75 546.38,-139.75 546.38,-139.75 552.38,-139.75 558.38,-145.75 558.38,-151.75 558.38,-151.75 558.38,-163.75 558.38,-163.75 558.38,-169.75 552.38,-175.75 546.38,-175.75"/>
<text xml:space="preserve" text-anchor="middle" x="466" y="-159.88" font-family="Helvetica,sans-Serif" font-size="10.00">② external&#45;metering ON RESPONSE</text>
<text xml:space="preserve" text-anchor="middle" x="466" y="-147.88" font-family="Helvetica,sans-Serif" font-size="10.00">reportUsage: user consumed N tokens</text>
</g>
<!-- metering_resp&#45;&gt;user -->
<g id="edge11" class="edge">
<title>metering_resp&#45;&gt;user</title>
<path fill="none" stroke="#0277bd" d="M530.92,-176.25C544.2,-182.26 557.11,-190.24 567,-200.75 600.91,-236.82 613.27,-275.77 579,-311.5 564.22,-326.91 402.92,-305.28 387,-319.5 363.27,-340.7 392.87,-363.27 376,-390.25 360.08,-415.7 332.6,-433.32 306.11,-445.2"/>
<polygon fill="#0277bd" stroke="#0277bd" points="304.88,-441.92 297.03,-449.04 307.6,-448.36 304.88,-441.92"/>
<text xml:space="preserve" text-anchor="middle" x="426" y="-320.7" font-family="Helvetica,sans-Serif" font-size="9.00" fill="#0277bd">9. response to user</text>
</g>
<!-- ingest -->
<g id="node9" class="node">
<title>ingest</title>
<path fill="#a5d6a7" stroke="#2e7d32" d="M424.62,-59.25C424.62,-59.25 283.38,-59.25 283.38,-59.25 277.38,-59.25 271.38,-53.25 271.38,-47.25 271.38,-47.25 271.38,-28 271.38,-28 271.38,-22 277.38,-16 283.38,-16 283.38,-16 424.62,-16 424.62,-16 430.62,-16 436.62,-22 436.62,-28 436.62,-28 436.62,-47.25 436.62,-47.25 436.62,-53.25 430.62,-59.25 424.62,-59.25"/>
<text xml:space="preserve" text-anchor="middle" x="354" y="-45.75" font-family="Helvetica,sans-Serif" font-size="10.00">Ingest CloudEvent</text>
<text xml:space="preserve" text-anchor="middle" x="354" y="-34.5" font-family="Helvetica,sans-Serif" font-size="10.00">POST /api/v1/events</text>
<text xml:space="preserve" text-anchor="middle" x="354" y="-23.25" font-family="Helvetica,sans-Serif" font-size="10.00">→ metering → rating → cost entry</text>
</g>
<!-- metering_resp&#45;&gt;ingest -->
<g id="edge10" class="edge">
<title>metering_resp&#45;&gt;ingest</title>
<path fill="none" stroke="#2e7d32" stroke-dasharray="5,2" d="M402.61,-139.38C390.19,-133.37 378.37,-125.37 369.75,-114.75 359.82,-102.51 355.67,-85.6 354.1,-70.82"/>
<polygon fill="#2e7d32" stroke="#2e7d32" points="357.6,-70.8 353.43,-61.07 350.62,-71.28 357.6,-70.8"/>
<text xml:space="preserve" text-anchor="middle" x="445.88" y="-106.2" font-family="Helvetica,sans-Serif" font-size="9.00" fill="#2e7d32">8. CloudEvent: inference.tokens.used</text>
<text xml:space="preserve" text-anchor="middle" x="445.88" y="-96.45" font-family="Helvetica,sans-Serif" font-size="9.00" fill="#2e7d32">(fire &amp; forget)</text>
</g>
<!-- resp_plugins -->
<g id="node6" class="node">
<title>resp_plugins</title>
<path fill="#ffecb3" stroke="#f57f17" d="M545.5,-271.5C545.5,-271.5 472.5,-271.5 472.5,-271.5 466.5,-271.5 460.5,-265.5 460.5,-259.5 460.5,-259.5 460.5,-247.5 460.5,-247.5 460.5,-241.5 466.5,-235.5 472.5,-235.5 472.5,-235.5 545.5,-235.5 545.5,-235.5 551.5,-235.5 557.5,-241.5 557.5,-247.5 557.5,-247.5 557.5,-259.5 557.5,-259.5 557.5,-265.5 551.5,-271.5 545.5,-271.5"/>
<text xml:space="preserve" text-anchor="middle" x="509" y="-255.25" font-family="Helvetica,sans-Serif" font-size="10.00">Response plugins:</text>
<text xml:space="preserve" text-anchor="middle" x="509" y="-244" font-family="Helvetica,sans-Serif" font-size="10.00">api&#45;translation</text>
</g>
<!-- resp_plugins&#45;&gt;metering_resp -->
<g id="edge9" class="edge">
<title>resp_plugins&#45;&gt;metering_resp</title>
<path fill="none" stroke="#f57f17" d="M501.11,-235.3C494.85,-221.65 485.96,-202.28 478.7,-186.44"/>
<polygon fill="#f57f17" stroke="#f57f17" points="481.96,-185.16 474.61,-177.53 475.6,-188.08 481.96,-185.16"/>
<text xml:space="preserve" text-anchor="middle" x="522.91" y="-201.95" font-family="Helvetica,sans-Serif" font-size="9.00" fill="#f57f17">7. after response</text>
</g>
<!-- llm&#45;&gt;resp_plugins -->
<g id="edge8" class="edge">
<title>llm&#45;&gt;resp_plugins</title>
<path fill="none" stroke="#7b1fa2" d="M637.27,-56C641.97,-71.73 646.56,-95.33 640,-114.75 623.47,-163.7 578.17,-204.29 545.47,-228.45"/>
<polygon fill="#7b1fa2" stroke="#7b1fa2" points="543.5,-225.55 537.42,-234.23 547.58,-231.24 543.5,-225.55"/>
<text xml:space="preserve" text-anchor="middle" x="691.63" y="-154.07" font-family="Helvetica,sans-Serif" font-size="9.00" fill="#7b1fa2">6. response with usage block</text>
</g>
<!-- balance&#45;&gt;metering_req -->
<g id="edge6" class="edge">
<title>balance&#45;&gt;metering_req</title>
<path fill="none" stroke="#2e7d32" stroke-dasharray="5,2" d="M166.23,-59.63C190.4,-70.02 221.2,-81.54 250,-87.25 265.37,-90.3 521.08,-84.01 532,-95.25 588.9,-153.78 432.69,-119.43 352,-131.75 342.04,-133.27 331.66,-135.1 321.37,-137.07"/>
<polygon fill="#2e7d32" stroke="#2e7d32" points="320.87,-133.6 311.74,-138.97 322.23,-140.47 320.87,-133.6"/>
<text xml:space="preserve" text-anchor="middle" x="586.9" y="-101.33" font-family="Helvetica,sans-Serif" font-size="9.00" fill="#2e7d32">hasAccess: true/false</text>
</g>
<!-- ingest&#45;&gt;user -->
</g>
</svg>
