<?xml version="1.0" encoding="UTF-8" standalone="no"?>
<!DOCTYPE svg PUBLIC "-//W3C//DTD SVG 1.1//EN"
 "http://www.w3.org/Graphics/SVG/1.1/DTD/svg11.dtd">
<!-- Generated by graphviz version 15.0.0 (20260523.1842)
 -->
<!-- Title: osac_capacity_flow Pages: 1 -->
<svg width="636pt" height="1259pt"
 viewBox="0.00 0.00 636.00 1259.00" xmlns="http://www.w3.org/2000/svg" xmlns:xlink="http://www.w3.org/1999/xlink">
<g id="graph0" class="graph" transform="scale(1 1) rotate(0) translate(36 1222.91)">
<title>osac_capacity_flow</title>
<polygon fill="white" stroke="none" points="-36,36 -36,-1222.91 600,-1222.91 600,36 -36,36"/>
<text xml:space="preserve" text-anchor="middle" x="282" y="-1169.61" font-family="Helvetica,sans-Serif" font-size="14.00">OSAC Capacity&#45;Based Cost Flow</text>
<g id="clust1" class="cluster">
<title>cluster_osac</title>
<polygon fill="#e3f2fd" stroke="#1565c0" points="157,-883.5 157,-1069.66 520,-1069.66 520,-883.5 157,-883.5"/>
<text xml:space="preserve" text-anchor="middle" x="338.5" y="-1055.21" font-family="Helvetica,sans-Serif" font-size="11.00" fill="#1565c0">OSAC Fulfillment Service</text>
</g>
<g id="clust2" class="cluster">
<title>cluster_consumer</title>
<polygon fill="#e8f5e9" stroke="#2e7d32" points="57,-759 57,-839 556,-839 556,-759 57,-759"/>
<text xml:space="preserve" text-anchor="middle" x="306.5" y="-824.55" font-family="Helvetica,sans-Serif" font-size="11.00" fill="#2e7d32">Cost Event Consumer (single Go binary)</text>
</g>
<g id="clust3" class="cluster">
<title>cluster_pipeline</title>
<polygon fill="#fff3e0" stroke="#e65100" points="134,-131.75 134,-724.25 437,-724.25 437,-131.75 134,-131.75"/>
<text xml:space="preserve" text-anchor="middle" x="285.5" y="-709.8" font-family="Helvetica,sans-Serif" font-size="11.00" fill="#e65100">Metering &amp; Rating Pipeline</text>
</g>
<g id="clust4" class="cluster">
<title>cluster_api</title>
<polygon fill="#f3e5f5" stroke="#7b1fa2" points="8,-8 8,-97 373,-97 373,-8 8,-8"/>
<text xml:space="preserve" text-anchor="middle" x="190.5" y="-82.55" font-family="Helvetica,sans-Serif" font-size="11.00" fill="#7b1fa2">APIs (served from same binary)</text>
</g>
<!-- osac_db -->
<g id="node1" class="node">
<title>osac_db</title>
<path fill="#bbdefb" stroke="#1565c0" d="M416.62,-1036.44C416.62,-1039.32 386.31,-1041.66 349,-1041.66 311.69,-1041.66 281.38,-1039.32 281.38,-1036.44 281.38,-1036.44 281.38,-989.47 281.38,-989.47 281.38,-986.59 311.69,-984.25 349,-984.25 386.31,-984.25 416.62,-986.59 416.62,-989.47 416.62,-989.47 416.62,-1036.44 416.62,-1036.44"/>
<path fill="none" stroke="#1565c0" d="M416.62,-1036.44C416.62,-1033.56 386.31,-1031.22 349,-1031.22 311.69,-1031.22 281.38,-1033.56 281.38,-1036.44"/>
<text xml:space="preserve" text-anchor="middle" x="349" y="-1020.33" font-family="Helvetica,sans-Serif" font-size="10.00">OSAC PostgreSQL</text>
<text xml:space="preserve" text-anchor="middle" x="349" y="-1009.08" font-family="Helvetica,sans-Serif" font-size="10.00">VMs, Clusters, Bare Metal,</text>
<text xml:space="preserve" text-anchor="middle" x="349" y="-997.83" font-family="Helvetica,sans-Serif" font-size="10.00">Projects, Tenants</text>
</g>
<!-- watch -->
<g id="node2" class="node">
<title>watch</title>
<path fill="#90caf9" stroke="#1565c0" d="M329.25,-930.38C329.25,-930.38 176.75,-930.38 176.75,-930.38 170.75,-930.38 164.75,-924.38 164.75,-918.38 164.75,-918.38 164.75,-906.38 164.75,-906.38 164.75,-900.38 170.75,-894.38 176.75,-894.38 176.75,-894.38 329.25,-894.38 329.25,-894.38 335.25,-894.38 341.25,-900.38 341.25,-906.38 341.25,-906.38 341.25,-918.38 341.25,-918.38 341.25,-924.38 335.25,-930.38 329.25,-930.38"/>
<text xml:space="preserve" text-anchor="middle" x="253" y="-914.12" font-family="Helvetica,sans-Serif" font-size="10.00">Watch Stream (public gRPC)</text>
<text xml:space="preserve" text-anchor="middle" x="253" y="-902.88" font-family="Helvetica,sans-Serif" font-size="10.00">CREATED · UPDATED · DELETED</text>
</g>
<!-- osac_db&#45;&gt;watch -->
<!-- rest -->
<g id="node3" class="node">
<title>rest</title>
<path fill="#90caf9" stroke="#1565c0" d="M499.88,-933.25C499.88,-933.25 396.12,-933.25 396.12,-933.25 390.12,-933.25 384.12,-927.25 384.12,-921.25 384.12,-921.25 384.12,-903.5 384.12,-903.5 384.12,-897.5 390.12,-891.5 396.12,-891.5 396.12,-891.5 499.88,-891.5 499.88,-891.5 505.88,-891.5 511.88,-897.5 511.88,-903.5 511.88,-903.5 511.88,-921.25 511.88,-921.25 511.88,-927.25 505.88,-933.25 499.88,-933.25"/>
<text xml:space="preserve" text-anchor="middle" x="448" y="-919.75" font-family="Helvetica,sans-Serif" font-size="10.00">REST List APIs</text>
<text xml:space="preserve" text-anchor="middle" x="448" y="-908.5" font-family="Helvetica,sans-Serif" font-size="10.00">GET /api/fulfillment/v1/*</text>
<text xml:space="preserve" text-anchor="middle" x="448" y="-897.25" font-family="Helvetica,sans-Serif" font-size="10.00">(pagination, full inventory)</text>
</g>
<!-- osac_db&#45;&gt;rest -->
<!-- watcher -->
<g id="node4" class="node">
<title>watcher</title>
<path fill="#c8e6c9" stroke="#2e7d32" d="M344.62,-811C344.62,-811 77.37,-811 77.37,-811 71.38,-811 65.38,-805 65.38,-799 65.38,-799 65.38,-779 65.38,-779 65.38,-773 71.38,-767 77.38,-767 77.38,-767 344.62,-767 344.62,-767 350.62,-767 356.62,-773 356.62,-779 356.62,-779 356.62,-799 356.62,-799 356.62,-805 350.62,-811 344.62,-811"/>
<text xml:space="preserve" text-anchor="middle" x="211" y="-797.5" font-family="Helvetica,sans-Serif" font-size="10.00">① Watcher</text>
<text xml:space="preserve" text-anchor="middle" x="211" y="-785.5" font-family="Helvetica,sans-Serif" font-size="10.00">real&#45;time event consumer</text>
<text xml:space="preserve" text-anchor="middle" x="211" y="-774.25" font-family="Helvetica,sans-Serif" font-size="10.00">CREATED → upsert, DELETED → soft&#45;delete + final metering</text>
</g>
<!-- watch&#45;&gt;watcher -->
<g id="edge3" class="edge">
<title>watch&#45;&gt;watcher</title>
<path fill="none" stroke="#1565c0" d="M246.98,-893.98C240.51,-875.28 230.08,-845.13 222.11,-822.1"/>
<polygon fill="#1565c0" stroke="#1565c0" points="225.5,-821.19 218.92,-812.88 218.88,-823.48 225.5,-821.19"/>
<text xml:space="preserve" text-anchor="middle" x="281.25" y="-857.95" font-family="Helvetica,sans-Serif" font-size="9.00" fill="#1565c0">1. SSE event stream</text>
<text xml:space="preserve" text-anchor="middle" x="281.25" y="-848.2" font-family="Helvetica,sans-Serif" font-size="9.00" fill="#1565c0">(sub&#45;second delivery)</text>
</g>
<!-- reconciler -->
<g id="node5" class="node">
<title>reconciler</title>
<path fill="#c8e6c9" stroke="#2e7d32" d="M536,-811C536,-811 412,-811 412,-811 406,-811 400,-805 400,-799 400,-799 400,-779 400,-779 400,-773 406,-767 412,-767 412,-767 536,-767 536,-767 542,-767 548,-773 548,-779 548,-779 548,-799 548,-799 548,-805 542,-811 536,-811"/>
<text xml:space="preserve" text-anchor="middle" x="474" y="-797.5" font-family="Helvetica,sans-Serif" font-size="10.00">② Reconciler (every 5 min)</text>
<text xml:space="preserve" text-anchor="middle" x="474" y="-785.5" font-family="Helvetica,sans-Serif" font-size="10.00">List all → diff → upsert/delete</text>
<text xml:space="preserve" text-anchor="middle" x="474" y="-772.75" font-family="Helvetica,sans-Serif" font-size="10.00">catches missed Watch events</text>
</g>
<!-- rest&#45;&gt;reconciler -->
<g id="edge4" class="edge">
<title>rest&#45;&gt;reconciler</title>
<path fill="none" stroke="#1565c0" d="M452.35,-891.06C456.37,-872.3 462.41,-844.11 467.09,-822.27"/>
<polygon fill="#1565c0" stroke="#1565c0" points="470.47,-823.19 469.14,-812.68 463.62,-821.72 470.47,-823.19"/>
<text xml:space="preserve" text-anchor="middle" x="500.78" y="-857.95" font-family="Helvetica,sans-Serif" font-size="9.00" fill="#1565c0">2. periodic full sync</text>
<text xml:space="preserve" text-anchor="middle" x="500.78" y="-848.2" font-family="Helvetica,sans-Serif" font-size="9.00" fill="#1565c0">(drift correction)</text>
</g>
<!-- inventory -->
<g id="node6" class="node">
<title>inventory</title>
<path fill="#ffe0b2" stroke="#e65100" d="M279.75,-691.03C279.75,-693.91 248.94,-696.25 211,-696.25 173.06,-696.25 142.25,-693.91 142.25,-691.03 142.25,-691.03 142.25,-644.06 142.25,-644.06 142.25,-641.18 173.06,-638.84 211,-638.84 248.94,-638.84 279.75,-641.18 279.75,-644.06 279.75,-644.06 279.75,-691.03 279.75,-691.03"/>
<path fill="none" stroke="#e65100" d="M279.75,-691.03C279.75,-688.15 248.94,-685.81 211,-685.81 173.06,-685.81 142.25,-688.15 142.25,-691.03"/>
<text xml:space="preserve" text-anchor="middle" x="211" y="-674.92" font-family="Helvetica,sans-Serif" font-size="10.00">Inventory Tables</text>
<text xml:space="preserve" text-anchor="middle" x="211" y="-663.67" font-family="Helvetica,sans-Serif" font-size="10.00">compute_instance · cluster</text>
<text xml:space="preserve" text-anchor="middle" x="211" y="-652.42" font-family="Helvetica,sans-Serif" font-size="10.00">bare_metal · project · model</text>
</g>
<!-- watcher&#45;&gt;inventory -->
<g id="edge6" class="edge">
<title>watcher&#45;&gt;inventory</title>
<path fill="none" stroke="#2e7d32" d="M211,-766.64C211,-750.34 211,-727.42 211,-707.84"/>
<polygon fill="#2e7d32" stroke="#2e7d32" points="214.5,-707.98 211,-697.98 207.5,-707.98 214.5,-707.98"/>
<text xml:space="preserve" text-anchor="middle" x="248.5" y="-733.45" font-family="Helvetica,sans-Serif" font-size="9.00" fill="#2e7d32">upsert / soft&#45;delete</text>
</g>
<!-- raw_events -->
<g id="node7" class="node">
<title>raw_events</title>
<path fill="#ffe0b2" stroke="#e65100" d="M429.38,-684.7C429.38,-686.81 405.45,-688.52 376,-688.52 346.55,-688.52 322.62,-686.81 322.62,-684.7 322.62,-684.7 322.62,-650.39 322.62,-650.39 322.62,-648.29 346.55,-646.58 376,-646.58 405.45,-646.58 429.38,-648.29 429.38,-650.39 429.38,-650.39 429.38,-684.7 429.38,-684.7"/>
<path fill="none" stroke="#e65100" d="M429.38,-684.7C429.38,-682.6 405.45,-680.89 376,-680.89 346.55,-680.89 322.62,-682.6 322.62,-684.7"/>
<text xml:space="preserve" text-anchor="middle" x="376" y="-669.3" font-family="Helvetica,sans-Serif" font-size="10.00">Raw Events</text>
<text xml:space="preserve" text-anchor="middle" x="376" y="-658.05" font-family="Helvetica,sans-Serif" font-size="10.00">(immutable audit log)</text>
</g>
<!-- watcher&#45;&gt;raw_events -->
<g id="edge5" class="edge">
<title>watcher&#45;&gt;raw_events</title>
<path fill="none" stroke="#2e7d32" d="M255.48,-766.59C268.92,-759.42 283.43,-750.96 296,-742 314.91,-728.52 334.15,-711 349.02,-696.46"/>
<polygon fill="#2e7d32" stroke="#2e7d32" points="351.1,-699.32 355.72,-689.79 346.16,-694.36 351.1,-699.32"/>
<text xml:space="preserve" text-anchor="middle" x="330.29" y="-733.45" font-family="Helvetica,sans-Serif" font-size="9.00" fill="#2e7d32">store event</text>
</g>
<!-- reconciler&#45;&gt;inventory -->
<g id="edge7" class="edge">
<title>reconciler&#45;&gt;inventory</title>
<path fill="none" stroke="#2e7d32" d="M439.28,-766.74C418.01,-754.7 389.81,-740.45 363,-732.25 336.43,-724.12 327.18,-733.55 301,-724.25 286.09,-718.95 271.03,-710.92 257.61,-702.59"/>
<polygon fill="#2e7d32" stroke="#2e7d32" points="259.72,-699.79 249.42,-697.32 255.94,-705.68 259.72,-699.79"/>
<text xml:space="preserve" text-anchor="middle" x="417.37" y="-733.45" font-family="Helvetica,sans-Serif" font-size="9.00" fill="#2e7d32">upsert / delete</text>
</g>
<!-- metering -->
<g id="node8" class="node">
<title>metering</title>
<path fill="#ffecb3" stroke="#f57f17" d="M303.75,-569.34C303.75,-569.34 154.25,-569.34 154.25,-569.34 148.25,-569.34 142.25,-563.34 142.25,-557.34 142.25,-557.34 142.25,-516.34 142.25,-516.34 142.25,-510.34 148.25,-504.34 154.25,-504.34 154.25,-504.34 303.75,-504.34 303.75,-504.34 309.75,-504.34 315.75,-510.34 315.75,-516.34 315.75,-516.34 315.75,-557.34 315.75,-557.34 315.75,-563.34 309.75,-569.34 303.75,-569.34"/>
<text xml:space="preserve" text-anchor="middle" x="229" y="-555.84" font-family="Helvetica,sans-Serif" font-size="10.00">③ Metering Sweep (every 60s)</text>
<text xml:space="preserve" text-anchor="middle" x="229" y="-543.84" font-family="Helvetica,sans-Serif" font-size="10.00">for each RUNNING resource:</text>
<text xml:space="preserve" text-anchor="middle" x="229" y="-532.59" font-family="Helvetica,sans-Serif" font-size="10.00"> &#160;cpu_core_seconds = cores × 60</text>
<text xml:space="preserve" text-anchor="middle" x="229" y="-521.34" font-family="Helvetica,sans-Serif" font-size="10.00"> &#160;memory_gib_seconds = mem × 60</text>
<text xml:space="preserve" text-anchor="middle" x="229" y="-510.09" font-family="Helvetica,sans-Serif" font-size="10.00"> &#160;uptime_seconds = 60</text>
</g>
<!-- inventory&#45;&gt;metering -->
<g id="edge8" class="edge">
<title>inventory&#45;&gt;metering</title>
<path fill="none" stroke="#e65100" d="M214.91,-638.62C217.25,-621.84 220.29,-600.15 222.94,-581.18"/>
<polygon fill="#e65100" stroke="#e65100" points="226.4,-581.68 224.32,-571.29 219.47,-580.71 226.4,-581.68"/>
<text xml:space="preserve" text-anchor="middle" x="279.2" y="-605.29" font-family="Helvetica,sans-Serif" font-size="9.00" fill="#e65100">3. read billable</text>
<text xml:space="preserve" text-anchor="middle" x="279.2" y="-595.54" font-family="Helvetica,sans-Serif" font-size="9.00" fill="#e65100">resources (state=RUNNING)</text>
</g>
<!-- splunk -->
<g id="node15" class="node">
<title>splunk</title>
<path fill="#ffcdd2" stroke="#c62828" d="M494.88,-554.84C494.88,-554.84 457.12,-554.84 457.12,-554.84 451.12,-554.84 445.12,-548.84 445.12,-542.84 445.12,-542.84 445.12,-530.84 445.12,-530.84 445.12,-524.84 451.12,-518.84 457.12,-518.84 457.12,-518.84 494.88,-518.84 494.88,-518.84 500.88,-518.84 506.88,-524.84 506.88,-530.84 506.88,-530.84 506.88,-542.84 506.88,-542.84 506.88,-548.84 500.88,-554.84 494.88,-554.84"/>
<text xml:space="preserve" text-anchor="middle" x="476" y="-538.59" font-family="Helvetica,sans-Serif" font-size="10.00">Splunk</text>
<text xml:space="preserve" text-anchor="middle" x="476" y="-527.34" font-family="Helvetica,sans-Serif" font-size="10.00">(audit trail)</text>
</g>
<!-- raw_events&#45;&gt;splunk -->
<g id="edge15" class="edge">
<title>raw_events&#45;&gt;splunk</title>
<path fill="none" stroke="#c62828" stroke-dasharray="5,2" d="M391.85,-646.15C409.06,-624 436.61,-588.54 455.47,-564.27"/>
<polygon fill="#c62828" stroke="#c62828" points="458.17,-566.49 461.55,-556.45 452.65,-562.2 458.17,-566.49"/>
<text xml:space="preserve" text-anchor="middle" x="462.36" y="-605.29" font-family="Helvetica,sans-Serif" font-size="9.00" fill="#c62828">HEC forwarder</text>
<text xml:space="preserve" text-anchor="middle" x="462.36" y="-595.54" font-family="Helvetica,sans-Serif" font-size="9.00" fill="#c62828">(REQ&#45;7)</text>
</g>
<!-- metering_entries -->
<g id="node9" class="node">
<title>metering_entries</title>
<path fill="#ffe0b2" stroke="#e65100" d="M310.88,-431.03C310.88,-433.13 274.18,-434.84 229,-434.84 183.82,-434.84 147.12,-433.13 147.12,-431.03 147.12,-431.03 147.12,-396.72 147.12,-396.72 147.12,-394.62 183.82,-392.91 229,-392.91 274.18,-392.91 310.88,-394.62 310.88,-396.72 310.88,-396.72 310.88,-431.03 310.88,-431.03"/>
<path fill="none" stroke="#e65100" d="M310.88,-431.03C310.88,-428.93 274.18,-427.22 229,-427.22 183.82,-427.22 147.12,-428.93 147.12,-431.03"/>
<text xml:space="preserve" text-anchor="middle" x="229" y="-415.62" font-family="Helvetica,sans-Serif" font-size="10.00">Metering Entries</text>
<text xml:space="preserve" text-anchor="middle" x="229" y="-404.38" font-family="Helvetica,sans-Serif" font-size="10.00">resource × meter × period × value</text>
</g>
<!-- metering&#45;&gt;metering_entries -->
<g id="edge9" class="edge">
<title>metering&#45;&gt;metering_entries</title>
<path fill="none" stroke="#e65100" d="M229,-504.06C229,-486.32 229,-464.28 229,-446.55"/>
<polygon fill="#e65100" stroke="#e65100" points="232.5,-446.58 229,-436.58 225.5,-446.58 232.5,-446.58"/>
<text xml:space="preserve" text-anchor="middle" x="277.38" y="-470.79" font-family="Helvetica,sans-Serif" font-size="9.00" fill="#e65100">insert 3 entries</text>
<text xml:space="preserve" text-anchor="middle" x="277.38" y="-461.04" font-family="Helvetica,sans-Serif" font-size="9.00" fill="#e65100">per resource per sweep</text>
</g>
<!-- rating -->
<g id="node10" class="node">
<title>rating</title>
<path fill="#ffecb3" stroke="#f57f17" d="M299.25,-333.16C299.25,-333.16 158.75,-333.16 158.75,-333.16 152.75,-333.16 146.75,-327.16 146.75,-321.16 146.75,-321.16 146.75,-278.66 146.75,-278.66 146.75,-272.66 152.75,-266.66 158.75,-266.66 158.75,-266.66 299.25,-266.66 299.25,-266.66 305.25,-266.66 311.25,-272.66 311.25,-278.66 311.25,-278.66 311.25,-321.16 311.25,-321.16 311.25,-327.16 305.25,-333.16 299.25,-333.16"/>
<text xml:space="preserve" text-anchor="middle" x="229" y="-319.66" font-family="Helvetica,sans-Serif" font-size="10.00">④ Rating Sweep (every 30s)</text>
<text xml:space="preserve" text-anchor="middle" x="229" y="-307.66" font-family="Helvetica,sans-Serif" font-size="10.00">for each unrated entry:</text>
<text xml:space="preserve" text-anchor="middle" x="229" y="-296.41" font-family="Helvetica,sans-Serif" font-size="10.00"> &#160;cost = value × rate</text>
<text xml:space="preserve" text-anchor="middle" x="229" y="-285.16" font-family="Helvetica,sans-Serif" font-size="10.00"> &#160;tenant override → global fallback</text>
<text xml:space="preserve" text-anchor="middle" x="229" y="-272.41" font-family="Helvetica,sans-Serif" font-size="10.00"> &#160;tiered pricing supported</text>
</g>
<!-- metering_entries&#45;&gt;rating -->
<g id="edge10" class="edge">
<title>metering_entries&#45;&gt;rating</title>
<path fill="none" stroke="#e65100" d="M229,-392.6C229,-379.18 229,-361.07 229,-344.49"/>
<polygon fill="#e65100" stroke="#e65100" points="232.5,-344.84 229,-334.84 225.5,-344.84 232.5,-344.84"/>
<text xml:space="preserve" text-anchor="middle" x="275.12" y="-359.36" font-family="Helvetica,sans-Serif" font-size="9.00" fill="#e65100">4. read unrated entries</text>
</g>
<!-- cost_entries -->
<g id="node11" class="node">
<title>cost_entries</title>
<path fill="#ffe0b2" stroke="#e65100" d="M303,-191.94C303,-194.82 269.83,-197.16 229,-197.16 188.17,-197.16 155,-194.82 155,-191.94 155,-191.94 155,-144.97 155,-144.97 155,-142.09 188.17,-139.75 229,-139.75 269.83,-139.75 303,-142.09 303,-144.97 303,-144.97 303,-191.94 303,-191.94"/>
<path fill="none" stroke="#e65100" d="M303,-191.94C303,-189.06 269.83,-186.72 229,-186.72 188.17,-186.72 155,-189.06 155,-191.94"/>
<text xml:space="preserve" text-anchor="middle" x="229" y="-175.83" font-family="Helvetica,sans-Serif" font-size="10.00">Cost Entries</text>
<text xml:space="preserve" text-anchor="middle" x="229" y="-164.58" font-family="Helvetica,sans-Serif" font-size="10.00">cost_amount · currency</text>
<text xml:space="preserve" text-anchor="middle" x="229" y="-153.33" font-family="Helvetica,sans-Serif" font-size="10.00">Infrastructure / Supplementary</text>
</g>
<!-- rating&#45;&gt;cost_entries -->
<g id="edge11" class="edge">
<title>rating&#45;&gt;cost_entries</title>
<path fill="none" stroke="#e65100" d="M229,-266.24C229,-248.71 229,-226.98 229,-208.55"/>
<polygon fill="#e65100" stroke="#e65100" points="232.5,-208.8 229,-198.8 225.5,-208.8 232.5,-208.8"/>
<text xml:space="preserve" text-anchor="middle" x="263.5" y="-233.11" font-family="Helvetica,sans-Serif" font-size="9.00" fill="#e65100">insert cost entry</text>
<text xml:space="preserve" text-anchor="middle" x="263.5" y="-223.36" font-family="Helvetica,sans-Serif" font-size="9.00" fill="#e65100">(value × rate = $)</text>
</g>
<!-- report_api -->
<g id="node12" class="node">
<title>report_api</title>
<path fill="#e1bee7" stroke="#7b1fa2" d="M173.5,-69C173.5,-69 28.5,-69 28.5,-69 22.5,-69 16.5,-63 16.5,-57 16.5,-57 16.5,-28 16.5,-28 16.5,-22 22.5,-16 28.5,-16 28.5,-16 173.5,-16 173.5,-16 179.5,-16 185.5,-22 185.5,-28 185.5,-28 185.5,-57 185.5,-57 185.5,-63 179.5,-69 173.5,-69"/>
<text xml:space="preserve" text-anchor="middle" x="101" y="-55.5" font-family="Helvetica,sans-Serif" font-size="10.00">Cost Report API</text>
<text xml:space="preserve" text-anchor="middle" x="101" y="-44.25" font-family="Helvetica,sans-Serif" font-size="10.00">GET /api/v1/reports/costs</text>
<text xml:space="preserve" text-anchor="middle" x="101" y="-33" font-family="Helvetica,sans-Serif" font-size="10.00">group_by: tenant · resource · meter</text>
<text xml:space="preserve" text-anchor="middle" x="101" y="-21.75" font-family="Helvetica,sans-Serif" font-size="10.00">format: JSON · CSV</text>
</g>
<!-- cost_entries&#45;&gt;report_api -->
<g id="edge12" class="edge">
<title>cost_entries&#45;&gt;report_api</title>
<path fill="none" stroke="#7b1fa2" d="M199.55,-139.33C191.27,-131.4 182.27,-122.75 174,-114.75 161.38,-102.55 147.59,-89.11 135.43,-77.23"/>
<polygon fill="#7b1fa2" stroke="#7b1fa2" points="137.98,-74.83 128.38,-70.34 133.08,-79.83 137.98,-74.83"/>
<text xml:space="preserve" text-anchor="middle" x="211.5" y="-106.2" font-family="Helvetica,sans-Serif" font-size="9.00" fill="#7b1fa2">query + aggregate</text>
</g>
<!-- quota_api -->
<g id="node13" class="node">
<title>quota_api</title>
<path fill="#e1bee7" stroke="#7b1fa2" d="M353.38,-69C353.38,-69 240.62,-69 240.62,-69 234.62,-69 228.62,-63 228.62,-57 228.62,-57 228.62,-28 228.62,-28 228.62,-22 234.62,-16 240.62,-16 240.62,-16 353.38,-16 353.38,-16 359.38,-16 365.38,-22 365.38,-28 365.38,-28 365.38,-57 365.38,-57 365.38,-63 359.38,-69 353.38,-69"/>
<text xml:space="preserve" text-anchor="middle" x="297" y="-55.5" font-family="Helvetica,sans-Serif" font-size="10.00">Quota API</text>
<text xml:space="preserve" text-anchor="middle" x="297" y="-44.25" font-family="Helvetica,sans-Serif" font-size="10.00">GET /api/v1/quotas/{tenant}</text>
<text xml:space="preserve" text-anchor="middle" x="297" y="-33" font-family="Helvetica,sans-Serif" font-size="10.00">consumed vs limit</text>
<text xml:space="preserve" text-anchor="middle" x="297" y="-21.75" font-family="Helvetica,sans-Serif" font-size="10.00">thresholds: 50/70/90/100%</text>
</g>
<!-- cost_entries&#45;&gt;quota_api -->
<g id="edge13" class="edge">
<title>cost_entries&#45;&gt;quota_api</title>
<path fill="none" stroke="#7b1fa2" d="M244.43,-139.33C254.2,-121.53 266.91,-98.35 277.39,-79.25"/>
<polygon fill="#7b1fa2" stroke="#7b1fa2" points="280.32,-81.18 282.06,-70.73 274.18,-77.81 280.32,-81.18"/>
<text xml:space="preserve" text-anchor="middle" x="295.62" y="-106.2" font-family="Helvetica,sans-Serif" font-size="9.00" fill="#7b1fa2">SUM consumed</text>
</g>
<!-- operator -->
<g id="node14" class="node">
<title>operator</title>
<path fill="#e1f5fe" stroke="#0277bd" d="M398.62,-1163.91C398.62,-1163.91 299.38,-1163.91 299.38,-1163.91 293.38,-1163.91 287.38,-1157.91 287.38,-1151.91 287.38,-1151.91 287.38,-1134.16 287.38,-1134.16 287.38,-1128.16 293.38,-1122.16 299.38,-1122.16 299.38,-1122.16 398.62,-1122.16 398.62,-1122.16 404.62,-1122.16 410.62,-1128.16 410.62,-1134.16 410.62,-1134.16 410.62,-1151.91 410.62,-1151.91 410.62,-1157.91 404.62,-1163.91 398.62,-1163.91"/>
<text xml:space="preserve" text-anchor="middle" x="349" y="-1150.41" font-family="Helvetica,sans-Serif" font-size="10.00">Operator / Admin</text>
<text xml:space="preserve" text-anchor="middle" x="349" y="-1139.16" font-family="Helvetica,sans-Serif" font-size="10.00">create VM, order cluster,</text>
<text xml:space="preserve" text-anchor="middle" x="349" y="-1127.91" font-family="Helvetica,sans-Serif" font-size="10.00">provision bare metal</text>
</g>
<!-- operator&#45;&gt;osac_db -->
<g id="edge14" class="edge">
<title>operator&#45;&gt;osac_db</title>
<path fill="none" stroke="#0277bd" stroke-dasharray="5,2" d="M349,-1121.74C349,-1103.36 349,-1075.77 349,-1053.1"/>
<polygon fill="#0277bd" stroke="#0277bd" points="352.5,-1053.29 349,-1043.29 345.5,-1053.29 352.5,-1053.29"/>
<text xml:space="preserve" text-anchor="middle" x="385.75" y="-1088.61" font-family="Helvetica,sans-Serif" font-size="9.00" fill="#0277bd">0. create resource</text>
<text xml:space="preserve" text-anchor="middle" x="385.75" y="-1078.86" font-family="Helvetica,sans-Serif" font-size="9.00" fill="#0277bd">(API / UI)</text>
</g>
</g>
</svg>
