<?xml version="1.0" encoding="UTF-8" standalone="no"?>
<!DOCTYPE svg PUBLIC "-//W3C//DTD SVG 1.1//EN"
 "http://www.w3.org/Graphics/SVG/1.1/DTD/svg11.dtd">
<!-- Generated by graphviz version 15.0.0 (20260523.1842)
 -->
<!-- Title: architecture_poc Pages: 1 -->
<svg width="1384pt" height="1307pt"
 viewBox="0.00 0.00 1384.00 1307.00" xmlns="http://www.w3.org/2000/svg" xmlns:xlink="http://www.w3.org/1999/xlink">
<g id="graph0" class="graph" transform="scale(1 1) rotate(0) translate(36 1270.9)">
<title>architecture_poc</title>
<polygon fill="white" stroke="none" points="-36,36 -36,-1270.9 1348.25,-1270.9 1348.25,36 -36,36"/>
<text xml:space="preserve" text-anchor="middle" x="656.12" y="-1217.6" font-family="Helvetica,sans-Serif" font-size="14.00">Cost Event Consumer — PoC Architecture (Current)</text>
<g id="clust1" class="cluster">
<title>cluster_osac</title>
<polygon fill="#e3f2fd" stroke="#1565c0" points="194.5,-963.9 194.5,-1127.9 549.75,-1127.9 549.75,-963.9 194.5,-963.9"/>
<text xml:space="preserve" text-anchor="middle" x="372.12" y="-1112.5" font-family="Helvetica,sans-Serif" font-size="12.00" fill="#1565c0">OSAC Fulfillment Service</text>
</g>
<g id="clust2" class="cluster">
<title>cluster_consumer</title>
<polygon fill="#e8f5e9" stroke="#2e7d32" points="672.25,-723.9 672.25,-1203.9 995.25,-1203.9 995.25,-723.9 672.25,-723.9"/>
<text xml:space="preserve" text-anchor="middle" x="833.75" y="-1188.5" font-family="Helvetica,sans-Serif" font-size="12.00" fill="#2e7d32">Cost Event Consumer (Go)</text>
</g>
<g id="clust3" class="cluster">
<title>cluster_db</title>
<polygon fill="#f5f5f5" stroke="#616161" points="1108,-246.9 1108,-830.9 1312.25,-830.9 1312.25,-246.9 1108,-246.9"/>
<text xml:space="preserve" text-anchor="middle" x="1210.12" y="-815.5" font-family="Helvetica,sans-Serif" font-size="12.00" fill="#616161">Cost Database (PostgreSQL :5434)</text>
</g>
<!-- osac_db -->
<g id="node1" class="node">
<title>osac_db</title>
<path fill="#bbdefb" stroke="#1565c0" d="M279.62,-1010.05C279.62,-1012.16 264.11,-1013.86 245,-1013.86 225.89,-1013.86 210.38,-1012.16 210.38,-1010.05 210.38,-1010.05 210.38,-975.74 210.38,-975.74 210.38,-973.64 225.89,-971.93 245,-971.93 264.11,-971.93 279.62,-973.64 279.62,-975.74 279.62,-975.74 279.62,-1010.05 279.62,-1010.05"/>
<path fill="none" stroke="#1565c0" d="M279.62,-1010.05C279.62,-1007.95 264.11,-1006.24 245,-1006.24 225.89,-1006.24 210.38,-1007.95 210.38,-1010.05"/>
<text xml:space="preserve" text-anchor="middle" x="245" y="-994.65" font-family="Helvetica,sans-Serif" font-size="10.00">OSAC</text>
<text xml:space="preserve" text-anchor="middle" x="245" y="-983.4" font-family="Helvetica,sans-Serif" font-size="10.00">PostgreSQL</text>
</g>
<!-- osac_watch -->
<g id="node2" class="node">
<title>osac_watch</title>
<path fill="#90caf9" stroke="#1565c0" d="M509.88,-1092.77C509.88,-1092.77 453.38,-1092.77 453.38,-1092.77 447.38,-1092.77 441.38,-1086.77 441.38,-1080.77 441.38,-1080.77 441.38,-1063.02 441.38,-1063.02 441.38,-1057.02 447.38,-1051.02 453.38,-1051.02 453.38,-1051.02 509.88,-1051.02 509.88,-1051.02 515.88,-1051.02 521.88,-1057.02 521.88,-1063.02 521.88,-1063.02 521.88,-1080.77 521.88,-1080.77 521.88,-1086.77 515.88,-1092.77 509.88,-1092.77"/>
<text xml:space="preserve" text-anchor="middle" x="481.62" y="-1079.27" font-family="Helvetica,sans-Serif" font-size="10.00">Watch Stream</text>
<text xml:space="preserve" text-anchor="middle" x="481.62" y="-1068.02" font-family="Helvetica,sans-Serif" font-size="10.00">(public API)</text>
<text xml:space="preserve" text-anchor="middle" x="481.62" y="-1056.77" font-family="Helvetica,sans-Serif" font-size="10.00">10 entity types</text>
</g>
<!-- osac_db&#45;&gt;osac_watch -->
<!-- osac_rest -->
<g id="node3" class="node">
<title>osac_rest</title>
<path fill="#90caf9" stroke="#1565c0" d="M529.75,-1007.9C529.75,-1007.9 433.5,-1007.9 433.5,-1007.9 427.5,-1007.9 421.5,-1001.9 421.5,-995.9 421.5,-995.9 421.5,-983.9 421.5,-983.9 421.5,-977.9 427.5,-971.9 433.5,-971.9 433.5,-971.9 529.75,-971.9 529.75,-971.9 535.75,-971.9 541.75,-977.9 541.75,-983.9 541.75,-983.9 541.75,-995.9 541.75,-995.9 541.75,-1001.9 535.75,-1007.9 529.75,-1007.9"/>
<text xml:space="preserve" text-anchor="middle" x="481.62" y="-991.65" font-family="Helvetica,sans-Serif" font-size="10.00">REST List APIs</text>
<text xml:space="preserve" text-anchor="middle" x="481.62" y="-980.4" font-family="Helvetica,sans-Serif" font-size="10.00">GET /api/fulfillment/v1/*</text>
</g>
<!-- osac_db&#45;&gt;osac_rest -->
<!-- watcher -->
<g id="node5" class="node">
<title>watcher</title>
<path fill="#a5d6a7" stroke="#2e7d32" d="M764.88,-1089.9C764.88,-1089.9 703.12,-1089.9 703.12,-1089.9 697.12,-1089.9 691.12,-1083.9 691.12,-1077.9 691.12,-1077.9 691.12,-1065.9 691.12,-1065.9 691.12,-1059.9 697.12,-1053.9 703.12,-1053.9 703.12,-1053.9 764.88,-1053.9 764.88,-1053.9 770.88,-1053.9 776.88,-1059.9 776.88,-1065.9 776.88,-1065.9 776.88,-1077.9 776.88,-1077.9 776.88,-1083.9 770.88,-1089.9 764.88,-1089.9"/>
<text xml:space="preserve" text-anchor="middle" x="734" y="-1073.65" font-family="Helvetica,sans-Serif" font-size="10.00">Watcher</text>
<text xml:space="preserve" text-anchor="middle" x="734" y="-1062.4" font-family="Helvetica,sans-Serif" font-size="10.00">real&#45;time events</text>
</g>
<!-- osac_watch&#45;&gt;watcher -->
<g id="edge5" class="edge">
<title>osac_watch&#45;&gt;watcher</title>
<path fill="none" stroke="#1565c0" d="M522.3,-1071.9C564.84,-1071.9 632.63,-1071.9 679.79,-1071.9"/>
<polygon fill="#1565c0" stroke="#1565c0" points="679.49,-1075.4 689.49,-1071.9 679.49,-1068.4 679.49,-1075.4"/>
<text xml:space="preserve" text-anchor="middle" x="611" y="-1082.85" font-family="Helvetica,sans-Serif" font-size="9.00" fill="#1565c0">SSE</text>
<text xml:space="preserve" text-anchor="middle" x="611" y="-1073.1" font-family="Helvetica,sans-Serif" font-size="9.00" fill="#1565c0">events</text>
</g>
<!-- reconciler -->
<g id="node6" class="node">
<title>reconciler</title>
<path fill="#a5d6a7" stroke="#2e7d32" d="M756.25,-1010.77C756.25,-1010.77 711.75,-1010.77 711.75,-1010.77 705.75,-1010.77 699.75,-1004.77 699.75,-998.77 699.75,-998.77 699.75,-981.02 699.75,-981.02 699.75,-975.02 705.75,-969.02 711.75,-969.02 711.75,-969.02 756.25,-969.02 756.25,-969.02 762.25,-969.02 768.25,-975.02 768.25,-981.02 768.25,-981.02 768.25,-998.77 768.25,-998.77 768.25,-1004.77 762.25,-1010.77 756.25,-1010.77"/>
<text xml:space="preserve" text-anchor="middle" x="734" y="-997.27" font-family="Helvetica,sans-Serif" font-size="10.00">Reconciler</text>
<text xml:space="preserve" text-anchor="middle" x="734" y="-986.02" font-family="Helvetica,sans-Serif" font-size="10.00">periodic List</text>
<text xml:space="preserve" text-anchor="middle" x="734" y="-974.77" font-family="Helvetica,sans-Serif" font-size="10.00">(every 5m)</text>
</g>
<!-- osac_rest&#45;&gt;reconciler -->
<g id="edge6" class="edge">
<title>osac_rest&#45;&gt;reconciler</title>
<path fill="none" stroke="#1565c0" d="M541.96,-989.9C586.71,-989.9 647.15,-989.9 687.97,-989.9"/>
<polygon fill="#1565c0" stroke="#1565c0" points="687.94,-993.4 697.94,-989.9 687.94,-986.4 687.94,-993.4"/>
<text xml:space="preserve" text-anchor="middle" x="611" y="-1000.85" font-family="Helvetica,sans-Serif" font-size="9.00" fill="#1565c0">List all</text>
<text xml:space="preserve" text-anchor="middle" x="611" y="-991.1" font-family="Helvetica,sans-Serif" font-size="9.00" fill="#1565c0">resources</text>
</g>
<!-- osac_api -->
<g id="node4" class="node">
<title>osac_api</title>
<path fill="#64b5f6" stroke="#1565c0" d="M275.5,-1098.77C275.5,-1098.77 214.5,-1098.77 214.5,-1098.77 208.5,-1098.77 202.5,-1092.77 202.5,-1086.77 202.5,-1086.77 202.5,-1069.02 202.5,-1069.02 202.5,-1063.02 208.5,-1057.02 214.5,-1057.02 214.5,-1057.02 275.5,-1057.02 275.5,-1057.02 281.5,-1057.02 287.5,-1063.02 287.5,-1069.02 287.5,-1069.02 287.5,-1086.77 287.5,-1086.77 287.5,-1092.77 281.5,-1098.77 275.5,-1098.77"/>
<text xml:space="preserve" text-anchor="middle" x="245" y="-1085.27" font-family="Helvetica,sans-Serif" font-size="10.00">OSAC</text>
<text xml:space="preserve" text-anchor="middle" x="245" y="-1074.02" font-family="Helvetica,sans-Serif" font-size="10.00">REST Gateway</text>
<text xml:space="preserve" text-anchor="middle" x="245" y="-1062.77" font-family="Helvetica,sans-Serif" font-size="10.00">:8011</text>
</g>
<!-- osac_api&#45;&gt;osac_watch -->
<g id="edge3" class="edge">
<title>osac_api&#45;&gt;osac_watch</title>
<path fill="none" stroke="#555555" d="M299.35,-1076.53C342.42,-1075.43 402.07,-1073.9 441,-1072.91"/>
<polygon fill="#555555" stroke="#555555" points="299.37,-1073.03 289.46,-1076.78 299.55,-1080.03 299.37,-1073.03"/>
<text xml:space="preserve" text-anchor="middle" x="354.5" y="-1076.81" font-family="Helvetica,sans-Serif" font-size="9.00">SSE stream</text>
</g>
<!-- osac_api&#45;&gt;osac_rest -->
<g id="edge4" class="edge">
<title>osac_api&#45;&gt;osac_rest</title>
<path fill="none" stroke="#555555" d="M298.49,-1058.21C338.21,-1043.31 392.4,-1022.99 431.32,-1008.39"/>
<polygon fill="#555555" stroke="#555555" points="297.5,-1054.84 289.36,-1061.63 299.96,-1061.4 297.5,-1054.84"/>
<text xml:space="preserve" text-anchor="middle" x="354.5" y="-1045.57" font-family="Helvetica,sans-Serif" font-size="9.00">pagination</text>
</g>
<!-- raw_events -->
<g id="node12" class="node">
<title>raw_events</title>
<path fill="#e0e0e0" stroke="#616161" d="M1255.12,-798.05C1255.12,-800.16 1234.73,-801.86 1209.62,-801.86 1184.52,-801.86 1164.12,-800.16 1164.12,-798.05 1164.12,-798.05 1164.12,-763.74 1164.12,-763.74 1164.12,-761.64 1184.52,-759.93 1209.62,-759.93 1234.73,-759.93 1255.12,-761.64 1255.12,-763.74 1255.12,-763.74 1255.12,-798.05 1255.12,-798.05"/>
<path fill="none" stroke="#616161" d="M1255.12,-798.05C1255.12,-795.95 1234.73,-794.24 1209.62,-794.24 1184.52,-794.24 1164.12,-795.95 1164.12,-798.05"/>
<text xml:space="preserve" text-anchor="middle" x="1209.62" y="-782.65" font-family="Helvetica,sans-Serif" font-size="10.00">raw_events</text>
<text xml:space="preserve" text-anchor="middle" x="1209.62" y="-771.4" font-family="Helvetica,sans-Serif" font-size="10.00">(immutable audit)</text>
</g>
<!-- watcher&#45;&gt;raw_events -->
<g id="edge7" class="edge">
<title>watcher&#45;&gt;raw_events</title>
<path fill="none" stroke="#555555" d="M763.73,-1053.56C772.11,-1047.34 780.86,-1039.92 787.75,-1031.9 855.88,-952.58 814.17,-884.86 900,-825.15 975.24,-772.8 1085.97,-770.34 1152.33,-774.68"/>
<polygon fill="#555555" stroke="#555555" points="1152.04,-778.16 1162.27,-775.41 1152.56,-771.18 1152.04,-778.16"/>
<text xml:space="preserve" text-anchor="middle" x="943.62" y="-826.35" font-family="Helvetica,sans-Serif" font-size="9.00">store</text>
</g>
<!-- inventory -->
<g id="node13" class="node">
<title>inventory</title>
<path fill="#e0e0e0" stroke="#616161" d="M1265.25,-609.71C1265.25,-613.36 1240.32,-616.33 1209.62,-616.33 1178.93,-616.33 1154,-613.36 1154,-609.71 1154,-609.71 1154,-550.08 1154,-550.08 1154,-546.43 1178.93,-543.46 1209.62,-543.46 1240.32,-543.46 1265.25,-546.43 1265.25,-550.08 1265.25,-550.08 1265.25,-609.71 1265.25,-609.71"/>
<path fill="none" stroke="#616161" d="M1265.25,-609.71C1265.25,-606.05 1240.32,-603.08 1209.62,-603.08 1178.93,-603.08 1154,-606.05 1154,-609.71"/>
<text xml:space="preserve" text-anchor="middle" x="1209.62" y="-592.9" font-family="Helvetica,sans-Serif" font-size="10.00">inventory_*</text>
<text xml:space="preserve" text-anchor="middle" x="1209.62" y="-581.65" font-family="Helvetica,sans-Serif" font-size="10.00">compute_instance</text>
<text xml:space="preserve" text-anchor="middle" x="1209.62" y="-570.4" font-family="Helvetica,sans-Serif" font-size="10.00">cluster | project</text>
<text xml:space="preserve" text-anchor="middle" x="1209.62" y="-559.15" font-family="Helvetica,sans-Serif" font-size="10.00">instance_type | model</text>
</g>
<!-- watcher&#45;&gt;inventory -->
<g id="edge8" class="edge">
<title>watcher&#45;&gt;inventory</title>
<path fill="none" stroke="#555555" d="M766.4,-1053.52C774.38,-1047.53 782.24,-1040.24 787.75,-1031.9 830.97,-966.53 799.25,-932.65 830.75,-860.9 853.29,-809.54 859.09,-793.77 900,-755.4 972.65,-687.24 1076.56,-635.2 1143.32,-606.08"/>
<polygon fill="#555555" stroke="#555555" points="1144.51,-609.38 1152.31,-602.21 1141.74,-602.95 1144.51,-609.38"/>
<text xml:space="preserve" text-anchor="middle" x="943.62" y="-766.35" font-family="Helvetica,sans-Serif" font-size="9.00">upsert/</text>
<text xml:space="preserve" text-anchor="middle" x="943.62" y="-756.6" font-family="Helvetica,sans-Serif" font-size="9.00">delete</text>
</g>
<!-- reconciler&#45;&gt;inventory -->
<g id="edge9" class="edge">
<title>reconciler&#45;&gt;inventory</title>
<path fill="none" stroke="#555555" d="M768.62,-969.37C776.01,-963.34 783.02,-956.12 787.75,-947.9 853.57,-833.41 756.9,-763.38 830.75,-653.9 897,-555.67 1052.63,-557.98 1142.13,-568.7"/>
<polygon fill="#555555" stroke="#555555" points="1141.64,-572.17 1152.01,-569.96 1142.53,-565.23 1141.64,-572.17"/>
<text xml:space="preserve" text-anchor="middle" x="943.62" y="-605.03" font-family="Helvetica,sans-Serif" font-size="9.00">upsert/</text>
<text xml:space="preserve" text-anchor="middle" x="943.62" y="-595.28" font-family="Helvetica,sans-Serif" font-size="9.00">delete</text>
</g>
<!-- ingest -->
<g id="node7" class="node">
<title>ingest</title>
<path fill="#81c784" stroke="#2e7d32" d="M775.75,-1174.77C775.75,-1174.77 692.25,-1174.77 692.25,-1174.77 686.25,-1174.77 680.25,-1168.77 680.25,-1162.77 680.25,-1162.77 680.25,-1145.02 680.25,-1145.02 680.25,-1139.02 686.25,-1133.02 692.25,-1133.02 692.25,-1133.02 775.75,-1133.02 775.75,-1133.02 781.75,-1133.02 787.75,-1139.02 787.75,-1145.02 787.75,-1145.02 787.75,-1162.77 787.75,-1162.77 787.75,-1168.77 781.75,-1174.77 775.75,-1174.77"/>
<text xml:space="preserve" text-anchor="middle" x="734" y="-1161.27" font-family="Helvetica,sans-Serif" font-size="10.00">Ingest API</text>
<text xml:space="preserve" text-anchor="middle" x="734" y="-1150.02" font-family="Helvetica,sans-Serif" font-size="10.00">POST /api/v1/events</text>
<text xml:space="preserve" text-anchor="middle" x="734" y="-1138.77" font-family="Helvetica,sans-Serif" font-size="10.00">(CloudEvents)</text>
</g>
<!-- ingest&#45;&gt;raw_events -->
<g id="edge10" class="edge">
<title>ingest&#45;&gt;raw_events</title>
<path fill="none" stroke="#555555" d="M771.78,-1132.71C789.21,-1123.39 810.58,-1112.99 830.75,-1105.9 934.64,-1069.37 986.05,-1121.46 1073,-1053.9 1152.56,-992.07 1188.79,-871.22 1202.14,-813.32"/>
<polygon fill="#555555" stroke="#555555" points="1205.51,-814.29 1204.26,-803.77 1198.68,-812.78 1205.51,-814.29"/>
<text xml:space="preserve" text-anchor="middle" x="943.62" y="-1092.98" font-family="Helvetica,sans-Serif" font-size="9.00">store</text>
</g>
<!-- ingest&#45;&gt;inventory -->
<g id="edge12" class="edge">
<title>ingest&#45;&gt;inventory</title>
<path fill="none" stroke="#555555" d="M762.82,-1132.63C771,-1126.14 779.86,-1118.88 787.75,-1111.9 884.58,-1026.17 906.27,-1001.75 995.25,-907.9 1004.23,-898.43 1067.24,-831.6 1073,-819.9 1109.33,-745.97 1060.21,-704.99 1108,-637.9 1117.13,-625.08 1130.05,-614.68 1143.6,-606.43"/>
<polygon fill="#555555" stroke="#555555" points="1145.24,-609.52 1152.21,-601.54 1141.78,-603.43 1145.24,-609.52"/>
<text xml:space="preserve" text-anchor="middle" x="943.62" y="-1008.41" font-family="Helvetica,sans-Serif" font-size="9.00">upsert</text>
</g>
<!-- metering -->
<g id="node14" class="node">
<title>metering</title>
<path fill="#e0e0e0" stroke="#616161" d="M1273.88,-394.05C1273.88,-396.16 1245.08,-397.86 1209.62,-397.86 1174.17,-397.86 1145.38,-396.16 1145.38,-394.05 1145.38,-394.05 1145.38,-359.74 1145.38,-359.74 1145.38,-357.64 1174.17,-355.93 1209.62,-355.93 1245.08,-355.93 1273.88,-357.64 1273.88,-359.74 1273.88,-359.74 1273.88,-394.05 1273.88,-394.05"/>
<path fill="none" stroke="#616161" d="M1273.88,-394.05C1273.88,-391.95 1245.08,-390.24 1209.62,-390.24 1174.17,-390.24 1145.38,-391.95 1145.38,-394.05"/>
<text xml:space="preserve" text-anchor="middle" x="1209.62" y="-378.65" font-family="Helvetica,sans-Serif" font-size="10.00">metering_entries</text>
<text xml:space="preserve" text-anchor="middle" x="1209.62" y="-367.4" font-family="Helvetica,sans-Serif" font-size="10.00">resource × meter × period</text>
</g>
<!-- ingest&#45;&gt;metering -->
<g id="edge11" class="edge">
<title>ingest&#45;&gt;metering</title>
<path fill="none" stroke="#555555" d="M766.32,-1132.61C773.93,-1126.51 781.63,-1119.44 787.75,-1111.9 857.85,-1025.5 821.15,-966.64 900,-888.15 933.49,-854.81 965.32,-877.46 995.25,-840.9 1117.95,-691.01 981.1,-566.25 1108,-419.9 1115.37,-411.39 1124.72,-404.52 1134.74,-398.98"/>
<polygon fill="#555555" stroke="#555555" points="1136.21,-402.16 1143.58,-394.55 1133.07,-395.9 1136.21,-402.16"/>
<text xml:space="preserve" text-anchor="middle" x="943.62" y="-889.35" font-family="Helvetica,sans-Serif" font-size="9.00">insert</text>
</g>
<!-- meter_sweep -->
<g id="node8" class="node">
<title>meter_sweep</title>
<path fill="#a5d6a7" stroke="#2e7d32" d="M765.25,-846.9C765.25,-846.9 702.75,-846.9 702.75,-846.9 696.75,-846.9 690.75,-840.9 690.75,-834.9 690.75,-834.9 690.75,-822.9 690.75,-822.9 690.75,-816.9 696.75,-810.9 702.75,-810.9 702.75,-810.9 765.25,-810.9 765.25,-810.9 771.25,-810.9 777.25,-816.9 777.25,-822.9 777.25,-822.9 777.25,-834.9 777.25,-834.9 777.25,-840.9 771.25,-846.9 765.25,-846.9"/>
<text xml:space="preserve" text-anchor="middle" x="734" y="-830.65" font-family="Helvetica,sans-Serif" font-size="10.00">Metering Sweep</text>
<text xml:space="preserve" text-anchor="middle" x="734" y="-819.4" font-family="Helvetica,sans-Serif" font-size="10.00">(every 60s)</text>
</g>
<!-- meter_sweep&#45;&gt;inventory -->
<g id="edge13" class="edge">
<title>meter_sweep&#45;&gt;inventory</title>
<path fill="none" stroke="#555555" d="M776.51,-803.31C780.81,-799.27 784.71,-794.79 787.75,-789.9 902.14,-605.84 726.49,-445.23 900,-315.4 933.89,-290.03 958.84,-293.79 995.25,-315.4 1085.18,-368.75 1034.92,-447.11 1108,-521.9 1120.96,-535.16 1137.61,-546.39 1153.61,-555.32"/>
<polygon fill="#555555" stroke="#555555" points="774.46,-800.46 769.04,-809.56 778.95,-805.83 774.46,-800.46"/>
<text xml:space="preserve" text-anchor="middle" x="943.62" y="-326.35" font-family="Helvetica,sans-Serif" font-size="9.00">read</text>
<text xml:space="preserve" text-anchor="middle" x="943.62" y="-316.6" font-family="Helvetica,sans-Serif" font-size="9.00">billable</text>
</g>
<!-- meter_sweep&#45;&gt;metering -->
<g id="edge14" class="edge">
<title>meter_sweep&#45;&gt;metering</title>
<path fill="none" stroke="#555555" d="M768.6,-810.6C776.08,-804.94 783.14,-798.02 787.75,-789.9 904.69,-583.65 684.82,-367.93 900,-268.4 987.97,-227.71 1021.37,-290.43 1108,-333.9 1120.46,-340.15 1134.05,-346.35 1147.09,-352.01"/>
<polygon fill="#555555" stroke="#555555" points="1145.44,-355.11 1156.01,-355.84 1148.19,-348.68 1145.44,-355.11"/>
<text xml:space="preserve" text-anchor="middle" x="943.62" y="-279.35" font-family="Helvetica,sans-Serif" font-size="9.00">insert</text>
<text xml:space="preserve" text-anchor="middle" x="943.62" y="-269.6" font-family="Helvetica,sans-Serif" font-size="9.00">entries</text>
</g>
<!-- rating_sweep -->
<g id="node9" class="node">
<title>rating_sweep</title>
<path fill="#a5d6a7" stroke="#2e7d32" d="M760.75,-767.9C760.75,-767.9 707.25,-767.9 707.25,-767.9 701.25,-767.9 695.25,-761.9 695.25,-755.9 695.25,-755.9 695.25,-743.9 695.25,-743.9 695.25,-737.9 701.25,-731.9 707.25,-731.9 707.25,-731.9 760.75,-731.9 760.75,-731.9 766.75,-731.9 772.75,-737.9 772.75,-743.9 772.75,-743.9 772.75,-755.9 772.75,-755.9 772.75,-761.9 766.75,-767.9 760.75,-767.9"/>
<text xml:space="preserve" text-anchor="middle" x="734" y="-751.65" font-family="Helvetica,sans-Serif" font-size="10.00">Rating Sweep</text>
<text xml:space="preserve" text-anchor="middle" x="734" y="-740.4" font-family="Helvetica,sans-Serif" font-size="10.00">(every 30s)</text>
</g>
<!-- alert_eval -->
<g id="node11" class="node">
<title>alert_eval</title>
<path fill="#a5d6a7" stroke="#2e7d32" d="M975.25,-1174.77C975.25,-1174.77 912,-1174.77 912,-1174.77 906,-1174.77 900,-1168.77 900,-1162.77 900,-1162.77 900,-1145.02 900,-1145.02 900,-1139.02 906,-1133.02 912,-1133.02 912,-1133.02 975.25,-1133.02 975.25,-1133.02 981.25,-1133.02 987.25,-1139.02 987.25,-1145.02 987.25,-1145.02 987.25,-1162.77 987.25,-1162.77 987.25,-1168.77 981.25,-1174.77 975.25,-1174.77"/>
<text xml:space="preserve" text-anchor="middle" x="943.62" y="-1161.27" font-family="Helvetica,sans-Serif" font-size="10.00">Threshold</text>
<text xml:space="preserve" text-anchor="middle" x="943.62" y="-1150.02" font-family="Helvetica,sans-Serif" font-size="10.00">Evaluation</text>
<text xml:space="preserve" text-anchor="middle" x="943.62" y="-1138.77" font-family="Helvetica,sans-Serif" font-size="10.00">(50/70/90/100%)</text>
</g>
<!-- rating_sweep&#45;&gt;alert_eval -->
<g id="edge18" class="edge">
<title>rating_sweep&#45;&gt;alert_eval</title>
<path fill="none" stroke="#555555" d="M765.31,-768.24C773.46,-774.31 781.68,-781.66 787.75,-789.9 874.64,-907.89 828.75,-971.85 900,-1099.9 904.63,-1108.22 910.52,-1116.6 916.43,-1124.2"/>
<polygon fill="#555555" stroke="#555555" points="913.34,-1125.94 922.34,-1131.52 918.78,-1121.54 913.34,-1125.94"/>
<text xml:space="preserve" text-anchor="middle" x="843.88" y="-982.21" font-family="Helvetica,sans-Serif" font-size="9.00">trigger</text>
</g>
<!-- rating_sweep&#45;&gt;metering -->
<g id="edge15" class="edge">
<title>rating_sweep&#45;&gt;metering</title>
<path fill="none" stroke="#555555" d="M736.51,-720.23C743.61,-595.42 778.58,-116.24 900,-48.4 976.67,-5.56 1036.17,-64.16 1073,-143.9 1109.01,-221.85 1054.37,-266.84 1108,-333.9 1117.55,-345.84 1131.05,-354.52 1145.06,-360.82"/>
<polygon fill="#555555" stroke="#555555" points="733.03,-719.8 735.97,-729.98 740.02,-720.19 733.03,-719.8"/>
<text xml:space="preserve" text-anchor="middle" x="943.62" y="-59.35" font-family="Helvetica,sans-Serif" font-size="9.00">read</text>
<text xml:space="preserve" text-anchor="middle" x="943.62" y="-49.6" font-family="Helvetica,sans-Serif" font-size="9.00">unrated</text>
</g>
<!-- costs -->
<g id="node15" class="node">
<title>costs</title>
<path fill="#e0e0e0" stroke="#616161" d="M1263.75,-495.22C1263.75,-498.21 1239.49,-500.63 1209.62,-500.63 1179.76,-500.63 1155.5,-498.21 1155.5,-495.22 1155.5,-495.22 1155.5,-446.57 1155.5,-446.57 1155.5,-443.58 1179.76,-441.16 1209.62,-441.16 1239.49,-441.16 1263.75,-443.58 1263.75,-446.57 1263.75,-446.57 1263.75,-495.22 1263.75,-495.22"/>
<path fill="none" stroke="#616161" d="M1263.75,-495.22C1263.75,-492.24 1239.49,-489.82 1209.62,-489.82 1179.76,-489.82 1155.5,-492.24 1155.5,-495.22"/>
<text xml:space="preserve" text-anchor="middle" x="1209.62" y="-479.02" font-family="Helvetica,sans-Serif" font-size="10.00">cost_entries</text>
<text xml:space="preserve" text-anchor="middle" x="1209.62" y="-467.77" font-family="Helvetica,sans-Serif" font-size="10.00">metered_value × rate</text>
<text xml:space="preserve" text-anchor="middle" x="1209.62" y="-456.52" font-family="Helvetica,sans-Serif" font-size="10.00">→ cost_amount</text>
</g>
<!-- rating_sweep&#45;&gt;costs -->
<g id="edge17" class="edge">
<title>rating_sweep&#45;&gt;costs</title>
<path fill="none" stroke="#555555" d="M736.75,-731.51C746.33,-635.3 795.82,-191.22 900,-113.15 1104.05,39.77 1041.06,-343.12 1108,-418.9 1118.16,-430.4 1131.48,-439.72 1145.09,-447.12"/>
<polygon fill="#555555" stroke="#555555" points="1143.16,-450.07 1153.66,-451.49 1146.34,-443.83 1143.16,-450.07"/>
<text xml:space="preserve" text-anchor="middle" x="943.62" y="-114.35" font-family="Helvetica,sans-Serif" font-size="9.00">insert</text>
</g>
<!-- rates -->
<g id="node16" class="node">
<title>rates</title>
<path fill="#e0e0e0" stroke="#616161" d="M1260.75,-307.38C1260.75,-310.26 1237.83,-312.6 1209.62,-312.6 1181.42,-312.6 1158.5,-310.26 1158.5,-307.38 1158.5,-307.38 1158.5,-260.41 1158.5,-260.41 1158.5,-257.53 1181.42,-255.19 1209.62,-255.19 1237.83,-255.19 1260.75,-257.53 1260.75,-260.41 1260.75,-260.41 1260.75,-307.38 1260.75,-307.38"/>
<path fill="none" stroke="#616161" d="M1260.75,-307.38C1260.75,-304.5 1237.83,-302.16 1209.62,-302.16 1181.42,-302.16 1158.5,-304.5 1158.5,-307.38"/>
<text xml:space="preserve" text-anchor="middle" x="1209.62" y="-291.27" font-family="Helvetica,sans-Serif" font-size="10.00">rates</text>
<text xml:space="preserve" text-anchor="middle" x="1209.62" y="-280.02" font-family="Helvetica,sans-Serif" font-size="10.00">flat + tiered pricing</text>
<text xml:space="preserve" text-anchor="middle" x="1209.62" y="-268.77" font-family="Helvetica,sans-Serif" font-size="10.00">per&#45;tenant overrides</text>
</g>
<!-- rating_sweep&#45;&gt;rates -->
<g id="edge16" class="edge">
<title>rating_sweep&#45;&gt;rates</title>
<path fill="none" stroke="#555555" d="M736.94,-720.42C744.72,-607.6 775.91,-203.73 830.75,-88.9 850.27,-48.03 858.5,-32.27 900,-14.15 973.55,17.98 1017.13,-8.28 1073,-65.9 1129.63,-124.29 1174.44,-210.22 1195.51,-254.75"/>
<polygon fill="#555555" stroke="#555555" points="733.47,-719.84 736.29,-730.06 740.45,-720.32 733.47,-719.84"/>
<text xml:space="preserve" text-anchor="middle" x="943.62" y="-15.35" font-family="Helvetica,sans-Serif" font-size="9.00">FindRate()</text>
</g>
<!-- quota_api -->
<g id="node10" class="node">
<title>quota_api</title>
<path fill="#81c784" stroke="#2e7d32" d="M775.75,-925.9C775.75,-925.9 692.25,-925.9 692.25,-925.9 686.25,-925.9 680.25,-919.9 680.25,-913.9 680.25,-913.9 680.25,-901.9 680.25,-901.9 680.25,-895.9 686.25,-889.9 692.25,-889.9 692.25,-889.9 775.75,-889.9 775.75,-889.9 781.75,-889.9 787.75,-895.9 787.75,-901.9 787.75,-901.9 787.75,-913.9 787.75,-913.9 787.75,-919.9 781.75,-925.9 775.75,-925.9"/>
<text xml:space="preserve" text-anchor="middle" x="734" y="-909.65" font-family="Helvetica,sans-Serif" font-size="10.00">Quota API</text>
<text xml:space="preserve" text-anchor="middle" x="734" y="-898.4" font-family="Helvetica,sans-Serif" font-size="10.00">GET /quotas/{tenant}</text>
</g>
<!-- quota_api&#45;&gt;costs -->
<g id="edge22" class="edge">
<title>quota_api&#45;&gt;costs</title>
<path fill="none" stroke="#555555" d="M776.87,-882.29C781.08,-878.26 784.85,-873.79 787.75,-868.9 879.11,-714.49 735.54,-552.84 900,-481.15 983.3,-444.83 1091.59,-452.11 1155.26,-461.18"/>
<polygon fill="#555555" stroke="#555555" points="774.91,-879.36 769.54,-888.5 779.44,-884.71 774.91,-879.36"/>
<text xml:space="preserve" text-anchor="middle" x="943.62" y="-482.35" font-family="Helvetica,sans-Serif" font-size="9.00">sum</text>
</g>
<!-- quotas -->
<g id="node17" class="node">
<title>quotas</title>
<path fill="#e0e0e0" stroke="#616161" d="M1256.25,-711.38C1256.25,-714.26 1235.35,-716.6 1209.62,-716.6 1183.9,-716.6 1163,-714.26 1163,-711.38 1163,-711.38 1163,-664.41 1163,-664.41 1163,-661.53 1183.9,-659.19 1209.62,-659.19 1235.35,-659.19 1256.25,-661.53 1256.25,-664.41 1256.25,-664.41 1256.25,-711.38 1256.25,-711.38"/>
<path fill="none" stroke="#616161" d="M1256.25,-711.38C1256.25,-708.5 1235.35,-706.16 1209.62,-706.16 1183.9,-706.16 1163,-708.5 1163,-711.38"/>
<text xml:space="preserve" text-anchor="middle" x="1209.62" y="-695.27" font-family="Helvetica,sans-Serif" font-size="10.00">quotas + alerts</text>
<text xml:space="preserve" text-anchor="middle" x="1209.62" y="-684.02" font-family="Helvetica,sans-Serif" font-size="10.00">per&#45;tenant limits</text>
<text xml:space="preserve" text-anchor="middle" x="1209.62" y="-672.77" font-family="Helvetica,sans-Serif" font-size="10.00">threshold tracking</text>
</g>
<!-- quota_api&#45;&gt;quotas -->
<g id="edge21" class="edge">
<title>quota_api&#45;&gt;quotas</title>
<path fill="none" stroke="#555555" d="M775.24,-882.5C779.89,-878.37 784.23,-873.81 787.75,-868.9 883.3,-735.48 767.49,-613.95 900,-517.15 934.18,-492.17 956.42,-500.28 995.25,-517.15 1062.59,-546.4 1049.12,-594.02 1108,-637.9 1124.58,-650.25 1144.68,-660.95 1162.55,-669.24"/>
<polygon fill="#555555" stroke="#555555" points="773.37,-879.51 767.8,-888.52 777.77,-884.96 773.37,-879.51"/>
<text xml:space="preserve" text-anchor="middle" x="943.62" y="-518.35" font-family="Helvetica,sans-Serif" font-size="9.00">read</text>
</g>
<!-- alert_eval&#45;&gt;costs -->
<g id="edge20" class="edge">
<title>alert_eval&#45;&gt;costs</title>
<path fill="none" stroke="#555555" d="M977.38,-1124.35C984.1,-1116.93 990.54,-1108.59 995.25,-1099.9 1026.5,-1042.16 1012.02,-1019.46 1030.25,-956.4 1046.85,-898.98 1060.04,-887.24 1073,-828.9 1087.89,-761.86 1068.8,-578.27 1108,-521.9 1119.29,-505.65 1137.34,-494.29 1155.05,-486.48"/>
<polygon fill="#555555" stroke="#555555" points="974.91,-1121.87 970.51,-1131.51 979.96,-1126.72 974.91,-1121.87"/>
<text xml:space="preserve" text-anchor="middle" x="1051.62" y="-967.35" font-family="Helvetica,sans-Serif" font-size="9.00">sum</text>
<text xml:space="preserve" text-anchor="middle" x="1051.62" y="-957.6" font-family="Helvetica,sans-Serif" font-size="9.00">consumed</text>
</g>
<!-- alert_eval&#45;&gt;quotas -->
<g id="edge19" class="edge">
<title>alert_eval&#45;&gt;quotas</title>
<path fill="none" stroke="#555555" d="M967.56,-1132.58C997.73,-1102.95 1049.66,-1046.14 1073,-985.9 1113.06,-882.51 1043.47,-829.05 1108,-738.9 1118.86,-723.73 1135.56,-712.79 1152.26,-705.03"/>
<polygon fill="#555555" stroke="#555555" points="1153.4,-708.35 1161.21,-701.19 1150.64,-701.91 1153.4,-708.35"/>
<text xml:space="preserve" text-anchor="middle" x="1051.62" y="-1071.77" font-family="Helvetica,sans-Serif" font-size="9.00">check</text>
<text xml:space="preserve" text-anchor="middle" x="1051.62" y="-1062.02" font-family="Helvetica,sans-Serif" font-size="9.00">thresholds</text>
</g>
<!-- maas_sim -->
<g id="node18" class="node">
<title>maas_sim</title>
<polygon fill="#fff9c4" stroke="#f57f17" stroke-dasharray="5,2" points="534.25,-1171.9 429,-1171.9 429,-1135.9 534.25,-1135.9 534.25,-1171.9"/>
<text xml:space="preserve" text-anchor="middle" x="481.62" y="-1155.65" font-family="Helvetica,sans-Serif" font-size="10.00">MaaS Simulator</text>
<text xml:space="preserve" text-anchor="middle" x="481.62" y="-1144.4" font-family="Helvetica,sans-Serif" font-size="10.00">(mock CloudEvents)</text>
</g>
<!-- maas_sim&#45;&gt;ingest -->
<g id="edge23" class="edge">
<title>maas_sim&#45;&gt;ingest</title>
<path fill="none" stroke="#f57f17" d="M534.5,-1153.9C573.39,-1153.9 626.84,-1153.9 668.48,-1153.9"/>
<polygon fill="#f57f17" stroke="#f57f17" points="668.38,-1157.4 678.38,-1153.9 668.38,-1150.4 668.38,-1157.4"/>
<text xml:space="preserve" text-anchor="middle" x="611" y="-1164.85" font-family="Helvetica,sans-Serif" font-size="9.00" fill="#f57f17">POST</text>
<text xml:space="preserve" text-anchor="middle" x="611" y="-1155.1" font-family="Helvetica,sans-Serif" font-size="9.00" fill="#f57f17">CloudEvents</text>
</g>
<!-- user -->
<g id="node19" class="node">
<title>user</title>
<path fill="#e1f5fe" stroke="#0277bd" d="M51.25,-959.9C51.25,-959.9 12,-959.9 12,-959.9 6,-959.9 0,-953.9 0,-947.9 0,-947.9 0,-935.9 0,-935.9 0,-929.9 6,-923.9 12,-923.9 12,-923.9 51.25,-923.9 51.25,-923.9 57.25,-923.9 63.25,-929.9 63.25,-935.9 63.25,-935.9 63.25,-947.9 63.25,-947.9 63.25,-953.9 57.25,-959.9 51.25,-959.9"/>
<text xml:space="preserve" text-anchor="middle" x="31.62" y="-943.65" font-family="Helvetica,sans-Serif" font-size="10.00">OSAC /</text>
<text xml:space="preserve" text-anchor="middle" x="31.62" y="-932.4" font-family="Helvetica,sans-Serif" font-size="10.00">Dashboard</text>
</g>
<!-- user&#45;&gt;osac_api -->
<g id="edge25" class="edge">
<title>user&#45;&gt;osac_api</title>
<path fill="none" stroke="#0277bd" d="M61.13,-960.24C97.23,-983.46 159.73,-1023.68 201.48,-1050.54"/>
<polygon fill="#0277bd" stroke="#0277bd" points="199.52,-1053.44 209.82,-1055.9 203.3,-1047.55 199.52,-1053.44"/>
<text xml:space="preserve" text-anchor="middle" x="132.88" y="-1033.03" font-family="Helvetica,sans-Serif" font-size="9.00" fill="#0277bd">create/delete</text>
<text xml:space="preserve" text-anchor="middle" x="132.88" y="-1023.28" font-family="Helvetica,sans-Serif" font-size="9.00" fill="#0277bd">resources</text>
</g>
<!-- user&#45;&gt;quota_api -->
<g id="edge24" class="edge">
<title>user&#45;&gt;quota_api</title>
<path fill="none" stroke="#0277bd" d="M63.62,-940.39C170.08,-935.22 522.2,-918.13 668.44,-911.03"/>
<polygon fill="#0277bd" stroke="#0277bd" points="668.53,-914.53 678.35,-910.55 668.19,-907.54 668.53,-914.53"/>
<text xml:space="preserve" text-anchor="middle" x="354.5" y="-928.44" font-family="Helvetica,sans-Serif" font-size="9.00" fill="#0277bd">GET</text>
</g>
</g>
</svg>
