<?xml version="1.0" encoding="UTF-8" standalone="no"?>
<!DOCTYPE svg PUBLIC "-//W3C//DTD SVG 1.1//EN"
 "http://www.w3.org/Graphics/SVG/1.1/DTD/svg11.dtd">
<!-- Generated by graphviz version 15.0.0 (20260523.1842)
 -->
<!-- Title: architecture_production Pages: 1 -->
<svg width="1140pt" height="912pt"
 viewBox="0.00 0.00 1140.00 912.00" xmlns="http://www.w3.org/2000/svg" xmlns:xlink="http://www.w3.org/1999/xlink">
<g id="graph0" class="graph" transform="scale(1 1) rotate(0) translate(36 876)">
<title>architecture_production</title>
<polygon fill="white" stroke="none" points="-36,36 -36,-876 1103.62,-876 1103.62,36 -36,36"/>
<text xml:space="preserve" text-anchor="middle" x="533.81" y="-822.7" font-family="Helvetica,sans-Serif" font-size="14.00">Cost Event Consumer — Production Target</text>
<g id="clust1" class="cluster">
<title>cluster_osac</title>
<polygon fill="#e3f2fd" stroke="#1565c0" points="214.88,-259 214.88,-597 367.38,-597 367.38,-259 214.88,-259"/>
<text xml:space="preserve" text-anchor="middle" x="291.12" y="-581.6" font-family="Helvetica,sans-Serif" font-size="12.00" fill="#1565c0">OSAC Fulfillment Service</text>
</g>
<g id="clust2" class="cluster">
<title>cluster_kafka</title>
<polygon fill="#fff3e0" stroke="#e65100" stroke-dasharray="5,2" points="474.75,-8 474.75,-81 616,-81 616,-8 474.75,-8"/>
<text xml:space="preserve" text-anchor="middle" x="545.38" y="-65.6" font-family="Helvetica,sans-Serif" font-size="12.00" fill="#e65100">Event Transport (Kafka)</text>
</g>
<g id="clust3" class="cluster">
<title>cluster_consumer</title>
<polygon fill="#e8f5e9" stroke="#2e7d32" points="483.12,-89 483.12,-767 819.62,-767 819.62,-89 483.12,-89"/>
<text xml:space="preserve" text-anchor="middle" x="651.38" y="-751.6" font-family="Helvetica,sans-Serif" font-size="12.00" fill="#2e7d32">Cost Event Consumer (Go)</text>
</g>
<g id="clust4" class="cluster">
<title>cluster_db</title>
<polygon fill="#f5f5f5" stroke="#616161" points="933.12,-239 933.12,-618 1059.62,-618 1059.62,-239 933.12,-239"/>
<text xml:space="preserve" text-anchor="middle" x="996.38" y="-602.6" font-family="Helvetica,sans-Serif" font-size="12.00" fill="#616161">Cost Database</text>
</g>
<g id="clust5" class="cluster">
<title>cluster_legend</title>
<polygon fill="white" stroke="#bdbdbd" points="8,-650 8,-721 325.62,-721 325.62,-650 8,-650"/>
<text xml:space="preserve" text-anchor="middle" x="166.81" y="-707.5" font-family="Helvetica,sans-Serif" font-size="10.00">Legend</text>
</g>
<!-- osac_private -->
<g id="node1" class="node">
<title>osac_private</title>
<path fill="#64b5f6" stroke="#1565c0" d="M334.62,-567.88C334.62,-567.88 246.62,-567.88 246.62,-567.88 240.62,-567.88 234.62,-561.88 234.62,-555.88 234.62,-555.88 234.62,-538.12 234.62,-538.12 234.62,-532.12 240.62,-526.12 246.62,-526.12 246.62,-526.12 334.62,-526.12 334.62,-526.12 340.62,-526.12 346.62,-532.12 346.62,-538.12 346.62,-538.12 346.62,-555.88 346.62,-555.88 346.62,-561.88 340.62,-567.88 334.62,-567.88"/>
<text xml:space="preserve" text-anchor="middle" x="290.62" y="-554.38" font-family="Helvetica,sans-Serif" font-size="10.00">Private Watch Stream</text>
<text xml:space="preserve" text-anchor="middle" x="290.62" y="-543.12" font-family="Helvetica,sans-Serif" font-size="10.00">28 entity types</text>
<text xml:space="preserve" text-anchor="middle" x="290.62" y="-531.88" font-family="Helvetica,sans-Serif" font-size="10.00">+ SIGNALED events</text>
</g>
<!-- watcher -->
<g id="node6" class="node">
<title>watcher</title>
<path fill="#a5d6a7" stroke="#2e7d32" d="M586.25,-737.88C586.25,-737.88 503.5,-737.88 503.5,-737.88 497.5,-737.88 491.5,-731.88 491.5,-725.88 491.5,-725.88 491.5,-708.12 491.5,-708.12 491.5,-702.12 497.5,-696.12 503.5,-696.12 503.5,-696.12 586.25,-696.12 586.25,-696.12 592.25,-696.12 598.25,-702.12 598.25,-708.12 598.25,-708.12 598.25,-725.88 598.25,-725.88 598.25,-731.88 592.25,-737.88 586.25,-737.88"/>
<text xml:space="preserve" text-anchor="middle" x="544.88" y="-724.38" font-family="Helvetica,sans-Serif" font-size="10.00">Watcher</text>
<text xml:space="preserve" text-anchor="middle" x="544.88" y="-713.12" font-family="Helvetica,sans-Serif" font-size="10.00">real&#45;time events</text>
<text xml:space="preserve" text-anchor="middle" x="544.88" y="-701.88" font-family="Helvetica,sans-Serif" font-size="10.00">(inventory sync only)</text>
</g>
<!-- osac_private&#45;&gt;watcher -->
<g id="edge1" class="edge">
<title>osac_private&#45;&gt;watcher</title>
<path fill="none" stroke="#1565c0" d="M321.45,-568.36C357.43,-593.98 419.95,-637.98 474.75,-674 482.56,-679.13 490.95,-684.48 499.09,-689.59"/>
<polygon fill="#1565c0" stroke="#1565c0" points="497.23,-692.56 507.56,-694.88 500.93,-686.62 497.23,-692.56"/>
<text xml:space="preserve" text-anchor="middle" x="418.88" y="-664.74" font-family="Helvetica,sans-Serif" font-size="9.00" fill="#1565c0">SSE</text>
<text xml:space="preserve" text-anchor="middle" x="418.88" y="-654.99" font-family="Helvetica,sans-Serif" font-size="9.00" fill="#1565c0">28 entities</text>
</g>
<!-- osac_rest -->
<g id="node2" class="node">
<title>osac_rest</title>
<path fill="#90caf9" stroke="#1565c0" d="M321.5,-483.5C321.5,-483.5 259.75,-483.5 259.75,-483.5 253.75,-483.5 247.75,-477.5 247.75,-471.5 247.75,-471.5 247.75,-442.5 247.75,-442.5 247.75,-436.5 253.75,-430.5 259.75,-430.5 259.75,-430.5 321.5,-430.5 321.5,-430.5 327.5,-430.5 333.5,-436.5 333.5,-442.5 333.5,-442.5 333.5,-471.5 333.5,-471.5 333.5,-477.5 327.5,-483.5 321.5,-483.5"/>
<text xml:space="preserve" text-anchor="middle" x="290.62" y="-470" font-family="Helvetica,sans-Serif" font-size="10.00">REST List APIs</text>
<text xml:space="preserve" text-anchor="middle" x="290.62" y="-458.75" font-family="Helvetica,sans-Serif" font-size="10.00">catalog items</text>
<text xml:space="preserve" text-anchor="middle" x="290.62" y="-447.5" font-family="Helvetica,sans-Serif" font-size="10.00">bare metal</text>
<text xml:space="preserve" text-anchor="middle" x="290.62" y="-436.25" font-family="Helvetica,sans-Serif" font-size="10.00">all entities</text>
</g>
<!-- reconciler -->
<g id="node7" class="node">
<title>reconciler</title>
<path fill="#a5d6a7" stroke="#2e7d32" d="M570.12,-568.5C570.12,-568.5 519.62,-568.5 519.62,-568.5 513.62,-568.5 507.62,-562.5 507.62,-556.5 507.62,-556.5 507.62,-527.5 507.62,-527.5 507.62,-521.5 513.62,-515.5 519.62,-515.5 519.62,-515.5 570.12,-515.5 570.12,-515.5 576.12,-515.5 582.12,-521.5 582.12,-527.5 582.12,-527.5 582.12,-556.5 582.12,-556.5 582.12,-562.5 576.12,-568.5 570.12,-568.5"/>
<text xml:space="preserve" text-anchor="middle" x="544.88" y="-555" font-family="Helvetica,sans-Serif" font-size="10.00">Reconciler</text>
<text xml:space="preserve" text-anchor="middle" x="544.88" y="-543.75" font-family="Helvetica,sans-Serif" font-size="10.00">all entities +</text>
<text xml:space="preserve" text-anchor="middle" x="544.88" y="-532.5" font-family="Helvetica,sans-Serif" font-size="10.00">catalog items</text>
<text xml:space="preserve" text-anchor="middle" x="544.88" y="-521.25" font-family="Helvetica,sans-Serif" font-size="10.00">bare metal</text>
</g>
<!-- osac_rest&#45;&gt;reconciler -->
<g id="edge2" class="edge">
<title>osac_rest&#45;&gt;reconciler</title>
<path fill="none" stroke="#1565c0" d="M333.85,-471.23C378.77,-486.37 449.69,-510.26 496.5,-526.03"/>
<polygon fill="#1565c0" stroke="#1565c0" points="495.23,-529.3 505.83,-529.18 497.47,-522.67 495.23,-529.3"/>
<text xml:space="preserve" text-anchor="middle" x="418.88" y="-520.56" font-family="Helvetica,sans-Serif" font-size="9.00" fill="#1565c0">List all +</text>
<text xml:space="preserve" text-anchor="middle" x="418.88" y="-510.81" font-family="Helvetica,sans-Serif" font-size="9.00" fill="#1565c0">catalog items</text>
</g>
<!-- osac_collector -->
<g id="node3" class="node">
<title>osac_collector</title>
<path fill="#64b5f6" stroke="#1565c0" d="M321.12,-387.88C321.12,-387.88 260.12,-387.88 260.12,-387.88 254.12,-387.88 248.12,-381.88 248.12,-375.88 248.12,-375.88 248.12,-358.12 248.12,-358.12 248.12,-352.12 254.12,-346.12 260.12,-346.12 260.12,-346.12 321.12,-346.12 321.12,-346.12 327.12,-346.12 333.12,-352.12 333.12,-358.12 333.12,-358.12 333.12,-375.88 333.12,-375.88 333.12,-381.88 327.12,-387.88 321.12,-387.88"/>
<text xml:space="preserve" text-anchor="middle" x="290.62" y="-374.38" font-family="Helvetica,sans-Serif" font-size="10.00">OSAC Metering</text>
<text xml:space="preserve" text-anchor="middle" x="290.62" y="-363.12" font-family="Helvetica,sans-Serif" font-size="10.00">Collector</text>
<text xml:space="preserve" text-anchor="middle" x="290.62" y="-351.88" font-family="Helvetica,sans-Serif" font-size="10.00">(heartbeats)</text>
</g>
<!-- kafka_topic -->
<g id="node5" class="node">
<title>kafka_topic</title>
<path fill="#ffe0b2" stroke="#e65100" d="M582.12,-52C582.12,-52 507.62,-52 507.62,-52 501.62,-52 495.62,-46 495.62,-40 495.62,-40 495.62,-28 495.62,-28 495.62,-22 501.62,-16 507.62,-16 507.62,-16 582.12,-16 582.12,-16 588.12,-16 594.12,-22 594.12,-28 594.12,-28 594.12,-40 594.12,-40 594.12,-46 588.12,-52 582.12,-52"/>
<text xml:space="preserve" text-anchor="middle" x="544.88" y="-35.75" font-family="Helvetica,sans-Serif" font-size="10.00">CloudEvents Topic</text>
<text xml:space="preserve" text-anchor="middle" x="544.88" y="-24.5" font-family="Helvetica,sans-Serif" font-size="10.00">osac.events.*</text>
</g>
<!-- osac_collector&#45;&gt;kafka_topic -->
<g id="edge3" class="edge">
<title>osac_collector&#45;&gt;kafka_topic</title>
<path fill="none" stroke="#e65100" d="M333.6,-352.55C346.42,-346.09 359.26,-337.12 367.38,-325 415.28,-253.43 343.97,-205.53 389.62,-132.5 411.68,-97.22 451.54,-72.26 485.21,-56.29"/>
<polygon fill="#e65100" stroke="#e65100" points="486.41,-59.59 494.06,-52.25 483.51,-53.22 486.41,-59.59"/>
<text xml:space="preserve" text-anchor="middle" x="418.88" y="-143.45" font-family="Helvetica,sans-Serif" font-size="9.00" fill="#e65100">publish</text>
<text xml:space="preserve" text-anchor="middle" x="418.88" y="-133.7" font-family="Helvetica,sans-Serif" font-size="9.00" fill="#e65100">CloudEvents</text>
</g>
<!-- ingest -->
<g id="node9" class="node">
<title>ingest</title>
<path fill="#81c784" stroke="#2e7d32" d="M586.62,-387.88C586.62,-387.88 503.12,-387.88 503.12,-387.88 497.12,-387.88 491.12,-381.88 491.12,-375.88 491.12,-375.88 491.12,-358.12 491.12,-358.12 491.12,-352.12 497.12,-346.12 503.12,-346.12 503.12,-346.12 586.62,-346.12 586.62,-346.12 592.62,-346.12 598.62,-352.12 598.62,-358.12 598.62,-358.12 598.62,-375.88 598.62,-375.88 598.62,-381.88 592.62,-387.88 586.62,-387.88"/>
<text xml:space="preserve" text-anchor="middle" x="544.88" y="-374.38" font-family="Helvetica,sans-Serif" font-size="10.00">Ingest API</text>
<text xml:space="preserve" text-anchor="middle" x="544.88" y="-363.12" font-family="Helvetica,sans-Serif" font-size="10.00">POST /api/v1/events</text>
<text xml:space="preserve" text-anchor="middle" x="544.88" y="-351.88" font-family="Helvetica,sans-Serif" font-size="10.00">(CloudEvents)</text>
</g>
<!-- osac_collector&#45;&gt;ingest -->
<g id="edge4" class="edge">
<title>osac_collector&#45;&gt;ingest</title>
<path fill="none" stroke="#1565c0" stroke-dasharray="5,2" d="M333.56,-367C373.34,-367 433.68,-367 479.54,-367"/>
<polygon fill="#1565c0" stroke="#1565c0" points="479.35,-370.5 489.35,-367 479.35,-363.5 479.35,-370.5"/>
<text xml:space="preserve" text-anchor="middle" x="418.88" y="-377.95" font-family="Helvetica,sans-Serif" font-size="9.00" fill="#1565c0">POST</text>
<text xml:space="preserve" text-anchor="middle" x="418.88" y="-368.2" font-family="Helvetica,sans-Serif" font-size="9.00" fill="#1565c0">(fallback)</text>
</g>
<!-- osac_webhook -->
<g id="node4" class="node">
<title>osac_webhook</title>
<path fill="#90caf9" stroke="#1565c0" d="M327.5,-303C327.5,-303 253.75,-303 253.75,-303 247.75,-303 241.75,-297 241.75,-291 241.75,-291 241.75,-279 241.75,-279 241.75,-273 247.75,-267 253.75,-267 253.75,-267 327.5,-267 327.5,-267 333.5,-267 339.5,-273 339.5,-279 339.5,-279 339.5,-291 339.5,-291 339.5,-297 333.5,-303 327.5,-303"/>
<text xml:space="preserve" text-anchor="middle" x="290.62" y="-286.75" font-family="Helvetica,sans-Serif" font-size="10.00">OSAC Alert</text>
<text xml:space="preserve" text-anchor="middle" x="290.62" y="-275.5" font-family="Helvetica,sans-Serif" font-size="10.00">Webhook Endpoint</text>
</g>
<!-- kafka_consumer -->
<g id="node8" class="node">
<title>kafka_consumer</title>
<path fill="#c8e6c9" stroke="#2e7d32" stroke-dasharray="5,2" d="M577.62,-472.88C577.62,-472.88 512.12,-472.88 512.12,-472.88 506.12,-472.88 500.12,-466.88 500.12,-460.88 500.12,-460.88 500.12,-443.12 500.12,-443.12 500.12,-437.12 506.12,-431.12 512.12,-431.12 512.12,-431.12 577.62,-431.12 577.62,-431.12 583.62,-431.12 589.62,-437.12 589.62,-443.12 589.62,-443.12 589.62,-460.88 589.62,-460.88 589.62,-466.88 583.62,-472.88 577.62,-472.88"/>
<text xml:space="preserve" text-anchor="middle" x="544.88" y="-459.38" font-family="Helvetica,sans-Serif" font-size="10.00">Kafka Consumer</text>
<text xml:space="preserve" text-anchor="middle" x="544.88" y="-448.12" font-family="Helvetica,sans-Serif" font-size="10.00">CloudEvents</text>
<text xml:space="preserve" text-anchor="middle" x="544.88" y="-436.88" font-family="Helvetica,sans-Serif" font-size="10.00">deserialization</text>
</g>
<!-- kafka_topic&#45;&gt;kafka_consumer -->
<g id="edge5" class="edge">
<title>kafka_topic&#45;&gt;kafka_consumer</title>
<path fill="none" stroke="#e65100" d="M506.75,-52.28C495.21,-59.31 483.34,-68.27 474.75,-79 431.22,-133.34 433.1,-157.57 420.96,-226.12 406.19,-309.55 422.74,-342.12 474.75,-409 479.29,-414.83 484.85,-420.06 490.85,-424.7"/>
<polygon fill="#e65100" stroke="#e65100" points="488.44,-427.28 498.63,-430.19 492.48,-421.56 488.44,-427.28"/>
<text xml:space="preserve" text-anchor="middle" x="418.88" y="-227.32" font-family="Helvetica,sans-Serif" font-size="9.00" fill="#e65100">consume</text>
</g>
<!-- inventory -->
<g id="node15" class="node">
<title>inventory</title>
<path fill="#e0e0e0" stroke="#616161" d="M1045.62,-482.81C1045.62,-486.47 1023.55,-489.44 996.38,-489.44 969.2,-489.44 947.12,-486.47 947.12,-482.81 947.12,-482.81 947.12,-423.19 947.12,-423.19 947.12,-419.53 969.2,-416.56 996.38,-416.56 1023.55,-416.56 1045.62,-419.53 1045.62,-423.19 1045.62,-423.19 1045.62,-482.81 1045.62,-482.81"/>
<path fill="none" stroke="#616161" d="M1045.62,-482.81C1045.62,-479.16 1023.55,-476.19 996.38,-476.19 969.2,-476.19 947.12,-479.16 947.12,-482.81"/>
<text xml:space="preserve" text-anchor="middle" x="996.38" y="-466" font-family="Helvetica,sans-Serif" font-size="10.00">inventory_*</text>
<text xml:space="preserve" text-anchor="middle" x="996.38" y="-454.75" font-family="Helvetica,sans-Serif" font-size="10.00">compute | cluster</text>
<text xml:space="preserve" text-anchor="middle" x="996.38" y="-443.5" font-family="Helvetica,sans-Serif" font-size="10.00">bare_metal | model</text>
<text xml:space="preserve" text-anchor="middle" x="996.38" y="-432.25" font-family="Helvetica,sans-Serif" font-size="10.00">catalog_items</text>
</g>
<!-- watcher&#45;&gt;inventory -->
<g id="edge6" class="edge">
<title>watcher&#45;&gt;inventory</title>
<path fill="none" stroke="#555555" d="M586.55,-695.76C603.45,-687.16 623.35,-677.32 641.62,-669 719.46,-633.59 746.12,-639.68 819.62,-596 845.81,-580.45 904.61,-531.4 946.99,-495.06"/>
<polygon fill="#555555" stroke="#555555" points="949.05,-497.9 954.36,-488.73 944.49,-492.59 949.05,-497.9"/>
<text xml:space="preserve" text-anchor="middle" x="766.88" y="-640.67" font-family="Helvetica,sans-Serif" font-size="9.00">sync</text>
</g>
<!-- reconciler&#45;&gt;inventory -->
<g id="edge7" class="edge">
<title>reconciler&#45;&gt;inventory</title>
<path fill="none" stroke="#555555" d="M582.47,-521.87C594.17,-514.22 606.53,-504.73 616,-494 682.73,-418.38 633.77,-344.76 719.88,-292.25 757.72,-269.17 778.3,-276.2 819.62,-292.25 823.69,-293.83 898.64,-363.06 949.34,-410.15"/>
<polygon fill="#555555" stroke="#555555" points="946.75,-412.52 956.46,-416.76 951.51,-407.39 946.75,-412.52"/>
<text xml:space="preserve" text-anchor="middle" x="766.88" y="-293.45" font-family="Helvetica,sans-Serif" font-size="9.00">sync</text>
</g>
<!-- metering -->
<g id="node16" class="node">
<title>metering</title>
<path fill="#e0e0e0" stroke="#616161" d="M1051.62,-370.16C1051.62,-372.26 1026.86,-373.97 996.38,-373.97 965.89,-373.97 941.12,-372.26 941.12,-370.16 941.12,-370.16 941.12,-335.84 941.12,-335.84 941.12,-333.74 965.89,-332.03 996.38,-332.03 1026.86,-332.03 1051.62,-333.74 1051.62,-335.84 1051.62,-335.84 1051.62,-370.16 1051.62,-370.16"/>
<path fill="none" stroke="#616161" d="M1051.62,-370.16C1051.62,-368.05 1026.86,-366.34 996.38,-366.34 965.89,-366.34 941.12,-368.05 941.12,-370.16"/>
<text xml:space="preserve" text-anchor="middle" x="996.38" y="-354.75" font-family="Helvetica,sans-Serif" font-size="10.00">metering_entries</text>
<text xml:space="preserve" text-anchor="middle" x="996.38" y="-343.5" font-family="Helvetica,sans-Serif" font-size="10.00">(partitioned by month)</text>
</g>
<!-- kafka_consumer&#45;&gt;metering -->
<g id="edge8" class="edge">
<title>kafka_consumer&#45;&gt;metering</title>
<path fill="none" stroke="#555555" stroke-dasharray="5,2" d="M589.8,-431.77C599.52,-425.61 608.99,-418.02 616,-409 639.67,-378.5 620.64,-358.41 641.62,-326 666.79,-287.14 676.56,-273.58 719.88,-257.25 761.36,-241.61 776.66,-246.31 819.62,-257.25 846.72,-264.15 909.23,-300.23 951.9,-326.06"/>
<polygon fill="#555555" stroke="#555555" points="949.83,-328.9 960.19,-331.11 953.47,-322.92 949.83,-328.9"/>
<text xml:space="preserve" text-anchor="middle" x="766.88" y="-258.45" font-family="Helvetica,sans-Serif" font-size="9.00">insert</text>
</g>
<!-- ingest&#45;&gt;metering -->
<g id="edge9" class="edge">
<title>ingest&#45;&gt;metering</title>
<path fill="none" stroke="#555555" d="M594.5,-345.85C602.83,-340.2 610.55,-333.3 616,-325 663.75,-252.31 588.04,-199.5 641.62,-131 664.65,-101.57 683.16,-107.2 719.88,-100.25 798.86,-85.29 846.63,-69.27 898.12,-131 950.05,-193.25 888.72,-242.18 933.12,-310 936.9,-315.77 941.75,-320.98 947.07,-325.62"/>
<polygon fill="#555555" stroke="#555555" points="944.51,-328.07 954.54,-331.5 948.84,-322.57 944.51,-328.07"/>
<text xml:space="preserve" text-anchor="middle" x="766.88" y="-101.45" font-family="Helvetica,sans-Serif" font-size="9.00">insert</text>
</g>
<!-- gorules -->
<g id="node10" class="node">
<title>gorules</title>
<path fill="#c8e6c9" stroke="#2e7d32" stroke-dasharray="5,2" d="M799.62,-737.88C799.62,-737.88 734.12,-737.88 734.12,-737.88 728.12,-737.88 722.12,-731.88 722.12,-725.88 722.12,-725.88 722.12,-708.12 722.12,-708.12 722.12,-702.12 728.12,-696.12 734.12,-696.12 734.12,-696.12 799.62,-696.12 799.62,-696.12 805.62,-696.12 811.62,-702.12 811.62,-708.12 811.62,-708.12 811.62,-725.88 811.62,-725.88 811.62,-731.88 805.62,-737.88 799.62,-737.88"/>
<text xml:space="preserve" text-anchor="middle" x="766.88" y="-724.38" font-family="Helvetica,sans-Serif" font-size="10.00">GoRules/Zen</text>
<text xml:space="preserve" text-anchor="middle" x="766.88" y="-713.12" font-family="Helvetica,sans-Serif" font-size="10.00">Rating Engine</text>
<text xml:space="preserve" text-anchor="middle" x="766.88" y="-701.88" font-family="Helvetica,sans-Serif" font-size="10.00">JDM visual rules</text>
</g>
<!-- rules -->
<g id="node18" class="node">
<title>rules</title>
<path fill="#e0e0e0" stroke="#616161" d="M1047.5,-584.48C1047.5,-587.36 1024.58,-589.7 996.38,-589.7 968.17,-589.7 945.25,-587.36 945.25,-584.48 945.25,-584.48 945.25,-537.52 945.25,-537.52 945.25,-534.64 968.17,-532.3 996.38,-532.3 1024.58,-532.3 1047.5,-534.64 1047.5,-537.52 1047.5,-537.52 1047.5,-584.48 1047.5,-584.48"/>
<path fill="none" stroke="#616161" d="M1047.5,-584.48C1047.5,-581.6 1024.58,-579.27 996.38,-579.27 968.17,-579.27 945.25,-581.6 945.25,-584.48"/>
<text xml:space="preserve" text-anchor="middle" x="996.38" y="-568.38" font-family="Helvetica,sans-Serif" font-size="10.00">rates + JDM rules</text>
<text xml:space="preserve" text-anchor="middle" x="996.38" y="-557.12" font-family="Helvetica,sans-Serif" font-size="10.00">GoRules JSON</text>
<text xml:space="preserve" text-anchor="middle" x="996.38" y="-545.88" font-family="Helvetica,sans-Serif" font-size="10.00">per&#45;tenant overrides</text>
</g>
<!-- gorules&#45;&gt;rules -->
<g id="edge12" class="edge">
<title>gorules&#45;&gt;rules</title>
<path fill="none" stroke="#555555" stroke-dasharray="5,2" d="M808.27,-689.3C849.66,-660.92 913.64,-617.04 955.02,-588.67"/>
<polygon fill="#555555" stroke="#555555" points="806.55,-686.24 800.28,-694.78 810.51,-692.01 806.55,-686.24"/>
<text xml:space="preserve" text-anchor="middle" x="877.5" y="-663.92" font-family="Helvetica,sans-Serif" font-size="9.00">load</text>
<text xml:space="preserve" text-anchor="middle" x="877.5" y="-654.17" font-family="Helvetica,sans-Serif" font-size="9.00">JDM rules</text>
</g>
<!-- rating_sweep -->
<g id="node11" class="node">
<title>rating_sweep</title>
<path fill="#a5d6a7" stroke="#2e7d32" d="M583.25,-652.88C583.25,-652.88 506.5,-652.88 506.5,-652.88 500.5,-652.88 494.5,-646.88 494.5,-640.88 494.5,-640.88 494.5,-623.12 494.5,-623.12 494.5,-617.12 500.5,-611.12 506.5,-611.12 506.5,-611.12 583.25,-611.12 583.25,-611.12 589.25,-611.12 595.25,-617.12 595.25,-623.12 595.25,-623.12 595.25,-640.88 595.25,-640.88 595.25,-646.88 589.25,-652.88 583.25,-652.88"/>
<text xml:space="preserve" text-anchor="middle" x="544.88" y="-639.38" font-family="Helvetica,sans-Serif" font-size="10.00">Rating Sweep</text>
<text xml:space="preserve" text-anchor="middle" x="544.88" y="-628.12" font-family="Helvetica,sans-Serif" font-size="10.00">custom dimensions</text>
<text xml:space="preserve" text-anchor="middle" x="544.88" y="-616.88" font-family="Helvetica,sans-Serif" font-size="10.00">per&#45;tenant rules</text>
</g>
<!-- rating_sweep&#45;&gt;gorules -->
<g id="edge11" class="edge">
<title>rating_sweep&#45;&gt;gorules</title>
<path fill="none" stroke="#555555" stroke-dasharray="5,2" d="M595.52,-651.18C629.86,-664.45 675.57,-682.11 710.99,-695.8"/>
<polygon fill="#555555" stroke="#555555" points="709.63,-699.02 720.22,-699.36 712.15,-692.49 709.63,-699.02"/>
<text xml:space="preserve" text-anchor="middle" x="659.25" y="-683.31" font-family="Helvetica,sans-Serif" font-size="9.00">evaluate</text>
</g>
<!-- rating_sweep&#45;&gt;metering -->
<g id="edge10" class="edge">
<title>rating_sweep&#45;&gt;metering</title>
<path fill="none" stroke="#555555" d="M591.44,-604.88C599.63,-599.95 608.08,-594.84 616,-590 744.52,-511.38 896.12,-415.81 962.01,-374.14"/>
<polygon fill="#555555" stroke="#555555" points="589.7,-601.84 582.93,-609.98 593.3,-607.84 589.7,-601.84"/>
<text xml:space="preserve" text-anchor="middle" x="766.88" y="-526.71" font-family="Helvetica,sans-Serif" font-size="9.00">read</text>
</g>
<!-- costs -->
<g id="node17" class="node">
<title>costs</title>
<path fill="#e0e0e0" stroke="#616161" d="M1031,-285.16C1031,-287.26 1015.48,-288.97 996.38,-288.97 977.27,-288.97 961.75,-287.26 961.75,-285.16 961.75,-285.16 961.75,-250.84 961.75,-250.84 961.75,-248.74 977.27,-247.03 996.38,-247.03 1015.48,-247.03 1031,-248.74 1031,-250.84 1031,-250.84 1031,-285.16 1031,-285.16"/>
<path fill="none" stroke="#616161" d="M1031,-285.16C1031,-283.05 1015.48,-281.34 996.38,-281.34 977.27,-281.34 961.75,-283.05 961.75,-285.16"/>
<text xml:space="preserve" text-anchor="middle" x="996.38" y="-269.75" font-family="Helvetica,sans-Serif" font-size="10.00">cost_entries</text>
<text xml:space="preserve" text-anchor="middle" x="996.38" y="-258.5" font-family="Helvetica,sans-Serif" font-size="10.00">(partitioned)</text>
</g>
<!-- rating_sweep&#45;&gt;costs -->
<g id="edge14" class="edge">
<title>rating_sweep&#45;&gt;costs</title>
<path fill="none" stroke="#555555" d="M589.21,-610.8C598.73,-604.9 608.26,-597.91 616,-590 632.09,-573.55 628.79,-564.11 641.62,-545 673.04,-498.22 678.21,-483.19 719.88,-445.25 793.11,-378.56 894.21,-320.57 951.36,-290.32"/>
<polygon fill="#555555" stroke="#555555" points="952.94,-293.44 960.17,-285.7 949.69,-287.24 952.94,-293.44"/>
<text xml:space="preserve" text-anchor="middle" x="766.88" y="-446.45" font-family="Helvetica,sans-Serif" font-size="9.00">insert</text>
</g>
<!-- rating_sweep&#45;&gt;rules -->
<g id="edge13" class="edge">
<title>rating_sweep&#45;&gt;rules</title>
<path fill="none" stroke="#555555" d="M606.29,-610.47C639.41,-599.58 681.43,-587.22 719.88,-580.25 797.6,-566.15 889.39,-562.23 944.94,-561.22"/>
<polygon fill="#555555" stroke="#555555" points="605.24,-607.13 596.86,-613.62 607.45,-613.77 605.24,-607.13"/>
<text xml:space="preserve" text-anchor="middle" x="766.88" y="-581.45" font-family="Helvetica,sans-Serif" font-size="9.00">FindRate()</text>
</g>
<!-- alert_push -->
<g id="node12" class="node">
<title>alert_push</title>
<path fill="#a5d6a7" stroke="#2e7d32" d="M581,-138.88C581,-138.88 508.75,-138.88 508.75,-138.88 502.75,-138.88 496.75,-132.88 496.75,-126.88 496.75,-126.88 496.75,-109.12 496.75,-109.12 496.75,-103.12 502.75,-97.12 508.75,-97.12 508.75,-97.12 581,-97.12 581,-97.12 587,-97.12 593,-103.12 593,-109.12 593,-109.12 593,-126.88 593,-126.88 593,-132.88 587,-138.88 581,-138.88"/>
<text xml:space="preserve" text-anchor="middle" x="544.88" y="-125.38" font-family="Helvetica,sans-Serif" font-size="10.00">Alert Push</text>
<text xml:space="preserve" text-anchor="middle" x="544.88" y="-114.12" font-family="Helvetica,sans-Serif" font-size="10.00">webhook POST</text>
<text xml:space="preserve" text-anchor="middle" x="544.88" y="-102.88" font-family="Helvetica,sans-Serif" font-size="10.00">on threshold cross</text>
</g>
<!-- alert_push&#45;&gt;osac_webhook -->
<g id="edge15" class="edge">
<title>alert_push&#45;&gt;osac_webhook</title>
<path fill="none" stroke="#c62828" d="M496.51,-138.15C465.03,-152.48 423.42,-173.25 389.62,-196.5 362.93,-214.87 335.84,-239.93 316.92,-258.7"/>
<polygon fill="#c62828" stroke="#c62828" points="314.47,-256.2 309.91,-265.76 319.44,-261.13 314.47,-256.2"/>
<text xml:space="preserve" text-anchor="middle" x="418.88" y="-207.45" font-family="Helvetica,sans-Serif" font-size="9.00" fill="#c62828">POST</text>
<text xml:space="preserve" text-anchor="middle" x="418.88" y="-197.7" font-family="Helvetica,sans-Serif" font-size="9.00" fill="#c62828">threshold alert</text>
</g>
<!-- quota_api -->
<g id="node13" class="node">
<title>quota_api</title>
<path fill="#81c784" stroke="#2e7d32" d="M586.62,-303C586.62,-303 503.12,-303 503.12,-303 497.12,-303 491.12,-297 491.12,-291 491.12,-291 491.12,-279 491.12,-279 491.12,-273 497.12,-267 503.12,-267 503.12,-267 586.62,-267 586.62,-267 592.62,-267 598.62,-273 598.62,-279 598.62,-279 598.62,-291 598.62,-291 598.62,-297 592.62,-303 586.62,-303"/>
<text xml:space="preserve" text-anchor="middle" x="544.88" y="-286.75" font-family="Helvetica,sans-Serif" font-size="10.00">Quota API</text>
<text xml:space="preserve" text-anchor="middle" x="544.88" y="-275.5" font-family="Helvetica,sans-Serif" font-size="10.00">GET /quotas/{tenant}</text>
</g>
<!-- quota_api&#45;&gt;costs -->
<g id="edge16" class="edge">
<title>quota_api&#45;&gt;costs</title>
<path fill="none" stroke="#555555" d="M601.02,-260.26C606.74,-255.86 611.93,-250.8 616,-245 654.35,-190.36 599.16,-148.51 641.62,-97 665.29,-68.29 683.28,-73.97 719.88,-67.25 798.27,-52.85 835.26,-38 898.12,-87 951.72,-128.78 979.4,-208.61 990.06,-246.72"/>
<polygon fill="#555555" stroke="#555555" points="599.22,-257.25 592.94,-265.78 603.17,-263.03 599.22,-257.25"/>
<text xml:space="preserve" text-anchor="middle" x="766.88" y="-68.45" font-family="Helvetica,sans-Serif" font-size="9.00">sum</text>
</g>
<!-- report_api -->
<g id="node14" class="node">
<title>report_api</title>
<path fill="#c8e6c9" stroke="#2e7d32" stroke-dasharray="5,2" d="M585.88,-223.88C585.88,-223.88 503.88,-223.88 503.88,-223.88 497.88,-223.88 491.88,-217.88 491.88,-211.88 491.88,-211.88 491.88,-194.12 491.88,-194.12 491.88,-188.12 497.88,-182.12 503.88,-182.12 503.88,-182.12 585.88,-182.12 585.88,-182.12 591.88,-182.12 597.88,-188.12 597.88,-194.12 597.88,-194.12 597.88,-211.88 597.88,-211.88 597.88,-217.88 591.88,-223.88 585.88,-223.88"/>
<text xml:space="preserve" text-anchor="middle" x="544.88" y="-210.38" font-family="Helvetica,sans-Serif" font-size="10.00">Report API</text>
<text xml:space="preserve" text-anchor="middle" x="544.88" y="-199.12" font-family="Helvetica,sans-Serif" font-size="10.00">GET /reports/costs</text>
<text xml:space="preserve" text-anchor="middle" x="544.88" y="-187.88" font-family="Helvetica,sans-Serif" font-size="10.00">JSON + CSV export</text>
</g>
<!-- report_api&#45;&gt;costs -->
<g id="edge17" class="edge">
<title>report_api&#45;&gt;costs</title>
<path fill="none" stroke="#555555" stroke-dasharray="5,2" d="M601,-175.19C606.62,-170.69 611.8,-165.63 616,-160 642.4,-124.6 612.22,-96.95 641.62,-64 695.08,-4.1 739.89,-23.86 819.62,-33.25 855.25,-37.45 870.49,-29.14 898.12,-52 960.39,-103.51 984.37,-203.21 992.15,-246.77"/>
<polygon fill="#555555" stroke="#555555" points="599.15,-172.2 593.09,-180.9 603.25,-177.88 599.15,-172.2"/>
<text xml:space="preserve" text-anchor="middle" x="766.88" y="-34.45" font-family="Helvetica,sans-Serif" font-size="9.00">query</text>
</g>
<!-- rhoai -->
<g id="node19" class="node">
<title>rhoai</title>
<path fill="#e1f5fe" stroke="#0277bd" d="M81.12,-387.88C81.12,-387.88 20.12,-387.88 20.12,-387.88 14.12,-387.88 8.12,-381.88 8.12,-375.88 8.12,-375.88 8.12,-358.12 8.12,-358.12 8.12,-352.12 14.12,-346.12 20.12,-346.12 20.12,-346.12 81.12,-346.12 81.12,-346.12 87.12,-346.12 93.12,-352.12 93.12,-358.12 93.12,-358.12 93.12,-375.88 93.12,-375.88 93.12,-381.88 87.12,-387.88 81.12,-387.88"/>
<text xml:space="preserve" text-anchor="middle" x="50.62" y="-374.38" font-family="Helvetica,sans-Serif" font-size="10.00">OpenShift AI</text>
<text xml:space="preserve" text-anchor="middle" x="50.62" y="-363.12" font-family="Helvetica,sans-Serif" font-size="10.00">(RHOAI)</text>
<text xml:space="preserve" text-anchor="middle" x="50.62" y="-351.88" font-family="Helvetica,sans-Serif" font-size="10.00">model inference</text>
</g>
<!-- rhoai&#45;&gt;osac_collector -->
<g id="edge18" class="edge">
<title>rhoai&#45;&gt;osac_collector</title>
<path fill="none" stroke="#0277bd" d="M93.35,-367C133.16,-367 193.3,-367 236.51,-367"/>
<polygon fill="#0277bd" stroke="#0277bd" points="236.43,-370.5 246.43,-367 236.43,-363.5 236.43,-370.5"/>
<text xml:space="preserve" text-anchor="middle" x="163.88" y="-368.2" font-family="Helvetica,sans-Serif" font-size="9.00" fill="#0277bd">MaaS metrics</text>
</g>
<!-- koku -->
<g id="node20" class="node">
<title>koku</title>
<polygon fill="#f3e5f5" stroke="#7b1fa2" stroke-dasharray="5,2" points="813.88,-817 719.88,-817 719.88,-781 813.88,-781 813.88,-817"/>
<text xml:space="preserve" text-anchor="middle" x="766.88" y="-800.75" font-family="Helvetica,sans-Serif" font-size="10.00">Koku</text>
<text xml:space="preserve" text-anchor="middle" x="766.88" y="-789.5" font-family="Helvetica,sans-Serif" font-size="10.00">(cost model sync)</text>
</g>
<!-- koku&#45;&gt;rules -->
<g id="edge19" class="edge">
<title>koku&#45;&gt;rules</title>
<path fill="none" stroke="#7b1fa2" stroke-dasharray="5,2" d="M814.23,-780.68C816.1,-779.51 817.9,-778.28 819.62,-777 886.18,-727.33 942.55,-647.06 972.44,-599.62"/>
<polygon fill="#7b1fa2" stroke="#7b1fa2" points="975.3,-601.65 977.61,-591.31 969.36,-597.95 975.3,-601.65"/>
<text xml:space="preserve" text-anchor="middle" x="877.5" y="-743.69" font-family="Helvetica,sans-Serif" font-size="9.00" fill="#7b1fa2">rate sync</text>
</g>
<!-- leg_solid -->
<g id="node21" class="node">
<title>leg_solid</title>
<path fill="#a5d6a7" stroke="#2e7d32" d="M73.25,-694C73.25,-694 28,-694 28,-694 22,-694 16,-688 16,-682 16,-682 16,-670 16,-670 16,-664 22,-658 28,-658 28,-658 73.25,-658 73.25,-658 79.25,-658 85.25,-664 85.25,-670 85.25,-670 85.25,-682 85.25,-682 85.25,-688 79.25,-694 73.25,-694"/>
<text xml:space="preserve" text-anchor="middle" x="50.62" y="-672.33" font-family="Helvetica,sans-Serif" font-size="9.00">Implemented</text>
</g>
<!-- leg_dashed -->
<g id="node22" class="node">
<title>leg_dashed</title>
<path fill="#c8e6c9" stroke="#2e7d32" stroke-dasharray="5,2" d="M305.62,-694C305.62,-694 275.62,-694 275.62,-694 269.62,-694 263.62,-688 263.62,-682 263.62,-682 263.62,-670 263.62,-670 263.62,-664 269.62,-658 275.62,-658 275.62,-658 305.62,-658 305.62,-658 311.62,-658 317.62,-664 317.62,-670 317.62,-670 317.62,-682 317.62,-682 317.62,-688 311.62,-694 305.62,-694"/>
<text xml:space="preserve" text-anchor="middle" x="290.62" y="-672.33" font-family="Helvetica,sans-Serif" font-size="9.00">Planned</text>
</g>
<!-- leg_solid&#45;&gt;leg_dashed -->
</g>
</svg>
