<?xml version="1.0" encoding="UTF-8" standalone="no"?>
<!DOCTYPE svg PUBLIC "-//W3C//DTD SVG 1.1//EN"
 "http://www.w3.org/Graphics/SVG/1.1/DTD/svg11.dtd">
<!-- Generated by graphviz version 15.0.0 (20260523.1842)
 -->
<!-- Title: data_flow Pages: 1 -->
<svg width="2733pt" height="650pt"
 viewBox="0.00 0.00 2733.00 650.00" xmlns="http://www.w3.org/2000/svg" xmlns:xlink="http://www.w3.org/1999/xlink">
<g id="graph0" class="graph" transform="scale(1 1) rotate(0) translate(36 614.34)">
<title>data_flow</title>
<polygon fill="white" stroke="none" points="-36,36 -36,-614.34 2696.51,-614.34 2696.51,36 -36,36"/>
<text xml:space="preserve" text-anchor="middle" x="1330.25" y="-561.04" font-family="Helvetica,sans-Serif" font-size="14.00">Cost Event Consumer — Data Flow</text>
<g id="clust1" class="cluster">
<title>cluster_sources</title>
<polygon fill="#fafafa" stroke="#bdbdbd" points="1490.25,-469.59 1490.25,-547.34 1930.25,-547.34 1930.25,-469.59 1490.25,-469.59"/>
<text xml:space="preserve" text-anchor="middle" x="1710.25" y="-532.89" font-family="Helvetica,sans-Serif" font-size="11.00" fill="#616161">Event Sources</text>
</g>
<g id="clust2" class="cluster">
<title>cluster_workers</title>
<polygon fill="#fff8e1" stroke="#f57f17" points="766.25,-339.34 766.25,-417.09 1745.25,-417.09 1745.25,-339.34 766.25,-339.34"/>
<text xml:space="preserve" text-anchor="middle" x="1255.75" y="-402.64" font-family="Helvetica,sans-Serif" font-size="11.00" fill="#f57f17">Goroutines (main binary)</text>
</g>
<g id="clust3" class="cluster">
<title>cluster_db</title>
<polygon fill="#e8f5e9" stroke="#2e7d32" points="771.25,-145.91 771.25,-257.59 2079.25,-257.59 2079.25,-145.91 771.25,-145.91"/>
<text xml:space="preserve" text-anchor="middle" x="1425.25" y="-243.14" font-family="Helvetica,sans-Serif" font-size="11.00" fill="#2e7d32">PostgreSQL (our DB)</text>
</g>
<g id="clust4" class="cluster">
<title>cluster_inventory</title>
<polygon fill="#e8f5e9" stroke="#66bb6a" points="1213.25,-153.91 1213.25,-229.59 1821.25,-229.59 1821.25,-153.91 1213.25,-153.91"/>
<text xml:space="preserve" text-anchor="middle" x="1517.25" y="-217.04" font-family="Helvetica,sans-Serif" font-size="9.00" fill="#2e7d32">Inventory Tables</text>
</g>
<g id="clust5" class="cluster">
<title>cluster_outputs</title>
<polygon fill="#fafafa" stroke="#bdbdbd" points="1248.25,-8 1248.25,-101.41 2025.25,-101.41 2025.25,-8 1248.25,-8"/>
<text xml:space="preserve" text-anchor="middle" x="1636.75" y="-86.96" font-family="Helvetica,sans-Serif" font-size="11.00" fill="#616161">Outputs</text>
</g>
<!-- osac -->
<g id="node1" class="node">
<title>osac</title>
<path fill="#e8eaf6" stroke="#3f51b5" d="M1578.5,-519.34C1578.5,-519.34 1510,-519.34 1510,-519.34 1504,-519.34 1498,-513.34 1498,-507.34 1498,-507.34 1498,-489.59 1498,-489.59 1498,-483.59 1504,-477.59 1510,-477.59 1510,-477.59 1578.5,-477.59 1578.5,-477.59 1584.5,-477.59 1590.5,-483.59 1590.5,-489.59 1590.5,-489.59 1590.5,-507.34 1590.5,-507.34 1590.5,-513.34 1584.5,-519.34 1578.5,-519.34"/>
<text xml:space="preserve" text-anchor="middle" x="1544.25" y="-505.84" font-family="Helvetica,sans-Serif" font-size="10.00">OSAC</text>
<text xml:space="preserve" text-anchor="middle" x="1544.25" y="-494.59" font-family="Helvetica,sans-Serif" font-size="10.00">fulfillment&#45;service</text>
<text xml:space="preserve" text-anchor="middle" x="1544.25" y="-483.34" font-family="Helvetica,sans-Serif" font-size="10.00">(gRPC Watch)</text>
</g>
<!-- watcher -->
<g id="node4" class="node">
<title>watcher</title>
<path fill="#ffe082" stroke="#f57f17" d="M1470.88,-386.22C1470.88,-386.22 1425.63,-386.22 1425.63,-386.22 1419.63,-386.22 1413.63,-380.22 1413.63,-374.22 1413.63,-374.22 1413.63,-362.22 1413.63,-362.22 1413.63,-356.22 1419.63,-350.22 1425.63,-350.22 1425.63,-350.22 1470.88,-350.22 1470.88,-350.22 1476.88,-350.22 1482.88,-356.22 1482.88,-362.22 1482.88,-362.22 1482.88,-374.22 1482.88,-374.22 1482.88,-380.22 1476.88,-386.22 1470.88,-386.22"/>
<text xml:space="preserve" text-anchor="middle" x="1448.25" y="-369.97" font-family="Helvetica,sans-Serif" font-size="10.00">watcher</text>
<text xml:space="preserve" text-anchor="middle" x="1448.25" y="-358.72" font-family="Helvetica,sans-Serif" font-size="10.00">(continuous)</text>
</g>
<!-- osac&#45;&gt;watcher -->
<g id="edge1" class="edge">
<title>osac&#45;&gt;watcher</title>
<path fill="none" stroke="#3f51b5" d="M1497.75,-478.19C1483.23,-469.93 1468.58,-458.84 1459.25,-444.59 1450.28,-430.89 1447.42,-412.79 1446.85,-397.77"/>
<polygon fill="#3f51b5" stroke="#3f51b5" points="1450.35,-398.03 1446.82,-388.04 1443.35,-398.05 1450.35,-398.03"/>
<text xml:space="preserve" text-anchor="middle" x="1501.25" y="-436.04" font-family="Helvetica,sans-Serif" font-size="9.00" fill="#3f51b5">Watch stream</text>
<text xml:space="preserve" text-anchor="middle" x="1501.25" y="-426.29" font-family="Helvetica,sans-Serif" font-size="9.00" fill="#3f51b5">(VM/cluster lifecycle)</text>
</g>
<!-- reconciler -->
<g id="node5" class="node">
<title>reconciler</title>
<path fill="#ffe082" stroke="#f57f17" d="M1595.75,-386.22C1595.75,-386.22 1552.75,-386.22 1552.75,-386.22 1546.75,-386.22 1540.75,-380.22 1540.75,-374.22 1540.75,-374.22 1540.75,-362.22 1540.75,-362.22 1540.75,-356.22 1546.75,-350.22 1552.75,-350.22 1552.75,-350.22 1595.75,-350.22 1595.75,-350.22 1601.75,-350.22 1607.75,-356.22 1607.75,-362.22 1607.75,-362.22 1607.75,-374.22 1607.75,-374.22 1607.75,-380.22 1601.75,-386.22 1595.75,-386.22"/>
<text xml:space="preserve" text-anchor="middle" x="1574.25" y="-369.97" font-family="Helvetica,sans-Serif" font-size="10.00">reconciler</text>
<text xml:space="preserve" text-anchor="middle" x="1574.25" y="-358.72" font-family="Helvetica,sans-Serif" font-size="10.00">(1h interval)</text>
</g>
<!-- osac&#45;&gt;reconciler -->
<g id="edge2" class="edge">
<title>osac&#45;&gt;reconciler</title>
<path fill="none" stroke="#3f51b5" stroke-dasharray="5,2" d="M1549.01,-477.15C1554.03,-455.66 1562,-421.6 1567.64,-397.5"/>
<polygon fill="#3f51b5" stroke="#3f51b5" points="1570.98,-398.57 1569.85,-388.04 1564.17,-396.98 1570.98,-398.57"/>
<text xml:space="preserve" text-anchor="middle" x="1602.3" y="-436.04" font-family="Helvetica,sans-Serif" font-size="9.00" fill="#3f51b5">List APIs</text>
<text xml:space="preserve" text-anchor="middle" x="1602.3" y="-426.29" font-family="Helvetica,sans-Serif" font-size="9.00" fill="#3f51b5">(periodic drift check)</text>
</g>
<!-- ipp -->
<g id="node2" class="node">
<title>ipp</title>
<path fill="#f3e5f5" stroke="#7b1fa2" d="M1744,-519.34C1744,-519.34 1660.5,-519.34 1660.5,-519.34 1654.5,-519.34 1648.5,-513.34 1648.5,-507.34 1648.5,-507.34 1648.5,-489.59 1648.5,-489.59 1648.5,-483.59 1654.5,-477.59 1660.5,-477.59 1660.5,-477.59 1744,-477.59 1744,-477.59 1750,-477.59 1756,-483.59 1756,-489.59 1756,-489.59 1756,-507.34 1756,-507.34 1756,-513.34 1750,-519.34 1744,-519.34"/>
<text xml:space="preserve" text-anchor="middle" x="1702.25" y="-505.84" font-family="Helvetica,sans-Serif" font-size="10.00">IPP Gateway</text>
<text xml:space="preserve" text-anchor="middle" x="1702.25" y="-494.59" font-family="Helvetica,sans-Serif" font-size="10.00">(MaaS inference)</text>
<text xml:space="preserve" text-anchor="middle" x="1702.25" y="-483.34" font-family="Helvetica,sans-Serif" font-size="10.00">POST /api/v1/events</text>
</g>
<!-- ingest -->
<g id="node6" class="node">
<title>ingest</title>
<path fill="#ffe082" stroke="#f57f17" d="M1725,-386.22C1725,-386.22 1677.5,-386.22 1677.5,-386.22 1671.5,-386.22 1665.5,-380.22 1665.5,-374.22 1665.5,-374.22 1665.5,-362.22 1665.5,-362.22 1665.5,-356.22 1671.5,-350.22 1677.5,-350.22 1677.5,-350.22 1725,-350.22 1725,-350.22 1731,-350.22 1737,-356.22 1737,-362.22 1737,-362.22 1737,-374.22 1737,-374.22 1737,-380.22 1731,-386.22 1725,-386.22"/>
<text xml:space="preserve" text-anchor="middle" x="1701.25" y="-369.97" font-family="Helvetica,sans-Serif" font-size="10.00">HTTP ingest</text>
<text xml:space="preserve" text-anchor="middle" x="1701.25" y="-358.72" font-family="Helvetica,sans-Serif" font-size="10.00">(:8020)</text>
</g>
<!-- ipp&#45;&gt;ingest -->
<g id="edge3" class="edge">
<title>ipp&#45;&gt;ingest</title>
<path fill="none" stroke="#7b1fa2" d="M1702.1,-477.15C1701.93,-455.76 1701.67,-421.91 1701.48,-397.83"/>
<polygon fill="#7b1fa2" stroke="#7b1fa2" points="1704.98,-398.05 1701.4,-388.08 1697.98,-398.11 1704.98,-398.05"/>
<text xml:space="preserve" text-anchor="middle" x="1738.56" y="-436.04" font-family="Helvetica,sans-Serif" font-size="9.00" fill="#7b1fa2">CloudEvent</text>
<text xml:space="preserve" text-anchor="middle" x="1738.56" y="-426.29" font-family="Helvetica,sans-Serif" font-size="9.00" fill="#7b1fa2">(inference tokens)</text>
</g>
<!-- http_client -->
<g id="node3" class="node">
<title>http_client</title>
<path fill="#e0f2f1" stroke="#009688" d="M1910,-516.47C1910,-516.47 1826.5,-516.47 1826.5,-516.47 1820.5,-516.47 1814.5,-510.47 1814.5,-504.47 1814.5,-504.47 1814.5,-492.47 1814.5,-492.47 1814.5,-486.47 1820.5,-480.47 1826.5,-480.47 1826.5,-480.47 1910,-480.47 1910,-480.47 1916,-480.47 1922,-486.47 1922,-492.47 1922,-492.47 1922,-504.47 1922,-504.47 1922,-510.47 1916,-516.47 1910,-516.47"/>
<text xml:space="preserve" text-anchor="middle" x="1868.25" y="-500.22" font-family="Helvetica,sans-Serif" font-size="10.00">curl / scripts</text>
<text xml:space="preserve" text-anchor="middle" x="1868.25" y="-488.97" font-family="Helvetica,sans-Serif" font-size="10.00">POST /api/v1/events</text>
</g>
<!-- http_client&#45;&gt;ingest -->
<g id="edge4" class="edge">
<title>http_client&#45;&gt;ingest</title>
<path fill="none" stroke="#009688" d="M1851.15,-480.15C1835.65,-464.87 1811.85,-442.4 1789.25,-425.09 1774.17,-413.54 1756.66,-402.06 1741.24,-392.54"/>
<polygon fill="#009688" stroke="#009688" points="1743.12,-389.59 1732.76,-387.38 1739.48,-395.57 1743.12,-389.59"/>
<text xml:space="preserve" text-anchor="middle" x="1835.99" y="-431.17" font-family="Helvetica,sans-Serif" font-size="9.00" fill="#009688">CloudEvent</text>
</g>
<!-- raw_events -->
<g id="node11" class="node">
<title>raw_events</title>
<path fill="#c8e6c9" stroke="#2e7d32" d="M1163.38,-200.03C1163.38,-202.13 1143.15,-203.84 1118.25,-203.84 1093.36,-203.84 1073.13,-202.13 1073.13,-200.03 1073.13,-200.03 1073.13,-165.72 1073.13,-165.72 1073.13,-163.62 1093.36,-161.91 1118.25,-161.91 1143.15,-161.91 1163.38,-163.62 1163.38,-165.72 1163.38,-165.72 1163.38,-200.03 1163.38,-200.03"/>
<path fill="none" stroke="#2e7d32" d="M1163.38,-200.03C1163.38,-197.93 1143.15,-196.22 1118.25,-196.22 1093.36,-196.22 1073.13,-197.93 1073.13,-200.03"/>
<text xml:space="preserve" text-anchor="middle" x="1118.25" y="-184.62" font-family="Helvetica,sans-Serif" font-size="10.00">raw_events</text>
<text xml:space="preserve" text-anchor="middle" x="1118.25" y="-173.38" font-family="Helvetica,sans-Serif" font-size="10.00">(append&#45;only log)</text>
</g>
<!-- watcher&#45;&gt;raw_events -->
<g id="edge5" class="edge">
<title>watcher&#45;&gt;raw_events</title>
<path fill="none" stroke="#2e7d32" d="M1415.05,-349.8C1405.66,-345.64 1395.26,-341.71 1385.25,-339.34 1329.18,-326.07 907.01,-356.06 867.25,-314.34 852.31,-298.66 852.28,-281.26 867.25,-265.59 880.86,-251.36 1026.23,-265.52 1044.25,-257.59 1065.82,-248.11 1084.56,-229.26 1097.79,-213"/>
<polygon fill="#2e7d32" stroke="#2e7d32" points="1100.24,-215.54 1103.62,-205.5 1094.72,-211.24 1100.24,-215.54"/>
<text xml:space="preserve" text-anchor="middle" x="889.75" y="-286.29" font-family="Helvetica,sans-Serif" font-size="9.00">store event</text>
</g>
<!-- inv_ci -->
<g id="node12" class="node">
<title>inv_ci</title>
<path fill="#a5d6a7" stroke="#2e7d32" d="M1317,-200.03C1317,-202.13 1295.6,-203.84 1269.25,-203.84 1242.91,-203.84 1221.5,-202.13 1221.5,-200.03 1221.5,-200.03 1221.5,-165.72 1221.5,-165.72 1221.5,-163.62 1242.91,-161.91 1269.25,-161.91 1295.6,-161.91 1317,-163.62 1317,-165.72 1317,-165.72 1317,-200.03 1317,-200.03"/>
<path fill="none" stroke="#2e7d32" d="M1317,-200.03C1317,-197.93 1295.6,-196.22 1269.25,-196.22 1242.91,-196.22 1221.5,-197.93 1221.5,-200.03"/>
<text xml:space="preserve" text-anchor="middle" x="1269.25" y="-184.62" font-family="Helvetica,sans-Serif" font-size="10.00">inventory_</text>
<text xml:space="preserve" text-anchor="middle" x="1269.25" y="-173.38" font-family="Helvetica,sans-Serif" font-size="10.00">compute_instance</text>
</g>
<!-- watcher&#45;&gt;inv_ci -->
<g id="edge6" class="edge">
<title>watcher&#45;&gt;inv_ci</title>
<path fill="none" stroke="#2e7d32" d="M1431.41,-349.97C1400.59,-318.4 1334.8,-251.01 1297.18,-212.48"/>
<polygon fill="#2e7d32" stroke="#2e7d32" points="1299.7,-210.05 1290.21,-205.34 1294.7,-214.94 1299.7,-210.05"/>
<text xml:space="preserve" text-anchor="middle" x="1408.11" y="-286.29" font-family="Helvetica,sans-Serif" font-size="9.00">upsert</text>
</g>
<!-- inv_cl -->
<g id="node13" class="node">
<title>inv_cl</title>
<path fill="#a5d6a7" stroke="#2e7d32" d="M1570.75,-200.03C1570.75,-202.13 1557.08,-203.84 1540.25,-203.84 1523.43,-203.84 1509.75,-202.13 1509.75,-200.03 1509.75,-200.03 1509.75,-165.72 1509.75,-165.72 1509.75,-163.62 1523.43,-161.91 1540.25,-161.91 1557.08,-161.91 1570.75,-163.62 1570.75,-165.72 1570.75,-165.72 1570.75,-200.03 1570.75,-200.03"/>
<path fill="none" stroke="#2e7d32" d="M1570.75,-200.03C1570.75,-197.93 1557.08,-196.22 1540.25,-196.22 1523.43,-196.22 1509.75,-197.93 1509.75,-200.03"/>
<text xml:space="preserve" text-anchor="middle" x="1540.25" y="-184.62" font-family="Helvetica,sans-Serif" font-size="10.00">inventory_</text>
<text xml:space="preserve" text-anchor="middle" x="1540.25" y="-173.38" font-family="Helvetica,sans-Serif" font-size="10.00">cluster</text>
</g>
<!-- watcher&#45;&gt;inv_cl -->
<g id="edge7" class="edge">
<title>watcher&#45;&gt;inv_cl</title>
<path fill="none" stroke="#2e7d32" d="M1469.02,-349.92C1479.35,-340.36 1491.31,-327.72 1499.25,-314.34 1517.82,-283.08 1528.84,-242.54 1534.71,-215"/>
<polygon fill="#2e7d32" stroke="#2e7d32" points="1538.07,-216.04 1536.61,-205.55 1531.21,-214.66 1538.07,-216.04"/>
<text xml:space="preserve" text-anchor="middle" x="1533.36" y="-286.29" font-family="Helvetica,sans-Serif" font-size="9.00">upsert</text>
</g>
<!-- inv_bm -->
<g id="node14" class="node">
<title>inv_bm</title>
<path fill="#a5d6a7" stroke="#2e7d32" d="M1693.25,-200.03C1693.25,-202.13 1678.91,-203.84 1661.25,-203.84 1643.6,-203.84 1629.25,-202.13 1629.25,-200.03 1629.25,-200.03 1629.25,-165.72 1629.25,-165.72 1629.25,-163.62 1643.6,-161.91 1661.25,-161.91 1678.91,-161.91 1693.25,-163.62 1693.25,-165.72 1693.25,-165.72 1693.25,-200.03 1693.25,-200.03"/>
<path fill="none" stroke="#2e7d32" d="M1693.25,-200.03C1693.25,-197.93 1678.91,-196.22 1661.25,-196.22 1643.6,-196.22 1629.25,-197.93 1629.25,-200.03"/>
<text xml:space="preserve" text-anchor="middle" x="1661.25" y="-184.62" font-family="Helvetica,sans-Serif" font-size="10.00">inventory_</text>
<text xml:space="preserve" text-anchor="middle" x="1661.25" y="-173.38" font-family="Helvetica,sans-Serif" font-size="10.00">bare_metal</text>
</g>
<!-- watcher&#45;&gt;inv_bm -->
<g id="edge8" class="edge">
<title>watcher&#45;&gt;inv_bm</title>
<path fill="none" stroke="#2e7d32" d="M1483.24,-350.22C1492.51,-346.2 1502.62,-342.25 1512.25,-339.34 1573.18,-320.95 1610.89,-361.84 1653.25,-314.34 1677.02,-287.7 1674.59,-244.53 1669.2,-215.21"/>
<polygon fill="#2e7d32" stroke="#2e7d32" points="1672.63,-214.52 1667.16,-205.44 1665.77,-215.94 1672.63,-214.52"/>
<text xml:space="preserve" text-anchor="middle" x="1684.78" y="-286.29" font-family="Helvetica,sans-Serif" font-size="9.00">upsert</text>
</g>
<!-- inv_it -->
<g id="node16" class="node">
<title>inv_it</title>
<path fill="#a5d6a7" stroke="#2e7d32" d="M1451.63,-200.03C1451.63,-202.13 1434.43,-203.84 1413.25,-203.84 1392.08,-203.84 1374.88,-202.13 1374.88,-200.03 1374.88,-200.03 1374.88,-165.72 1374.88,-165.72 1374.88,-163.62 1392.08,-161.91 1413.25,-161.91 1434.43,-161.91 1451.63,-163.62 1451.63,-165.72 1451.63,-165.72 1451.63,-200.03 1451.63,-200.03"/>
<path fill="none" stroke="#2e7d32" d="M1451.63,-200.03C1451.63,-197.93 1434.43,-196.22 1413.25,-196.22 1392.08,-196.22 1374.88,-197.93 1374.88,-200.03"/>
<text xml:space="preserve" text-anchor="middle" x="1413.25" y="-184.62" font-family="Helvetica,sans-Serif" font-size="10.00">inventory_</text>
<text xml:space="preserve" text-anchor="middle" x="1413.25" y="-173.38" font-family="Helvetica,sans-Serif" font-size="10.00">instance_type</text>
</g>
<!-- watcher&#45;&gt;inv_it -->
<g id="edge9" class="edge">
<title>watcher&#45;&gt;inv_it</title>
<path fill="none" stroke="#2e7d32" d="M1483.1,-349.73C1492.38,-345.72 1502.53,-341.9 1512.25,-339.34 1564.76,-325.56 1718.89,-354.65 1755.25,-314.34 1769.77,-298.26 1770.35,-281.14 1755.25,-265.59 1744.64,-254.67 1495.11,-263.91 1481.25,-257.59 1460.72,-248.24 1443.56,-229.47 1431.61,-213.21"/>
<polygon fill="#2e7d32" stroke="#2e7d32" points="1434.65,-211.46 1426.05,-205.26 1428.91,-215.46 1434.65,-211.46"/>
<text xml:space="preserve" text-anchor="middle" x="1779.11" y="-286.29" font-family="Helvetica,sans-Serif" font-size="9.00">upsert</text>
</g>
<!-- prometheus -->
<g id="node25" class="node">
<title>prometheus</title>
<path fill="#fff9c4" stroke="#f57f17" d="M2004.88,-62.7C2004.88,-62.7 1953.63,-62.7 1953.63,-62.7 1947.63,-62.7 1941.63,-56.7 1941.63,-50.7 1941.63,-50.7 1941.63,-38.7 1941.63,-38.7 1941.63,-32.7 1947.63,-26.7 1953.63,-26.7 1953.63,-26.7 2004.88,-26.7 2004.88,-26.7 2010.88,-26.7 2016.88,-32.7 2016.88,-38.7 2016.88,-38.7 2016.88,-50.7 2016.88,-50.7 2016.88,-56.7 2010.88,-62.7 2004.88,-62.7"/>
<text xml:space="preserve" text-anchor="middle" x="1979.25" y="-46.45" font-family="Helvetica,sans-Serif" font-size="10.00">Prometheus</text>
<text xml:space="preserve" text-anchor="middle" x="1979.25" y="-35.2" font-family="Helvetica,sans-Serif" font-size="10.00">:9000/metrics</text>
</g>
<!-- watcher&#45;&gt;prometheus -->
<g id="edge31" class="edge">
<title>watcher&#45;&gt;prometheus</title>
<path fill="none" stroke="#bdbdbd" stroke-dasharray="1,5" d="M1415.4,-349.84C1405.93,-345.62 1395.4,-341.66 1385.25,-339.34 1342.39,-329.57 624.85,-345.92 594.25,-314.34 579.18,-298.78 585.83,-285.55 594.25,-265.59 623.92,-195.32 646.84,-175.22 717.25,-145.91 767.94,-124.81 1650.96,-137.01 1705.25,-128.91 1736.35,-124.26 1742.26,-114.67 1773.25,-109.41 1803.98,-104.19 1884.3,-112.94 1913.25,-101.41 1929.73,-94.84 1945.07,-82.45 1956.81,-71.02"/>
<polygon fill="#bdbdbd" stroke="#bdbdbd" points="1959.14,-73.64 1963.63,-64.05 1954.13,-68.75 1959.14,-73.64"/>
</g>
<!-- reconciler&#45;&gt;inv_ci -->
<g id="edge10" class="edge">
<title>reconciler&#45;&gt;inv_ci</title>
<path fill="none" stroke="#2e7d32" stroke-dasharray="5,2" d="M1608.05,-350C1617.03,-345.99 1626.85,-342.09 1636.25,-339.34 1672.91,-328.63 1781.3,-343.24 1806.25,-314.34 1820.42,-297.95 1821.44,-281.05 1806.25,-265.59 1797.3,-256.48 1358.07,-262.46 1346.25,-257.59 1323.87,-248.38 1304.26,-229.34 1290.44,-212.92"/>
<polygon fill="#2e7d32" stroke="#2e7d32" points="1293.32,-210.92 1284.32,-205.32 1287.86,-215.31 1293.32,-210.92"/>
<text xml:space="preserve" text-anchor="middle" x="1830.01" y="-286.29" font-family="Helvetica,sans-Serif" font-size="9.00">upsert</text>
</g>
<!-- reconciler&#45;&gt;inv_cl -->
<g id="edge11" class="edge">
<title>reconciler&#45;&gt;inv_cl</title>
<path fill="none" stroke="#2e7d32" stroke-dasharray="5,2" d="M1607.27,-349.81C1616.42,-345.69 1626.53,-341.8 1636.25,-339.34 1789.98,-300.58 2096.19,-378.85 1985.25,-265.59 1970.29,-250.31 1619.48,-266.98 1600.25,-257.59 1581.22,-248.3 1566.19,-229.79 1555.93,-213.65"/>
<polygon fill="#2e7d32" stroke="#2e7d32" points="1559.08,-212.09 1550.95,-205.3 1553.07,-215.68 1559.08,-212.09"/>
<text xml:space="preserve" text-anchor="middle" x="2021.63" y="-286.29" font-family="Helvetica,sans-Serif" font-size="9.00">upsert</text>
</g>
<!-- reconciler&#45;&gt;inv_bm -->
<g id="edge12" class="edge">
<title>reconciler&#45;&gt;inv_bm</title>
<path fill="none" stroke="#2e7d32" stroke-dasharray="5,2" d="M1606.9,-349.78C1616.15,-345.62 1626.38,-341.7 1636.25,-339.34 1695.33,-325.25 2140.31,-358.26 2182.25,-314.34 2197.22,-298.68 2197.44,-281.05 2182.25,-265.59 2164.38,-247.4 1746.28,-268.56 1723.25,-257.59 1703.87,-248.36 1688.34,-229.86 1677.67,-213.7"/>
<polygon fill="#2e7d32" stroke="#2e7d32" points="1680.72,-211.97 1672.46,-205.33 1674.77,-215.67 1680.72,-211.97"/>
<text xml:space="preserve" text-anchor="middle" x="2206.31" y="-286.29" font-family="Helvetica,sans-Serif" font-size="9.00">upsert</text>
</g>
<!-- ingest&#45;&gt;raw_events -->
<g id="edge13" class="edge">
<title>ingest&#45;&gt;raw_events</title>
<path fill="none" stroke="#2e7d32" d="M1737.16,-367.62C1843.19,-367.77 2141.8,-360.03 2048.25,-265.59 2031.66,-248.84 1221.21,-266.21 1199.25,-257.59 1175.89,-248.43 1155.09,-229.12 1140.41,-212.56"/>
<polygon fill="#2e7d32" stroke="#2e7d32" points="1143.44,-210.72 1134.3,-205.37 1138.11,-215.26 1143.44,-210.72"/>
<text xml:space="preserve" text-anchor="middle" x="2088.52" y="-286.29" font-family="Helvetica,sans-Serif" font-size="9.00">store event</text>
</g>
<!-- inv_model -->
<g id="node15" class="node">
<title>inv_model</title>
<path fill="#a5d6a7" stroke="#2e7d32" d="M1812.75,-200.03C1812.75,-202.13 1799.08,-203.84 1782.25,-203.84 1765.43,-203.84 1751.75,-202.13 1751.75,-200.03 1751.75,-200.03 1751.75,-165.72 1751.75,-165.72 1751.75,-163.62 1765.43,-161.91 1782.25,-161.91 1799.08,-161.91 1812.75,-163.62 1812.75,-165.72 1812.75,-165.72 1812.75,-200.03 1812.75,-200.03"/>
<path fill="none" stroke="#2e7d32" d="M1812.75,-200.03C1812.75,-197.93 1799.08,-196.22 1782.25,-196.22 1765.43,-196.22 1751.75,-197.93 1751.75,-200.03"/>
<text xml:space="preserve" text-anchor="middle" x="1782.25" y="-184.62" font-family="Helvetica,sans-Serif" font-size="10.00">inventory_</text>
<text xml:space="preserve" text-anchor="middle" x="1782.25" y="-173.38" font-family="Helvetica,sans-Serif" font-size="10.00">model</text>
</g>
<!-- ingest&#45;&gt;inv_model -->
<g id="edge14" class="edge">
<title>ingest&#45;&gt;inv_model</title>
<path fill="none" stroke="#2e7d32" d="M1737.22,-366.71C1858.54,-364.63 2247.29,-354.82 2284.25,-314.34 2298.87,-298.35 2299.44,-281.05 2284.25,-265.59 2266.06,-247.09 1839.07,-271.65 1817.25,-257.59 1802.5,-248.09 1793.82,-230.51 1788.8,-214.9"/>
<polygon fill="#2e7d32" stroke="#2e7d32" points="1792.24,-214.17 1786.17,-205.49 1785.49,-216.06 1792.24,-214.17"/>
<text xml:space="preserve" text-anchor="middle" x="2310.43" y="-291.17" font-family="Helvetica,sans-Serif" font-size="9.00">upsert</text>
<text xml:space="preserve" text-anchor="middle" x="2310.43" y="-281.42" font-family="Helvetica,sans-Serif" font-size="9.00">(MaaS)</text>
</g>
<!-- metering_entries -->
<g id="node17" class="node">
<title>metering_entries</title>
<path fill="#fff9c4" stroke="#f57f17" d="M2071.25,-200.03C2071.25,-202.13 2051.53,-203.84 2027.25,-203.84 2002.98,-203.84 1983.25,-202.13 1983.25,-200.03 1983.25,-200.03 1983.25,-165.72 1983.25,-165.72 1983.25,-163.62 2002.98,-161.91 2027.25,-161.91 2051.53,-161.91 2071.25,-163.62 2071.25,-165.72 2071.25,-165.72 2071.25,-200.03 2071.25,-200.03"/>
<path fill="none" stroke="#f57f17" d="M2071.25,-200.03C2071.25,-197.93 2051.53,-196.22 2027.25,-196.22 2002.98,-196.22 1983.25,-197.93 1983.25,-200.03"/>
<text xml:space="preserve" text-anchor="middle" x="2027.25" y="-184.62" font-family="Helvetica,sans-Serif" font-size="10.00">metering_entries</text>
<text xml:space="preserve" text-anchor="middle" x="2027.25" y="-173.38" font-family="Helvetica,sans-Serif" font-size="10.00">(usage records)</text>
</g>
<!-- ingest&#45;&gt;metering_entries -->
<g id="edge15" class="edge">
<title>ingest&#45;&gt;metering_entries</title>
<path fill="none" stroke="#e65100" d="M1737.32,-366.45C1900.43,-362.78 2562.45,-345.97 2592.25,-314.34 2607.11,-298.58 2607.4,-281.08 2592.25,-265.59 2585.28,-258.46 2243.06,-259.41 2233.25,-257.59 2178.74,-247.51 2119.42,-224.96 2078.5,-207.44"/>
<polygon fill="#e65100" stroke="#e65100" points="2079.94,-204.25 2069.38,-203.48 2077.16,-210.67 2079.94,-204.25"/>
<text xml:space="preserve" text-anchor="middle" x="2632.01" y="-291.17" font-family="Helvetica,sans-Serif" font-size="9.00" fill="#e65100">MaaS meters</text>
<text xml:space="preserve" text-anchor="middle" x="2632.01" y="-281.42" font-family="Helvetica,sans-Serif" font-size="9.00" fill="#e65100">(event&#45;driven)</text>
</g>
<!-- ingest&#45;&gt;prometheus -->
<g id="edge32" class="edge">
<title>ingest&#45;&gt;prometheus</title>
<path fill="none" stroke="#bdbdbd" stroke-dasharray="1,5" d="M1666.77,-349.77C1657.4,-345.71 1647.12,-341.85 1637.25,-339.34 1512.29,-307.63 1469.18,-359.05 1348.25,-314.34 1313.38,-301.45 1315.57,-277.24 1280.25,-265.59 1266.46,-261.04 767.45,-267.95 757.25,-257.59 722.42,-222.23 722.45,-181.3 757.25,-145.91 776.99,-125.84 1742.42,-133.06 1770.25,-128.91 1801.35,-124.27 1807.4,-115.43 1838.25,-109.41 1871.16,-102.98 1882.43,-114.57 1913.25,-101.41 1929.45,-94.49 1944.69,-82.19 1956.43,-70.9"/>
<polygon fill="#bdbdbd" stroke="#bdbdbd" points="1958.69,-73.59 1963.25,-64.03 1953.72,-68.66 1958.69,-73.59"/>
</g>
<!-- metering -->
<g id="node7" class="node">
<title>metering</title>
<path fill="#ffcc80" stroke="#e65100" d="M1343.75,-386.22C1343.75,-386.22 1282.75,-386.22 1282.75,-386.22 1276.75,-386.22 1270.75,-380.22 1270.75,-374.22 1270.75,-374.22 1270.75,-362.22 1270.75,-362.22 1270.75,-356.22 1276.75,-350.22 1282.75,-350.22 1282.75,-350.22 1343.75,-350.22 1343.75,-350.22 1349.75,-350.22 1355.75,-356.22 1355.75,-362.22 1355.75,-362.22 1355.75,-374.22 1355.75,-374.22 1355.75,-380.22 1349.75,-386.22 1343.75,-386.22"/>
<text xml:space="preserve" text-anchor="middle" x="1313.25" y="-369.97" font-family="Helvetica,sans-Serif" font-size="10.00">metering sweep</text>
<text xml:space="preserve" text-anchor="middle" x="1313.25" y="-358.72" font-family="Helvetica,sans-Serif" font-size="10.00">(60s interval)</text>
</g>
<!-- metering&#45;&gt;metering_entries -->
<g id="edge20" class="edge">
<title>metering&#45;&gt;metering_entries</title>
<path fill="none" stroke="#e65100" d="M1350.47,-349.81C1361.15,-345.59 1372.96,-341.63 1384.25,-339.34 1436.27,-328.79 2302.22,-352.36 2339.25,-314.34 2354.37,-298.82 2353.99,-281.48 2339.25,-265.59 2331.22,-256.93 2244.81,-260.05 2233.25,-257.59 2179.54,-246.17 2120.79,-224.14 2079.83,-207.12"/>
<polygon fill="#e65100" stroke="#e65100" points="2081.26,-203.93 2070.68,-203.28 2078.55,-210.38 2081.26,-203.93"/>
<text xml:space="preserve" text-anchor="middle" x="2400.32" y="-305.79" font-family="Helvetica,sans-Serif" font-size="9.00" fill="#e65100">vm_uptime_seconds</text>
<text xml:space="preserve" text-anchor="middle" x="2400.32" y="-296.04" font-family="Helvetica,sans-Serif" font-size="9.00" fill="#e65100">vm_cpu_core_seconds</text>
<text xml:space="preserve" text-anchor="middle" x="2400.32" y="-286.29" font-family="Helvetica,sans-Serif" font-size="9.00" fill="#e65100">cluster_uptime_seconds</text>
<text xml:space="preserve" text-anchor="middle" x="2400.32" y="-276.54" font-family="Helvetica,sans-Serif" font-size="9.00" fill="#e65100">cluster_worker_node_*</text>
<text xml:space="preserve" text-anchor="middle" x="2400.32" y="-266.79" font-family="Helvetica,sans-Serif" font-size="9.00" fill="#e65100">bm_uptime_seconds</text>
</g>
<!-- metering&#45;&gt;prometheus -->
<g id="edge33" class="edge">
<title>metering&#45;&gt;prometheus</title>
<path fill="none" stroke="#bdbdbd" stroke-dasharray="1,5" d="M1356.09,-349.8C1389.94,-335.83 1431.88,-317.98 1434.25,-314.34 1446.12,-296.21 1449.48,-281 1434.25,-265.59 1421.03,-252.22 770.47,-270.97 757.25,-257.59 722.36,-222.29 722.43,-181.28 757.25,-145.91 778.26,-124.56 1805.78,-134.19 1835.25,-128.91 1871.44,-122.42 1881.35,-119.67 1913.25,-101.41 1927.87,-93.04 1942.38,-81.28 1954.04,-70.73"/>
<polygon fill="#bdbdbd" stroke="#bdbdbd" points="1956.34,-73.38 1961.26,-64 1951.56,-68.26 1956.34,-73.38"/>
</g>
<!-- rating -->
<g id="node8" class="node">
<title>rating</title>
<path fill="#ffcc80" stroke="#e65100" d="M1008.38,-386.22C1008.38,-386.22 960.13,-386.22 960.13,-386.22 954.13,-386.22 948.13,-380.22 948.13,-374.22 948.13,-374.22 948.13,-362.22 948.13,-362.22 948.13,-356.22 954.13,-350.22 960.13,-350.22 960.13,-350.22 1008.38,-350.22 1008.38,-350.22 1014.38,-350.22 1020.38,-356.22 1020.38,-362.22 1020.38,-362.22 1020.38,-374.22 1020.38,-374.22 1020.38,-380.22 1014.38,-386.22 1008.38,-386.22"/>
<text xml:space="preserve" text-anchor="middle" x="984.25" y="-369.97" font-family="Helvetica,sans-Serif" font-size="10.00">rating sweep</text>
<text xml:space="preserve" text-anchor="middle" x="984.25" y="-358.72" font-family="Helvetica,sans-Serif" font-size="10.00">(30s interval)</text>
</g>
<!-- cost_entries -->
<g id="node19" class="node">
<title>cost_entries</title>
<path fill="#ffcdd2" stroke="#c62828" d="M882.75,-200.03C882.75,-202.13 859.67,-203.84 831.25,-203.84 802.84,-203.84 779.75,-202.13 779.75,-200.03 779.75,-200.03 779.75,-165.72 779.75,-165.72 779.75,-163.62 802.84,-161.91 831.25,-161.91 859.67,-161.91 882.75,-163.62 882.75,-165.72 882.75,-165.72 882.75,-200.03 882.75,-200.03"/>
<path fill="none" stroke="#c62828" d="M882.75,-200.03C882.75,-197.93 859.67,-196.22 831.25,-196.22 802.84,-196.22 779.75,-197.93 779.75,-200.03"/>
<text xml:space="preserve" text-anchor="middle" x="831.25" y="-184.62" font-family="Helvetica,sans-Serif" font-size="10.00">cost_entries</text>
<text xml:space="preserve" text-anchor="middle" x="831.25" y="-173.38" font-family="Helvetica,sans-Serif" font-size="10.00">(metered × rate = $)</text>
</g>
<!-- rating&#45;&gt;cost_entries -->
<g id="edge23" class="edge">
<title>rating&#45;&gt;cost_entries</title>
<path fill="none" stroke="#c62828" d="M950.31,-349.83C940.53,-345.61 929.68,-341.65 919.25,-339.34 874.36,-329.41 124.02,-347.34 92,-314.34 76.92,-298.79 77.55,-281.73 92,-265.59 136.82,-215.55 597.24,-192.87 767.99,-186.13"/>
<polygon fill="#c62828" stroke="#c62828" points="767.92,-189.64 777.78,-185.75 767.65,-182.64 767.92,-189.64"/>
<text xml:space="preserve" text-anchor="middle" x="129.13" y="-286.29" font-family="Helvetica,sans-Serif" font-size="9.00" fill="#c62828">cost = value × rate</text>
</g>
<!-- rating&#45;&gt;prometheus -->
<g id="edge34" class="edge">
<title>rating&#45;&gt;prometheus</title>
<path fill="none" stroke="#bdbdbd" stroke-dasharray="1,5" d="M1018.57,-349.81C1028.25,-345.65 1038.97,-341.72 1049.25,-339.34 1104.64,-326.55 1521.05,-355.51 1560.25,-314.34 1575.2,-298.65 1575.5,-280.99 1560.25,-265.59 1544.56,-249.74 772.95,-273.45 757.25,-257.59 722.33,-222.32 722.42,-181.27 757.25,-145.91 779.54,-123.29 1871.17,-141.65 1900.25,-128.91 1926.79,-117.28 1948.67,-92.01 1962.62,-72.35"/>
<polygon fill="#bdbdbd" stroke="#bdbdbd" points="1965.43,-74.45 1968.15,-64.21 1959.63,-70.52 1965.43,-74.45"/>
</g>
<!-- kokusync -->
<g id="node9" class="node">
<title>kokusync</title>
<path fill="#ffe082" stroke="#f57f17" stroke-dasharray="5,2" d="M877.75,-389.09C877.75,-389.09 786.75,-389.09 786.75,-389.09 780.75,-389.09 774.75,-383.09 774.75,-377.09 774.75,-377.09 774.75,-359.34 774.75,-359.34 774.75,-353.34 780.75,-347.34 786.75,-347.34 786.75,-347.34 877.75,-347.34 877.75,-347.34 883.75,-347.34 889.75,-353.34 889.75,-359.34 889.75,-359.34 889.75,-377.09 889.75,-377.09 889.75,-383.09 883.75,-389.09 877.75,-389.09"/>
<text xml:space="preserve" text-anchor="middle" x="832.25" y="-375.59" font-family="Helvetica,sans-Serif" font-size="10.00">koku&#45;sync</text>
<text xml:space="preserve" text-anchor="middle" x="832.25" y="-364.34" font-family="Helvetica,sans-Serif" font-size="10.00">(2m interval)</text>
<text xml:space="preserve" text-anchor="middle" x="832.25" y="-353.09" font-family="Helvetica,sans-Serif" font-size="10.00">[opt: KOKU_DB_URL]</text>
</g>
<!-- koku_db -->
<g id="node23" class="node">
<title>koku_db</title>
<path fill="#f3e5f5" stroke="#7b1fa2" d="M1400,-68.19C1400,-71.07 1367.85,-73.41 1328.25,-73.41 1288.66,-73.41 1256.5,-71.07 1256.5,-68.19 1256.5,-68.19 1256.5,-21.22 1256.5,-21.22 1256.5,-18.34 1288.66,-16 1328.25,-16 1367.85,-16 1400,-18.34 1400,-21.22 1400,-21.22 1400,-68.19 1400,-68.19"/>
<path fill="none" stroke="#7b1fa2" d="M1400,-68.19C1400,-65.31 1367.85,-62.97 1328.25,-62.97 1288.66,-62.97 1256.5,-65.31 1256.5,-68.19"/>
<text xml:space="preserve" text-anchor="middle" x="1328.25" y="-52.08" font-family="Helvetica,sans-Serif" font-size="10.00">Koku PostgreSQL</text>
<text xml:space="preserve" text-anchor="middle" x="1328.25" y="-40.83" font-family="Helvetica,sans-Serif" font-size="10.00">osac_usage_line_items_daily</text>
<text xml:space="preserve" text-anchor="middle" x="1328.25" y="-29.58" font-family="Helvetica,sans-Serif" font-size="10.00">(org{id} schema)</text>
</g>
<!-- kokusync&#45;&gt;koku_db -->
<g id="edge28" class="edge">
<title>kokusync&#45;&gt;koku_db</title>
<path fill="none" stroke="#7b1fa2" d="M774.41,-366.1C606.68,-362.46 128.13,-349.11 67.25,-314.34 0.53,-276.24 -23.95,-202.29 28.25,-145.91 110.88,-56.66 970.98,-46.64 1244.93,-45.72"/>
<polygon fill="#7b1fa2" stroke="#7b1fa2" points="1244.86,-49.22 1254.85,-45.69 1244.84,-42.22 1244.86,-49.22"/>
<text xml:space="preserve" text-anchor="middle" x="53.75" y="-184.07" font-family="Helvetica,sans-Serif" font-size="9.00" fill="#7b1fa2">INSERT +</text>
<text xml:space="preserve" text-anchor="middle" x="53.75" y="-174.32" font-family="Helvetica,sans-Serif" font-size="9.00" fill="#7b1fa2">trigger Masu</text>
</g>
<!-- kokusync&#45;&gt;prometheus -->
<g id="edge35" class="edge">
<title>kokusync&#45;&gt;prometheus</title>
<path fill="none" stroke="#bdbdbd" stroke-dasharray="1,5" d="M887.84,-346.89C898.16,-343.84 908.94,-341.12 919.25,-339.34 1092.78,-309.41 1540.41,-356.98 1711.25,-314.34 1758.84,-302.47 1762.65,-277.39 1810.25,-265.59 1825.52,-261.81 2082.29,-268.87 2093.25,-257.59 2127.86,-222 2113.72,-191.13 2093.25,-145.91 2078.36,-112.98 2046.7,-86.57 2020.52,-69.15"/>
<polygon fill="#bdbdbd" stroke="#bdbdbd" points="2022.74,-66.42 2012.43,-63.96 2018.96,-72.31 2022.74,-66.42"/>
</g>
<!-- splunk_fwd -->
<g id="node10" class="node">
<title>splunk_fwd</title>
<path fill="#ffe082" stroke="#f57f17" stroke-dasharray="5,2" d="M1200.5,-389.09C1200.5,-389.09 1090,-389.09 1090,-389.09 1084,-389.09 1078,-383.09 1078,-377.09 1078,-377.09 1078,-359.34 1078,-359.34 1078,-353.34 1084,-347.34 1090,-347.34 1090,-347.34 1200.5,-347.34 1200.5,-347.34 1206.5,-347.34 1212.5,-353.34 1212.5,-359.34 1212.5,-359.34 1212.5,-377.09 1212.5,-377.09 1212.5,-383.09 1206.5,-389.09 1200.5,-389.09"/>
<text xml:space="preserve" text-anchor="middle" x="1145.25" y="-375.59" font-family="Helvetica,sans-Serif" font-size="10.00">splunk forwarder</text>
<text xml:space="preserve" text-anchor="middle" x="1145.25" y="-364.34" font-family="Helvetica,sans-Serif" font-size="10.00">(10s interval)</text>
<text xml:space="preserve" text-anchor="middle" x="1145.25" y="-353.09" font-family="Helvetica,sans-Serif" font-size="10.00">[opt: SPLUNK_HEC_URL]</text>
</g>
<!-- splunk -->
<g id="node24" class="node">
<title>splunk</title>
<path fill="#ffecb3" stroke="#ff8f00" d="M1871.88,-62.7C1871.88,-62.7 1820.63,-62.7 1820.63,-62.7 1814.63,-62.7 1808.63,-56.7 1808.63,-50.7 1808.63,-50.7 1808.63,-38.7 1808.63,-38.7 1808.63,-32.7 1814.63,-26.7 1820.63,-26.7 1820.63,-26.7 1871.88,-26.7 1871.88,-26.7 1877.88,-26.7 1883.88,-32.7 1883.88,-38.7 1883.88,-38.7 1883.88,-50.7 1883.88,-50.7 1883.88,-56.7 1877.88,-62.7 1871.88,-62.7"/>
<text xml:space="preserve" text-anchor="middle" x="1846.25" y="-46.45" font-family="Helvetica,sans-Serif" font-size="10.00">Splunk HEC</text>
<text xml:space="preserve" text-anchor="middle" x="1846.25" y="-35.2" font-family="Helvetica,sans-Serif" font-size="10.00">(audit events)</text>
</g>
<!-- splunk_fwd&#45;&gt;splunk -->
<g id="edge30" class="edge">
<title>splunk_fwd&#45;&gt;splunk</title>
<path fill="none" stroke="#ff8f00" d="M1207.35,-346.85C1218.84,-343.8 1230.82,-341.1 1242.25,-339.34 1296.69,-330.98 2194.81,-353.77 2233.25,-314.34 2316.1,-229.38 2203.12,-206.11 2093.25,-145.91 2044.37,-119.12 2027.74,-121.18 1973.25,-109.41 1946.53,-103.63 1937.27,-112.45 1912.25,-101.41 1896.25,-94.34 1881.12,-82.15 1869.4,-70.96"/>
<polygon fill="#ff8f00" stroke="#ff8f00" points="1872.13,-68.74 1862.57,-64.16 1867.18,-73.69 1872.13,-68.74"/>
<text xml:space="preserve" text-anchor="middle" x="2284.1" y="-179.2" font-family="Helvetica,sans-Serif" font-size="9.00" fill="#ff8f00">HEC POST</text>
</g>
<!-- raw_events&#45;&gt;splunk_fwd -->
<g id="edge29" class="edge">
<title>raw_events&#45;&gt;splunk_fwd</title>
<path fill="none" stroke="#ff8f00" d="M1104.9,-204.18C1091.84,-222 1070.18,-246.74 1044.25,-257.59 1022.4,-266.74 207.93,-248.76 191.25,-265.59 176.01,-280.99 176.16,-298.8 191.25,-314.34 224.48,-348.55 1002.15,-331.94 1049.25,-339.34 1056.95,-340.55 1064.89,-342.19 1072.76,-344.08"/>
<polygon fill="#ff8f00" stroke="#ff8f00" points="1071.79,-347.44 1082.34,-346.51 1073.51,-340.66 1071.79,-347.44"/>
<text xml:space="preserve" text-anchor="middle" x="221.25" y="-291.17" font-family="Helvetica,sans-Serif" font-size="9.00" fill="#ff8f00">new events</text>
<text xml:space="preserve" text-anchor="middle" x="221.25" y="-281.42" font-family="Helvetica,sans-Serif" font-size="9.00" fill="#ff8f00">(cursor&#45;based)</text>
</g>
<!-- inv_ci&#45;&gt;metering -->
<g id="edge16" class="edge">
<title>inv_ci&#45;&gt;metering</title>
<path fill="none" stroke="#e65100" d="M1261.24,-204.33C1253.1,-222 1238.62,-246.4 1217.25,-257.59 1195.03,-269.24 331.67,-247.77 314,-265.59 298.75,-280.98 298.89,-298.82 314,-314.34 349.95,-351.27 1190.73,-329.2 1241.25,-339.34 1249.03,-340.9 1257.05,-343.23 1264.79,-345.89"/>
<polygon fill="#e65100" stroke="#e65100" points="1263.48,-349.13 1274.08,-349.29 1265.89,-342.56 1263.48,-349.13"/>
<text xml:space="preserve" text-anchor="middle" x="339.13" y="-286.29" font-family="Helvetica,sans-Serif" font-size="9.00" fill="#e65100">billable VMs</text>
</g>
<!-- inv_cl&#45;&gt;metering -->
<g id="edge17" class="edge">
<title>inv_cl&#45;&gt;metering</title>
<path fill="none" stroke="#e65100" d="M1530.37,-204.07C1520.44,-221.83 1503.31,-246.51 1480.25,-257.59 1456.48,-269.02 549.08,-246.86 530.5,-265.59 515.25,-280.98 515.46,-298.76 530.5,-314.34 557.95,-342.77 1202.55,-331.41 1241.25,-339.34 1248.93,-340.92 1256.85,-343.23 1264.51,-345.85"/>
<polygon fill="#e65100" stroke="#e65100" points="1263.1,-349.06 1273.69,-349.21 1265.5,-342.49 1263.1,-349.06"/>
<text xml:space="preserve" text-anchor="middle" x="562.38" y="-286.29" font-family="Helvetica,sans-Serif" font-size="9.00" fill="#e65100">billable clusters</text>
</g>
<!-- inv_bm&#45;&gt;metering -->
<g id="edge18" class="edge">
<title>inv_bm&#45;&gt;metering</title>
<path fill="none" stroke="#e65100" d="M1650.88,-204.33C1640.66,-222 1623.26,-246.4 1600.25,-257.59 1584.93,-265.05 1305.4,-253.38 1293.5,-265.59 1274.56,-285.04 1284.85,-316.93 1296.47,-339.8"/>
<polygon fill="#e65100" stroke="#e65100" points="1293.4,-341.47 1301.26,-348.57 1299.54,-338.12 1293.4,-341.47"/>
<text xml:space="preserve" text-anchor="middle" x="1316.38" y="-286.29" font-family="Helvetica,sans-Serif" font-size="9.00" fill="#e65100">billable BM</text>
</g>
<!-- inv_it&#45;&gt;metering -->
<g id="edge19" class="edge">
<title>inv_it&#45;&gt;metering</title>
<path fill="none" stroke="#e65100" stroke-dasharray="5,2" d="M1401.33,-204.33C1389.76,-221.99 1370.42,-246.4 1346.25,-257.59 1322.98,-268.38 1133.33,-247.14 1115.5,-265.59 1100.45,-281.18 1101.76,-297.6 1115.5,-314.34 1151.66,-358.39 1186.54,-323.44 1241.25,-339.34 1247.84,-341.26 1254.68,-343.52 1261.39,-345.92"/>
<polygon fill="#e65100" stroke="#e65100" points="1259.78,-349.05 1270.38,-349.24 1262.21,-342.49 1259.78,-349.05"/>
<text xml:space="preserve" text-anchor="middle" x="1138.38" y="-291.17" font-family="Helvetica,sans-Serif" font-size="9.00" fill="#e65100">cores/mem</text>
<text xml:space="preserve" text-anchor="middle" x="1138.38" y="-281.42" font-family="Helvetica,sans-Serif" font-size="9.00" fill="#e65100">enrichment</text>
</g>
<!-- metering_entries&#45;&gt;rating -->
<g id="edge21" class="edge">
<title>metering_entries&#45;&gt;rating</title>
<path fill="none" stroke="#c62828" d="M2014.14,-204.18C2001.31,-222 1979.98,-246.74 1954.25,-257.59 1930.18,-267.75 1034.58,-249.82 1013.75,-265.59 991.68,-282.32 985.38,-314.58 983.92,-338.28"/>
<polygon fill="#c62828" stroke="#c62828" points="980.42,-338.15 983.59,-348.26 987.42,-338.38 980.42,-338.15"/>
<text xml:space="preserve" text-anchor="middle" x="1052" y="-291.17" font-family="Helvetica,sans-Serif" font-size="9.00" fill="#c62828">unrated entries</text>
<text xml:space="preserve" text-anchor="middle" x="1052" y="-281.42" font-family="Helvetica,sans-Serif" font-size="9.00" fill="#c62828">(rated_at IS NULL)</text>
</g>
<!-- balance_api -->
<g id="node22" class="node">
<title>balance_api</title>
<path fill="#e3f2fd" stroke="#1565c0" d="M1738.38,-62.7C1738.38,-62.7 1636.13,-62.7 1636.13,-62.7 1630.13,-62.7 1624.13,-56.7 1624.13,-50.7 1624.13,-50.7 1624.13,-38.7 1624.13,-38.7 1624.13,-32.7 1630.13,-26.7 1636.13,-26.7 1636.13,-26.7 1738.38,-26.7 1738.38,-26.7 1744.38,-26.7 1750.38,-32.7 1750.38,-38.7 1750.38,-38.7 1750.38,-50.7 1750.38,-50.7 1750.38,-56.7 1744.38,-62.7 1738.38,-62.7"/>
<text xml:space="preserve" text-anchor="middle" x="1687.25" y="-46.45" font-family="Helvetica,sans-Serif" font-size="10.00">Balance Check API</text>
<text xml:space="preserve" text-anchor="middle" x="1687.25" y="-35.2" font-family="Helvetica,sans-Serif" font-size="10.00">GET /customers/.../value</text>
</g>
<!-- metering_entries&#45;&gt;balance_api -->
<g id="edge25" class="edge">
<title>metering_entries&#45;&gt;balance_api</title>
<path fill="none" stroke="#1565c0" d="M1990.59,-162.53C1979.11,-156.83 1966.29,-150.81 1954.25,-145.91 1905.76,-126.17 1893.34,-120.87 1842.25,-109.41 1814.71,-103.23 1805.91,-110.7 1779.25,-101.41 1757.88,-93.96 1736.12,-81.07 1719.14,-69.57"/>
<polygon fill="#1565c0" stroke="#1565c0" points="1721.17,-66.73 1710.97,-63.88 1717.17,-72.47 1721.17,-66.73"/>
<text xml:space="preserve" text-anchor="middle" x="1934.87" y="-120.36" font-family="Helvetica,sans-Serif" font-size="9.00" fill="#1565c0">SUM(value)</text>
<text xml:space="preserve" text-anchor="middle" x="1934.87" y="-110.61" font-family="Helvetica,sans-Serif" font-size="9.00" fill="#1565c0">vs quota</text>
</g>
<!-- rates -->
<g id="node18" class="node">
<title>rates</title>
<path fill="#e1bee7" stroke="#7b1fa2" d="M1015.5,-200.03C1015.5,-202.13 998.81,-203.84 978.25,-203.84 957.7,-203.84 941,-202.13 941,-200.03 941,-200.03 941,-165.72 941,-165.72 941,-163.62 957.7,-161.91 978.25,-161.91 998.81,-161.91 1015.5,-163.62 1015.5,-165.72 1015.5,-165.72 1015.5,-200.03 1015.5,-200.03"/>
<path fill="none" stroke="#7b1fa2" d="M1015.5,-200.03C1015.5,-197.93 998.81,-196.22 978.25,-196.22 957.7,-196.22 941,-197.93 941,-200.03"/>
<text xml:space="preserve" text-anchor="middle" x="978.25" y="-184.62" font-family="Helvetica,sans-Serif" font-size="10.00">rates</text>
<text xml:space="preserve" text-anchor="middle" x="978.25" y="-173.38" font-family="Helvetica,sans-Serif" font-size="10.00">(pricing rules)</text>
</g>
<!-- rates&#45;&gt;rating -->
<g id="edge22" class="edge">
<title>rates&#45;&gt;rating</title>
<path fill="none" stroke="#7b1fa2" d="M966.56,-204.26C955.19,-221.89 936.16,-246.26 912.25,-257.59 894.32,-266.1 747.48,-251.24 733.75,-265.59 718.78,-281.25 719.49,-298.03 733.75,-314.34 761.13,-345.66 879.16,-328.27 919.25,-339.34 925.47,-341.06 931.87,-343.25 938.12,-345.64"/>
<polygon fill="#7b1fa2" stroke="#7b1fa2" points="936.45,-348.74 947.04,-349.24 939.08,-342.25 936.45,-348.74"/>
<text xml:space="preserve" text-anchor="middle" x="769" y="-291.92" font-family="Helvetica,sans-Serif" font-size="9.00" fill="#7b1fa2">lookup rate</text>
<text xml:space="preserve" text-anchor="middle" x="769" y="-282.17" font-family="Helvetica,sans-Serif" font-size="9.00" fill="#7b1fa2">(tenant → global)</text>
</g>
<!-- cost_entries&#45;&gt;kokusync -->
<g id="edge27" class="edge">
<title>cost_entries&#45;&gt;kokusync</title>
<path fill="none" stroke="#7b1fa2" d="M779.38,-194.02C701.93,-211.49 570.13,-251.54 619.25,-314.34 636.99,-337.02 707.98,-351.34 763.19,-359.28"/>
<polygon fill="#7b1fa2" stroke="#7b1fa2" points="762.47,-362.71 772.86,-360.62 763.44,-355.78 762.47,-362.71"/>
<text xml:space="preserve" text-anchor="middle" x="644.75" y="-291.17" font-family="Helvetica,sans-Serif" font-size="9.00" fill="#7b1fa2">daily costs</text>
<text xml:space="preserve" text-anchor="middle" x="644.75" y="-281.42" font-family="Helvetica,sans-Serif" font-size="9.00" fill="#7b1fa2">(excl. MaaS)</text>
</g>
<!-- report_api -->
<g id="node21" class="node">
<title>report_api</title>
<path fill="#e3f2fd" stroke="#1565c0" d="M1554.38,-62.7C1554.38,-62.7 1470.13,-62.7 1470.13,-62.7 1464.13,-62.7 1458.13,-56.7 1458.13,-50.7 1458.13,-50.7 1458.13,-38.7 1458.13,-38.7 1458.13,-32.7 1464.13,-26.7 1470.13,-26.7 1470.13,-26.7 1554.38,-26.7 1554.38,-26.7 1560.38,-26.7 1566.38,-32.7 1566.38,-38.7 1566.38,-38.7 1566.38,-50.7 1566.38,-50.7 1566.38,-56.7 1560.38,-62.7 1554.38,-62.7"/>
<text xml:space="preserve" text-anchor="middle" x="1512.25" y="-46.45" font-family="Helvetica,sans-Serif" font-size="10.00">Report API</text>
<text xml:space="preserve" text-anchor="middle" x="1512.25" y="-35.2" font-family="Helvetica,sans-Serif" font-size="10.00">GET /api/v1/reports/*</text>
</g>
<!-- cost_entries&#45;&gt;report_api -->
<g id="edge24" class="edge">
<title>cost_entries&#45;&gt;report_api</title>
<path fill="none" stroke="#1565c0" d="M868.64,-162.17C882.05,-155.94 897.5,-149.7 912.25,-145.91 1135.6,-88.43 1211.71,-177.99 1429.25,-101.41 1449.05,-94.44 1468.66,-81.63 1483.84,-70.05"/>
<polygon fill="#1565c0" stroke="#1565c0" points="1485.82,-72.94 1491.5,-64 1481.48,-67.45 1485.82,-72.94"/>
<text xml:space="preserve" text-anchor="middle" x="1439.06" y="-120.36" font-family="Helvetica,sans-Serif" font-size="9.00" fill="#1565c0">GROUP BY</text>
<text xml:space="preserve" text-anchor="middle" x="1439.06" y="-110.61" font-family="Helvetica,sans-Serif" font-size="9.00" fill="#1565c0">tenant/type/meter</text>
</g>
<!-- quotas -->
<g id="node20" class="node">
<title>quotas</title>
<path fill="#b2ebf2" stroke="#00838f" d="M1925.25,-200.03C1925.25,-202.13 1913.15,-203.84 1898.25,-203.84 1883.36,-203.84 1871.25,-202.13 1871.25,-200.03 1871.25,-200.03 1871.25,-165.72 1871.25,-165.72 1871.25,-163.62 1883.36,-161.91 1898.25,-161.91 1913.15,-161.91 1925.25,-163.62 1925.25,-165.72 1925.25,-165.72 1925.25,-200.03 1925.25,-200.03"/>
<path fill="none" stroke="#00838f" d="M1925.25,-200.03C1925.25,-197.93 1913.15,-196.22 1898.25,-196.22 1883.36,-196.22 1871.25,-197.93 1871.25,-200.03"/>
<text xml:space="preserve" text-anchor="middle" x="1898.25" y="-184.62" font-family="Helvetica,sans-Serif" font-size="10.00">quotas</text>
<text xml:space="preserve" text-anchor="middle" x="1898.25" y="-173.38" font-family="Helvetica,sans-Serif" font-size="10.00">(limits)</text>
</g>
<!-- quotas&#45;&gt;balance_api -->
<g id="edge26" class="edge">
<title>quotas&#45;&gt;balance_api</title>
<path fill="none" stroke="#00838f" stroke-dasharray="5,2" d="M1871.1,-164.35C1833.59,-140.15 1765.82,-96.41 1723.87,-69.33"/>
<polygon fill="#00838f" stroke="#00838f" points="1725.87,-66.46 1715.57,-63.98 1722.08,-72.34 1725.87,-66.46"/>
<text xml:space="preserve" text-anchor="middle" x="1819.9" y="-115.48" font-family="Helvetica,sans-Serif" font-size="9.00" fill="#00838f">limit</text>
</g>
</g>
</svg>
