<?xml version="1.0" encoding="UTF-8" standalone="no"?>
<!DOCTYPE svg PUBLIC "-//W3C//DTD SVG 1.1//EN"
 "http://www.w3.org/Graphics/SVG/1.1/DTD/svg11.dtd">
<!-- Generated by graphviz version 15.0.0 (20260523.1842)
 -->
<!-- Title: data_flow_processing Pages: 1 -->
<svg width="1357pt" height="1393pt"
 viewBox="0.00 0.00 1357.00 1393.00" xmlns="http://www.w3.org/2000/svg" xmlns:xlink="http://www.w3.org/1999/xlink">
<g id="graph0" class="graph" transform="scale(1 1) rotate(0) translate(36 1357.25)">
<title>data_flow_processing</title>
<polygon fill="white" stroke="none" points="-36,36 -36,-1357.25 1321,-1357.25 1321,36 -36,36"/>
<text xml:space="preserve" text-anchor="middle" x="642.5" y="-1303.95" font-family="Helvetica,sans-Serif" font-size="14.00">Processing Pipeline — Metering &amp; Rating Sweeps</text>
<g id="clust1" class="cluster">
<title>cluster_source</title>
<polygon fill="#e8f5e9" stroke="#2e7d32" points="8,-1133.75 8,-1290.25 1252,-1290.25 1252,-1133.75 8,-1133.75"/>
<text xml:space="preserve" text-anchor="middle" x="630" y="-1275.8" font-family="Helvetica,sans-Serif" font-size="11.00" fill="#2e7d32">Source Tables (read by sweeps)</text>
</g>
<g id="clust2" class="cluster">
<title>cluster_target</title>
<polygon fill="#ffebee" stroke="#c62828" points="854,-130 854,-286.5 1040,-286.5 1040,-130 854,-130"/>
<text xml:space="preserve" text-anchor="middle" x="947" y="-272.05" font-family="Helvetica,sans-Serif" font-size="11.00" fill="#c62828">Target Tables (written by sweeps)</text>
</g>
<g id="clust3" class="cluster">
<title>cluster_consumers</title>
<polygon fill="#fafafa" stroke="#bdbdbd" points="863,-8 863,-87.25 1277,-87.25 1277,-8 863,-8"/>
<text xml:space="preserve" text-anchor="middle" x="1070" y="-72.8" font-family="Helvetica,sans-Serif" font-size="11.00" fill="#616161">Consumers</text>
</g>
<!-- inv_ci -->
<g id="node1" class="node">
<title>inv_ci</title>
<polygon fill="#a5d6a7" stroke="none" points="376,-1161.75 376,-1242.25 566,-1242.25 566,-1161.75 376,-1161.75"/>
<polygon fill="#2e7d32" stroke="none" points="377,-1222 377,-1241.25 565,-1241.25 565,-1222 377,-1222"/>
<text xml:space="preserve" text-anchor="start" x="404.25" y="-1228.75" font-family="Helvetica,sans-Serif" font-weight="bold" font-size="10.00" fill="white">inventory_compute_instance</text>
<text xml:space="preserve" text-anchor="start" x="381" y="-1209.75" font-family="Helvetica,sans-Serif" font-size="10.00">state = RUNNING</text>
<text xml:space="preserve" text-anchor="start" x="381" y="-1189" font-family="Helvetica,sans-Serif" font-size="10.00">last_metered_at → period_start</text>
<text xml:space="preserve" text-anchor="start" x="381" y="-1169.75" font-family="Helvetica,sans-Serif" font-size="10.00">cores, memory_gib (or via instance_type)</text>
<polygon fill="none" stroke="black" points="376,-1161.75 376,-1242.25 566,-1242.25 566,-1161.75 376,-1161.75"/>
</g>
<!-- metering -->
<g id="node7" class="node">
<title>metering</title>
<polygon fill="#ffcc80" stroke="none" points="355.62,-914.75 355.62,-1056.25 586.38,-1056.25 586.38,-914.75 355.62,-914.75"/>
<polygon fill="#e65100" stroke="none" points="356.62,-1032 356.62,-1055.25 585.38,-1055.25 585.38,-1032 356.62,-1032"/>
<text xml:space="preserve" text-anchor="start" x="421.88" y="-1040.75" font-family="Helvetica,sans-Serif" font-weight="bold" font-size="10.00" fill="white">metering sweep (60s)</text>
<text xml:space="preserve" text-anchor="start" x="362.62" y="-1017.75" font-family="Helvetica,sans-Serif" font-size="10.00">1. Query billable resources (state filter)</text>
<text xml:space="preserve" text-anchor="start" x="362.62" y="-994.5" font-family="Helvetica,sans-Serif" font-size="10.00">2. Enrich cores/mem from instance_type catalog</text>
<text xml:space="preserve" text-anchor="start" x="362.62" y="-971.25" font-family="Helvetica,sans-Serif" font-size="10.00">3. Calculate duration since last_metered_at</text>
<text xml:space="preserve" text-anchor="start" x="362.62" y="-948" font-family="Helvetica,sans-Serif" font-size="10.00">4. Emit meter entries (value = quantity × duration)</text>
<text xml:space="preserve" text-anchor="start" x="362.62" y="-924.75" font-family="Helvetica,sans-Serif" font-size="10.00">5. Update last_metered_at</text>
<polygon fill="none" stroke="black" points="355.62,-914.75 355.62,-1056.25 586.38,-1056.25 586.38,-914.75 355.62,-914.75"/>
</g>
<!-- inv_ci&#45;&gt;metering -->
<g id="edge1" class="edge">
<title>inv_ci&#45;&gt;metering</title>
<path fill="none" stroke="#e65100" d="M471,-1162.16C471,-1135.7 471,-1099.7 471,-1067.19"/>
<polygon fill="#e65100" stroke="#e65100" points="474.5,-1067.37 471,-1057.37 467.5,-1067.37 474.5,-1067.37"/>
<text xml:space="preserve" text-anchor="middle" x="496.12" y="-1095.33" font-family="Helvetica,sans-Serif" font-size="9.00" fill="#e65100">billable VMs</text>
</g>
<!-- inv_cl -->
<g id="node2" class="node">
<title>inv_cl</title>
<polygon fill="#a5d6a7" stroke="none" points="616.12,-1171.38 616.12,-1232.62 803.88,-1232.62 803.88,-1171.38 616.12,-1171.38"/>
<polygon fill="#2e7d32" stroke="none" points="617.12,-1212.38 617.12,-1231.62 802.88,-1231.62 802.88,-1212.38 617.12,-1212.38"/>
<text xml:space="preserve" text-anchor="start" x="669.88" y="-1219.12" font-family="Helvetica,sans-Serif" font-weight="bold" font-size="10.00" fill="white">inventory_cluster</text>
<text xml:space="preserve" text-anchor="start" x="621.12" y="-1200.12" font-family="Helvetica,sans-Serif" font-size="10.00">state = READY / PROGRESSING</text>
<text xml:space="preserve" text-anchor="start" x="621.12" y="-1179.38" font-family="Helvetica,sans-Serif" font-size="10.00">node_sets JSONB → worker node count</text>
<polygon fill="none" stroke="black" points="616.12,-1171.38 616.12,-1232.62 803.88,-1232.62 803.88,-1171.38 616.12,-1171.38"/>
</g>
<!-- inv_cl&#45;&gt;metering -->
<g id="edge2" class="edge">
<title>inv_cl&#45;&gt;metering</title>
<path fill="none" stroke="#e65100" d="M677.27,-1171.62C646.41,-1143.93 598.81,-1101.2 557.1,-1063.78"/>
<polygon fill="#e65100" stroke="#e65100" points="559.48,-1061.21 549.7,-1057.13 554.8,-1066.42 559.48,-1061.21"/>
<text xml:space="preserve" text-anchor="middle" x="636.68" y="-1095.33" font-family="Helvetica,sans-Serif" font-size="9.00" fill="#e65100">billable clusters</text>
</g>
<!-- inv_bm -->
<g id="node3" class="node">
<title>inv_bm</title>
<polygon fill="#a5d6a7" stroke="none" points="16.12,-1181.75 16.12,-1222.25 125.88,-1222.25 125.88,-1181.75 16.12,-1181.75"/>
<polygon fill="#2e7d32" stroke="none" points="17.12,-1202 17.12,-1221.25 124.88,-1221.25 124.88,-1202 17.12,-1202"/>
<text xml:space="preserve" text-anchor="start" x="21.12" y="-1208.75" font-family="Helvetica,sans-Serif" font-weight="bold" font-size="10.00" fill="white">inventory_bare_metal</text>
<text xml:space="preserve" text-anchor="start" x="21.12" y="-1189.75" font-family="Helvetica,sans-Serif" font-size="10.00">state = RUNNING</text>
<polygon fill="none" stroke="black" points="16.12,-1181.75 16.12,-1222.25 125.88,-1222.25 125.88,-1181.75 16.12,-1181.75"/>
</g>
<!-- inv_bm&#45;&gt;metering -->
<g id="edge3" class="edge">
<title>inv_bm&#45;&gt;metering</title>
<path fill="none" stroke="#e65100" d="M90.55,-1181.98C106.07,-1167.54 128.78,-1147.84 151,-1133.75 211.91,-1095.13 284.6,-1060.84 345.3,-1035.09"/>
<polygon fill="#e65100" stroke="#e65100" points="346.46,-1038.4 354.32,-1031.3 343.74,-1031.95 346.46,-1038.4"/>
<text xml:space="preserve" text-anchor="middle" x="249.25" y="-1095.33" font-family="Helvetica,sans-Serif" font-size="9.00" fill="#e65100">billable BM</text>
</g>
<!-- inv_it -->
<g id="node4" class="node">
<title>inv_it</title>
<polygon fill="#a5d6a7" stroke="none" points="175.88,-1181.75 175.88,-1222.25 326.12,-1222.25 326.12,-1181.75 175.88,-1181.75"/>
<polygon fill="#2e7d32" stroke="none" points="176.88,-1202 176.88,-1221.25 325.12,-1221.25 325.12,-1202 176.88,-1202"/>
<text xml:space="preserve" text-anchor="start" x="194.75" y="-1208.75" font-family="Helvetica,sans-Serif" font-weight="bold" font-size="10.00" fill="white">inventory_instance_type</text>
<text xml:space="preserve" text-anchor="start" x="180.88" y="-1189.75" font-family="Helvetica,sans-Serif" font-size="10.00">cores, memory_gib (enrichment)</text>
<polygon fill="none" stroke="black" points="175.88,-1181.75 175.88,-1222.25 326.12,-1222.25 326.12,-1181.75 175.88,-1181.75"/>
</g>
<!-- inv_it&#45;&gt;metering -->
<g id="edge4" class="edge">
<title>inv_it&#45;&gt;metering</title>
<path fill="none" stroke="#e65100" stroke-dasharray="5,2" d="M270.52,-1181.96C297.55,-1155.61 347.96,-1106.47 391.46,-1064.05"/>
<polygon fill="#e65100" stroke="#e65100" points="393.7,-1066.76 398.41,-1057.27 388.81,-1061.75 393.7,-1066.76"/>
<text xml:space="preserve" text-anchor="middle" x="383.88" y="-1100.2" font-family="Helvetica,sans-Serif" font-size="9.00" fill="#e65100">cores/mem</text>
<text xml:space="preserve" text-anchor="middle" x="383.88" y="-1090.45" font-family="Helvetica,sans-Serif" font-size="9.00" fill="#e65100">enrichment</text>
</g>
<!-- quotas -->
<g id="node5" class="node">
<title>quotas</title>
<polygon fill="#b2ebf2" stroke="none" points="1094.25,-1171.38 1094.25,-1232.62 1243.75,-1232.62 1243.75,-1171.38 1094.25,-1171.38"/>
<polygon fill="#00838f" stroke="none" points="1095.25,-1212.38 1095.25,-1231.62 1242.75,-1231.62 1242.75,-1212.38 1095.25,-1212.38"/>
<text xml:space="preserve" text-anchor="start" x="1153.25" y="-1219.12" font-family="Helvetica,sans-Serif" font-weight="bold" font-size="10.00" fill="white">quotas</text>
<text xml:space="preserve" text-anchor="start" x="1099.25" y="-1198.62" font-family="Helvetica,sans-Serif" font-size="10.00">tenant_id + meter_name → limit</text>
<text xml:space="preserve" text-anchor="start" x="1099.25" y="-1179.38" font-family="Helvetica,sans-Serif" font-size="10.00">period: monthly / daily</text>
<polygon fill="none" stroke="black" points="1094.25,-1171.38 1094.25,-1232.62 1243.75,-1232.62 1243.75,-1171.38 1094.25,-1171.38"/>
</g>
<!-- balance_api -->
<g id="node12" class="node">
<title>balance_api</title>
<path fill="#b2ebf2" stroke="#00838f" d="M1256.5,-59.25C1256.5,-59.25 1081.5,-59.25 1081.5,-59.25 1075.5,-59.25 1069.5,-53.25 1069.5,-47.25 1069.5,-47.25 1069.5,-28 1069.5,-28 1069.5,-22 1075.5,-16 1081.5,-16 1081.5,-16 1256.5,-16 1256.5,-16 1262.5,-16 1268.5,-22 1268.5,-28 1268.5,-28 1268.5,-47.25 1268.5,-47.25 1268.5,-53.25 1262.5,-59.25 1256.5,-59.25"/>
<text xml:space="preserve" text-anchor="middle" x="1169" y="-45.75" font-family="Helvetica,sans-Serif" font-size="10.00">Balance Check API</text>
<text xml:space="preserve" text-anchor="middle" x="1169" y="-34.5" font-family="Helvetica,sans-Serif" font-size="10.00">GET /customers/{id}/entitlements/.../value</text>
<text xml:space="preserve" text-anchor="middle" x="1169" y="-23.25" font-family="Helvetica,sans-Serif" font-size="10.00">SUM(usage) vs quota limit → hasAccess</text>
</g>
<!-- quotas&#45;&gt;balance_api -->
<g id="edge11" class="edge">
<title>quotas&#45;&gt;balance_api</title>
<path fill="none" stroke="#00838f" d="M1169,-1171.51C1169,-1130.16 1169,-1052.6 1169,-986.5 1169,-986.5 1169,-986.5 1169,-197.25 1169,-153.54 1169,-103.05 1169,-71"/>
<polygon fill="#00838f" stroke="#00838f" points="1172.5,-71.18 1169,-61.18 1165.5,-71.18 1172.5,-71.18"/>
<text xml:space="preserve" text-anchor="middle" x="1191.12" y="-529.08" font-family="Helvetica,sans-Serif" font-size="9.00" fill="#00838f">limit_value</text>
</g>
<!-- rates -->
<g id="node6" class="node">
<title>rates</title>
<polygon fill="#e1bee7" stroke="none" points="853.62,-1141.75 853.62,-1262.25 1044.38,-1262.25 1044.38,-1141.75 853.62,-1141.75"/>
<polygon fill="#7b1fa2" stroke="none" points="854.62,-1242 854.62,-1261.25 1043.38,-1261.25 1043.38,-1242 854.62,-1242"/>
<text xml:space="preserve" text-anchor="start" x="937.75" y="-1248.75" font-family="Helvetica,sans-Serif" font-weight="bold" font-size="10.00" fill="white">rates</text>
<text xml:space="preserve" text-anchor="start" x="858.62" y="-1228.25" font-family="Helvetica,sans-Serif" font-size="10.00">resource_type + meter_name → rate</text>
<text xml:space="preserve" text-anchor="start" x="858.62" y="-1207.5" font-family="Helvetica,sans-Serif" font-size="10.00">tenant override → global fallback</text>
<text xml:space="preserve" text-anchor="start" x="858.62" y="-1188.25" font-family="Helvetica,sans-Serif" font-size="10.00">flat price_per_unit or tiered (JSONB)</text>
<text xml:space="preserve" text-anchor="start" x="858.62" y="-1169" font-family="Helvetica,sans-Serif" font-size="10.00">cost_type: Infrastructure / Supplementary</text>
<text xml:space="preserve" text-anchor="start" x="858.62" y="-1149.75" font-family="Helvetica,sans-Serif" font-size="10.00">koku_metric: mapping for Koku sync</text>
<polygon fill="none" stroke="black" points="853.62,-1141.75 853.62,-1262.25 1044.38,-1262.25 1044.38,-1141.75 853.62,-1141.75"/>
</g>
<!-- rating -->
<g id="node9" class="node">
<title>rating</title>
<polygon fill="#ffcdd2" stroke="none" points="820.38,-347 820.38,-490 1073.62,-490 1073.62,-347 820.38,-347"/>
<polygon fill="#c62828" stroke="none" points="821.38,-465.75 821.38,-489 1072.62,-489 1072.62,-465.75 821.38,-465.75"/>
<text xml:space="preserve" text-anchor="start" x="905" y="-474.5" font-family="Helvetica,sans-Serif" font-weight="bold" font-size="10.00" fill="white">rating sweep (30s)</text>
<text xml:space="preserve" text-anchor="start" x="827.38" y="-451.5" font-family="Helvetica,sans-Serif" font-size="10.00">1. Query unrated entries (rated_at IS NULL, batch 500)</text>
<text xml:space="preserve" text-anchor="start" x="827.38" y="-426.75" font-family="Helvetica,sans-Serif" font-size="10.00">2. FindRate: tenant&#45;specific → global fallback</text>
<text xml:space="preserve" text-anchor="start" x="827.38" y="-403.5" font-family="Helvetica,sans-Serif" font-size="10.00">3. Apply rate: flat (value × price) or tiered</text>
<text xml:space="preserve" text-anchor="start" x="827.38" y="-380.25" font-family="Helvetica,sans-Serif" font-size="10.00">4. Write cost entry with cost_type from rate</text>
<text xml:space="preserve" text-anchor="start" x="827.38" y="-357" font-family="Helvetica,sans-Serif" font-size="10.00">5. Mark metering entry as rated (set rated_at)</text>
<polygon fill="none" stroke="black" points="820.38,-347 820.38,-490 1073.62,-490 1073.62,-347 820.38,-347"/>
</g>
<!-- rates&#45;&gt;rating -->
<g id="edge7" class="edge">
<title>rates&#45;&gt;rating</title>
<path fill="none" stroke="#7b1fa2" d="M948.85,-1141.94C948.5,-1003.73 947.61,-659.04 947.21,-501"/>
<polygon fill="#7b1fa2" stroke="#7b1fa2" points="950.71,-501.45 947.18,-491.46 943.71,-501.47 950.71,-501.45"/>
<text xml:space="preserve" text-anchor="middle" x="980.41" y="-873.2" font-family="Helvetica,sans-Serif" font-size="9.00" fill="#7b1fa2">FindRate()</text>
<text xml:space="preserve" text-anchor="middle" x="980.41" y="-863.45" font-family="Helvetica,sans-Serif" font-size="9.00" fill="#7b1fa2">tenant → global</text>
</g>
<!-- metering_entries -->
<g id="node8" class="node">
<title>metering_entries</title>
<polygon fill="#fff9c4" stroke="none" points="628.12,-575.5 628.12,-827.75 859.88,-827.75 859.88,-575.5 628.12,-575.5"/>
<polygon fill="#f57f17" stroke="none" points="629.12,-807.5 629.12,-826.75 858.88,-826.75 858.88,-807.5 629.12,-807.5"/>
<text xml:space="preserve" text-anchor="start" x="705" y="-814.25" font-family="Helvetica,sans-Serif" font-weight="bold" font-size="10.00" fill="white">metering_entries</text>
<polygon fill="#fffde7" stroke="none" points="629.12,-788.25 629.12,-807.5 858.88,-807.5 858.88,-788.25 629.12,-788.25"/>
<text xml:space="preserve" text-anchor="start" x="678.38" y="-795" font-family="Helvetica,sans-Serif" font-style="italic" font-size="10.00">Capacity&#45;based (from sweep):</text>
<text xml:space="preserve" text-anchor="start" x="633.12" y="-776" font-family="Helvetica,sans-Serif" font-size="10.00">vm_uptime_seconds</text>
<text xml:space="preserve" text-anchor="start" x="796.75" y="-776" font-family="Helvetica,sans-Serif" font-size="10.00">duration</text>
<text xml:space="preserve" text-anchor="start" x="633.12" y="-756.75" font-family="Helvetica,sans-Serif" font-size="10.00">vm_cpu_core_seconds</text>
<text xml:space="preserve" text-anchor="start" x="778.75" y="-756.75" font-family="Helvetica,sans-Serif" font-size="10.00">cores × duration</text>
<text xml:space="preserve" text-anchor="start" x="633.12" y="-737.5" font-family="Helvetica,sans-Serif" font-size="10.00">vm_memory_gib_seconds</text>
<text xml:space="preserve" text-anchor="start" x="773.12" y="-737.5" font-family="Helvetica,sans-Serif" font-size="10.00">memory × duration</text>
<text xml:space="preserve" text-anchor="start" x="633.12" y="-718.25" font-family="Helvetica,sans-Serif" font-size="10.00">cluster_uptime_seconds</text>
<text xml:space="preserve" text-anchor="start" x="796.75" y="-718.25" font-family="Helvetica,sans-Serif" font-size="10.00">duration</text>
<text xml:space="preserve" text-anchor="start" x="633.12" y="-699" font-family="Helvetica,sans-Serif" font-size="10.00">cluster_worker_node_seconds</text>
<text xml:space="preserve" text-anchor="start" x="775.75" y="-699" font-family="Helvetica,sans-Serif" font-size="10.00">Σ(size × duration)</text>
<text xml:space="preserve" text-anchor="start" x="633.12" y="-679.75" font-family="Helvetica,sans-Serif" font-size="10.00">cluster_worker_node_count</text>
<text xml:space="preserve" text-anchor="start" x="777.62" y="-679.75" font-family="Helvetica,sans-Serif" font-size="10.00">Σ(size) snapshot</text>
<text xml:space="preserve" text-anchor="start" x="633.12" y="-660.5" font-family="Helvetica,sans-Serif" font-size="10.00">bm_uptime_seconds</text>
<text xml:space="preserve" text-anchor="start" x="796.75" y="-660.5" font-family="Helvetica,sans-Serif" font-size="10.00">duration</text>
<polygon fill="#fffde7" stroke="none" points="629.12,-634.25 629.12,-653.5 858.88,-653.5 858.88,-634.25 629.12,-634.25"/>
<text xml:space="preserve" text-anchor="start" x="655.5" y="-641" font-family="Helvetica,sans-Serif" font-style="italic" font-size="10.00">Consumption&#45;based (from HTTP ingest):</text>
<text xml:space="preserve" text-anchor="start" x="633.12" y="-622" font-family="Helvetica,sans-Serif" font-size="10.00">maas_tokens_in</text>
<text xml:space="preserve" text-anchor="start" x="782.88" y="-622" font-family="Helvetica,sans-Serif" font-size="10.00">prompt tokens</text>
<text xml:space="preserve" text-anchor="start" x="633.12" y="-602.75" font-family="Helvetica,sans-Serif" font-size="10.00">maas_tokens_out</text>
<text xml:space="preserve" text-anchor="start" x="774.25" y="-602.75" font-family="Helvetica,sans-Serif" font-size="10.00">completion tokens</text>
<text xml:space="preserve" text-anchor="start" x="633.12" y="-583.5" font-family="Helvetica,sans-Serif" font-size="10.00">maas_requests</text>
<text xml:space="preserve" text-anchor="start" x="784.38" y="-583.5" font-family="Helvetica,sans-Serif" font-size="10.00">request count</text>
<polygon fill="none" stroke="black" points="628.12,-575.5 628.12,-827.75 859.88,-827.75 859.88,-575.5 628.12,-575.5"/>
</g>
<!-- metering&#45;&gt;metering_entries -->
<g id="edge5" class="edge">
<title>metering&#45;&gt;metering_entries</title>
<path fill="none" stroke="#e65100" d="M538.48,-914.82C563.24,-889.27 592.1,-859.47 620.23,-830.42"/>
<polygon fill="#e65100" stroke="#e65100" points="622.65,-832.96 627.09,-823.34 617.62,-828.09 622.65,-832.96"/>
<text xml:space="preserve" text-anchor="middle" x="611.92" y="-867.58" font-family="Helvetica,sans-Serif" font-size="9.00" fill="#e65100">INSERT batch</text>
</g>
<!-- metering_entries&#45;&gt;rating -->
<g id="edge6" class="edge">
<title>metering_entries&#45;&gt;rating</title>
<path fill="none" stroke="#c62828" d="M800.37,-575.85C810.7,-557.47 822.16,-539.27 834.5,-523 840.93,-514.53 848.1,-506.17 855.63,-498.1"/>
<polygon fill="#c62828" stroke="#c62828" points="858.14,-500.54 862.54,-490.9 853.09,-495.69 858.14,-500.54"/>
<text xml:space="preserve" text-anchor="middle" x="872.75" y="-533.95" font-family="Helvetica,sans-Serif" font-size="9.00" fill="#c62828">unrated entries</text>
<text xml:space="preserve" text-anchor="middle" x="872.75" y="-524.2" font-family="Helvetica,sans-Serif" font-size="9.00" fill="#c62828">(rated_at IS NULL)</text>
</g>
<!-- metering_entries&#45;&gt;balance_api -->
<g id="edge10" class="edge">
<title>metering_entries&#45;&gt;balance_api</title>
<path fill="none" stroke="#00838f" d="M730.9,-575.62C724.71,-448.48 735.84,-253.14 842,-130 901.92,-60.5 954.48,-107.44 1044,-87.25 1067.61,-81.93 1092.65,-72.91 1114.08,-64.08"/>
<polygon fill="#00838f" stroke="#00838f" points="1115.35,-67.34 1123.2,-60.22 1112.63,-60.89 1115.35,-67.34"/>
<text xml:space="preserve" text-anchor="middle" x="789.97" y="-305.45" font-family="Helvetica,sans-Serif" font-size="9.00" fill="#00838f">SUM(value)</text>
<text xml:space="preserve" text-anchor="middle" x="789.97" y="-295.7" font-family="Helvetica,sans-Serif" font-size="9.00" fill="#00838f">for tenant+meter</text>
</g>
<!-- cost_entries -->
<g id="node10" class="node">
<title>cost_entries</title>
<polygon fill="#ffcdd2" stroke="none" points="861.75,-138 861.75,-258.5 1032.25,-258.5 1032.25,-138 861.75,-138"/>
<polygon fill="#c62828" stroke="none" points="862.75,-238.25 862.75,-257.5 1031.25,-257.5 1031.25,-238.25 862.75,-238.25"/>
<text xml:space="preserve" text-anchor="start" x="918.88" y="-245" font-family="Helvetica,sans-Serif" font-weight="bold" font-size="10.00" fill="white">cost_entries</text>
<text xml:space="preserve" text-anchor="start" x="866.75" y="-224.5" font-family="Helvetica,sans-Serif" font-size="10.00">metering_entry_id → source</text>
<text xml:space="preserve" text-anchor="start" x="866.75" y="-203.75" font-family="Helvetica,sans-Serif" font-size="10.00">rate_id → pricing rule applied</text>
<text xml:space="preserve" text-anchor="start" x="866.75" y="-184.5" font-family="Helvetica,sans-Serif" font-size="10.00">cost_amount = metered_value × rate</text>
<text xml:space="preserve" text-anchor="start" x="866.75" y="-165.25" font-family="Helvetica,sans-Serif" font-size="10.00">currency (USD)</text>
<text xml:space="preserve" text-anchor="start" x="866.75" y="-146" font-family="Helvetica,sans-Serif" font-size="10.00">period_start / period_end</text>
<polygon fill="none" stroke="black" points="861.75,-138 861.75,-258.5 1032.25,-258.5 1032.25,-138 861.75,-138"/>
</g>
<!-- rating&#45;&gt;cost_entries -->
<g id="edge8" class="edge">
<title>rating&#45;&gt;cost_entries</title>
<path fill="none" stroke="#c62828" d="M947,-347.24C947,-322.39 947,-294.44 947,-269.58"/>
<polygon fill="#c62828" stroke="#c62828" points="950.5,-269.91 947,-259.91 943.5,-269.91 950.5,-269.91"/>
<text xml:space="preserve" text-anchor="middle" x="984.12" y="-305.45" font-family="Helvetica,sans-Serif" font-size="9.00" fill="#c62828">INSERT</text>
<text xml:space="preserve" text-anchor="middle" x="984.12" y="-295.7" font-family="Helvetica,sans-Serif" font-size="9.00" fill="#c62828">cost = value × rate</text>
</g>
<!-- report_api -->
<g id="node11" class="node">
<title>report_api</title>
<path fill="#e3f2fd" stroke="#1565c0" d="M1007.38,-58.5C1007.38,-58.5 882.62,-58.5 882.62,-58.5 876.62,-58.5 870.62,-52.5 870.62,-46.5 870.62,-46.5 870.62,-28.75 870.62,-28.75 870.62,-22.75 876.62,-16.75 882.62,-16.75 882.62,-16.75 1007.38,-16.75 1007.38,-16.75 1013.38,-16.75 1019.38,-22.75 1019.38,-28.75 1019.38,-28.75 1019.38,-46.5 1019.38,-46.5 1019.38,-52.5 1013.38,-58.5 1007.38,-58.5"/>
<text xml:space="preserve" text-anchor="middle" x="945" y="-45" font-family="Helvetica,sans-Serif" font-size="10.00">Report API</text>
<text xml:space="preserve" text-anchor="middle" x="945" y="-33.75" font-family="Helvetica,sans-Serif" font-size="10.00">GET /api/v1/reports/costs</text>
<text xml:space="preserve" text-anchor="middle" x="945" y="-22.5" font-family="Helvetica,sans-Serif" font-size="10.00">GROUP BY tenant/type/meter</text>
</g>
<!-- cost_entries&#45;&gt;report_api -->
<g id="edge9" class="edge">
<title>cost_entries&#45;&gt;report_api</title>
<path fill="none" stroke="#1565c0" d="M946.26,-138.18C945.97,-115.24 945.65,-89.88 945.4,-70.49"/>
<polygon fill="#1565c0" stroke="#1565c0" points="948.9,-70.46 945.28,-60.5 941.9,-70.54 948.9,-70.46"/>
<text xml:space="preserve" text-anchor="middle" x="957.45" y="-96.45" font-family="Helvetica,sans-Serif" font-size="9.00" fill="#1565c0">query</text>
</g>
</g>
</svg>
