<?xml version="1.0" encoding="UTF-8" standalone="no"?>
<!DOCTYPE svg PUBLIC "-//W3C//DTD SVG 1.1//EN"
 "http://www.w3.org/Graphics/SVG/1.1/DTD/svg11.dtd">
<!-- Generated by graphviz version 15.0.0 (20260523.1842)
 -->
<!-- Title: data_flow_ingestion Pages: 1 -->
<svg width="1254pt" height="463pt"
 viewBox="0.00 0.00 1254.00 463.00" xmlns="http://www.w3.org/2000/svg" xmlns:xlink="http://www.w3.org/1999/xlink">
<g id="graph0" class="graph" transform="scale(1 1) rotate(0) translate(36 427.19)">
<title>data_flow_ingestion</title>
<polygon fill="white" stroke="none" points="-36,36 -36,-427.19 1218.38,-427.19 1218.38,36 -36,36"/>
<text xml:space="preserve" text-anchor="middle" x="591.19" y="-373.89" font-family="Helvetica,sans-Serif" font-size="14.00">Event Ingestion — Sources → Tables</text>
<g id="clust1" class="cluster">
<title>cluster_sources</title>
<polygon fill="#fafafa" stroke="#bdbdbd" points="321,-279.44 321,-357.19 862,-357.19 862,-279.44 321,-279.44"/>
<text xml:space="preserve" text-anchor="middle" x="591.5" y="-342.74" font-family="Helvetica,sans-Serif" font-size="11.00" fill="#616161">Event Sources</text>
</g>
<g id="clust2" class="cluster">
<title>cluster_goroutines</title>
<polygon fill="#fff8e1" stroke="#f57f17" points="263,-144.19 263,-230.94 992,-230.94 992,-144.19 263,-144.19"/>
<text xml:space="preserve" text-anchor="middle" x="627.5" y="-216.49" font-family="Helvetica,sans-Serif" font-size="11.00" fill="#f57f17">Ingestion Goroutines</text>
</g>
<g id="clust3" class="cluster">
<title>cluster_tables</title>
<polygon fill="#e8f5e9" stroke="#2e7d32" points="8,-8 8,-85.94 1069,-85.94 1069,-8 8,-8"/>
<text xml:space="preserve" text-anchor="middle" x="538.5" y="-71.49" font-family="Helvetica,sans-Serif" font-size="11.00" fill="#2e7d32">PostgreSQL</text>
</g>
<!-- osac -->
<g id="node1" class="node">
<title>osac</title>
<path fill="#e8eaf6" stroke="#3f51b5" d="M487.25,-326.31C487.25,-326.31 340.75,-326.31 340.75,-326.31 334.75,-326.31 328.75,-320.31 328.75,-314.31 328.75,-314.31 328.75,-302.31 328.75,-302.31 328.75,-296.31 334.75,-290.31 340.75,-290.31 340.75,-290.31 487.25,-290.31 487.25,-290.31 493.25,-290.31 499.25,-296.31 499.25,-302.31 499.25,-302.31 499.25,-314.31 499.25,-314.31 499.25,-320.31 493.25,-326.31 487.25,-326.31"/>
<text xml:space="preserve" text-anchor="middle" x="414" y="-310.06" font-family="Helvetica,sans-Serif" font-size="10.00">OSAC fulfillment&#45;service</text>
<text xml:space="preserve" text-anchor="middle" x="414" y="-298.81" font-family="Helvetica,sans-Serif" font-size="10.00">(gRPC Watch stream + REST List)</text>
</g>
<!-- watcher -->
<g id="node4" class="node">
<title>watcher</title>
<path fill="#ffe082" stroke="#f57f17" d="M589.12,-202.94C589.12,-202.94 476.88,-202.94 476.88,-202.94 470.88,-202.94 464.88,-196.94 464.88,-190.94 464.88,-190.94 464.88,-164.19 464.88,-164.19 464.88,-158.19 470.88,-152.19 476.88,-152.19 476.88,-152.19 589.12,-152.19 589.12,-152.19 595.12,-152.19 601.12,-158.19 601.12,-164.19 601.12,-164.19 601.12,-190.94 601.12,-190.94 601.12,-196.94 595.12,-202.94 589.12,-202.94"/>
<text xml:space="preserve" text-anchor="start" x="515" y="-188.44" font-family="Helvetica,sans-Serif" font-weight="bold" font-size="10.00">watcher</text>
<text xml:space="preserve" text-anchor="start" x="491" y="-174.94" font-family="Helvetica,sans-Serif" font-size="8.00">continuous · watcher.go</text>
<text xml:space="preserve" text-anchor="start" x="474.88" y="-160.44" font-family="Helvetica,sans-Serif" font-size="8.00">VM/cluster/BM lifecycle → upsert</text>
</g>
<!-- osac&#45;&gt;watcher -->
<g id="edge1" class="edge">
<title>osac&#45;&gt;watcher</title>
<path fill="none" stroke="#3f51b5" d="M430.05,-289.95C448.63,-269.84 479.64,-236.29 502.78,-211.26"/>
<polygon fill="#3f51b5" stroke="#3f51b5" points="505.06,-213.95 509.27,-204.23 499.91,-209.2 505.06,-213.95"/>
<text xml:space="preserve" text-anchor="middle" x="512.69" y="-249.89" font-family="Helvetica,sans-Serif" font-size="9.00" fill="#3f51b5">Watch stream</text>
<text xml:space="preserve" text-anchor="middle" x="512.69" y="-240.14" font-family="Helvetica,sans-Serif" font-size="9.00" fill="#3f51b5">(real&#45;time events)</text>
</g>
<!-- reconciler -->
<g id="node5" class="node">
<title>reconciler</title>
<path fill="#ffe082" stroke="#f57f17" d="M402.5,-202.94C402.5,-202.94 283.5,-202.94 283.5,-202.94 277.5,-202.94 271.5,-196.94 271.5,-190.94 271.5,-190.94 271.5,-164.19 271.5,-164.19 271.5,-158.19 277.5,-152.19 283.5,-152.19 283.5,-152.19 402.5,-152.19 402.5,-152.19 408.5,-152.19 414.5,-158.19 414.5,-164.19 414.5,-164.19 414.5,-190.94 414.5,-190.94 414.5,-196.94 408.5,-202.94 402.5,-202.94"/>
<text xml:space="preserve" text-anchor="start" x="319.75" y="-188.44" font-family="Helvetica,sans-Serif" font-weight="bold" font-size="10.00">reconciler</text>
<text xml:space="preserve" text-anchor="start" x="298.75" y="-174.94" font-family="Helvetica,sans-Serif" font-size="8.00">1h interval · reconciler.go</text>
<text xml:space="preserve" text-anchor="start" x="281.5" y="-160.44" font-family="Helvetica,sans-Serif" font-size="8.00">List all resources → drift correction</text>
</g>
<!-- osac&#45;&gt;reconciler -->
<g id="edge2" class="edge">
<title>osac&#45;&gt;reconciler</title>
<path fill="none" stroke="#3f51b5" stroke-dasharray="5,2" d="M404.42,-289.95C393.58,-270.28 375.64,-237.74 361.94,-212.9"/>
<polygon fill="#3f51b5" stroke="#3f51b5" points="365.17,-211.51 357.27,-204.45 359.04,-214.9 365.17,-211.51"/>
<text xml:space="preserve" text-anchor="middle" x="406.45" y="-249.89" font-family="Helvetica,sans-Serif" font-size="9.00" fill="#3f51b5">List APIs</text>
<text xml:space="preserve" text-anchor="middle" x="406.45" y="-240.14" font-family="Helvetica,sans-Serif" font-size="9.00" fill="#3f51b5">(periodic)</text>
</g>
<!-- ipp -->
<g id="node2" class="node">
<title>ipp</title>
<path fill="#f3e5f5" stroke="#7b1fa2" d="M656.75,-329.19C656.75,-329.19 561.25,-329.19 561.25,-329.19 555.25,-329.19 549.25,-323.19 549.25,-317.19 549.25,-317.19 549.25,-299.44 549.25,-299.44 549.25,-293.44 555.25,-287.44 561.25,-287.44 561.25,-287.44 656.75,-287.44 656.75,-287.44 662.75,-287.44 668.75,-293.44 668.75,-299.44 668.75,-299.44 668.75,-317.19 668.75,-317.19 668.75,-323.19 662.75,-329.19 656.75,-329.19"/>
<text xml:space="preserve" text-anchor="middle" x="609" y="-315.69" font-family="Helvetica,sans-Serif" font-size="10.00">IPP Gateway</text>
<text xml:space="preserve" text-anchor="middle" x="609" y="-304.44" font-family="Helvetica,sans-Serif" font-size="10.00">external&#45;metering plugin</text>
<text xml:space="preserve" text-anchor="middle" x="609" y="-293.19" font-family="Helvetica,sans-Serif" font-size="10.00">POST /api/v1/events</text>
</g>
<!-- ingest -->
<g id="node6" class="node">
<title>ingest</title>
<path fill="#ffe082" stroke="#f57f17" d="M792.38,-202.94C792.38,-202.94 663.62,-202.94 663.62,-202.94 657.62,-202.94 651.62,-196.94 651.62,-190.94 651.62,-190.94 651.62,-164.19 651.62,-164.19 651.62,-158.19 657.62,-152.19 663.62,-152.19 663.62,-152.19 792.38,-152.19 792.38,-152.19 798.38,-152.19 804.38,-158.19 804.38,-164.19 804.38,-164.19 804.38,-190.94 804.38,-190.94 804.38,-196.94 798.38,-202.94 792.38,-202.94"/>
<text xml:space="preserve" text-anchor="start" x="699.12" y="-188.44" font-family="Helvetica,sans-Serif" font-weight="bold" font-size="10.00">HTTP ingest</text>
<text xml:space="preserve" text-anchor="start" x="695.75" y="-174.94" font-family="Helvetica,sans-Serif" font-size="8.00">:8020 · handler.go</text>
<text xml:space="preserve" text-anchor="start" x="661.62" y="-160.44" font-family="Helvetica,sans-Serif" font-size="8.00">CloudEvents → raw_events + meters</text>
</g>
<!-- ipp&#45;&gt;ingest -->
<g id="edge3" class="edge">
<title>ipp&#45;&gt;ingest</title>
<path fill="none" stroke="#7b1fa2" d="M626.5,-287.05C638.46,-273.33 654.75,-254.87 669.5,-238.94 677.84,-229.93 687.02,-220.32 695.58,-211.48"/>
<polygon fill="#7b1fa2" stroke="#7b1fa2" points="698.03,-213.98 702.5,-204.37 693.01,-209.1 698.03,-213.98"/>
<text xml:space="preserve" text-anchor="middle" x="706.25" y="-249.89" font-family="Helvetica,sans-Serif" font-size="9.00" fill="#7b1fa2">CloudEvent</text>
<text xml:space="preserve" text-anchor="middle" x="706.25" y="-240.14" font-family="Helvetica,sans-Serif" font-size="9.00" fill="#7b1fa2">(inference tokens)</text>
</g>
<!-- http_client -->
<g id="node3" class="node">
<title>http_client</title>
<path fill="#e0f2f1" stroke="#009688" d="M841.62,-326.31C841.62,-326.31 730.38,-326.31 730.38,-326.31 724.38,-326.31 718.38,-320.31 718.38,-314.31 718.38,-314.31 718.38,-302.31 718.38,-302.31 718.38,-296.31 724.38,-290.31 730.38,-290.31 730.38,-290.31 841.62,-290.31 841.62,-290.31 847.62,-290.31 853.62,-296.31 853.62,-302.31 853.62,-302.31 853.62,-314.31 853.62,-314.31 853.62,-320.31 847.62,-326.31 841.62,-326.31"/>
<text xml:space="preserve" text-anchor="middle" x="786" y="-310.06" font-family="Helvetica,sans-Serif" font-size="10.00">curl / osac&#45;event&#45;stream.sh</text>
<text xml:space="preserve" text-anchor="middle" x="786" y="-298.81" font-family="Helvetica,sans-Serif" font-size="10.00">POST /api/v1/events</text>
</g>
<!-- http_client&#45;&gt;ingest -->
<g id="edge4" class="edge">
<title>http_client&#45;&gt;ingest</title>
<path fill="none" stroke="#009688" d="M778.18,-289.95C769.4,-270.46 754.92,-238.32 743.77,-213.56"/>
<polygon fill="#009688" stroke="#009688" points="746.98,-212.18 739.69,-204.5 740.6,-215.06 746.98,-212.18"/>
<text xml:space="preserve" text-anchor="middle" x="787.9" y="-249.89" font-family="Helvetica,sans-Serif" font-size="9.00" fill="#009688">CloudEvent</text>
<text xml:space="preserve" text-anchor="middle" x="787.9" y="-240.14" font-family="Helvetica,sans-Serif" font-size="9.00" fill="#009688">(any type)</text>
</g>
<!-- raw_events -->
<g id="node8" class="node">
<title>raw_events</title>
<path fill="#c8e6c9" stroke="#2e7d32" d="M767.12,-54.12C767.12,-56.23 746.9,-57.94 722,-57.94 697.1,-57.94 676.88,-56.23 676.88,-54.12 676.88,-54.12 676.88,-19.81 676.88,-19.81 676.88,-17.71 697.1,-16 722,-16 746.9,-16 767.12,-17.71 767.12,-19.81 767.12,-19.81 767.12,-54.12 767.12,-54.12"/>
<path fill="none" stroke="#2e7d32" d="M767.12,-54.12C767.12,-52.02 746.9,-50.31 722,-50.31 697.1,-50.31 676.88,-52.02 676.88,-54.12"/>
<text xml:space="preserve" text-anchor="middle" x="722" y="-38.72" font-family="Helvetica,sans-Serif" font-size="10.00">raw_events</text>
<text xml:space="preserve" text-anchor="middle" x="722" y="-27.47" font-family="Helvetica,sans-Serif" font-size="10.00">(append&#45;only log)</text>
</g>
<!-- watcher&#45;&gt;raw_events -->
<g id="edge5" class="edge">
<title>watcher&#45;&gt;raw_events</title>
<path fill="none" stroke="#2e7d32" d="M566.79,-151.78C600.18,-127.3 651.09,-89.96 685.42,-64.79"/>
<polygon fill="#2e7d32" stroke="#2e7d32" points="687.42,-67.67 693.41,-58.93 683.28,-62.02 687.42,-67.67"/>
<text xml:space="preserve" text-anchor="middle" x="654.55" y="-104.89" font-family="Helvetica,sans-Serif" font-size="9.00">store</text>
</g>
<!-- inv_ci -->
<g id="node9" class="node">
<title>inv_ci</title>
<path fill="#a5d6a7" stroke="#2e7d32" d="M156.25,-51.7C156.25,-53.5 124.76,-54.97 86,-54.97 47.24,-54.97 15.75,-53.5 15.75,-51.7 15.75,-51.7 15.75,-22.24 15.75,-22.24 15.75,-20.44 47.24,-18.97 86,-18.97 124.76,-18.97 156.25,-20.44 156.25,-22.24 156.25,-22.24 156.25,-51.7 156.25,-51.7"/>
<path fill="none" stroke="#2e7d32" d="M156.25,-51.7C156.25,-49.89 124.76,-48.42 86,-48.42 47.24,-48.42 15.75,-49.89 15.75,-51.7"/>
<text xml:space="preserve" text-anchor="middle" x="86" y="-33.09" font-family="Helvetica,sans-Serif" font-size="10.00">inventory_compute_instance</text>
</g>
<!-- watcher&#45;&gt;inv_ci -->
<g id="edge6" class="edge">
<title>watcher&#45;&gt;inv_ci</title>
<path fill="none" stroke="#2e7d32" d="M466.94,-151.72C457.97,-148.89 448.82,-146.28 440,-144.19 370.43,-127.68 349.87,-140.5 280.5,-123.19 234.69,-111.75 224.25,-104.89 181,-85.94 163.34,-78.2 144.3,-68.8 127.93,-60.38"/>
<polygon fill="#2e7d32" stroke="#2e7d32" points="129.95,-57.49 119.46,-55.99 126.72,-63.7 129.95,-57.49"/>
<text xml:space="preserve" text-anchor="middle" x="293.25" y="-104.89" font-family="Helvetica,sans-Serif" font-size="9.00">upsert</text>
</g>
<!-- inv_cl -->
<g id="node10" class="node">
<title>inv_cl</title>
<path fill="#a5d6a7" stroke="#2e7d32" d="M296.12,-51.7C296.12,-53.5 275.9,-54.97 251,-54.97 226.1,-54.97 205.88,-53.5 205.88,-51.7 205.88,-51.7 205.88,-22.24 205.88,-22.24 205.88,-20.44 226.1,-18.97 251,-18.97 275.9,-18.97 296.12,-20.44 296.12,-22.24 296.12,-22.24 296.12,-51.7 296.12,-51.7"/>
<path fill="none" stroke="#2e7d32" d="M296.12,-51.7C296.12,-49.89 275.9,-48.42 251,-48.42 226.1,-48.42 205.88,-49.89 205.88,-51.7"/>
<text xml:space="preserve" text-anchor="middle" x="251" y="-33.09" font-family="Helvetica,sans-Serif" font-size="10.00">inventory_cluster</text>
</g>
<!-- watcher&#45;&gt;inv_cl -->
<g id="edge7" class="edge">
<title>watcher&#45;&gt;inv_cl</title>
<path fill="none" stroke="#2e7d32" d="M478.88,-151.7C459.5,-142.76 437.5,-132.56 417.5,-123.19 390.1,-110.34 384.56,-103.96 356,-93.94 341.35,-88.8 336.22,-92.16 322,-85.94 307.81,-79.72 293.41,-70.63 281.32,-62.02"/>
<polygon fill="#2e7d32" stroke="#2e7d32" points="283.52,-59.29 273.39,-56.18 279.37,-64.93 283.52,-59.29"/>
<text xml:space="preserve" text-anchor="middle" x="430.25" y="-104.89" font-family="Helvetica,sans-Serif" font-size="9.00">upsert</text>
</g>
<!-- inv_bm -->
<g id="node11" class="node">
<title>inv_bm</title>
<path fill="#a5d6a7" stroke="#2e7d32" d="M455.5,-51.7C455.5,-53.5 431.07,-54.97 401,-54.97 370.93,-54.97 346.5,-53.5 346.5,-51.7 346.5,-51.7 346.5,-22.24 346.5,-22.24 346.5,-20.44 370.93,-18.97 401,-18.97 431.07,-18.97 455.5,-20.44 455.5,-22.24 455.5,-22.24 455.5,-51.7 455.5,-51.7"/>
<path fill="none" stroke="#2e7d32" d="M455.5,-51.7C455.5,-49.89 431.07,-48.42 401,-48.42 370.93,-48.42 346.5,-49.89 346.5,-51.7"/>
<text xml:space="preserve" text-anchor="middle" x="401" y="-33.09" font-family="Helvetica,sans-Serif" font-size="10.00">inventory_bare_metal</text>
</g>
<!-- watcher&#45;&gt;inv_bm -->
<g id="edge8" class="edge">
<title>watcher&#45;&gt;inv_bm</title>
<path fill="none" stroke="#2e7d32" d="M509.4,-151.78C485.65,-126.85 449.2,-88.58 425.23,-63.41"/>
<polygon fill="#2e7d32" stroke="#2e7d32" points="427.79,-61.02 418.36,-56.2 422.72,-65.85 427.79,-61.02"/>
<text xml:space="preserve" text-anchor="middle" x="491.57" y="-104.89" font-family="Helvetica,sans-Serif" font-size="9.00">upsert</text>
</g>
<!-- inv_it -->
<g id="node13" class="node">
<title>inv_it</title>
<path fill="#a5d6a7" stroke="#2e7d32" d="M626.88,-51.7C626.88,-53.5 599.59,-54.97 566,-54.97 532.41,-54.97 505.12,-53.5 505.12,-51.7 505.12,-51.7 505.12,-22.24 505.12,-22.24 505.12,-20.44 532.41,-18.97 566,-18.97 599.59,-18.97 626.88,-20.44 626.88,-22.24 626.88,-22.24 626.88,-51.7 626.88,-51.7"/>
<path fill="none" stroke="#2e7d32" d="M626.88,-51.7C626.88,-49.89 599.59,-48.42 566,-48.42 532.41,-48.42 505.12,-49.89 505.12,-51.7"/>
<text xml:space="preserve" text-anchor="middle" x="566" y="-33.09" font-family="Helvetica,sans-Serif" font-size="10.00">inventory_instance_type</text>
</g>
<!-- watcher&#45;&gt;inv_it -->
<g id="edge9" class="edge">
<title>watcher&#45;&gt;inv_it</title>
<path fill="none" stroke="#2e7d32" d="M538.9,-151.78C544.63,-127.72 553.32,-91.24 559.3,-66.1"/>
<polygon fill="#2e7d32" stroke="#2e7d32" points="562.66,-67.11 561.57,-56.57 555.85,-65.49 562.66,-67.11"/>
<text xml:space="preserve" text-anchor="middle" x="565.21" y="-104.89" font-family="Helvetica,sans-Serif" font-size="9.00">upsert</text>
</g>
<!-- reconciler&#45;&gt;inv_ci -->
<g id="edge10" class="edge">
<title>reconciler&#45;&gt;inv_ci</title>
<path fill="none" stroke="#2e7d32" stroke-dasharray="5,2" d="M271.22,-167.06C214.12,-158.17 140.17,-143.25 117.5,-123.19 101.24,-108.8 93.36,-85.25 89.55,-66.54"/>
<polygon fill="#2e7d32" stroke="#2e7d32" points="93.03,-66.13 87.88,-56.87 86.13,-67.32 93.03,-66.13"/>
<text xml:space="preserve" text-anchor="middle" x="130.25" y="-104.89" font-family="Helvetica,sans-Serif" font-size="9.00">upsert</text>
</g>
<!-- reconciler&#45;&gt;inv_cl -->
<g id="edge11" class="edge">
<title>reconciler&#45;&gt;inv_cl</title>
<path fill="none" stroke="#2e7d32" stroke-dasharray="5,2" d="M271.13,-164.61C226.13,-155.5 174.16,-141.41 160.5,-123.19 152.7,-112.78 153.17,-104.67 160.5,-93.94 166.02,-85.86 172.35,-90.51 181,-85.94 194.02,-79.05 207.55,-70.22 219.21,-62.03"/>
<polygon fill="#2e7d32" stroke="#2e7d32" points="221.2,-64.9 227.27,-56.23 217.11,-59.22 221.2,-64.9"/>
<text xml:space="preserve" text-anchor="middle" x="173.25" y="-104.89" font-family="Helvetica,sans-Serif" font-size="9.00">upsert</text>
</g>
<!-- reconciler&#45;&gt;inv_bm -->
<g id="edge12" class="edge">
<title>reconciler&#45;&gt;inv_bm</title>
<path fill="none" stroke="#2e7d32" stroke-dasharray="5,2" d="M328.17,-152.01C319.94,-134.99 313.09,-112.2 322.5,-93.94 329.46,-80.42 341.37,-69.45 353.83,-60.92"/>
<polygon fill="#2e7d32" stroke="#2e7d32" points="355.54,-63.98 362.12,-55.68 351.8,-58.06 355.54,-63.98"/>
<text xml:space="preserve" text-anchor="middle" x="335.25" y="-104.89" font-family="Helvetica,sans-Serif" font-size="9.00">upsert</text>
</g>
<!-- ingest&#45;&gt;raw_events -->
<g id="edge13" class="edge">
<title>ingest&#45;&gt;raw_events</title>
<path fill="none" stroke="#2e7d32" d="M723.95,-151.92C722.65,-142.91 721.39,-132.61 720.75,-123.19 719.56,-105.54 719.75,-85.79 720.3,-69.76"/>
<polygon fill="#2e7d32" stroke="#2e7d32" points="723.79,-69.96 720.7,-59.82 716.8,-69.67 723.79,-69.96"/>
<text xml:space="preserve" text-anchor="middle" x="730.88" y="-104.89" font-family="Helvetica,sans-Serif" font-size="9.00">store</text>
</g>
<!-- inv_model -->
<g id="node12" class="node">
<title>inv_model</title>
<path fill="#a5d6a7" stroke="#2e7d32" d="M904.62,-51.7C904.62,-53.5 885.07,-54.97 861,-54.97 836.93,-54.97 817.38,-53.5 817.38,-51.7 817.38,-51.7 817.38,-22.24 817.38,-22.24 817.38,-20.44 836.93,-18.97 861,-18.97 885.07,-18.97 904.62,-20.44 904.62,-22.24 904.62,-22.24 904.62,-51.7 904.62,-51.7"/>
<path fill="none" stroke="#2e7d32" d="M904.62,-51.7C904.62,-49.89 885.07,-48.42 861,-48.42 836.93,-48.42 817.38,-49.89 817.38,-51.7"/>
<text xml:space="preserve" text-anchor="middle" x="861" y="-33.09" font-family="Helvetica,sans-Serif" font-size="10.00">inventory_model</text>
</g>
<!-- ingest&#45;&gt;inv_model -->
<g id="edge14" class="edge">
<title>ingest&#45;&gt;inv_model</title>
<path fill="none" stroke="#2e7d32" d="M746.6,-151.76C759.71,-134.84 778.07,-112.27 796,-93.94 806.68,-83.02 819.24,-71.86 830.45,-62.41"/>
<polygon fill="#2e7d32" stroke="#2e7d32" points="832.47,-65.28 837.93,-56.21 828,-59.9 832.47,-65.28"/>
<text xml:space="preserve" text-anchor="middle" x="811" y="-109.76" font-family="Helvetica,sans-Serif" font-size="9.00">upsert</text>
<text xml:space="preserve" text-anchor="middle" x="811" y="-100.01" font-family="Helvetica,sans-Serif" font-size="9.00">(MaaS)</text>
</g>
<!-- metering_entries -->
<g id="node14" class="node">
<title>metering_entries</title>
<path fill="#fff9c4" stroke="#f57f17" d="M1061.38,-54.12C1061.38,-56.23 1037.45,-57.94 1008,-57.94 978.55,-57.94 954.62,-56.23 954.62,-54.12 954.62,-54.12 954.62,-19.81 954.62,-19.81 954.62,-17.71 978.55,-16 1008,-16 1037.45,-16 1061.38,-17.71 1061.38,-19.81 1061.38,-19.81 1061.38,-54.12 1061.38,-54.12"/>
<path fill="none" stroke="#f57f17" d="M1061.38,-54.12C1061.38,-52.02 1037.45,-50.31 1008,-50.31 978.55,-50.31 954.62,-52.02 954.62,-54.12"/>
<text xml:space="preserve" text-anchor="middle" x="1008" y="-38.72" font-family="Helvetica,sans-Serif" font-size="10.00">metering_entries</text>
<text xml:space="preserve" text-anchor="middle" x="1008" y="-27.47" font-family="Helvetica,sans-Serif" font-size="10.00">(MaaS: event&#45;driven)</text>
</g>
<!-- ingest&#45;&gt;metering_entries -->
<g id="edge15" class="edge">
<title>ingest&#45;&gt;metering_entries</title>
<path fill="none" stroke="#e65100" d="M780.47,-151.8C797.77,-143.2 816.94,-133.2 834,-123.19 854.02,-111.45 855.64,-102.38 877.25,-93.94 899.34,-85.31 907.73,-94.09 930,-85.94 944.25,-80.72 958.72,-72.72 971.27,-64.74"/>
<polygon fill="#e65100" stroke="#e65100" points="973.19,-67.67 979.61,-59.24 969.34,-61.82 973.19,-67.67"/>
<text xml:space="preserve" text-anchor="middle" x="913.62" y="-114.64" font-family="Helvetica,sans-Serif" font-size="9.00" fill="#e65100">maas_tokens_in</text>
<text xml:space="preserve" text-anchor="middle" x="913.62" y="-104.89" font-family="Helvetica,sans-Serif" font-size="9.00" fill="#e65100">maas_tokens_out</text>
<text xml:space="preserve" text-anchor="middle" x="913.62" y="-95.14" font-family="Helvetica,sans-Serif" font-size="9.00" fill="#e65100">maas_requests</text>
</g>
<!-- splunk_fwd -->
<g id="node7" class="node">
<title>splunk_fwd</title>
<path fill="#ffe082" stroke="#f57f17" stroke-dasharray="5,2" d="M971.75,-202.94C971.75,-202.94 866.25,-202.94 866.25,-202.94 860.25,-202.94 854.25,-196.94 854.25,-190.94 854.25,-190.94 854.25,-164.19 854.25,-164.19 854.25,-158.19 860.25,-152.19 866.25,-152.19 866.25,-152.19 971.75,-152.19 971.75,-152.19 977.75,-152.19 983.75,-158.19 983.75,-164.19 983.75,-164.19 983.75,-190.94 983.75,-190.94 983.75,-196.94 977.75,-202.94 971.75,-202.94"/>
<text xml:space="preserve" text-anchor="start" x="879.62" y="-188.44" font-family="Helvetica,sans-Serif" font-weight="bold" font-size="10.00">splunk forwarder</text>
<text xml:space="preserve" text-anchor="start" x="878.5" y="-174.94" font-family="Helvetica,sans-Serif" font-size="8.00">10s interval · splunk.go</text>
<text xml:space="preserve" text-anchor="start" x="864.25" y="-160.44" font-family="Helvetica,sans-Serif" font-size="8.00">tail raw_events → Splunk HEC</text>
</g>
<!-- splunk -->
<g id="node15" class="node">
<title>splunk</title>
<path fill="#ffecb3" stroke="#ff8f00" d="M1170.38,-54.97C1170.38,-54.97 1123.62,-54.97 1123.62,-54.97 1117.62,-54.97 1111.62,-48.97 1111.62,-42.97 1111.62,-42.97 1111.62,-30.97 1111.62,-30.97 1111.62,-24.97 1117.62,-18.97 1123.62,-18.97 1123.62,-18.97 1170.38,-18.97 1170.38,-18.97 1176.38,-18.97 1182.38,-24.97 1182.38,-30.97 1182.38,-30.97 1182.38,-42.97 1182.38,-42.97 1182.38,-48.97 1176.38,-54.97 1170.38,-54.97"/>
<text xml:space="preserve" text-anchor="middle" x="1147" y="-33.09" font-family="Helvetica,sans-Serif" font-size="10.00">Splunk HEC</text>
</g>
<!-- splunk_fwd&#45;&gt;splunk -->
<g id="edge17" class="edge">
<title>splunk_fwd&#45;&gt;splunk</title>
<path fill="none" stroke="#ff8f00" d="M979.6,-151.71C997.83,-143.43 1017.61,-133.63 1035,-123.19 1064.87,-105.25 1096.22,-80.84 1118.13,-62.75"/>
<polygon fill="#ff8f00" stroke="#ff8f00" points="1120.32,-65.49 1125.75,-56.39 1115.83,-60.11 1120.32,-65.49"/>
<text xml:space="preserve" text-anchor="middle" x="1099.55" y="-104.89" font-family="Helvetica,sans-Serif" font-size="9.00" fill="#ff8f00">HEC POST</text>
</g>
<!-- raw_events&#45;&gt;splunk_fwd -->
<g id="edge16" class="edge">
<title>raw_events&#45;&gt;splunk_fwd</title>
<path fill="none" stroke="#ff8f00" d="M744.52,-58.19C757.44,-68.5 774.54,-80.08 792,-85.94 809.93,-91.96 948.95,-80.26 962,-93.94 975.37,-107.96 966.81,-126.95 953.91,-143.19"/>
<polygon fill="#ff8f00" stroke="#ff8f00" points="951.29,-140.88 947.41,-150.74 956.59,-145.45 951.29,-140.88"/>
<text xml:space="preserve" text-anchor="middle" x="995.73" y="-109.76" font-family="Helvetica,sans-Serif" font-size="9.00" fill="#ff8f00">cursor&#45;based</text>
<text xml:space="preserve" text-anchor="middle" x="995.73" y="-100.01" font-family="Helvetica,sans-Serif" font-size="9.00" fill="#ff8f00">tail</text>
</g>
</g>
</svg>
