<?xml version="1.0" encoding="UTF-8" standalone="no"?>
<!DOCTYPE svg PUBLIC "-//W3C//DTD SVG 1.1//EN"
 "http://www.w3.org/Graphics/SVG/1.1/DTD/svg11.dtd">
<!-- Generated by graphviz version 15.0.0 (20260523.1842)
 -->
<!-- Title: erd_inventory Pages: 1 -->
<svg width="803pt" height="1060pt"
 viewBox="0.00 0.00 803.00 1060.00" xmlns="http://www.w3.org/2000/svg" xmlns:xlink="http://www.w3.org/1999/xlink">
<g id="graph0" class="graph" transform="scale(1 1) rotate(0) translate(36 1023.97)">
<title>erd_inventory</title>
<polygon fill="white" stroke="none" points="-36,36 -36,-1023.97 766.5,-1023.97 766.5,36 -36,36"/>
<text xml:space="preserve" text-anchor="middle" x="365.25" y="-972.57" font-family="Helvetica,sans-Serif" font-size="12.00">Inventory &amp; Events</text>
<text xml:space="preserve" text-anchor="middle" x="365.25" y="-959.82" font-family="Helvetica,sans-Serif" font-size="12.00">(store.go / models.go)</text>
<!-- raw_events -->
<g id="node1" class="node">
<title>raw_events</title>
<polygon fill="#e8f4fd" stroke="none" points="6,-506 6,-719.75 176.75,-719.75 176.75,-506 6,-506"/>
<polygon fill="#2196f3" stroke="none" points="7,-699.5 7,-718.75 175.75,-718.75 175.75,-699.5 7,-699.5"/>
<text xml:space="preserve" text-anchor="start" x="65.5" y="-706.25" font-family="Helvetica,sans-Serif" font-weight="bold" font-size="10.00" fill="white">raw_events</text>
<text xml:space="preserve" text-anchor="start" x="11" y="-687" font-family="Helvetica,sans-Serif" font-weight="bold" font-size="10.00">id</text>
<text xml:space="preserve" text-anchor="start" x="88.75" y="-687.25" font-family="Helvetica,sans-Serif" font-size="10.00">BIGSERIAL</text>
<text xml:space="preserve" text-anchor="start" x="158.25" y="-687.25" font-family="Helvetica,sans-Serif" font-size="10.00">PK</text>
<text xml:space="preserve" text-anchor="start" x="11" y="-668" font-family="Helvetica,sans-Serif" font-size="10.00">event_id</text>
<text xml:space="preserve" text-anchor="start" x="102.62" y="-668" font-family="Helvetica,sans-Serif" font-size="10.00">TEXT</text>
<text xml:space="preserve" text-anchor="start" x="11" y="-648.75" font-family="Helvetica,sans-Serif" font-size="10.00">event_type</text>
<text xml:space="preserve" text-anchor="start" x="102.62" y="-648.75" font-family="Helvetica,sans-Serif" font-size="10.00">TEXT</text>
<text xml:space="preserve" text-anchor="start" x="11" y="-629.5" font-family="Helvetica,sans-Serif" font-size="10.00">event_source</text>
<text xml:space="preserve" text-anchor="start" x="102.62" y="-629.5" font-family="Helvetica,sans-Serif" font-size="10.00">TEXT</text>
<text xml:space="preserve" text-anchor="start" x="11" y="-610.25" font-family="Helvetica,sans-Serif" font-size="10.00">event_time</text>
<text xml:space="preserve" text-anchor="start" x="80.5" y="-610.25" font-family="Helvetica,sans-Serif" font-size="10.00">TIMESTAMPTZ</text>
<text xml:space="preserve" text-anchor="start" x="11" y="-591" font-family="Helvetica,sans-Serif" font-size="10.00">tenant_id</text>
<text xml:space="preserve" text-anchor="start" x="102.62" y="-591" font-family="Helvetica,sans-Serif" font-size="10.00">TEXT</text>
<text xml:space="preserve" text-anchor="start" x="11" y="-571.75" font-family="Helvetica,sans-Serif" font-size="10.00">resource_type</text>
<text xml:space="preserve" text-anchor="start" x="102.62" y="-571.75" font-family="Helvetica,sans-Serif" font-size="10.00">TEXT</text>
<text xml:space="preserve" text-anchor="start" x="11" y="-552.5" font-family="Helvetica,sans-Serif" font-size="10.00">resource_id</text>
<text xml:space="preserve" text-anchor="start" x="102.62" y="-552.5" font-family="Helvetica,sans-Serif" font-size="10.00">TEXT</text>
<text xml:space="preserve" text-anchor="start" x="11" y="-533.25" font-family="Helvetica,sans-Serif" font-size="10.00">data</text>
<text xml:space="preserve" text-anchor="start" x="98.5" y="-533.25" font-family="Helvetica,sans-Serif" font-size="10.00">JSONB</text>
<text xml:space="preserve" text-anchor="start" x="11" y="-514" font-family="Helvetica,sans-Serif" font-size="10.00">received_at</text>
<text xml:space="preserve" text-anchor="start" x="80.5" y="-514" font-family="Helvetica,sans-Serif" font-size="10.00">TIMESTAMPTZ</text>
<polygon fill="none" stroke="black" points="6,-506 6,-719.75 176.75,-719.75 176.75,-506 6,-506"/>
</g>
<!-- inventory_compute_instance -->
<g id="node4" class="node">
<title>inventory_compute_instance</title>
<polygon fill="#e8f5e9" stroke="none" points="551.5,-429.5 551.5,-720.25 730.5,-720.25 730.5,-429.5 551.5,-429.5"/>
<polygon fill="#4caf50" stroke="none" points="552.5,-700 552.5,-719.25 729.5,-719.25 729.5,-700 552.5,-700"/>
<text xml:space="preserve" text-anchor="start" x="574.25" y="-706.75" font-family="Helvetica,sans-Serif" font-weight="bold" font-size="10.00" fill="white">inventory_compute_instance</text>
<text xml:space="preserve" text-anchor="start" x="556.5" y="-687.5" font-family="Helvetica,sans-Serif" font-weight="bold" font-size="10.00">instance_id</text>
<text xml:space="preserve" text-anchor="start" x="656.38" y="-687.75" font-family="Helvetica,sans-Serif" font-size="10.00">TEXT</text>
<text xml:space="preserve" text-anchor="start" x="712" y="-687.75" font-family="Helvetica,sans-Serif" font-size="10.00">PK</text>
<text xml:space="preserve" text-anchor="start" x="556.5" y="-668.5" font-family="Helvetica,sans-Serif" font-size="10.00">name</text>
<text xml:space="preserve" text-anchor="start" x="656.38" y="-668.5" font-family="Helvetica,sans-Serif" font-size="10.00">TEXT</text>
<text xml:space="preserve" text-anchor="start" x="556.5" y="-649.25" font-family="Helvetica,sans-Serif" font-size="10.00">tenant</text>
<text xml:space="preserve" text-anchor="start" x="656.38" y="-649.25" font-family="Helvetica,sans-Serif" font-size="10.00">TEXT</text>
<text xml:space="preserve" text-anchor="start" x="556.5" y="-630" font-family="Helvetica,sans-Serif" font-size="10.00">project</text>
<text xml:space="preserve" text-anchor="start" x="656.38" y="-630" font-family="Helvetica,sans-Serif" font-size="10.00">TEXT</text>
<text xml:space="preserve" text-anchor="start" x="556.5" y="-610.75" font-family="Helvetica,sans-Serif" font-size="10.00">cluster_id</text>
<text xml:space="preserve" text-anchor="start" x="656.38" y="-610.75" font-family="Helvetica,sans-Serif" font-size="10.00">TEXT</text>
<text xml:space="preserve" text-anchor="start" x="556.5" y="-591.5" font-family="Helvetica,sans-Serif" font-size="10.00">instance_type</text>
<text xml:space="preserve" text-anchor="start" x="656.38" y="-591.5" font-family="Helvetica,sans-Serif" font-size="10.00">TEXT</text>
<text xml:space="preserve" text-anchor="start" x="556.5" y="-572.25" font-family="Helvetica,sans-Serif" font-size="10.00">cores</text>
<text xml:space="preserve" text-anchor="start" x="646.62" y="-572.25" font-family="Helvetica,sans-Serif" font-size="10.00">INTEGER</text>
<text xml:space="preserve" text-anchor="start" x="556.5" y="-553" font-family="Helvetica,sans-Serif" font-size="10.00">memory_gib</text>
<text xml:space="preserve" text-anchor="start" x="646.62" y="-553" font-family="Helvetica,sans-Serif" font-size="10.00">INTEGER</text>
<text xml:space="preserve" text-anchor="start" x="556.5" y="-533.75" font-family="Helvetica,sans-Serif" font-size="10.00">state</text>
<text xml:space="preserve" text-anchor="start" x="656.38" y="-533.75" font-family="Helvetica,sans-Serif" font-size="10.00">TEXT</text>
<text xml:space="preserve" text-anchor="start" x="556.5" y="-514.5" font-family="Helvetica,sans-Serif" font-size="10.00">labels</text>
<text xml:space="preserve" text-anchor="start" x="652.25" y="-514.5" font-family="Helvetica,sans-Serif" font-size="10.00">JSONB</text>
<text xml:space="preserve" text-anchor="start" x="556.5" y="-495.25" font-family="Helvetica,sans-Serif" font-size="10.00">created_at</text>
<text xml:space="preserve" text-anchor="start" x="634.25" y="-495.25" font-family="Helvetica,sans-Serif" font-size="10.00">TIMESTAMPTZ</text>
<text xml:space="preserve" text-anchor="start" x="556.5" y="-476" font-family="Helvetica,sans-Serif" font-size="10.00">deleted_at</text>
<text xml:space="preserve" text-anchor="start" x="634.25" y="-476" font-family="Helvetica,sans-Serif" font-size="10.00">TIMESTAMPTZ</text>
<text xml:space="preserve" text-anchor="start" x="556.5" y="-456.75" font-family="Helvetica,sans-Serif" font-size="10.00">last_event_id</text>
<text xml:space="preserve" text-anchor="start" x="656.38" y="-456.75" font-family="Helvetica,sans-Serif" font-size="10.00">TEXT</text>
<text xml:space="preserve" text-anchor="start" x="556.5" y="-437.5" font-family="Helvetica,sans-Serif" font-size="10.00">last_metered_at</text>
<text xml:space="preserve" text-anchor="start" x="634.25" y="-437.5" font-family="Helvetica,sans-Serif" font-size="10.00">TIMESTAMPTZ</text>
<polygon fill="none" stroke="black" points="551.5,-429.5 551.5,-720.25 730.5,-720.25 730.5,-429.5 551.5,-429.5"/>
</g>
<!-- raw_events&#45;&gt;inventory_compute_instance -->
<g id="edge11" class="edge">
<title>raw_events&#45;&gt;inventory_compute_instance</title>
<path fill="none" stroke="#999999" stroke-dasharray="1,5" d="M127.34,-719.54C155.11,-785.43 201.11,-864.66 271.25,-903.88 343.89,-944.49 386.84,-946.19 458.5,-903.88 522.75,-865.94 565.82,-796.23 593.81,-730.7"/>
<polygon fill="#999999" stroke="#999999" points="596.98,-732.2 597.59,-721.63 590.51,-729.51 596.98,-732.2"/>
<text xml:space="preserve" text-anchor="middle" x="364.88" y="-945.92" font-family="Helvetica,sans-Serif" font-size="9.00">upsert on</text>
<text xml:space="preserve" text-anchor="middle" x="364.88" y="-936.17" font-family="Helvetica,sans-Serif" font-size="9.00">event</text>
</g>
<!-- inventory_cluster -->
<g id="node5" class="node">
<title>inventory_cluster</title>
<polygon fill="#e8f5e9" stroke="none" points="275.38,-661.38 275.38,-894.38 454.38,-894.38 454.38,-661.38 275.38,-661.38"/>
<polygon fill="#4caf50" stroke="none" points="276.38,-874.12 276.38,-893.38 453.38,-893.38 453.38,-874.12 276.38,-874.12"/>
<text xml:space="preserve" text-anchor="start" x="324.75" y="-880.88" font-family="Helvetica,sans-Serif" font-weight="bold" font-size="10.00" fill="white">inventory_cluster</text>
<text xml:space="preserve" text-anchor="start" x="280.38" y="-861.62" font-family="Helvetica,sans-Serif" font-weight="bold" font-size="10.00">cluster_id</text>
<text xml:space="preserve" text-anchor="start" x="380.25" y="-861.88" font-family="Helvetica,sans-Serif" font-size="10.00">TEXT</text>
<text xml:space="preserve" text-anchor="start" x="435.88" y="-861.88" font-family="Helvetica,sans-Serif" font-size="10.00">PK</text>
<text xml:space="preserve" text-anchor="start" x="280.38" y="-842.62" font-family="Helvetica,sans-Serif" font-size="10.00">name</text>
<text xml:space="preserve" text-anchor="start" x="380.25" y="-842.62" font-family="Helvetica,sans-Serif" font-size="10.00">TEXT</text>
<text xml:space="preserve" text-anchor="start" x="280.38" y="-823.38" font-family="Helvetica,sans-Serif" font-size="10.00">tenant</text>
<text xml:space="preserve" text-anchor="start" x="380.25" y="-823.38" font-family="Helvetica,sans-Serif" font-size="10.00">TEXT</text>
<text xml:space="preserve" text-anchor="start" x="280.38" y="-804.12" font-family="Helvetica,sans-Serif" font-size="10.00">template</text>
<text xml:space="preserve" text-anchor="start" x="380.25" y="-804.12" font-family="Helvetica,sans-Serif" font-size="10.00">TEXT</text>
<text xml:space="preserve" text-anchor="start" x="280.38" y="-784.88" font-family="Helvetica,sans-Serif" font-size="10.00">node_sets</text>
<text xml:space="preserve" text-anchor="start" x="376.12" y="-784.88" font-family="Helvetica,sans-Serif" font-size="10.00">JSONB</text>
<text xml:space="preserve" text-anchor="start" x="280.38" y="-765.62" font-family="Helvetica,sans-Serif" font-size="10.00">state</text>
<text xml:space="preserve" text-anchor="start" x="380.25" y="-765.62" font-family="Helvetica,sans-Serif" font-size="10.00">TEXT</text>
<text xml:space="preserve" text-anchor="start" x="280.38" y="-746.38" font-family="Helvetica,sans-Serif" font-size="10.00">labels</text>
<text xml:space="preserve" text-anchor="start" x="376.12" y="-746.38" font-family="Helvetica,sans-Serif" font-size="10.00">JSONB</text>
<text xml:space="preserve" text-anchor="start" x="280.38" y="-727.12" font-family="Helvetica,sans-Serif" font-size="10.00">created_at</text>
<text xml:space="preserve" text-anchor="start" x="358.12" y="-727.12" font-family="Helvetica,sans-Serif" font-size="10.00">TIMESTAMPTZ</text>
<text xml:space="preserve" text-anchor="start" x="280.38" y="-707.88" font-family="Helvetica,sans-Serif" font-size="10.00">deleted_at</text>
<text xml:space="preserve" text-anchor="start" x="358.12" y="-707.88" font-family="Helvetica,sans-Serif" font-size="10.00">TIMESTAMPTZ</text>
<text xml:space="preserve" text-anchor="start" x="280.38" y="-688.62" font-family="Helvetica,sans-Serif" font-size="10.00">last_event_id</text>
<text xml:space="preserve" text-anchor="start" x="380.25" y="-688.62" font-family="Helvetica,sans-Serif" font-size="10.00">TEXT</text>
<text xml:space="preserve" text-anchor="start" x="280.38" y="-669.38" font-family="Helvetica,sans-Serif" font-size="10.00">last_metered_at</text>
<text xml:space="preserve" text-anchor="start" x="358.12" y="-669.38" font-family="Helvetica,sans-Serif" font-size="10.00">TIMESTAMPTZ</text>
<polygon fill="none" stroke="black" points="275.38,-661.38 275.38,-894.38 454.38,-894.38 454.38,-661.38 275.38,-661.38"/>
</g>
<!-- raw_events&#45;&gt;inventory_cluster -->
<g id="edge12" class="edge">
<title>raw_events&#45;&gt;inventory_cluster</title>
<path fill="none" stroke="#999999" stroke-dasharray="1,5" d="M176.42,-663.95C204.68,-681.13 236.46,-700.44 265.71,-718.22"/>
<polygon fill="#999999" stroke="#999999" points="263.87,-721.2 274.24,-723.4 267.51,-715.21 263.87,-721.2"/>
<text xml:space="preserve" text-anchor="middle" x="227" y="-721.1" font-family="Helvetica,sans-Serif" font-size="9.00">upsert on</text>
<text xml:space="preserve" text-anchor="middle" x="227" y="-711.35" font-family="Helvetica,sans-Serif" font-size="9.00">event</text>
</g>
<!-- inventory_model -->
<g id="node6" class="node">
<title>inventory_model</title>
<polygon fill="#e8f5e9" stroke="none" points="558.62,0 558.62,-213.75 723.38,-213.75 723.38,0 558.62,0"/>
<polygon fill="#4caf50" stroke="none" points="559.62,-193.5 559.62,-212.75 722.38,-212.75 722.38,-193.5 559.62,-193.5"/>
<text xml:space="preserve" text-anchor="start" x="602" y="-200.25" font-family="Helvetica,sans-Serif" font-weight="bold" font-size="10.00" fill="white">inventory_model</text>
<text xml:space="preserve" text-anchor="start" x="563.62" y="-181" font-family="Helvetica,sans-Serif" font-weight="bold" font-size="10.00">model_id</text>
<text xml:space="preserve" text-anchor="start" x="649.25" y="-181.25" font-family="Helvetica,sans-Serif" font-size="10.00">TEXT</text>
<text xml:space="preserve" text-anchor="start" x="704.88" y="-181.25" font-family="Helvetica,sans-Serif" font-size="10.00">PK</text>
<text xml:space="preserve" text-anchor="start" x="563.62" y="-162" font-family="Helvetica,sans-Serif" font-size="10.00">name</text>
<text xml:space="preserve" text-anchor="start" x="649.25" y="-162" font-family="Helvetica,sans-Serif" font-size="10.00">TEXT</text>
<text xml:space="preserve" text-anchor="start" x="563.62" y="-142.75" font-family="Helvetica,sans-Serif" font-size="10.00">model_name</text>
<text xml:space="preserve" text-anchor="start" x="649.25" y="-142.75" font-family="Helvetica,sans-Serif" font-size="10.00">TEXT</text>
<text xml:space="preserve" text-anchor="start" x="563.62" y="-123.5" font-family="Helvetica,sans-Serif" font-size="10.00">tenant</text>
<text xml:space="preserve" text-anchor="start" x="649.25" y="-123.5" font-family="Helvetica,sans-Serif" font-size="10.00">TEXT</text>
<text xml:space="preserve" text-anchor="start" x="563.62" y="-104.25" font-family="Helvetica,sans-Serif" font-size="10.00">project</text>
<text xml:space="preserve" text-anchor="start" x="649.25" y="-104.25" font-family="Helvetica,sans-Serif" font-size="10.00">TEXT</text>
<text xml:space="preserve" text-anchor="start" x="563.62" y="-85" font-family="Helvetica,sans-Serif" font-size="10.00">template</text>
<text xml:space="preserve" text-anchor="start" x="649.25" y="-85" font-family="Helvetica,sans-Serif" font-size="10.00">TEXT</text>
<text xml:space="preserve" text-anchor="start" x="563.62" y="-65.75" font-family="Helvetica,sans-Serif" font-size="10.00">state</text>
<text xml:space="preserve" text-anchor="start" x="649.25" y="-65.75" font-family="Helvetica,sans-Serif" font-size="10.00">TEXT</text>
<text xml:space="preserve" text-anchor="start" x="563.62" y="-46.5" font-family="Helvetica,sans-Serif" font-size="10.00">labels</text>
<text xml:space="preserve" text-anchor="start" x="645.12" y="-46.5" font-family="Helvetica,sans-Serif" font-size="10.00">JSONB</text>
<text xml:space="preserve" text-anchor="start" x="563.62" y="-27.25" font-family="Helvetica,sans-Serif" font-size="10.00">created_at</text>
<text xml:space="preserve" text-anchor="start" x="627.12" y="-27.25" font-family="Helvetica,sans-Serif" font-size="10.00">TIMESTAMPTZ</text>
<text xml:space="preserve" text-anchor="start" x="563.62" y="-8" font-family="Helvetica,sans-Serif" font-size="10.00">deleted_at</text>
<text xml:space="preserve" text-anchor="start" x="627.12" y="-8" font-family="Helvetica,sans-Serif" font-size="10.00">TIMESTAMPTZ</text>
<polygon fill="none" stroke="black" points="558.62,0 558.62,-213.75 723.38,-213.75 723.38,0 558.62,0"/>
</g>
<!-- raw_events&#45;&gt;inventory_model -->
<g id="edge13" class="edge">
<title>raw_events&#45;&gt;inventory_model</title>
<path fill="none" stroke="#999999" stroke-dasharray="1,5" d="M176.52,-537.3C204.9,-515.3 237.88,-493.22 271.25,-478.38 348.72,-443.91 399.75,-503.01 458.5,-441.88 494.95,-403.94 456.11,-373.37 476.5,-324.88 494.67,-281.66 523.28,-239.23 551.52,-203.46"/>
<polygon fill="#999999" stroke="#999999" points="554.22,-205.69 557.73,-195.69 548.75,-201.31 554.22,-205.69"/>
<text xml:space="preserve" text-anchor="middle" x="364.88" y="-489.32" font-family="Helvetica,sans-Serif" font-size="9.00">upsert on</text>
<text xml:space="preserve" text-anchor="middle" x="364.88" y="-479.57" font-family="Helvetica,sans-Serif" font-size="9.00">event</text>
</g>
<!-- inventory_bare_metal_instance -->
<g id="node7" class="node">
<title>inventory_bare_metal_instance</title>
<polygon fill="#e8f5e9" stroke="none" points="275.38,-238.62 275.38,-433.12 454.38,-433.12 454.38,-238.62 275.38,-238.62"/>
<polygon fill="#4caf50" stroke="none" points="276.38,-412.88 276.38,-432.12 453.38,-432.12 453.38,-412.88 276.38,-412.88"/>
<text xml:space="preserve" text-anchor="start" x="292.88" y="-419.62" font-family="Helvetica,sans-Serif" font-weight="bold" font-size="10.00" fill="white">inventory_bare_metal_instance</text>
<text xml:space="preserve" text-anchor="start" x="280.38" y="-400.38" font-family="Helvetica,sans-Serif" font-weight="bold" font-size="10.00">instance_id</text>
<text xml:space="preserve" text-anchor="start" x="380.25" y="-400.62" font-family="Helvetica,sans-Serif" font-size="10.00">TEXT</text>
<text xml:space="preserve" text-anchor="start" x="435.88" y="-400.62" font-family="Helvetica,sans-Serif" font-size="10.00">PK</text>
<text xml:space="preserve" text-anchor="start" x="280.38" y="-381.38" font-family="Helvetica,sans-Serif" font-size="10.00">name</text>
<text xml:space="preserve" text-anchor="start" x="380.25" y="-381.38" font-family="Helvetica,sans-Serif" font-size="10.00">TEXT</text>
<text xml:space="preserve" text-anchor="start" x="280.38" y="-362.12" font-family="Helvetica,sans-Serif" font-size="10.00">tenant</text>
<text xml:space="preserve" text-anchor="start" x="380.25" y="-362.12" font-family="Helvetica,sans-Serif" font-size="10.00">TEXT</text>
<text xml:space="preserve" text-anchor="start" x="280.38" y="-342.88" font-family="Helvetica,sans-Serif" font-size="10.00">catalog_item</text>
<text xml:space="preserve" text-anchor="start" x="380.25" y="-342.88" font-family="Helvetica,sans-Serif" font-size="10.00">TEXT</text>
<text xml:space="preserve" text-anchor="start" x="280.38" y="-323.62" font-family="Helvetica,sans-Serif" font-size="10.00">state</text>
<text xml:space="preserve" text-anchor="start" x="380.25" y="-323.62" font-family="Helvetica,sans-Serif" font-size="10.00">TEXT</text>
<text xml:space="preserve" text-anchor="start" x="280.38" y="-304.38" font-family="Helvetica,sans-Serif" font-size="10.00">labels</text>
<text xml:space="preserve" text-anchor="start" x="376.12" y="-304.38" font-family="Helvetica,sans-Serif" font-size="10.00">JSONB</text>
<text xml:space="preserve" text-anchor="start" x="280.38" y="-285.12" font-family="Helvetica,sans-Serif" font-size="10.00">created_at</text>
<text xml:space="preserve" text-anchor="start" x="358.12" y="-285.12" font-family="Helvetica,sans-Serif" font-size="10.00">TIMESTAMPTZ</text>
<text xml:space="preserve" text-anchor="start" x="280.38" y="-265.88" font-family="Helvetica,sans-Serif" font-size="10.00">deleted_at</text>
<text xml:space="preserve" text-anchor="start" x="358.12" y="-265.88" font-family="Helvetica,sans-Serif" font-size="10.00">TIMESTAMPTZ</text>
<text xml:space="preserve" text-anchor="start" x="280.38" y="-246.62" font-family="Helvetica,sans-Serif" font-size="10.00">last_metered_at</text>
<text xml:space="preserve" text-anchor="start" x="358.12" y="-246.62" font-family="Helvetica,sans-Serif" font-size="10.00">TIMESTAMPTZ</text>
<polygon fill="none" stroke="black" points="275.38,-238.62 275.38,-433.12 454.38,-433.12 454.38,-238.62 275.38,-238.62"/>
</g>
<!-- raw_events&#45;&gt;inventory_bare_metal_instance -->
<g id="edge14" class="edge">
<title>raw_events&#45;&gt;inventory_bare_metal_instance</title>
<path fill="none" stroke="#999999" stroke-dasharray="1,5" d="M151.81,-506.37C170,-475.94 188.43,-447.69 200.75,-435.38 219.64,-416.5 242.78,-399.65 265.62,-385.43"/>
<polygon fill="#999999" stroke="#999999" points="267.37,-388.47 274.09,-380.28 263.73,-382.49 267.37,-388.47"/>
<text xml:space="preserve" text-anchor="middle" x="227" y="-446.32" font-family="Helvetica,sans-Serif" font-size="9.00">upsert on</text>
<text xml:space="preserve" text-anchor="middle" x="227" y="-436.57" font-family="Helvetica,sans-Serif" font-size="9.00">event</text>
</g>
<!-- inventory_tenant -->
<g id="node2" class="node">
<title>inventory_tenant</title>
<polygon fill="#e8f5e9" stroke="none" points="9,-99.5 9,-236.25 173.75,-236.25 173.75,-99.5 9,-99.5"/>
<polygon fill="#4caf50" stroke="none" points="10,-216 10,-235.25 172.75,-235.25 172.75,-216 10,-216"/>
<text xml:space="preserve" text-anchor="start" x="52.75" y="-222.75" font-family="Helvetica,sans-Serif" font-weight="bold" font-size="10.00" fill="white">inventory_tenant</text>
<text xml:space="preserve" text-anchor="start" x="14" y="-203.5" font-family="Helvetica,sans-Serif" font-weight="bold" font-size="10.00">tenant_id</text>
<text xml:space="preserve" text-anchor="start" x="99.62" y="-203.75" font-family="Helvetica,sans-Serif" font-size="10.00">TEXT</text>
<text xml:space="preserve" text-anchor="start" x="155.25" y="-203.75" font-family="Helvetica,sans-Serif" font-size="10.00">PK</text>
<text xml:space="preserve" text-anchor="start" x="14" y="-184.5" font-family="Helvetica,sans-Serif" font-size="10.00">name</text>
<text xml:space="preserve" text-anchor="start" x="99.62" y="-184.5" font-family="Helvetica,sans-Serif" font-size="10.00">TEXT</text>
<text xml:space="preserve" text-anchor="start" x="14" y="-165.25" font-family="Helvetica,sans-Serif" font-size="10.00">labels</text>
<text xml:space="preserve" text-anchor="start" x="95.5" y="-165.25" font-family="Helvetica,sans-Serif" font-size="10.00">JSONB</text>
<text xml:space="preserve" text-anchor="start" x="14" y="-146" font-family="Helvetica,sans-Serif" font-size="10.00">created_at</text>
<text xml:space="preserve" text-anchor="start" x="77.5" y="-146" font-family="Helvetica,sans-Serif" font-size="10.00">TIMESTAMPTZ</text>
<text xml:space="preserve" text-anchor="start" x="14" y="-126.75" font-family="Helvetica,sans-Serif" font-size="10.00">deleted_at</text>
<text xml:space="preserve" text-anchor="start" x="77.5" y="-126.75" font-family="Helvetica,sans-Serif" font-size="10.00">TIMESTAMPTZ</text>
<text xml:space="preserve" text-anchor="start" x="14" y="-107.5" font-family="Helvetica,sans-Serif" font-size="10.00">last_updated</text>
<text xml:space="preserve" text-anchor="start" x="77.5" y="-107.5" font-family="Helvetica,sans-Serif" font-size="10.00">TIMESTAMPTZ</text>
<polygon fill="none" stroke="black" points="9,-99.5 9,-236.25 173.75,-236.25 173.75,-99.5 9,-99.5"/>
</g>
<!-- inventory_project -->
<g id="node3" class="node">
<title>inventory_project</title>
<polygon fill="#e8f5e9" stroke="none" points="287,-38.5 287,-175.25 442.75,-175.25 442.75,-38.5 287,-38.5"/>
<polygon fill="#4caf50" stroke="none" points="288,-155 288,-174.25 441.75,-174.25 441.75,-155 288,-155"/>
<text xml:space="preserve" text-anchor="start" x="324.38" y="-161.75" font-family="Helvetica,sans-Serif" font-weight="bold" font-size="10.00" fill="white">inventory_project</text>
<text xml:space="preserve" text-anchor="start" x="292" y="-142.5" font-family="Helvetica,sans-Serif" font-weight="bold" font-size="10.00">project_id</text>
<text xml:space="preserve" text-anchor="start" x="368.62" y="-142.75" font-family="Helvetica,sans-Serif" font-size="10.00">TEXT</text>
<text xml:space="preserve" text-anchor="start" x="424.25" y="-142.75" font-family="Helvetica,sans-Serif" font-size="10.00">PK</text>
<text xml:space="preserve" text-anchor="start" x="292" y="-123.5" font-family="Helvetica,sans-Serif" font-size="10.00">name</text>
<text xml:space="preserve" text-anchor="start" x="368.62" y="-123.5" font-family="Helvetica,sans-Serif" font-size="10.00">TEXT</text>
<text xml:space="preserve" text-anchor="start" x="292" y="-104.25" font-family="Helvetica,sans-Serif" font-size="10.00">tenant</text>
<text xml:space="preserve" text-anchor="start" x="368.62" y="-104.25" font-family="Helvetica,sans-Serif" font-size="10.00">TEXT</text>
<text xml:space="preserve" text-anchor="start" x="292" y="-85" font-family="Helvetica,sans-Serif" font-size="10.00">labels</text>
<text xml:space="preserve" text-anchor="start" x="364.5" y="-85" font-family="Helvetica,sans-Serif" font-size="10.00">JSONB</text>
<text xml:space="preserve" text-anchor="start" x="292" y="-65.75" font-family="Helvetica,sans-Serif" font-size="10.00">created_at</text>
<text xml:space="preserve" text-anchor="start" x="346.5" y="-65.75" font-family="Helvetica,sans-Serif" font-size="10.00">TIMESTAMPTZ</text>
<text xml:space="preserve" text-anchor="start" x="292" y="-46.5" font-family="Helvetica,sans-Serif" font-size="10.00">deleted_at</text>
<text xml:space="preserve" text-anchor="start" x="346.5" y="-46.5" font-family="Helvetica,sans-Serif" font-size="10.00">TIMESTAMPTZ</text>
<polygon fill="none" stroke="black" points="287,-38.5 287,-175.25 442.75,-175.25 442.75,-38.5 287,-38.5"/>
</g>
<!-- inventory_tenant&#45;&gt;inventory_project -->
<g id="edge1" class="edge">
<title>inventory_tenant&#45;&gt;inventory_project</title>
<path fill="none" stroke="#666666" stroke-dasharray="5,2" d="M173.47,-149.66C205.89,-142.37 243.32,-133.96 276.36,-126.54"/>
<polygon fill="#666666" stroke="#666666" points="276.92,-130 285.91,-124.39 275.38,-123.17 276.92,-130"/>
<text xml:space="preserve" text-anchor="middle" x="227" y="-144.04" font-family="Helvetica,sans-Serif" font-size="9.00">tenant</text>
</g>
<!-- inventory_tenant&#45;&gt;inventory_compute_instance -->
<g id="edge2" class="edge">
<title>inventory_tenant&#45;&gt;inventory_compute_instance</title>
<path fill="none" stroke="#666666" stroke-dasharray="5,2" d="M173.51,-174.43C275.1,-183.4 438.34,-200.62 458.5,-220.12 491.51,-252.05 459.7,-279.13 476.5,-321.88 493.9,-366.15 519.57,-410.9 545.45,-450.2"/>
<polygon fill="#666666" stroke="#666666" points="542.37,-451.9 550.83,-458.28 548.2,-448.02 542.37,-451.9"/>
<text xml:space="preserve" text-anchor="middle" x="364.88" y="-221.32" font-family="Helvetica,sans-Serif" font-size="9.00">tenant</text>
</g>
<!-- inventory_tenant&#45;&gt;inventory_cluster -->
<g id="edge3" class="edge">
<title>inventory_tenant&#45;&gt;inventory_cluster</title>
<path fill="none" stroke="#666666" stroke-dasharray="5,2" d="M173.37,-234.79C176.65,-238.43 179.8,-242.13 182.75,-245.88 193.57,-259.62 190.15,-266.96 200.75,-280.88 219.96,-306.08 239.7,-300.47 253.25,-329.12 282.6,-391.21 250.09,-567.79 272.1,-651.61"/>
<polygon fill="#666666" stroke="#666666" points="268.74,-652.59 275.05,-661.11 275.43,-650.52 268.74,-652.59"/>
<text xml:space="preserve" text-anchor="middle" x="227" y="-330.32" font-family="Helvetica,sans-Serif" font-size="9.00">tenant</text>
</g>
<!-- inventory_tenant&#45;&gt;inventory_model -->
<g id="edge4" class="edge">
<title>inventory_tenant&#45;&gt;inventory_model</title>
<path fill="none" stroke="#666666" stroke-dasharray="5,2" d="M152.88,-99.77C184.67,-69.13 226.34,-36.28 271.25,-20.12 349.56,8.04 377.34,-1.73 458.5,-20.12 489.14,-27.07 520.65,-39.85 548.65,-53.5"/>
<polygon fill="#666666" stroke="#666666" points="546.93,-56.55 557.44,-57.88 550.05,-50.29 546.93,-56.55"/>
<text xml:space="preserve" text-anchor="middle" x="364.88" y="-21.32" font-family="Helvetica,sans-Serif" font-size="9.00">tenant</text>
</g>
<!-- inventory_tenant&#45;&gt;inventory_bare_metal_instance -->
<g id="edge5" class="edge">
<title>inventory_tenant&#45;&gt;inventory_bare_metal_instance</title>
<path fill="none" stroke="#666666" stroke-dasharray="5,2" d="M173.47,-218.05C202.51,-236.03 235.56,-256.48 265.89,-275.24"/>
<polygon fill="#666666" stroke="#666666" points="263.99,-278.19 274.34,-280.47 267.68,-272.23 263.99,-278.19"/>
<text xml:space="preserve" text-anchor="middle" x="227" y="-268.12" font-family="Helvetica,sans-Serif" font-size="9.00">tenant</text>
</g>
<!-- inventory_project&#45;&gt;inventory_compute_instance -->
<g id="edge9" class="edge">
<title>inventory_project&#45;&gt;inventory_compute_instance</title>
<path fill="none" stroke="#666666" stroke-dasharray="5,2" d="M442.74,-170.31C448.37,-176.31 453.71,-182.53 458.5,-188.88 511.03,-258.44 553.63,-345.64 584.32,-419.55"/>
<polygon fill="#666666" stroke="#666666" points="580.96,-420.57 588,-428.49 587.43,-417.91 580.96,-420.57"/>
<text xml:space="preserve" text-anchor="middle" x="505" y="-309.02" font-family="Helvetica,sans-Serif" font-size="9.00">project</text>
</g>
<!-- inventory_project&#45;&gt;inventory_model -->
<g id="edge10" class="edge">
<title>inventory_project&#45;&gt;inventory_model</title>
<path fill="none" stroke="#666666" stroke-dasharray="5,2" d="M442.6,-106.88C475.19,-106.88 513.46,-106.88 547.59,-106.88"/>
<polygon fill="#666666" stroke="#666666" points="547.47,-110.38 557.47,-106.88 547.47,-103.38 547.47,-110.38"/>
<text xml:space="preserve" text-anchor="middle" x="505" y="-108.08" font-family="Helvetica,sans-Serif" font-size="9.00">project</text>
</g>
<!-- inventory_cluster&#45;&gt;inventory_compute_instance -->
<g id="edge8" class="edge">
<title>inventory_cluster&#45;&gt;inventory_compute_instance</title>
<path fill="none" stroke="#666666" stroke-dasharray="5,2" d="M454.12,-712.53C482.49,-691.52 514.06,-668.13 543.02,-646.69"/>
<polygon fill="#666666" stroke="#666666" points="544.75,-649.77 550.71,-641 540.59,-644.14 544.75,-649.77"/>
<text xml:space="preserve" text-anchor="middle" x="505" y="-695.76" font-family="Helvetica,sans-Serif" font-size="9.00">cluster_id</text>
</g>
<!-- inventory_instance_type -->
<g id="node8" class="node">
<title>inventory_instance_type</title>
<polygon fill="#e8f5e9" stroke="none" points="271.25,-506.5 271.25,-643.25 458.5,-643.25 458.5,-506.5 271.25,-506.5"/>
<polygon fill="#4caf50" stroke="none" points="272.25,-623 272.25,-642.25 457.5,-642.25 457.5,-623 272.25,-623"/>
<text xml:space="preserve" text-anchor="start" x="308.62" y="-629.75" font-family="Helvetica,sans-Serif" font-weight="bold" font-size="10.00" fill="white">inventory_instance_type</text>
<text xml:space="preserve" text-anchor="start" x="276.25" y="-610.5" font-family="Helvetica,sans-Serif" font-weight="bold" font-size="10.00">instance_type_id</text>
<text xml:space="preserve" text-anchor="start" x="384.38" y="-610.75" font-family="Helvetica,sans-Serif" font-size="10.00">TEXT</text>
<text xml:space="preserve" text-anchor="start" x="440" y="-610.75" font-family="Helvetica,sans-Serif" font-size="10.00">PK</text>
<text xml:space="preserve" text-anchor="start" x="276.25" y="-591.5" font-family="Helvetica,sans-Serif" font-size="10.00">name</text>
<text xml:space="preserve" text-anchor="start" x="384.38" y="-591.5" font-family="Helvetica,sans-Serif" font-size="10.00">TEXT</text>
<text xml:space="preserve" text-anchor="start" x="276.25" y="-572.25" font-family="Helvetica,sans-Serif" font-size="10.00">cores</text>
<text xml:space="preserve" text-anchor="start" x="374.62" y="-572.25" font-family="Helvetica,sans-Serif" font-size="10.00">INTEGER</text>
<text xml:space="preserve" text-anchor="start" x="276.25" y="-553" font-family="Helvetica,sans-Serif" font-size="10.00">memory_gib</text>
<text xml:space="preserve" text-anchor="start" x="374.62" y="-553" font-family="Helvetica,sans-Serif" font-size="10.00">INTEGER</text>
<text xml:space="preserve" text-anchor="start" x="276.25" y="-533.75" font-family="Helvetica,sans-Serif" font-size="10.00">state</text>
<text xml:space="preserve" text-anchor="start" x="384.38" y="-533.75" font-family="Helvetica,sans-Serif" font-size="10.00">TEXT</text>
<text xml:space="preserve" text-anchor="start" x="276.25" y="-514.5" font-family="Helvetica,sans-Serif" font-size="10.00">last_updated</text>
<text xml:space="preserve" text-anchor="start" x="362.25" y="-514.5" font-family="Helvetica,sans-Serif" font-size="10.00">TIMESTAMPTZ</text>
<polygon fill="none" stroke="black" points="271.25,-506.5 271.25,-643.25 458.5,-643.25 458.5,-506.5 271.25,-506.5"/>
</g>
<!-- inventory_instance_type&#45;&gt;inventory_compute_instance -->
<g id="edge6" class="edge">
<title>inventory_instance_type&#45;&gt;inventory_compute_instance</title>
<path fill="none" stroke="#666666" stroke-dasharray="5,2" d="M458.3,-574.88C484.68,-574.88 513.55,-574.88 540.34,-574.88"/>
<polygon fill="#666666" stroke="#666666" points="540.17,-578.38 550.17,-574.88 540.17,-571.38 540.17,-578.38"/>
<text xml:space="preserve" text-anchor="middle" x="505" y="-576.08" font-family="Helvetica,sans-Serif" font-size="9.00">instance_type</text>
</g>
<!-- inventory_catalog_item -->
<g id="node9" class="node">
<title>inventory_catalog_item</title>
<polygon fill="#e8f5e9" stroke="none" points="0,-254.62 0,-449.12 182.75,-449.12 182.75,-254.62 0,-254.62"/>
<polygon fill="#4caf50" stroke="none" points="1,-428.88 1,-448.12 181.75,-448.12 181.75,-428.88 1,-428.88"/>
<text xml:space="preserve" text-anchor="start" x="37.38" y="-435.62" font-family="Helvetica,sans-Serif" font-weight="bold" font-size="10.00" fill="white">inventory_catalog_item</text>
<text xml:space="preserve" text-anchor="start" x="5" y="-416.38" font-family="Helvetica,sans-Serif" font-weight="bold" font-size="10.00">catalog_item_id</text>
<text xml:space="preserve" text-anchor="start" x="108.62" y="-416.62" font-family="Helvetica,sans-Serif" font-size="10.00">TEXT</text>
<text xml:space="preserve" text-anchor="start" x="164.25" y="-416.62" font-family="Helvetica,sans-Serif" font-size="10.00">PK</text>
<text xml:space="preserve" text-anchor="start" x="5" y="-397.38" font-family="Helvetica,sans-Serif" font-size="10.00">item_type</text>
<text xml:space="preserve" text-anchor="start" x="108.62" y="-397.38" font-family="Helvetica,sans-Serif" font-size="10.00">TEXT</text>
<text xml:space="preserve" text-anchor="start" x="5" y="-378.12" font-family="Helvetica,sans-Serif" font-size="10.00">name</text>
<text xml:space="preserve" text-anchor="start" x="108.62" y="-378.12" font-family="Helvetica,sans-Serif" font-size="10.00">TEXT</text>
<text xml:space="preserve" text-anchor="start" x="5" y="-358.88" font-family="Helvetica,sans-Serif" font-size="10.00">title</text>
<text xml:space="preserve" text-anchor="start" x="108.62" y="-358.88" font-family="Helvetica,sans-Serif" font-size="10.00">TEXT</text>
<text xml:space="preserve" text-anchor="start" x="5" y="-339.62" font-family="Helvetica,sans-Serif" font-size="10.00">description</text>
<text xml:space="preserve" text-anchor="start" x="108.62" y="-339.62" font-family="Helvetica,sans-Serif" font-size="10.00">TEXT</text>
<text xml:space="preserve" text-anchor="start" x="5" y="-320.38" font-family="Helvetica,sans-Serif" font-size="10.00">template</text>
<text xml:space="preserve" text-anchor="start" x="108.62" y="-320.38" font-family="Helvetica,sans-Serif" font-size="10.00">TEXT</text>
<text xml:space="preserve" text-anchor="start" x="5" y="-301.12" font-family="Helvetica,sans-Serif" font-size="10.00">published</text>
<text xml:space="preserve" text-anchor="start" x="97.38" y="-301.12" font-family="Helvetica,sans-Serif" font-size="10.00">BOOLEAN</text>
<text xml:space="preserve" text-anchor="start" x="5" y="-281.88" font-family="Helvetica,sans-Serif" font-size="10.00">tenant</text>
<text xml:space="preserve" text-anchor="start" x="108.62" y="-281.88" font-family="Helvetica,sans-Serif" font-size="10.00">TEXT</text>
<text xml:space="preserve" text-anchor="start" x="5" y="-262.62" font-family="Helvetica,sans-Serif" font-size="10.00">last_updated</text>
<text xml:space="preserve" text-anchor="start" x="86.5" y="-262.62" font-family="Helvetica,sans-Serif" font-size="10.00">TIMESTAMPTZ</text>
<polygon fill="none" stroke="black" points="0,-254.62 0,-449.12 182.75,-449.12 182.75,-254.62 0,-254.62"/>
</g>
<!-- inventory_catalog_item&#45;&gt;inventory_bare_metal_instance -->
<g id="edge7" class="edge">
<title>inventory_catalog_item&#45;&gt;inventory_bare_metal_instance</title>
<path fill="none" stroke="#666666" stroke-dasharray="5,2" d="M182.4,-346.57C208.61,-345.03 237.38,-343.33 264.14,-341.75"/>
<polygon fill="#666666" stroke="#666666" points="264.19,-345.26 273.97,-341.17 263.78,-338.27 264.19,-345.26"/>
<text xml:space="preserve" text-anchor="middle" x="227" y="-346.51" font-family="Helvetica,sans-Serif" font-size="9.00">catalog_item</text>
</g>
</g>
</svg>
