<?xml version="1.0" encoding="UTF-8" standalone="no"?>
<!DOCTYPE svg PUBLIC "-//W3C//DTD SVG 1.1//EN"
 "http://www.w3.org/Graphics/SVG/1.1/DTD/svg11.dtd">
<!-- Generated by graphviz version 15.0.0 (20260523.1842)
 -->
<!-- Title: erd_inventory Pages: 1 -->
<svg width="803pt" height="1199pt"
 viewBox="0.00 0.00 803.00 1199.00" xmlns="http://www.w3.org/2000/svg" xmlns:xlink="http://www.w3.org/1999/xlink">
<g id="graph0" class="graph" transform="scale(1 1) rotate(0) translate(36 1162.8)">
<title>erd_inventory</title>
<polygon fill="white" stroke="none" points="-36,36 -36,-1162.8 766.5,-1162.8 766.5,36 -36,36"/>
<text xml:space="preserve" text-anchor="middle" x="365.25" y="-1111.4" font-family="Helvetica,sans-Serif" font-size="12.00">Inventory &amp; Events</text>
<text xml:space="preserve" text-anchor="middle" x="365.25" y="-1098.65" font-family="Helvetica,sans-Serif" font-size="12.00">(store.go / models.go)</text>
<!-- raw_events -->
<g id="node1" class="node">
<title>raw_events</title>
<polygon fill="#e8f4fd" stroke="none" points="6,-713.38 6,-927.12 176.75,-927.12 176.75,-713.38 6,-713.38"/>
<polygon fill="#2196f3" stroke="none" points="7,-906.88 7,-926.12 175.75,-926.12 175.75,-906.88 7,-906.88"/>
<text xml:space="preserve" text-anchor="start" x="65.5" y="-913.62" font-family="Helvetica,sans-Serif" font-weight="bold" font-size="10.00" fill="white">raw_events</text>
<text xml:space="preserve" text-anchor="start" x="11" y="-894.38" font-family="Helvetica,sans-Serif" font-weight="bold" font-size="10.00">id</text>
<text xml:space="preserve" text-anchor="start" x="88.75" y="-894.62" font-family="Helvetica,sans-Serif" font-size="10.00">BIGSERIAL</text>
<text xml:space="preserve" text-anchor="start" x="158.25" y="-894.62" font-family="Helvetica,sans-Serif" font-size="10.00">PK</text>
<text xml:space="preserve" text-anchor="start" x="11" y="-875.38" font-family="Helvetica,sans-Serif" font-size="10.00">event_id</text>
<text xml:space="preserve" text-anchor="start" x="102.62" y="-875.38" font-family="Helvetica,sans-Serif" font-size="10.00">TEXT</text>
<text xml:space="preserve" text-anchor="start" x="11" y="-856.12" font-family="Helvetica,sans-Serif" font-size="10.00">event_type</text>
<text xml:space="preserve" text-anchor="start" x="102.62" y="-856.12" font-family="Helvetica,sans-Serif" font-size="10.00">TEXT</text>
<text xml:space="preserve" text-anchor="start" x="11" y="-836.88" font-family="Helvetica,sans-Serif" font-size="10.00">event_source</text>
<text xml:space="preserve" text-anchor="start" x="102.62" y="-836.88" font-family="Helvetica,sans-Serif" font-size="10.00">TEXT</text>
<text xml:space="preserve" text-anchor="start" x="11" y="-817.62" font-family="Helvetica,sans-Serif" font-size="10.00">event_time</text>
<text xml:space="preserve" text-anchor="start" x="80.5" y="-817.62" font-family="Helvetica,sans-Serif" font-size="10.00">TIMESTAMPTZ</text>
<text xml:space="preserve" text-anchor="start" x="11" y="-798.38" font-family="Helvetica,sans-Serif" font-size="10.00">tenant_id</text>
<text xml:space="preserve" text-anchor="start" x="102.62" y="-798.38" font-family="Helvetica,sans-Serif" font-size="10.00">TEXT</text>
<text xml:space="preserve" text-anchor="start" x="11" y="-779.12" font-family="Helvetica,sans-Serif" font-size="10.00">resource_type</text>
<text xml:space="preserve" text-anchor="start" x="102.62" y="-779.12" font-family="Helvetica,sans-Serif" font-size="10.00">TEXT</text>
<text xml:space="preserve" text-anchor="start" x="11" y="-759.88" font-family="Helvetica,sans-Serif" font-size="10.00">resource_id</text>
<text xml:space="preserve" text-anchor="start" x="102.62" y="-759.88" font-family="Helvetica,sans-Serif" font-size="10.00">TEXT</text>
<text xml:space="preserve" text-anchor="start" x="11" y="-740.62" font-family="Helvetica,sans-Serif" font-size="10.00">data</text>
<text xml:space="preserve" text-anchor="start" x="98.5" y="-740.62" font-family="Helvetica,sans-Serif" font-size="10.00">JSONB</text>
<text xml:space="preserve" text-anchor="start" x="11" y="-721.38" font-family="Helvetica,sans-Serif" font-size="10.00">received_at</text>
<text xml:space="preserve" text-anchor="start" x="80.5" y="-721.38" font-family="Helvetica,sans-Serif" font-size="10.00">TIMESTAMPTZ</text>
<polygon fill="none" stroke="black" points="6,-713.38 6,-927.12 176.75,-927.12 176.75,-713.38 6,-713.38"/>
</g>
<!-- inventory_compute_instance -->
<g id="node4" class="node">
<title>inventory_compute_instance</title>
<polygon fill="#e8f5e9" stroke="none" points="551.5,-394.88 551.5,-685.62 730.5,-685.62 730.5,-394.88 551.5,-394.88"/>
<polygon fill="#4caf50" stroke="none" points="552.5,-665.38 552.5,-684.62 729.5,-684.62 729.5,-665.38 552.5,-665.38"/>
<text xml:space="preserve" text-anchor="start" x="574.25" y="-672.12" font-family="Helvetica,sans-Serif" font-weight="bold" font-size="10.00" fill="white">inventory_compute_instance</text>
<text xml:space="preserve" text-anchor="start" x="556.5" y="-652.88" font-family="Helvetica,sans-Serif" font-weight="bold" font-size="10.00">instance_id</text>
<text xml:space="preserve" text-anchor="start" x="656.38" y="-653.12" font-family="Helvetica,sans-Serif" font-size="10.00">TEXT</text>
<text xml:space="preserve" text-anchor="start" x="712" y="-653.12" font-family="Helvetica,sans-Serif" font-size="10.00">PK</text>
<text xml:space="preserve" text-anchor="start" x="556.5" y="-633.88" font-family="Helvetica,sans-Serif" font-size="10.00">name</text>
<text xml:space="preserve" text-anchor="start" x="656.38" y="-633.88" font-family="Helvetica,sans-Serif" font-size="10.00">TEXT</text>
<text xml:space="preserve" text-anchor="start" x="556.5" y="-614.62" font-family="Helvetica,sans-Serif" font-size="10.00">tenant</text>
<text xml:space="preserve" text-anchor="start" x="656.38" y="-614.62" font-family="Helvetica,sans-Serif" font-size="10.00">TEXT</text>
<text xml:space="preserve" text-anchor="start" x="556.5" y="-595.38" font-family="Helvetica,sans-Serif" font-size="10.00">project</text>
<text xml:space="preserve" text-anchor="start" x="656.38" y="-595.38" font-family="Helvetica,sans-Serif" font-size="10.00">TEXT</text>
<text xml:space="preserve" text-anchor="start" x="556.5" y="-576.12" font-family="Helvetica,sans-Serif" font-size="10.00">cluster_id</text>
<text xml:space="preserve" text-anchor="start" x="656.38" y="-576.12" font-family="Helvetica,sans-Serif" font-size="10.00">TEXT</text>
<text xml:space="preserve" text-anchor="start" x="556.5" y="-556.88" font-family="Helvetica,sans-Serif" font-size="10.00">instance_type</text>
<text xml:space="preserve" text-anchor="start" x="656.38" y="-556.88" font-family="Helvetica,sans-Serif" font-size="10.00">TEXT</text>
<text xml:space="preserve" text-anchor="start" x="556.5" y="-537.62" font-family="Helvetica,sans-Serif" font-size="10.00">cores</text>
<text xml:space="preserve" text-anchor="start" x="646.62" y="-537.62" font-family="Helvetica,sans-Serif" font-size="10.00">INTEGER</text>
<text xml:space="preserve" text-anchor="start" x="556.5" y="-518.38" font-family="Helvetica,sans-Serif" font-size="10.00">memory_gib</text>
<text xml:space="preserve" text-anchor="start" x="646.62" y="-518.38" font-family="Helvetica,sans-Serif" font-size="10.00">INTEGER</text>
<text xml:space="preserve" text-anchor="start" x="556.5" y="-499.12" font-family="Helvetica,sans-Serif" font-size="10.00">state</text>
<text xml:space="preserve" text-anchor="start" x="656.38" y="-499.12" font-family="Helvetica,sans-Serif" font-size="10.00">TEXT</text>
<text xml:space="preserve" text-anchor="start" x="556.5" y="-479.88" font-family="Helvetica,sans-Serif" font-size="10.00">labels</text>
<text xml:space="preserve" text-anchor="start" x="652.25" y="-479.88" font-family="Helvetica,sans-Serif" font-size="10.00">JSONB</text>
<text xml:space="preserve" text-anchor="start" x="556.5" y="-460.62" font-family="Helvetica,sans-Serif" font-size="10.00">created_at</text>
<text xml:space="preserve" text-anchor="start" x="634.25" y="-460.62" font-family="Helvetica,sans-Serif" font-size="10.00">TIMESTAMPTZ</text>
<text xml:space="preserve" text-anchor="start" x="556.5" y="-441.38" font-family="Helvetica,sans-Serif" font-size="10.00">deleted_at</text>
<text xml:space="preserve" text-anchor="start" x="634.25" y="-441.38" font-family="Helvetica,sans-Serif" font-size="10.00">TIMESTAMPTZ</text>
<text xml:space="preserve" text-anchor="start" x="556.5" y="-422.12" font-family="Helvetica,sans-Serif" font-size="10.00">last_event_id</text>
<text xml:space="preserve" text-anchor="start" x="656.38" y="-422.12" font-family="Helvetica,sans-Serif" font-size="10.00">TEXT</text>
<text xml:space="preserve" text-anchor="start" x="556.5" y="-402.88" font-family="Helvetica,sans-Serif" font-size="10.00">last_metered_at</text>
<text xml:space="preserve" text-anchor="start" x="634.25" y="-402.88" font-family="Helvetica,sans-Serif" font-size="10.00">TIMESTAMPTZ</text>
<polygon fill="none" stroke="black" points="551.5,-394.88 551.5,-685.62 730.5,-685.62 730.5,-394.88 551.5,-394.88"/>
</g>
<!-- raw_events&#45;&gt;inventory_compute_instance -->
<g id="edge10" class="edge">
<title>raw_events&#45;&gt;inventory_compute_instance</title>
<path fill="none" stroke="#999999" stroke-dasharray="1,5" d="M149.45,-926.91C179.31,-971.21 220.35,-1017.9 271.25,-1042.25 346.32,-1078.17 390.38,-1090.06 458.5,-1042.25 568.91,-964.76 612.45,-813.1 629.46,-696.67"/>
<polygon fill="#999999" stroke="#999999" points="632.89,-697.4 630.81,-687.01 625.95,-696.43 632.89,-697.4"/>
<text xml:space="preserve" text-anchor="middle" x="364.88" y="-1084.75" font-family="Helvetica,sans-Serif" font-size="9.00">upsert on</text>
<text xml:space="preserve" text-anchor="middle" x="364.88" y="-1075" font-family="Helvetica,sans-Serif" font-size="9.00">event</text>
</g>
<!-- inventory_cluster -->
<g id="node5" class="node">
<title>inventory_cluster</title>
<polygon fill="#e8f5e9" stroke="none" points="275.38,-799.75 275.38,-1032.75 454.38,-1032.75 454.38,-799.75 275.38,-799.75"/>
<polygon fill="#4caf50" stroke="none" points="276.38,-1012.5 276.38,-1031.75 453.38,-1031.75 453.38,-1012.5 276.38,-1012.5"/>
<text xml:space="preserve" text-anchor="start" x="324.75" y="-1019.25" font-family="Helvetica,sans-Serif" font-weight="bold" font-size="10.00" fill="white">inventory_cluster</text>
<text xml:space="preserve" text-anchor="start" x="280.38" y="-1000" font-family="Helvetica,sans-Serif" font-weight="bold" font-size="10.00">cluster_id</text>
<text xml:space="preserve" text-anchor="start" x="380.25" y="-1000.25" font-family="Helvetica,sans-Serif" font-size="10.00">TEXT</text>
<text xml:space="preserve" text-anchor="start" x="435.88" y="-1000.25" font-family="Helvetica,sans-Serif" font-size="10.00">PK</text>
<text xml:space="preserve" text-anchor="start" x="280.38" y="-981" font-family="Helvetica,sans-Serif" font-size="10.00">name</text>
<text xml:space="preserve" text-anchor="start" x="380.25" y="-981" font-family="Helvetica,sans-Serif" font-size="10.00">TEXT</text>
<text xml:space="preserve" text-anchor="start" x="280.38" y="-961.75" font-family="Helvetica,sans-Serif" font-size="10.00">tenant</text>
<text xml:space="preserve" text-anchor="start" x="380.25" y="-961.75" font-family="Helvetica,sans-Serif" font-size="10.00">TEXT</text>
<text xml:space="preserve" text-anchor="start" x="280.38" y="-942.5" font-family="Helvetica,sans-Serif" font-size="10.00">template</text>
<text xml:space="preserve" text-anchor="start" x="380.25" y="-942.5" font-family="Helvetica,sans-Serif" font-size="10.00">TEXT</text>
<text xml:space="preserve" text-anchor="start" x="280.38" y="-923.25" font-family="Helvetica,sans-Serif" font-size="10.00">node_sets</text>
<text xml:space="preserve" text-anchor="start" x="376.12" y="-923.25" font-family="Helvetica,sans-Serif" font-size="10.00">JSONB</text>
<text xml:space="preserve" text-anchor="start" x="280.38" y="-904" font-family="Helvetica,sans-Serif" font-size="10.00">state</text>
<text xml:space="preserve" text-anchor="start" x="380.25" y="-904" font-family="Helvetica,sans-Serif" font-size="10.00">TEXT</text>
<text xml:space="preserve" text-anchor="start" x="280.38" y="-884.75" font-family="Helvetica,sans-Serif" font-size="10.00">labels</text>
<text xml:space="preserve" text-anchor="start" x="376.12" y="-884.75" font-family="Helvetica,sans-Serif" font-size="10.00">JSONB</text>
<text xml:space="preserve" text-anchor="start" x="280.38" y="-865.5" font-family="Helvetica,sans-Serif" font-size="10.00">created_at</text>
<text xml:space="preserve" text-anchor="start" x="358.12" y="-865.5" font-family="Helvetica,sans-Serif" font-size="10.00">TIMESTAMPTZ</text>
<text xml:space="preserve" text-anchor="start" x="280.38" y="-846.25" font-family="Helvetica,sans-Serif" font-size="10.00">deleted_at</text>
<text xml:space="preserve" text-anchor="start" x="358.12" y="-846.25" font-family="Helvetica,sans-Serif" font-size="10.00">TIMESTAMPTZ</text>
<text xml:space="preserve" text-anchor="start" x="280.38" y="-827" font-family="Helvetica,sans-Serif" font-size="10.00">last_event_id</text>
<text xml:space="preserve" text-anchor="start" x="380.25" y="-827" font-family="Helvetica,sans-Serif" font-size="10.00">TEXT</text>
<text xml:space="preserve" text-anchor="start" x="280.38" y="-807.75" font-family="Helvetica,sans-Serif" font-size="10.00">last_metered_at</text>
<text xml:space="preserve" text-anchor="start" x="358.12" y="-807.75" font-family="Helvetica,sans-Serif" font-size="10.00">TIMESTAMPTZ</text>
<polygon fill="none" stroke="black" points="275.38,-799.75 275.38,-1032.75 454.38,-1032.75 454.38,-799.75 275.38,-799.75"/>
</g>
<!-- raw_events&#45;&gt;inventory_cluster -->
<g id="edge11" class="edge">
<title>raw_events&#45;&gt;inventory_cluster</title>
<path fill="none" stroke="#999999" stroke-dasharray="1,5" d="M176.42,-849.97C204.44,-859.87 235.91,-871 264.95,-881.27"/>
<polygon fill="#999999" stroke="#999999" points="263.51,-884.47 274.1,-884.51 265.84,-877.87 263.51,-884.47"/>
<text xml:space="preserve" text-anchor="middle" x="227" y="-887.8" font-family="Helvetica,sans-Serif" font-size="9.00">upsert on</text>
<text xml:space="preserve" text-anchor="middle" x="227" y="-878.05" font-family="Helvetica,sans-Serif" font-size="9.00">event</text>
</g>
<!-- inventory_model -->
<g id="node6" class="node">
<title>inventory_model</title>
<polygon fill="#e8f5e9" stroke="none" points="282.5,-568.38 282.5,-782.12 447.25,-782.12 447.25,-568.38 282.5,-568.38"/>
<polygon fill="#4caf50" stroke="none" points="283.5,-761.88 283.5,-781.12 446.25,-781.12 446.25,-761.88 283.5,-761.88"/>
<text xml:space="preserve" text-anchor="start" x="325.88" y="-768.62" font-family="Helvetica,sans-Serif" font-weight="bold" font-size="10.00" fill="white">inventory_model</text>
<text xml:space="preserve" text-anchor="start" x="287.5" y="-749.38" font-family="Helvetica,sans-Serif" font-weight="bold" font-size="10.00">model_id</text>
<text xml:space="preserve" text-anchor="start" x="373.12" y="-749.62" font-family="Helvetica,sans-Serif" font-size="10.00">TEXT</text>
<text xml:space="preserve" text-anchor="start" x="428.75" y="-749.62" font-family="Helvetica,sans-Serif" font-size="10.00">PK</text>
<text xml:space="preserve" text-anchor="start" x="287.5" y="-730.38" font-family="Helvetica,sans-Serif" font-size="10.00">name</text>
<text xml:space="preserve" text-anchor="start" x="373.12" y="-730.38" font-family="Helvetica,sans-Serif" font-size="10.00">TEXT</text>
<text xml:space="preserve" text-anchor="start" x="287.5" y="-711.12" font-family="Helvetica,sans-Serif" font-size="10.00">model_name</text>
<text xml:space="preserve" text-anchor="start" x="373.12" y="-711.12" font-family="Helvetica,sans-Serif" font-size="10.00">TEXT</text>
<text xml:space="preserve" text-anchor="start" x="287.5" y="-691.88" font-family="Helvetica,sans-Serif" font-size="10.00">tenant</text>
<text xml:space="preserve" text-anchor="start" x="373.12" y="-691.88" font-family="Helvetica,sans-Serif" font-size="10.00">TEXT</text>
<text xml:space="preserve" text-anchor="start" x="287.5" y="-672.62" font-family="Helvetica,sans-Serif" font-size="10.00">project</text>
<text xml:space="preserve" text-anchor="start" x="373.12" y="-672.62" font-family="Helvetica,sans-Serif" font-size="10.00">TEXT</text>
<text xml:space="preserve" text-anchor="start" x="287.5" y="-653.38" font-family="Helvetica,sans-Serif" font-size="10.00">template</text>
<text xml:space="preserve" text-anchor="start" x="373.12" y="-653.38" font-family="Helvetica,sans-Serif" font-size="10.00">TEXT</text>
<text xml:space="preserve" text-anchor="start" x="287.5" y="-634.12" font-family="Helvetica,sans-Serif" font-size="10.00">state</text>
<text xml:space="preserve" text-anchor="start" x="373.12" y="-634.12" font-family="Helvetica,sans-Serif" font-size="10.00">TEXT</text>
<text xml:space="preserve" text-anchor="start" x="287.5" y="-614.88" font-family="Helvetica,sans-Serif" font-size="10.00">labels</text>
<text xml:space="preserve" text-anchor="start" x="369" y="-614.88" font-family="Helvetica,sans-Serif" font-size="10.00">JSONB</text>
<text xml:space="preserve" text-anchor="start" x="287.5" y="-595.62" font-family="Helvetica,sans-Serif" font-size="10.00">created_at</text>
<text xml:space="preserve" text-anchor="start" x="351" y="-595.62" font-family="Helvetica,sans-Serif" font-size="10.00">TIMESTAMPTZ</text>
<text xml:space="preserve" text-anchor="start" x="287.5" y="-576.38" font-family="Helvetica,sans-Serif" font-size="10.00">deleted_at</text>
<text xml:space="preserve" text-anchor="start" x="351" y="-576.38" font-family="Helvetica,sans-Serif" font-size="10.00">TIMESTAMPTZ</text>
<polygon fill="none" stroke="black" points="282.5,-568.38 282.5,-782.12 447.25,-782.12 447.25,-568.38 282.5,-568.38"/>
</g>
<!-- raw_events&#45;&gt;inventory_model -->
<g id="edge12" class="edge">
<title>raw_events&#45;&gt;inventory_model</title>
<path fill="none" stroke="#999999" stroke-dasharray="1,5" d="M176.61,-792.79C201.91,-783.22 229.29,-771.52 253.25,-758.25 260.04,-754.49 266.87,-750.36 273.64,-746.01"/>
<polygon fill="#999999" stroke="#999999" points="275.13,-749.22 281.54,-740.79 271.27,-743.38 275.13,-749.22"/>
<text xml:space="preserve" text-anchor="middle" x="227" y="-793.64" font-family="Helvetica,sans-Serif" font-size="9.00">upsert on</text>
<text xml:space="preserve" text-anchor="middle" x="227" y="-783.89" font-family="Helvetica,sans-Serif" font-size="9.00">event</text>
</g>
<!-- inventory_bare_metal_instance -->
<g id="node7" class="node">
<title>inventory_bare_metal_instance</title>
<polygon fill="#e8f5e9" stroke="none" points="275.38,0 275.38,-194.5 454.38,-194.5 454.38,0 275.38,0"/>
<polygon fill="#4caf50" stroke="none" points="276.38,-174.25 276.38,-193.5 453.38,-193.5 453.38,-174.25 276.38,-174.25"/>
<text xml:space="preserve" text-anchor="start" x="292.88" y="-181" font-family="Helvetica,sans-Serif" font-weight="bold" font-size="10.00" fill="white">inventory_bare_metal_instance</text>
<text xml:space="preserve" text-anchor="start" x="280.38" y="-161.75" font-family="Helvetica,sans-Serif" font-weight="bold" font-size="10.00">instance_id</text>
<text xml:space="preserve" text-anchor="start" x="380.25" y="-162" font-family="Helvetica,sans-Serif" font-size="10.00">TEXT</text>
<text xml:space="preserve" text-anchor="start" x="435.88" y="-162" font-family="Helvetica,sans-Serif" font-size="10.00">PK</text>
<text xml:space="preserve" text-anchor="start" x="280.38" y="-142.75" font-family="Helvetica,sans-Serif" font-size="10.00">name</text>
<text xml:space="preserve" text-anchor="start" x="380.25" y="-142.75" font-family="Helvetica,sans-Serif" font-size="10.00">TEXT</text>
<text xml:space="preserve" text-anchor="start" x="280.38" y="-123.5" font-family="Helvetica,sans-Serif" font-size="10.00">tenant</text>
<text xml:space="preserve" text-anchor="start" x="380.25" y="-123.5" font-family="Helvetica,sans-Serif" font-size="10.00">TEXT</text>
<text xml:space="preserve" text-anchor="start" x="280.38" y="-104.25" font-family="Helvetica,sans-Serif" font-size="10.00">catalog_item</text>
<text xml:space="preserve" text-anchor="start" x="380.25" y="-104.25" font-family="Helvetica,sans-Serif" font-size="10.00">TEXT</text>
<text xml:space="preserve" text-anchor="start" x="280.38" y="-85" font-family="Helvetica,sans-Serif" font-size="10.00">state</text>
<text xml:space="preserve" text-anchor="start" x="380.25" y="-85" font-family="Helvetica,sans-Serif" font-size="10.00">TEXT</text>
<text xml:space="preserve" text-anchor="start" x="280.38" y="-65.75" font-family="Helvetica,sans-Serif" font-size="10.00">labels</text>
<text xml:space="preserve" text-anchor="start" x="376.12" y="-65.75" font-family="Helvetica,sans-Serif" font-size="10.00">JSONB</text>
<text xml:space="preserve" text-anchor="start" x="280.38" y="-46.5" font-family="Helvetica,sans-Serif" font-size="10.00">created_at</text>
<text xml:space="preserve" text-anchor="start" x="358.12" y="-46.5" font-family="Helvetica,sans-Serif" font-size="10.00">TIMESTAMPTZ</text>
<text xml:space="preserve" text-anchor="start" x="280.38" y="-27.25" font-family="Helvetica,sans-Serif" font-size="10.00">deleted_at</text>
<text xml:space="preserve" text-anchor="start" x="358.12" y="-27.25" font-family="Helvetica,sans-Serif" font-size="10.00">TIMESTAMPTZ</text>
<text xml:space="preserve" text-anchor="start" x="280.38" y="-8" font-family="Helvetica,sans-Serif" font-size="10.00">last_metered_at</text>
<text xml:space="preserve" text-anchor="start" x="358.12" y="-8" font-family="Helvetica,sans-Serif" font-size="10.00">TIMESTAMPTZ</text>
<polygon fill="none" stroke="black" points="275.38,0 275.38,-194.5 454.38,-194.5 454.38,0 275.38,0"/>
</g>
<!-- raw_events&#45;&gt;inventory_bare_metal_instance -->
<g id="edge13" class="edge">
<title>raw_events&#45;&gt;inventory_bare_metal_instance</title>
<path fill="none" stroke="#999999" stroke-dasharray="1,5" d="M159.55,-713.46C172.22,-696.92 186.12,-680.71 200.75,-666.75 220.77,-647.64 239.44,-657.24 253.25,-633.25 275.8,-594.08 255.99,-283.96 272.51,-205.31"/>
<polygon fill="#999999" stroke="#999999" points="275.82,-206.45 275.2,-195.87 269.09,-204.53 275.82,-206.45"/>
<text xml:space="preserve" text-anchor="middle" x="227" y="-677.7" font-family="Helvetica,sans-Serif" font-size="9.00">upsert on</text>
<text xml:space="preserve" text-anchor="middle" x="227" y="-667.95" font-family="Helvetica,sans-Serif" font-size="9.00">event</text>
</g>
<!-- inventory_tenant -->
<g id="node2" class="node">
<title>inventory_tenant</title>
<polygon fill="#e8f5e9" stroke="none" points="9,-471.88 9,-608.62 173.75,-608.62 173.75,-471.88 9,-471.88"/>
<polygon fill="#4caf50" stroke="none" points="10,-588.38 10,-607.62 172.75,-607.62 172.75,-588.38 10,-588.38"/>
<text xml:space="preserve" text-anchor="start" x="52.75" y="-595.12" font-family="Helvetica,sans-Serif" font-weight="bold" font-size="10.00" fill="white">inventory_tenant</text>
<text xml:space="preserve" text-anchor="start" x="14" y="-575.88" font-family="Helvetica,sans-Serif" font-weight="bold" font-size="10.00">tenant_id</text>
<text xml:space="preserve" text-anchor="start" x="99.62" y="-576.12" font-family="Helvetica,sans-Serif" font-size="10.00">TEXT</text>
<text xml:space="preserve" text-anchor="start" x="155.25" y="-576.12" font-family="Helvetica,sans-Serif" font-size="10.00">PK</text>
<text xml:space="preserve" text-anchor="start" x="14" y="-556.88" font-family="Helvetica,sans-Serif" font-size="10.00">name</text>
<text xml:space="preserve" text-anchor="start" x="99.62" y="-556.88" font-family="Helvetica,sans-Serif" font-size="10.00">TEXT</text>
<text xml:space="preserve" text-anchor="start" x="14" y="-537.62" font-family="Helvetica,sans-Serif" font-size="10.00">labels</text>
<text xml:space="preserve" text-anchor="start" x="95.5" y="-537.62" font-family="Helvetica,sans-Serif" font-size="10.00">JSONB</text>
<text xml:space="preserve" text-anchor="start" x="14" y="-518.38" font-family="Helvetica,sans-Serif" font-size="10.00">created_at</text>
<text xml:space="preserve" text-anchor="start" x="77.5" y="-518.38" font-family="Helvetica,sans-Serif" font-size="10.00">TIMESTAMPTZ</text>
<text xml:space="preserve" text-anchor="start" x="14" y="-499.12" font-family="Helvetica,sans-Serif" font-size="10.00">deleted_at</text>
<text xml:space="preserve" text-anchor="start" x="77.5" y="-499.12" font-family="Helvetica,sans-Serif" font-size="10.00">TIMESTAMPTZ</text>
<text xml:space="preserve" text-anchor="start" x="14" y="-479.88" font-family="Helvetica,sans-Serif" font-size="10.00">last_updated</text>
<text xml:space="preserve" text-anchor="start" x="77.5" y="-479.88" font-family="Helvetica,sans-Serif" font-size="10.00">TIMESTAMPTZ</text>
<polygon fill="none" stroke="black" points="9,-471.88 9,-608.62 173.75,-608.62 173.75,-471.88 9,-471.88"/>
</g>
<!-- inventory_project -->
<g id="node3" class="node">
<title>inventory_project</title>
<polygon fill="#e8f5e9" stroke="none" points="287,-212.88 287,-349.62 442.75,-349.62 442.75,-212.88 287,-212.88"/>
<polygon fill="#4caf50" stroke="none" points="288,-329.38 288,-348.62 441.75,-348.62 441.75,-329.38 288,-329.38"/>
<text xml:space="preserve" text-anchor="start" x="324.38" y="-336.12" font-family="Helvetica,sans-Serif" font-weight="bold" font-size="10.00" fill="white">inventory_project</text>
<text xml:space="preserve" text-anchor="start" x="292" y="-316.88" font-family="Helvetica,sans-Serif" font-weight="bold" font-size="10.00">project_id</text>
<text xml:space="preserve" text-anchor="start" x="368.62" y="-317.12" font-family="Helvetica,sans-Serif" font-size="10.00">TEXT</text>
<text xml:space="preserve" text-anchor="start" x="424.25" y="-317.12" font-family="Helvetica,sans-Serif" font-size="10.00">PK</text>
<text xml:space="preserve" text-anchor="start" x="292" y="-297.88" font-family="Helvetica,sans-Serif" font-size="10.00">name</text>
<text xml:space="preserve" text-anchor="start" x="368.62" y="-297.88" font-family="Helvetica,sans-Serif" font-size="10.00">TEXT</text>
<text xml:space="preserve" text-anchor="start" x="292" y="-278.62" font-family="Helvetica,sans-Serif" font-size="10.00">tenant</text>
<text xml:space="preserve" text-anchor="start" x="368.62" y="-278.62" font-family="Helvetica,sans-Serif" font-size="10.00">TEXT</text>
<text xml:space="preserve" text-anchor="start" x="292" y="-259.38" font-family="Helvetica,sans-Serif" font-size="10.00">labels</text>
<text xml:space="preserve" text-anchor="start" x="364.5" y="-259.38" font-family="Helvetica,sans-Serif" font-size="10.00">JSONB</text>
<text xml:space="preserve" text-anchor="start" x="292" y="-240.12" font-family="Helvetica,sans-Serif" font-size="10.00">created_at</text>
<text xml:space="preserve" text-anchor="start" x="346.5" y="-240.12" font-family="Helvetica,sans-Serif" font-size="10.00">TIMESTAMPTZ</text>
<text xml:space="preserve" text-anchor="start" x="292" y="-220.88" font-family="Helvetica,sans-Serif" font-size="10.00">deleted_at</text>
<text xml:space="preserve" text-anchor="start" x="346.5" y="-220.88" font-family="Helvetica,sans-Serif" font-size="10.00">TIMESTAMPTZ</text>
<polygon fill="none" stroke="black" points="287,-212.88 287,-349.62 442.75,-349.62 442.75,-212.88 287,-212.88"/>
</g>
<!-- inventory_tenant&#45;&gt;inventory_project -->
<g id="edge1" class="edge">
<title>inventory_tenant&#45;&gt;inventory_project</title>
<path fill="none" stroke="#666666" stroke-dasharray="5,2" d="M156.79,-472.16C190.21,-437.58 232.14,-395.37 271.25,-359.25 273.64,-357.04 276.08,-354.82 278.55,-352.59"/>
<polygon fill="#666666" stroke="#666666" points="280.81,-355.26 285.94,-345.99 276.15,-350.04 280.81,-355.26"/>
<text xml:space="preserve" text-anchor="middle" x="227" y="-428.49" font-family="Helvetica,sans-Serif" font-size="9.00">tenant</text>
</g>
<!-- inventory_tenant&#45;&gt;inventory_compute_instance -->
<g id="edge2" class="edge">
<title>inventory_tenant&#45;&gt;inventory_compute_instance</title>
<path fill="none" stroke="#666666" stroke-dasharray="5,2" d="M173.47,-540.25C271.15,-540.25 435.17,-540.25 540.43,-540.25"/>
<polygon fill="#666666" stroke="#666666" points="540.19,-543.75 550.19,-540.25 540.18,-536.75 540.19,-543.75"/>
<text xml:space="preserve" text-anchor="middle" x="364.88" y="-541.45" font-family="Helvetica,sans-Serif" font-size="9.00">tenant</text>
</g>
<!-- inventory_tenant&#45;&gt;inventory_cluster -->
<g id="edge3" class="edge">
<title>inventory_tenant&#45;&gt;inventory_cluster</title>
<path fill="none" stroke="#666666" stroke-dasharray="5,2" d="M138.4,-608.26C156.96,-634.51 179.09,-664.39 200.75,-690.25 222.3,-715.97 235.19,-716.22 253.25,-744.5 263.64,-760.77 261.48,-769.31 270.88,-789.58"/>
<polygon fill="#666666" stroke="#666666" points="267.74,-791.13 275.41,-798.44 273.97,-787.94 267.74,-791.13"/>
<text xml:space="preserve" text-anchor="middle" x="227" y="-745.7" font-family="Helvetica,sans-Serif" font-size="9.00">tenant</text>
</g>
<!-- inventory_tenant&#45;&gt;inventory_model -->
<g id="edge4" class="edge">
<title>inventory_tenant&#45;&gt;inventory_model</title>
<path fill="none" stroke="#666666" stroke-dasharray="5,2" d="M173.47,-580.57C204.63,-596.07 240.4,-613.85 272.46,-629.8"/>
<polygon fill="#666666" stroke="#666666" points="270.87,-632.91 281.38,-634.23 273.98,-626.64 270.87,-632.91"/>
<text xml:space="preserve" text-anchor="middle" x="227" y="-621.04" font-family="Helvetica,sans-Serif" font-size="9.00">tenant</text>
</g>
<!-- inventory_tenant&#45;&gt;inventory_bare_metal_instance -->
<g id="edge5" class="edge">
<title>inventory_tenant&#45;&gt;inventory_bare_metal_instance</title>
<path fill="none" stroke="#666666" stroke-dasharray="5,2" d="M123.12,-472.02C155.82,-402.26 211.06,-291.98 271.25,-204.25 271.47,-203.94 271.68,-203.62 271.9,-203.31"/>
<polygon fill="#666666" stroke="#666666" points="274.56,-205.61 277.5,-195.43 268.85,-201.55 274.56,-205.61"/>
<text xml:space="preserve" text-anchor="middle" x="227" y="-312.23" font-family="Helvetica,sans-Serif" font-size="9.00">tenant</text>
</g>
<!-- inventory_project&#45;&gt;inventory_compute_instance -->
<g id="edge9" class="edge">
<title>inventory_project&#45;&gt;inventory_compute_instance</title>
<path fill="none" stroke="#666666" stroke-dasharray="5,2" d="M442.64,-345.02C448.05,-349.79 453.39,-354.56 458.5,-359.25 486.86,-385.25 516.77,-414.34 543.95,-441.46"/>
<polygon fill="#666666" stroke="#666666" points="541.3,-443.75 550.84,-448.35 546.25,-438.81 541.3,-443.75"/>
<text xml:space="preserve" text-anchor="middle" x="505" y="-428.6" font-family="Helvetica,sans-Serif" font-size="9.00">project</text>
</g>
<!-- inventory_cluster&#45;&gt;inventory_compute_instance -->
<g id="edge8" class="edge">
<title>inventory_cluster&#45;&gt;inventory_compute_instance</title>
<path fill="none" stroke="#666666" stroke-dasharray="5,2" d="M452.2,-799.84C454.32,-796.95 456.43,-794.08 458.5,-791.25 486.73,-752.69 517.23,-710.65 545.03,-672.19"/>
<polygon fill="#666666" stroke="#666666" points="547.76,-674.4 550.78,-664.24 542.08,-670.3 547.76,-674.4"/>
<text xml:space="preserve" text-anchor="middle" x="505" y="-765.32" font-family="Helvetica,sans-Serif" font-size="9.00">cluster_id</text>
</g>
<!-- inventory_instance_type -->
<g id="node8" class="node">
<title>inventory_instance_type</title>
<polygon fill="#e8f5e9" stroke="none" points="271.25,-367.88 271.25,-504.62 458.5,-504.62 458.5,-367.88 271.25,-367.88"/>
<polygon fill="#4caf50" stroke="none" points="272.25,-484.38 272.25,-503.62 457.5,-503.62 457.5,-484.38 272.25,-484.38"/>
<text xml:space="preserve" text-anchor="start" x="308.62" y="-491.12" font-family="Helvetica,sans-Serif" font-weight="bold" font-size="10.00" fill="white">inventory_instance_type</text>
<text xml:space="preserve" text-anchor="start" x="276.25" y="-471.88" font-family="Helvetica,sans-Serif" font-weight="bold" font-size="10.00">instance_type_id</text>
<text xml:space="preserve" text-anchor="start" x="384.38" y="-472.12" font-family="Helvetica,sans-Serif" font-size="10.00">TEXT</text>
<text xml:space="preserve" text-anchor="start" x="440" y="-472.12" font-family="Helvetica,sans-Serif" font-size="10.00">PK</text>
<text xml:space="preserve" text-anchor="start" x="276.25" y="-452.88" font-family="Helvetica,sans-Serif" font-size="10.00">name</text>
<text xml:space="preserve" text-anchor="start" x="384.38" y="-452.88" font-family="Helvetica,sans-Serif" font-size="10.00">TEXT</text>
<text xml:space="preserve" text-anchor="start" x="276.25" y="-433.62" font-family="Helvetica,sans-Serif" font-size="10.00">cores</text>
<text xml:space="preserve" text-anchor="start" x="374.62" y="-433.62" font-family="Helvetica,sans-Serif" font-size="10.00">INTEGER</text>
<text xml:space="preserve" text-anchor="start" x="276.25" y="-414.38" font-family="Helvetica,sans-Serif" font-size="10.00">memory_gib</text>
<text xml:space="preserve" text-anchor="start" x="374.62" y="-414.38" font-family="Helvetica,sans-Serif" font-size="10.00">INTEGER</text>
<text xml:space="preserve" text-anchor="start" x="276.25" y="-395.12" font-family="Helvetica,sans-Serif" font-size="10.00">state</text>
<text xml:space="preserve" text-anchor="start" x="384.38" y="-395.12" font-family="Helvetica,sans-Serif" font-size="10.00">TEXT</text>
<text xml:space="preserve" text-anchor="start" x="276.25" y="-375.88" font-family="Helvetica,sans-Serif" font-size="10.00">last_updated</text>
<text xml:space="preserve" text-anchor="start" x="362.25" y="-375.88" font-family="Helvetica,sans-Serif" font-size="10.00">TIMESTAMPTZ</text>
<polygon fill="none" stroke="black" points="271.25,-367.88 271.25,-504.62 458.5,-504.62 458.5,-367.88 271.25,-367.88"/>
</g>
<!-- inventory_instance_type&#45;&gt;inventory_compute_instance -->
<g id="edge6" class="edge">
<title>inventory_instance_type&#45;&gt;inventory_compute_instance</title>
<path fill="none" stroke="#666666" stroke-dasharray="5,2" d="M458.3,-471.31C484.92,-481.41 514.06,-492.47 541.06,-502.71"/>
<polygon fill="#666666" stroke="#666666" points="539.68,-505.93 550.27,-506.21 542.16,-499.39 539.68,-505.93"/>
<text xml:space="preserve" text-anchor="middle" x="505" y="-498.77" font-family="Helvetica,sans-Serif" font-size="9.00">instance_type</text>
</g>
<!-- inventory_catalog_item -->
<g id="node9" class="node">
<title>inventory_catalog_item</title>
<polygon fill="#e8f5e9" stroke="none" points="0,0 0,-194.5 182.75,-194.5 182.75,0 0,0"/>
<polygon fill="#4caf50" stroke="none" points="1,-174.25 1,-193.5 181.75,-193.5 181.75,-174.25 1,-174.25"/>
<text xml:space="preserve" text-anchor="start" x="37.38" y="-181" font-family="Helvetica,sans-Serif" font-weight="bold" font-size="10.00" fill="white">inventory_catalog_item</text>
<text xml:space="preserve" text-anchor="start" x="5" y="-161.75" font-family="Helvetica,sans-Serif" font-weight="bold" font-size="10.00">catalog_item_id</text>
<text xml:space="preserve" text-anchor="start" x="108.62" y="-162" font-family="Helvetica,sans-Serif" font-size="10.00">TEXT</text>
<text xml:space="preserve" text-anchor="start" x="164.25" y="-162" font-family="Helvetica,sans-Serif" font-size="10.00">PK</text>
<text xml:space="preserve" text-anchor="start" x="5" y="-142.75" font-family="Helvetica,sans-Serif" font-size="10.00">item_type</text>
<text xml:space="preserve" text-anchor="start" x="108.62" y="-142.75" font-family="Helvetica,sans-Serif" font-size="10.00">TEXT</text>
<text xml:space="preserve" text-anchor="start" x="5" y="-123.5" font-family="Helvetica,sans-Serif" font-size="10.00">name</text>
<text xml:space="preserve" text-anchor="start" x="108.62" y="-123.5" font-family="Helvetica,sans-Serif" font-size="10.00">TEXT</text>
<text xml:space="preserve" text-anchor="start" x="5" y="-104.25" font-family="Helvetica,sans-Serif" font-size="10.00">title</text>
<text xml:space="preserve" text-anchor="start" x="108.62" y="-104.25" font-family="Helvetica,sans-Serif" font-size="10.00">TEXT</text>
<text xml:space="preserve" text-anchor="start" x="5" y="-85" font-family="Helvetica,sans-Serif" font-size="10.00">description</text>
<text xml:space="preserve" text-anchor="start" x="108.62" y="-85" font-family="Helvetica,sans-Serif" font-size="10.00">TEXT</text>
<text xml:space="preserve" text-anchor="start" x="5" y="-65.75" font-family="Helvetica,sans-Serif" font-size="10.00">template</text>
<text xml:space="preserve" text-anchor="start" x="108.62" y="-65.75" font-family="Helvetica,sans-Serif" font-size="10.00">TEXT</text>
<text xml:space="preserve" text-anchor="start" x="5" y="-46.5" font-family="Helvetica,sans-Serif" font-size="10.00">published</text>
<text xml:space="preserve" text-anchor="start" x="97.38" y="-46.5" font-family="Helvetica,sans-Serif" font-size="10.00">BOOLEAN</text>
<text xml:space="preserve" text-anchor="start" x="5" y="-27.25" font-family="Helvetica,sans-Serif" font-size="10.00">tenant</text>
<text xml:space="preserve" text-anchor="start" x="108.62" y="-27.25" font-family="Helvetica,sans-Serif" font-size="10.00">TEXT</text>
<text xml:space="preserve" text-anchor="start" x="5" y="-8" font-family="Helvetica,sans-Serif" font-size="10.00">last_updated</text>
<text xml:space="preserve" text-anchor="start" x="86.5" y="-8" font-family="Helvetica,sans-Serif" font-size="10.00">TIMESTAMPTZ</text>
<polygon fill="none" stroke="black" points="0,0 0,-194.5 182.75,-194.5 182.75,0 0,0"/>
</g>
<!-- inventory_catalog_item&#45;&gt;inventory_bare_metal_instance -->
<g id="edge7" class="edge">
<title>inventory_catalog_item&#45;&gt;inventory_bare_metal_instance</title>
<path fill="none" stroke="#666666" stroke-dasharray="5,2" d="M182.4,-97.25C208.61,-97.25 237.38,-97.25 264.14,-97.25"/>
<polygon fill="#666666" stroke="#666666" points="263.96,-100.75 273.96,-97.25 263.96,-93.75 263.96,-100.75"/>
<text xml:space="preserve" text-anchor="middle" x="227" y="-98.45" font-family="Helvetica,sans-Serif" font-size="9.00">catalog_item</text>
</g>
</g>
</svg>
