<?xml version="1.0" encoding="UTF-8" standalone="no"?>
<!DOCTYPE svg PUBLIC "-//W3C//DTD SVG 1.1//EN"
 "http://www.w3.org/Graphics/SVG/1.1/DTD/svg11.dtd">
<!-- Generated by graphviz version 15.0.0 (20260523.1842)
 -->
<!-- Title: erd_inventory Pages: 1 -->
<svg width="579pt" height="1016pt"
 viewBox="0.00 0.00 579.00 1016.00" xmlns="http://www.w3.org/2000/svg" xmlns:xlink="http://www.w3.org/1999/xlink">
<g id="graph0" class="graph" transform="scale(1 1) rotate(0) translate(36 979.5)">
<title>erd_inventory</title>
<polygon fill="white" stroke="none" points="-36,36 -36,-979.5 543.25,-979.5 543.25,36 -36,36"/>
<text xml:space="preserve" text-anchor="middle" x="253.62" y="-928.1" font-family="Helvetica,sans-Serif" font-size="12.00">Inventory &amp; Events</text>
<text xml:space="preserve" text-anchor="middle" x="253.62" y="-915.35" font-family="Helvetica,sans-Serif" font-size="12.00">(store.go / models.go)</text>
<!-- raw_events -->
<g id="node1" class="node">
<title>raw_events</title>
<polygon fill="#e8f4fd" stroke="none" points="0,-405.38 0,-619.12 197,-619.12 197,-405.38 0,-405.38"/>
<polygon fill="#2196f3" stroke="none" points="1,-598.88 1,-618.12 196,-618.12 196,-598.88 1,-598.88"/>
<text xml:space="preserve" text-anchor="start" x="72.62" y="-605.62" font-family="Helvetica,sans-Serif" font-weight="bold" font-size="10.00" fill="white">raw_events</text>
<text xml:space="preserve" text-anchor="start" x="5" y="-586.38" font-family="Helvetica,sans-Serif" font-weight="bold" font-size="10.00">id</text>
<text xml:space="preserve" text-anchor="start" x="82.75" y="-586.62" font-family="Helvetica,sans-Serif" font-size="10.00">BIGSERIAL</text>
<text xml:space="preserve" text-anchor="start" x="165.38" y="-586.62" font-family="Helvetica,sans-Serif" font-size="10.00">PK</text>
<text xml:space="preserve" text-anchor="start" x="5" y="-567.38" font-family="Helvetica,sans-Serif" font-size="10.00">event_id</text>
<text xml:space="preserve" text-anchor="start" x="96.62" y="-567.38" font-family="Helvetica,sans-Serif" font-size="10.00">TEXT</text>
<text xml:space="preserve" text-anchor="start" x="152.25" y="-567.38" font-family="Helvetica,sans-Serif" font-size="10.00">UNIQUE</text>
<text xml:space="preserve" text-anchor="start" x="5" y="-548.12" font-family="Helvetica,sans-Serif" font-size="10.00">event_type</text>
<text xml:space="preserve" text-anchor="start" x="96.62" y="-548.12" font-family="Helvetica,sans-Serif" font-size="10.00">TEXT</text>
<text xml:space="preserve" text-anchor="start" x="5" y="-528.88" font-family="Helvetica,sans-Serif" font-size="10.00">event_source</text>
<text xml:space="preserve" text-anchor="start" x="96.62" y="-528.88" font-family="Helvetica,sans-Serif" font-size="10.00">TEXT</text>
<text xml:space="preserve" text-anchor="start" x="5" y="-509.62" font-family="Helvetica,sans-Serif" font-size="10.00">event_time</text>
<text xml:space="preserve" text-anchor="start" x="74.5" y="-509.62" font-family="Helvetica,sans-Serif" font-size="10.00">TIMESTAMPTZ</text>
<text xml:space="preserve" text-anchor="start" x="5" y="-490.38" font-family="Helvetica,sans-Serif" font-size="10.00">tenant_id</text>
<text xml:space="preserve" text-anchor="start" x="96.62" y="-490.38" font-family="Helvetica,sans-Serif" font-size="10.00">TEXT</text>
<text xml:space="preserve" text-anchor="start" x="5" y="-471.12" font-family="Helvetica,sans-Serif" font-size="10.00">resource_type</text>
<text xml:space="preserve" text-anchor="start" x="96.62" y="-471.12" font-family="Helvetica,sans-Serif" font-size="10.00">TEXT</text>
<text xml:space="preserve" text-anchor="start" x="5" y="-451.88" font-family="Helvetica,sans-Serif" font-size="10.00">resource_id</text>
<text xml:space="preserve" text-anchor="start" x="96.62" y="-451.88" font-family="Helvetica,sans-Serif" font-size="10.00">TEXT</text>
<text xml:space="preserve" text-anchor="start" x="5" y="-432.62" font-family="Helvetica,sans-Serif" font-size="10.00">data</text>
<text xml:space="preserve" text-anchor="start" x="92.5" y="-432.62" font-family="Helvetica,sans-Serif" font-size="10.00">JSONB</text>
<text xml:space="preserve" text-anchor="start" x="5" y="-413.38" font-family="Helvetica,sans-Serif" font-size="10.00">received_at</text>
<text xml:space="preserve" text-anchor="start" x="74.5" y="-413.38" font-family="Helvetica,sans-Serif" font-size="10.00">TIMESTAMPTZ</text>
<polygon fill="none" stroke="black" points="0,-405.38 0,-619.12 197,-619.12 197,-405.38 0,-405.38"/>
</g>
<!-- inventory_compute_instance -->
<g id="node3" class="node">
<title>inventory_compute_instance</title>
<polygon fill="#e8f5e9" stroke="none" points="328.25,-638.5 328.25,-910 507.25,-910 507.25,-638.5 328.25,-638.5"/>
<polygon fill="#4caf50" stroke="none" points="329.25,-889.75 329.25,-909 506.25,-909 506.25,-889.75 329.25,-889.75"/>
<text xml:space="preserve" text-anchor="start" x="351" y="-896.5" font-family="Helvetica,sans-Serif" font-weight="bold" font-size="10.00" fill="white">inventory_compute_instance</text>
<text xml:space="preserve" text-anchor="start" x="333.25" y="-877.25" font-family="Helvetica,sans-Serif" font-weight="bold" font-size="10.00">instance_id</text>
<text xml:space="preserve" text-anchor="start" x="433.12" y="-877.5" font-family="Helvetica,sans-Serif" font-size="10.00">TEXT</text>
<text xml:space="preserve" text-anchor="start" x="488.75" y="-877.5" font-family="Helvetica,sans-Serif" font-size="10.00">PK</text>
<text xml:space="preserve" text-anchor="start" x="333.25" y="-858.25" font-family="Helvetica,sans-Serif" font-size="10.00">name</text>
<text xml:space="preserve" text-anchor="start" x="433.12" y="-858.25" font-family="Helvetica,sans-Serif" font-size="10.00">TEXT</text>
<text xml:space="preserve" text-anchor="start" x="333.25" y="-839" font-family="Helvetica,sans-Serif" font-size="10.00">tenant</text>
<text xml:space="preserve" text-anchor="start" x="433.12" y="-839" font-family="Helvetica,sans-Serif" font-size="10.00">TEXT</text>
<text xml:space="preserve" text-anchor="start" x="333.25" y="-819.75" font-family="Helvetica,sans-Serif" font-size="10.00">project</text>
<text xml:space="preserve" text-anchor="start" x="433.12" y="-819.75" font-family="Helvetica,sans-Serif" font-size="10.00">TEXT</text>
<text xml:space="preserve" text-anchor="start" x="333.25" y="-800.5" font-family="Helvetica,sans-Serif" font-size="10.00">cluster_id</text>
<text xml:space="preserve" text-anchor="start" x="433.12" y="-800.5" font-family="Helvetica,sans-Serif" font-size="10.00">TEXT</text>
<text xml:space="preserve" text-anchor="start" x="333.25" y="-781.25" font-family="Helvetica,sans-Serif" font-size="10.00">instance_type</text>
<text xml:space="preserve" text-anchor="start" x="433.12" y="-781.25" font-family="Helvetica,sans-Serif" font-size="10.00">TEXT</text>
<text xml:space="preserve" text-anchor="start" x="333.25" y="-762" font-family="Helvetica,sans-Serif" font-size="10.00">cores</text>
<text xml:space="preserve" text-anchor="start" x="423.38" y="-762" font-family="Helvetica,sans-Serif" font-size="10.00">INTEGER</text>
<text xml:space="preserve" text-anchor="start" x="333.25" y="-742.75" font-family="Helvetica,sans-Serif" font-size="10.00">memory_gib</text>
<text xml:space="preserve" text-anchor="start" x="423.38" y="-742.75" font-family="Helvetica,sans-Serif" font-size="10.00">INTEGER</text>
<text xml:space="preserve" text-anchor="start" x="333.25" y="-723.5" font-family="Helvetica,sans-Serif" font-size="10.00">state</text>
<text xml:space="preserve" text-anchor="start" x="433.12" y="-723.5" font-family="Helvetica,sans-Serif" font-size="10.00">TEXT</text>
<text xml:space="preserve" text-anchor="start" x="333.25" y="-704.25" font-family="Helvetica,sans-Serif" font-size="10.00">labels</text>
<text xml:space="preserve" text-anchor="start" x="429" y="-704.25" font-family="Helvetica,sans-Serif" font-size="10.00">JSONB</text>
<text xml:space="preserve" text-anchor="start" x="333.25" y="-685" font-family="Helvetica,sans-Serif" font-size="10.00">created_at</text>
<text xml:space="preserve" text-anchor="start" x="411" y="-685" font-family="Helvetica,sans-Serif" font-size="10.00">TIMESTAMPTZ</text>
<text xml:space="preserve" text-anchor="start" x="333.25" y="-665.75" font-family="Helvetica,sans-Serif" font-size="10.00">deleted_at</text>
<text xml:space="preserve" text-anchor="start" x="411" y="-665.75" font-family="Helvetica,sans-Serif" font-size="10.00">TIMESTAMPTZ</text>
<text xml:space="preserve" text-anchor="start" x="333.25" y="-646.5" font-family="Helvetica,sans-Serif" font-size="10.00">last_metered_at</text>
<text xml:space="preserve" text-anchor="start" x="411" y="-646.5" font-family="Helvetica,sans-Serif" font-size="10.00">TIMESTAMPTZ</text>
<polygon fill="none" stroke="black" points="328.25,-638.5 328.25,-910 507.25,-910 507.25,-638.5 328.25,-638.5"/>
</g>
<!-- raw_events&#45;&gt;inventory_compute_instance -->
<g id="edge6" class="edge">
<title>raw_events&#45;&gt;inventory_compute_instance</title>
<path fill="none" stroke="#999999" stroke-dasharray="1,5" d="M196.84,-592.64C235.87,-624.87 280.76,-661.94 319.75,-694.14"/>
<polygon fill="#999999" stroke="#999999" points="317.39,-696.73 327.33,-700.4 321.85,-691.33 317.39,-696.73"/>
<text xml:space="preserve" text-anchor="middle" x="262.62" y="-692.98" font-family="Helvetica,sans-Serif" font-size="9.00">produces</text>
<text xml:space="preserve" text-anchor="middle" x="262.62" y="-683.23" font-family="Helvetica,sans-Serif" font-size="9.00">(CREATED/UPDATED)</text>
</g>
<!-- inventory_cluster -->
<g id="node4" class="node">
<title>inventory_cluster</title>
<polygon fill="#e8f5e9" stroke="none" points="328.25,-213 328.25,-407.5 507.25,-407.5 507.25,-213 328.25,-213"/>
<polygon fill="#4caf50" stroke="none" points="329.25,-387.25 329.25,-406.5 506.25,-406.5 506.25,-387.25 329.25,-387.25"/>
<text xml:space="preserve" text-anchor="start" x="377.62" y="-394" font-family="Helvetica,sans-Serif" font-weight="bold" font-size="10.00" fill="white">inventory_cluster</text>
<text xml:space="preserve" text-anchor="start" x="333.25" y="-374.75" font-family="Helvetica,sans-Serif" font-weight="bold" font-size="10.00">cluster_id</text>
<text xml:space="preserve" text-anchor="start" x="433.12" y="-375" font-family="Helvetica,sans-Serif" font-size="10.00">TEXT</text>
<text xml:space="preserve" text-anchor="start" x="488.75" y="-375" font-family="Helvetica,sans-Serif" font-size="10.00">PK</text>
<text xml:space="preserve" text-anchor="start" x="333.25" y="-355.75" font-family="Helvetica,sans-Serif" font-size="10.00">name</text>
<text xml:space="preserve" text-anchor="start" x="433.12" y="-355.75" font-family="Helvetica,sans-Serif" font-size="10.00">TEXT</text>
<text xml:space="preserve" text-anchor="start" x="333.25" y="-336.5" font-family="Helvetica,sans-Serif" font-size="10.00">tenant</text>
<text xml:space="preserve" text-anchor="start" x="433.12" y="-336.5" font-family="Helvetica,sans-Serif" font-size="10.00">TEXT</text>
<text xml:space="preserve" text-anchor="start" x="333.25" y="-317.25" font-family="Helvetica,sans-Serif" font-size="10.00">template</text>
<text xml:space="preserve" text-anchor="start" x="433.12" y="-317.25" font-family="Helvetica,sans-Serif" font-size="10.00">TEXT</text>
<text xml:space="preserve" text-anchor="start" x="333.25" y="-298" font-family="Helvetica,sans-Serif" font-size="10.00">node_sets</text>
<text xml:space="preserve" text-anchor="start" x="429" y="-298" font-family="Helvetica,sans-Serif" font-size="10.00">JSONB</text>
<text xml:space="preserve" text-anchor="start" x="333.25" y="-278.75" font-family="Helvetica,sans-Serif" font-size="10.00">state</text>
<text xml:space="preserve" text-anchor="start" x="433.12" y="-278.75" font-family="Helvetica,sans-Serif" font-size="10.00">TEXT</text>
<text xml:space="preserve" text-anchor="start" x="333.25" y="-259.5" font-family="Helvetica,sans-Serif" font-size="10.00">created_at</text>
<text xml:space="preserve" text-anchor="start" x="411" y="-259.5" font-family="Helvetica,sans-Serif" font-size="10.00">TIMESTAMPTZ</text>
<text xml:space="preserve" text-anchor="start" x="333.25" y="-240.25" font-family="Helvetica,sans-Serif" font-size="10.00">deleted_at</text>
<text xml:space="preserve" text-anchor="start" x="411" y="-240.25" font-family="Helvetica,sans-Serif" font-size="10.00">TIMESTAMPTZ</text>
<text xml:space="preserve" text-anchor="start" x="333.25" y="-221" font-family="Helvetica,sans-Serif" font-size="10.00">last_metered_at</text>
<text xml:space="preserve" text-anchor="start" x="411" y="-221" font-family="Helvetica,sans-Serif" font-size="10.00">TIMESTAMPTZ</text>
<polygon fill="none" stroke="black" points="328.25,-213 328.25,-407.5 507.25,-407.5 507.25,-213 328.25,-213"/>
</g>
<!-- raw_events&#45;&gt;inventory_cluster -->
<g id="edge7" class="edge">
<title>raw_events&#45;&gt;inventory_cluster</title>
<path fill="none" stroke="#999999" stroke-dasharray="1,5" d="M196.92,-461.98C202.99,-459.33 209.05,-456.82 215,-454.5 256.03,-438.53 272.84,-450.47 310.25,-427.25 316.44,-423.41 322.5,-419.1 328.37,-414.47"/>
<polygon fill="#999999" stroke="#999999" points="330.2,-417.5 335.69,-408.44 325.75,-412.1 330.2,-417.5"/>
<text xml:space="preserve" text-anchor="middle" x="262.62" y="-455.7" font-family="Helvetica,sans-Serif" font-size="9.00">produces</text>
</g>
<!-- inventory_model -->
<g id="node5" class="node">
<title>inventory_model</title>
<polygon fill="#e8f5e9" stroke="none" points="335.38,0 335.38,-194.5 500.12,-194.5 500.12,0 335.38,0"/>
<polygon fill="#4caf50" stroke="none" points="336.38,-174.25 336.38,-193.5 499.12,-193.5 499.12,-174.25 336.38,-174.25"/>
<text xml:space="preserve" text-anchor="start" x="378.75" y="-181" font-family="Helvetica,sans-Serif" font-weight="bold" font-size="10.00" fill="white">inventory_model</text>
<text xml:space="preserve" text-anchor="start" x="340.38" y="-161.75" font-family="Helvetica,sans-Serif" font-weight="bold" font-size="10.00">model_id</text>
<text xml:space="preserve" text-anchor="start" x="426" y="-162" font-family="Helvetica,sans-Serif" font-size="10.00">TEXT</text>
<text xml:space="preserve" text-anchor="start" x="481.62" y="-162" font-family="Helvetica,sans-Serif" font-size="10.00">PK</text>
<text xml:space="preserve" text-anchor="start" x="340.38" y="-142.75" font-family="Helvetica,sans-Serif" font-size="10.00">name</text>
<text xml:space="preserve" text-anchor="start" x="426" y="-142.75" font-family="Helvetica,sans-Serif" font-size="10.00">TEXT</text>
<text xml:space="preserve" text-anchor="start" x="340.38" y="-123.5" font-family="Helvetica,sans-Serif" font-size="10.00">model_name</text>
<text xml:space="preserve" text-anchor="start" x="426" y="-123.5" font-family="Helvetica,sans-Serif" font-size="10.00">TEXT</text>
<text xml:space="preserve" text-anchor="start" x="340.38" y="-104.25" font-family="Helvetica,sans-Serif" font-size="10.00">tenant</text>
<text xml:space="preserve" text-anchor="start" x="426" y="-104.25" font-family="Helvetica,sans-Serif" font-size="10.00">TEXT</text>
<text xml:space="preserve" text-anchor="start" x="340.38" y="-85" font-family="Helvetica,sans-Serif" font-size="10.00">project</text>
<text xml:space="preserve" text-anchor="start" x="426" y="-85" font-family="Helvetica,sans-Serif" font-size="10.00">TEXT</text>
<text xml:space="preserve" text-anchor="start" x="340.38" y="-65.75" font-family="Helvetica,sans-Serif" font-size="10.00">template</text>
<text xml:space="preserve" text-anchor="start" x="426" y="-65.75" font-family="Helvetica,sans-Serif" font-size="10.00">TEXT</text>
<text xml:space="preserve" text-anchor="start" x="340.38" y="-46.5" font-family="Helvetica,sans-Serif" font-size="10.00">state</text>
<text xml:space="preserve" text-anchor="start" x="426" y="-46.5" font-family="Helvetica,sans-Serif" font-size="10.00">TEXT</text>
<text xml:space="preserve" text-anchor="start" x="340.38" y="-27.25" font-family="Helvetica,sans-Serif" font-size="10.00">created_at</text>
<text xml:space="preserve" text-anchor="start" x="403.88" y="-27.25" font-family="Helvetica,sans-Serif" font-size="10.00">TIMESTAMPTZ</text>
<text xml:space="preserve" text-anchor="start" x="340.38" y="-8" font-family="Helvetica,sans-Serif" font-size="10.00">deleted_at</text>
<text xml:space="preserve" text-anchor="start" x="403.88" y="-8" font-family="Helvetica,sans-Serif" font-size="10.00">TIMESTAMPTZ</text>
<polygon fill="none" stroke="black" points="335.38,0 335.38,-194.5 500.12,-194.5 500.12,0 335.38,0"/>
</g>
<!-- raw_events&#45;&gt;inventory_model -->
<g id="edge8" class="edge">
<title>raw_events&#45;&gt;inventory_model</title>
<path fill="none" stroke="#999999" stroke-dasharray="1,5" d="M185.68,-405.4C189.51,-400.62 193.3,-395.89 197,-391.25 205.04,-381.17 204.81,-376.4 215,-368.5 251.6,-340.13 282.23,-363.12 310.25,-326.25 343.42,-282.61 305.96,-254.32 328.25,-204.25 328.92,-202.74 329.63,-201.23 330.35,-199.72"/>
<polygon fill="#999999" stroke="#999999" points="333.27,-201.69 334.8,-191.21 327.07,-198.45 333.27,-201.69"/>
<text xml:space="preserve" text-anchor="middle" x="262.62" y="-369.7" font-family="Helvetica,sans-Serif" font-size="9.00">produces</text>
</g>
<!-- inventory_bare_metal_instance -->
<g id="node7" class="node">
<title>inventory_bare_metal_instance</title>
<polygon fill="#e8f5e9" stroke="none" points="328.25,-426 328.25,-620.5 507.25,-620.5 507.25,-426 328.25,-426"/>
<polygon fill="#4caf50" stroke="none" points="329.25,-600.25 329.25,-619.5 506.25,-619.5 506.25,-600.25 329.25,-600.25"/>
<text xml:space="preserve" text-anchor="start" x="345.75" y="-607" font-family="Helvetica,sans-Serif" font-weight="bold" font-size="10.00" fill="white">inventory_bare_metal_instance</text>
<text xml:space="preserve" text-anchor="start" x="333.25" y="-587.75" font-family="Helvetica,sans-Serif" font-weight="bold" font-size="10.00">instance_id</text>
<text xml:space="preserve" text-anchor="start" x="433.12" y="-588" font-family="Helvetica,sans-Serif" font-size="10.00">TEXT</text>
<text xml:space="preserve" text-anchor="start" x="488.75" y="-588" font-family="Helvetica,sans-Serif" font-size="10.00">PK</text>
<text xml:space="preserve" text-anchor="start" x="333.25" y="-568.75" font-family="Helvetica,sans-Serif" font-size="10.00">name</text>
<text xml:space="preserve" text-anchor="start" x="433.12" y="-568.75" font-family="Helvetica,sans-Serif" font-size="10.00">TEXT</text>
<text xml:space="preserve" text-anchor="start" x="333.25" y="-549.5" font-family="Helvetica,sans-Serif" font-size="10.00">tenant</text>
<text xml:space="preserve" text-anchor="start" x="433.12" y="-549.5" font-family="Helvetica,sans-Serif" font-size="10.00">TEXT</text>
<text xml:space="preserve" text-anchor="start" x="333.25" y="-530.25" font-family="Helvetica,sans-Serif" font-size="10.00">catalog_item</text>
<text xml:space="preserve" text-anchor="start" x="433.12" y="-530.25" font-family="Helvetica,sans-Serif" font-size="10.00">TEXT</text>
<text xml:space="preserve" text-anchor="start" x="333.25" y="-511" font-family="Helvetica,sans-Serif" font-size="10.00">state</text>
<text xml:space="preserve" text-anchor="start" x="433.12" y="-511" font-family="Helvetica,sans-Serif" font-size="10.00">TEXT</text>
<text xml:space="preserve" text-anchor="start" x="333.25" y="-491.75" font-family="Helvetica,sans-Serif" font-size="10.00">labels</text>
<text xml:space="preserve" text-anchor="start" x="429" y="-491.75" font-family="Helvetica,sans-Serif" font-size="10.00">JSONB</text>
<text xml:space="preserve" text-anchor="start" x="333.25" y="-472.5" font-family="Helvetica,sans-Serif" font-size="10.00">created_at</text>
<text xml:space="preserve" text-anchor="start" x="411" y="-472.5" font-family="Helvetica,sans-Serif" font-size="10.00">TIMESTAMPTZ</text>
<text xml:space="preserve" text-anchor="start" x="333.25" y="-453.25" font-family="Helvetica,sans-Serif" font-size="10.00">deleted_at</text>
<text xml:space="preserve" text-anchor="start" x="411" y="-453.25" font-family="Helvetica,sans-Serif" font-size="10.00">TIMESTAMPTZ</text>
<text xml:space="preserve" text-anchor="start" x="333.25" y="-434" font-family="Helvetica,sans-Serif" font-size="10.00">last_metered_at</text>
<text xml:space="preserve" text-anchor="start" x="411" y="-434" font-family="Helvetica,sans-Serif" font-size="10.00">TIMESTAMPTZ</text>
<polygon fill="none" stroke="black" points="328.25,-426 328.25,-620.5 507.25,-620.5 507.25,-426 328.25,-426"/>
</g>
<!-- raw_events&#45;&gt;inventory_bare_metal_instance -->
<g id="edge9" class="edge">
<title>raw_events&#45;&gt;inventory_bare_metal_instance</title>
<path fill="none" stroke="#999999" stroke-dasharray="1,5" d="M196.84,-515.63C235.05,-516.95 278.87,-518.47 317.29,-519.8"/>
<polygon fill="#999999" stroke="#999999" points="316.87,-523.29 326.98,-520.14 317.11,-516.29 316.87,-523.29"/>
<text xml:space="preserve" text-anchor="middle" x="262.62" y="-530.33" font-family="Helvetica,sans-Serif" font-size="9.00">produces</text>
<text xml:space="preserve" text-anchor="middle" x="262.62" y="-520.58" font-family="Helvetica,sans-Serif" font-size="9.00">(reconciler)</text>
</g>
<!-- inventory_project -->
<g id="node2" class="node">
<title>inventory_project</title>
<polygon fill="#e8f5e9" stroke="none" points="20.62,-245.88 20.62,-382.62 176.38,-382.62 176.38,-245.88 20.62,-245.88"/>
<polygon fill="#4caf50" stroke="none" points="21.62,-362.38 21.62,-381.62 175.38,-381.62 175.38,-362.38 21.62,-362.38"/>
<text xml:space="preserve" text-anchor="start" x="58" y="-369.12" font-family="Helvetica,sans-Serif" font-weight="bold" font-size="10.00" fill="white">inventory_project</text>
<text xml:space="preserve" text-anchor="start" x="25.62" y="-349.88" font-family="Helvetica,sans-Serif" font-weight="bold" font-size="10.00">project_id</text>
<text xml:space="preserve" text-anchor="start" x="102.25" y="-350.12" font-family="Helvetica,sans-Serif" font-size="10.00">TEXT</text>
<text xml:space="preserve" text-anchor="start" x="157.88" y="-350.12" font-family="Helvetica,sans-Serif" font-size="10.00">PK</text>
<text xml:space="preserve" text-anchor="start" x="25.62" y="-330.88" font-family="Helvetica,sans-Serif" font-size="10.00">name</text>
<text xml:space="preserve" text-anchor="start" x="102.25" y="-330.88" font-family="Helvetica,sans-Serif" font-size="10.00">TEXT</text>
<text xml:space="preserve" text-anchor="start" x="25.62" y="-311.62" font-family="Helvetica,sans-Serif" font-size="10.00">tenant</text>
<text xml:space="preserve" text-anchor="start" x="102.25" y="-311.62" font-family="Helvetica,sans-Serif" font-size="10.00">TEXT</text>
<text xml:space="preserve" text-anchor="start" x="25.62" y="-292.38" font-family="Helvetica,sans-Serif" font-size="10.00">labels</text>
<text xml:space="preserve" text-anchor="start" x="98.12" y="-292.38" font-family="Helvetica,sans-Serif" font-size="10.00">JSONB</text>
<text xml:space="preserve" text-anchor="start" x="25.62" y="-273.12" font-family="Helvetica,sans-Serif" font-size="10.00">created_at</text>
<text xml:space="preserve" text-anchor="start" x="80.12" y="-273.12" font-family="Helvetica,sans-Serif" font-size="10.00">TIMESTAMPTZ</text>
<text xml:space="preserve" text-anchor="start" x="25.62" y="-253.88" font-family="Helvetica,sans-Serif" font-size="10.00">deleted_at</text>
<text xml:space="preserve" text-anchor="start" x="80.12" y="-253.88" font-family="Helvetica,sans-Serif" font-size="10.00">TIMESTAMPTZ</text>
<polygon fill="none" stroke="black" points="20.62,-245.88 20.62,-382.62 176.38,-382.62 176.38,-245.88 20.62,-245.88"/>
</g>
<!-- inventory_project&#45;&gt;inventory_compute_instance -->
<g id="edge1" class="edge">
<title>inventory_project&#45;&gt;inventory_compute_instance</title>
<path fill="none" stroke="#666666" stroke-dasharray="5,2" d="M176.27,-370.44C184.04,-378.44 191.2,-387.1 197,-396.25 213.74,-422.65 194.3,-440.83 215,-464.25 245.21,-498.43 282.1,-466.6 310.25,-502.5 343.3,-544.65 313.04,-572.31 328.47,-628.09"/>
<polygon fill="#666666" stroke="#666666" points="325.06,-628.94 331.44,-637.4 331.73,-626.8 325.06,-628.94"/>
<text xml:space="preserve" text-anchor="middle" x="262.62" y="-503.7" font-family="Helvetica,sans-Serif" font-size="9.00">tenant</text>
</g>
<!-- inventory_project&#45;&gt;inventory_cluster -->
<g id="edge3" class="edge">
<title>inventory_project&#45;&gt;inventory_cluster</title>
<path fill="none" stroke="#666666" stroke-dasharray="5,2" d="M176.3,-313.28C218.56,-312.75 271.5,-312.08 316.93,-311.51"/>
<polygon fill="#666666" stroke="#666666" points="316.84,-315.01 326.8,-311.38 316.76,-308.01 316.84,-315.01"/>
<text xml:space="preserve" text-anchor="middle" x="262.62" y="-313.93" font-family="Helvetica,sans-Serif" font-size="9.00">tenant</text>
</g>
<!-- inventory_project&#45;&gt;inventory_model -->
<g id="edge2" class="edge">
<title>inventory_project&#45;&gt;inventory_model</title>
<path fill="none" stroke="#666666" stroke-dasharray="5,2" d="M176.3,-261.72C221.43,-230.85 278.72,-191.66 326.07,-159.28"/>
<polygon fill="#666666" stroke="#666666" points="327.87,-162.29 334.15,-153.75 323.92,-156.51 327.87,-162.29"/>
<text xml:space="preserve" text-anchor="middle" x="262.62" y="-232.77" font-family="Helvetica,sans-Serif" font-size="9.00">tenant</text>
</g>
<!-- inventory_project&#45;&gt;inventory_bare_metal_instance -->
<g id="edge4" class="edge">
<title>inventory_project&#45;&gt;inventory_bare_metal_instance</title>
<path fill="none" stroke="#666666" stroke-dasharray="5,2" d="M176.25,-362.51C188.96,-369.6 202.17,-376.45 215,-382.25 255.6,-400.6 272.47,-389.88 310.25,-413.5 313.35,-415.44 316.42,-417.48 319.45,-419.61"/>
<polygon fill="#666666" stroke="#666666" points="317.13,-422.25 327.25,-425.38 321.29,-416.62 317.13,-422.25"/>
<text xml:space="preserve" text-anchor="middle" x="262.62" y="-414.7" font-family="Helvetica,sans-Serif" font-size="9.00">tenant</text>
</g>
<!-- inventory_instance_type -->
<g id="node6" class="node">
<title>inventory_instance_type</title>
<polygon fill="#e8f5e9" stroke="none" points="17.25,-715.5 17.25,-833 179.75,-833 179.75,-715.5 17.25,-715.5"/>
<polygon fill="#4caf50" stroke="none" points="18.25,-812.75 18.25,-832 178.75,-832 178.75,-812.75 18.25,-812.75"/>
<text xml:space="preserve" text-anchor="start" x="42.25" y="-819.5" font-family="Helvetica,sans-Serif" font-weight="bold" font-size="10.00" fill="white">inventory_instance_type</text>
<text xml:space="preserve" text-anchor="start" x="22.25" y="-800.25" font-family="Helvetica,sans-Serif" font-weight="bold" font-size="10.00">instance_type_id</text>
<text xml:space="preserve" text-anchor="start" x="118" y="-800.5" font-family="Helvetica,sans-Serif" font-size="10.00">TEXT</text>
<text xml:space="preserve" text-anchor="start" x="161.25" y="-800.5" font-family="Helvetica,sans-Serif" font-size="10.00">PK</text>
<text xml:space="preserve" text-anchor="start" x="22.25" y="-781.25" font-family="Helvetica,sans-Serif" font-size="10.00">name</text>
<text xml:space="preserve" text-anchor="start" x="118" y="-781.25" font-family="Helvetica,sans-Serif" font-size="10.00">TEXT</text>
<text xml:space="preserve" text-anchor="start" x="22.25" y="-762" font-family="Helvetica,sans-Serif" font-size="10.00">cores</text>
<text xml:space="preserve" text-anchor="start" x="108.25" y="-762" font-family="Helvetica,sans-Serif" font-size="10.00">INTEGER</text>
<text xml:space="preserve" text-anchor="start" x="22.25" y="-742.75" font-family="Helvetica,sans-Serif" font-size="10.00">memory_gib</text>
<text xml:space="preserve" text-anchor="start" x="108.25" y="-742.75" font-family="Helvetica,sans-Serif" font-size="10.00">INTEGER</text>
<text xml:space="preserve" text-anchor="start" x="22.25" y="-723.5" font-family="Helvetica,sans-Serif" font-size="10.00">state</text>
<text xml:space="preserve" text-anchor="start" x="118" y="-723.5" font-family="Helvetica,sans-Serif" font-size="10.00">TEXT</text>
<polygon fill="none" stroke="black" points="17.25,-715.5 17.25,-833 179.75,-833 179.75,-715.5 17.25,-715.5"/>
</g>
<!-- inventory_instance_type&#45;&gt;inventory_compute_instance -->
<g id="edge5" class="edge">
<title>inventory_instance_type&#45;&gt;inventory_compute_instance</title>
<path fill="none" stroke="#666666" stroke-dasharray="5,2" d="M179.56,-774.25C221.26,-774.25 272.67,-774.25 316.95,-774.25"/>
<polygon fill="#666666" stroke="#666666" points="316.83,-777.75 326.83,-774.25 316.83,-770.75 316.83,-777.75"/>
<text xml:space="preserve" text-anchor="middle" x="262.62" y="-775.45" font-family="Helvetica,sans-Serif" font-size="9.00">instance_type</text>
</g>
</g>
</svg>
