<?xml version="1.0" encoding="UTF-8" standalone="no"?>
<!DOCTYPE svg PUBLIC "-//W3C//DTD SVG 1.1//EN"
 "http://www.w3.org/Graphics/SVG/1.1/DTD/svg11.dtd">
<!-- Generated by graphviz version 15.0.0 (20260523.1842)
 -->
<!-- Title: metric_calc Pages: 1 -->
<svg width="1125pt" height="432pt"
 viewBox="0.00 0.00 1125.00 432.00" xmlns="http://www.w3.org/2000/svg" xmlns:xlink="http://www.w3.org/1999/xlink">
<g id="graph0" class="graph" transform="scale(1 1) rotate(0) translate(36 396)">
<title>metric_calc</title>
<polygon fill="white" stroke="none" points="-36,36 -36,-396 1088.75,-396 1088.75,36 -36,36"/>
<text xml:space="preserve" text-anchor="middle" x="526.38" y="-342.7" font-family="Helvetica,sans-Serif" font-size="14.00">Metric Calculation Pipeline</text>
<g id="clust1" class="cluster">
<title>cluster_sources</title>
<polygon fill="#e8f5e9" stroke="#2e7d32" points="8,-8 8,-329 164.5,-329 164.5,-8 8,-8"/>
<text xml:space="preserve" text-anchor="middle" x="86.25" y="-314.55" font-family="Helvetica,sans-Serif" font-size="11.00" fill="#2e7d32">Sources</text>
</g>
<!-- capacity -->
<g id="node1" class="node">
<title>capacity</title>
<polygon fill="#a5d6a7" stroke="none" points="26.88,-221.5 26.88,-300.5 145.62,-300.5 145.62,-221.5 26.88,-221.5"/>
<polygon fill="#2e7d32" stroke="none" points="27.88,-280.25 27.88,-299.5 144.62,-299.5 144.62,-280.25 27.88,-280.25"/>
<text xml:space="preserve" text-anchor="start" x="40.88" y="-287" font-family="Helvetica,sans-Serif" font-weight="bold" font-size="10.00" fill="white">Inventory (capacity)</text>
<text xml:space="preserve" text-anchor="start" x="31.88" y="-268" font-family="Helvetica,sans-Serif" font-size="10.00">compute_instance (VMs)</text>
<text xml:space="preserve" text-anchor="start" x="31.88" y="-248.75" font-family="Helvetica,sans-Serif" font-size="10.00">cluster (node sets)</text>
<text xml:space="preserve" text-anchor="start" x="31.88" y="-229.5" font-family="Helvetica,sans-Serif" font-size="10.00">bare_metal</text>
<polygon fill="none" stroke="black" points="26.88,-221.5 26.88,-300.5 145.62,-300.5 145.62,-221.5 26.88,-221.5"/>
</g>
<!-- metering -->
<g id="node4" class="node">
<title>metering</title>
<polygon fill="#fff3e0" stroke="none" points="281,-42.12 281,-255.88 490.5,-255.88 490.5,-42.12 281,-42.12"/>
<polygon fill="#e65100" stroke="none" points="282,-235.62 282,-254.88 489.5,-254.88 489.5,-235.62 282,-235.62"/>
<text xml:space="preserve" text-anchor="start" x="304" y="-242.38" font-family="Helvetica,sans-Serif" font-weight="bold" font-size="10.00" fill="white">Metering (60s sweep / event&#45;driven)</text>
<text xml:space="preserve" text-anchor="start" x="286" y="-223.38" font-family="Helvetica,sans-Serif" font-size="10.00">vm_uptime_seconds = duration</text>
<text xml:space="preserve" text-anchor="start" x="286" y="-204.12" font-family="Helvetica,sans-Serif" font-size="10.00">vm_cpu_core_seconds = cores × duration</text>
<text xml:space="preserve" text-anchor="start" x="286" y="-184.88" font-family="Helvetica,sans-Serif" font-size="10.00">vm_memory_gib_seconds = mem × duration</text>
<text xml:space="preserve" text-anchor="start" x="286" y="-165.62" font-family="Helvetica,sans-Serif" font-size="10.00">cluster_uptime_seconds = duration</text>
<text xml:space="preserve" text-anchor="start" x="286" y="-146.38" font-family="Helvetica,sans-Serif" font-size="10.00">cluster_worker_node_seconds = Σ(size × dur)</text>
<text xml:space="preserve" text-anchor="start" x="286" y="-127.12" font-family="Helvetica,sans-Serif" font-size="10.00">cluster_worker_node_count = Σ(size)</text>
<text xml:space="preserve" text-anchor="start" x="286" y="-107.88" font-family="Helvetica,sans-Serif" font-size="10.00">bm_uptime_seconds = duration</text>
<text xml:space="preserve" text-anchor="start" x="286" y="-88.62" font-family="Helvetica,sans-Serif" font-size="10.00">maas_tokens_in = prompt_tokens</text>
<text xml:space="preserve" text-anchor="start" x="286" y="-69.38" font-family="Helvetica,sans-Serif" font-size="10.00">maas_tokens_out = completion_tokens</text>
<text xml:space="preserve" text-anchor="start" x="286" y="-50.12" font-family="Helvetica,sans-Serif" font-size="10.00">maas_requests = 1 per event</text>
<polygon fill="none" stroke="black" points="281,-42.12 281,-255.88 490.5,-255.88 490.5,-42.12 281,-42.12"/>
</g>
<!-- capacity&#45;&gt;metering -->
<g id="edge1" class="edge">
<title>capacity&#45;&gt;metering</title>
<path fill="none" stroke="#2e7d32" d="M145.32,-239.14C180.86,-225.76 227.57,-208.17 270.29,-192.09"/>
<polygon fill="#2e7d32" stroke="#2e7d32" points="271.52,-195.37 279.64,-188.57 269.05,-188.82 271.52,-195.37"/>
<text xml:space="preserve" text-anchor="middle" x="218.75" y="-229.28" font-family="Helvetica,sans-Serif" font-size="9.00" fill="#2e7d32">billable</text>
<text xml:space="preserve" text-anchor="middle" x="218.75" y="-219.53" font-family="Helvetica,sans-Serif" font-size="9.00" fill="#2e7d32">resources</text>
</g>
<!-- catalog -->
<g id="node2" class="node">
<title>catalog</title>
<polygon fill="#c8e6c9" stroke="none" points="28.75,-119.12 28.75,-178.88 143.75,-178.88 143.75,-119.12 28.75,-119.12"/>
<polygon fill="#43a047" stroke="none" points="29.75,-158.62 29.75,-177.88 142.75,-177.88 142.75,-158.62 29.75,-158.62"/>
<text xml:space="preserve" text-anchor="start" x="34.5" y="-165.38" font-family="Helvetica,sans-Serif" font-weight="bold" font-size="10.00" fill="white">Instance Type Catalog</text>
<text xml:space="preserve" text-anchor="start" x="33.75" y="-146.38" font-family="Helvetica,sans-Serif" font-size="10.00">cores, memory_gib</text>
<text xml:space="preserve" text-anchor="start" x="33.75" y="-126.88" font-family="Helvetica,sans-Serif" font-style="italic" font-size="10.00">fallback when VM has 0</text>
<polygon fill="none" stroke="black" points="28.75,-119.12 28.75,-178.88 143.75,-178.88 143.75,-119.12 28.75,-119.12"/>
</g>
<!-- catalog&#45;&gt;metering -->
<g id="edge2" class="edge">
<title>catalog&#45;&gt;metering</title>
<path fill="none" stroke="#43a047" stroke-dasharray="5,2" d="M143.56,-149C179.12,-149 226.37,-149 269.62,-149"/>
<polygon fill="#43a047" stroke="#43a047" points="269.59,-152.5 279.59,-149 269.59,-145.5 269.59,-152.5"/>
<text xml:space="preserve" text-anchor="middle" x="218.75" y="-159.95" font-family="Helvetica,sans-Serif" font-size="9.00" fill="#43a047">cores/mem</text>
<text xml:space="preserve" text-anchor="middle" x="218.75" y="-150.2" font-family="Helvetica,sans-Serif" font-size="9.00" fill="#43a047">fallback</text>
</g>
<!-- maas -->
<g id="node3" class="node">
<title>maas</title>
<polygon fill="#f3e5f5" stroke="none" points="16,-16.12 16,-75.88 156.5,-75.88 156.5,-16.12 16,-16.12"/>
<polygon fill="#7b1fa2" stroke="none" points="17,-55.62 17,-74.88 155.5,-74.88 155.5,-55.62 17,-55.62"/>
<text xml:space="preserve" text-anchor="start" x="21" y="-62.38" font-family="Helvetica,sans-Serif" font-weight="bold" font-size="10.00" fill="white">MaaS Events (consumption)</text>
<text xml:space="preserve" text-anchor="start" x="21" y="-43.38" font-family="Helvetica,sans-Serif" font-size="10.00">POST /api/v1/events</text>
<text xml:space="preserve" text-anchor="start" x="21" y="-24.12" font-family="Helvetica,sans-Serif" font-size="10.00">tokens_in, tokens_out</text>
<polygon fill="none" stroke="black" points="16,-16.12 16,-75.88 156.5,-75.88 156.5,-16.12 16,-16.12"/>
</g>
<!-- maas&#45;&gt;metering -->
<g id="edge3" class="edge">
<title>maas&#45;&gt;metering</title>
<path fill="none" stroke="#7b1fa2" d="M156.25,-69.89C190.14,-81.62 231.87,-96.07 270.36,-109.4"/>
<polygon fill="#7b1fa2" stroke="#7b1fa2" points="269.09,-112.66 279.69,-112.63 271.38,-106.05 269.09,-112.66"/>
<text xml:space="preserve" text-anchor="middle" x="218.75" y="-111.54" font-family="Helvetica,sans-Serif" font-size="9.00" fill="#7b1fa2">CloudEvent</text>
<text xml:space="preserve" text-anchor="middle" x="218.75" y="-101.79" font-family="Helvetica,sans-Serif" font-size="9.00" fill="#7b1fa2">(per request)</text>
</g>
<!-- rating -->
<g id="node5" class="node">
<title>rating</title>
<polygon fill="#fff9c4" stroke="none" points="624,-61.38 624,-236.62 776.5,-236.62 776.5,-61.38 624,-61.38"/>
<polygon fill="#f57f17" stroke="none" points="625,-216.38 625,-235.62 775.5,-235.62 775.5,-216.38 625,-216.38"/>
<text xml:space="preserve" text-anchor="start" x="656.38" y="-223.12" font-family="Helvetica,sans-Serif" font-weight="bold" font-size="10.00" fill="white">Rating (30s sweep)</text>
<text xml:space="preserve" text-anchor="start" x="629" y="-203.88" font-family="Helvetica,sans-Serif" font-weight="bold" font-size="10.00">Rate lookup (first match wins):</text>
<text xml:space="preserve" text-anchor="start" x="629" y="-184.88" font-family="Helvetica,sans-Serif" font-size="10.00">1. tenant + instance_type</text>
<text xml:space="preserve" text-anchor="start" x="629" y="-165.62" font-family="Helvetica,sans-Serif" font-size="10.00">2. instance_type only</text>
<text xml:space="preserve" text-anchor="start" x="629" y="-146.38" font-family="Helvetica,sans-Serif" font-size="10.00">3. tenant only</text>
<text xml:space="preserve" text-anchor="start" x="629" y="-127.12" font-family="Helvetica,sans-Serif" font-size="10.00">4. global default</text>
<text xml:space="preserve" text-anchor="start" x="629" y="-107.88" font-family="Helvetica,sans-Serif" font-size="10.00"> </text>
<text xml:space="preserve" text-anchor="start" x="629" y="-88.38" font-family="Helvetica,sans-Serif" font-weight="bold" font-size="10.00">Apply:</text>
<text xml:space="preserve" text-anchor="start" x="659.75" y="-88.38" font-family="Helvetica,sans-Serif" font-size="10.00"> flat (value × price)</text>
<text xml:space="preserve" text-anchor="start" x="629" y="-69.12" font-family="Helvetica,sans-Serif" font-weight="bold" font-size="10.00"> &#160;or:</text>
<text xml:space="preserve" text-anchor="start" x="647.75" y="-69.12" font-family="Helvetica,sans-Serif" font-size="10.00"> tiered (walk bands)</text>
<polygon fill="none" stroke="black" points="624,-61.38 624,-236.62 776.5,-236.62 776.5,-61.38 624,-61.38"/>
</g>
<!-- metering&#45;&gt;rating -->
<g id="edge4" class="edge">
<title>metering&#45;&gt;rating</title>
<path fill="none" stroke="#e65100" d="M490.37,-149C530.15,-149 575.09,-149 613.06,-149"/>
<polygon fill="#e65100" stroke="#e65100" points="612.57,-152.5 622.57,-149 612.57,-145.5 612.57,-152.5"/>
<text xml:space="preserve" text-anchor="middle" x="557.25" y="-150.2" font-family="Helvetica,sans-Serif" font-size="9.00" fill="#e65100">unrated entries</text>
</g>
<!-- cost -->
<g id="node6" class="node">
<title>cost</title>
<polygon fill="#ffcdd2" stroke="none" points="922.75,-109.5 922.75,-188.5 1052.75,-188.5 1052.75,-109.5 922.75,-109.5"/>
<polygon fill="#c62828" stroke="none" points="923.75,-168.25 923.75,-187.5 1051.75,-187.5 1051.75,-168.25 923.75,-168.25"/>
<text xml:space="preserve" text-anchor="start" x="959.62" y="-175" font-family="Helvetica,sans-Serif" font-weight="bold" font-size="10.00" fill="white">cost_entries</text>
<text xml:space="preserve" text-anchor="start" x="927.75" y="-156" font-family="Helvetica,sans-Serif" font-size="10.00">cost_amount = value × rate</text>
<text xml:space="preserve" text-anchor="start" x="927.75" y="-136.75" font-family="Helvetica,sans-Serif" font-size="10.00">cost_type: Infrastructure</text>
<text xml:space="preserve" text-anchor="start" x="927.75" y="-117.5" font-family="Helvetica,sans-Serif" font-size="10.00"> &#160;&#160;or: Supplementary</text>
<polygon fill="none" stroke="black" points="922.75,-109.5 922.75,-188.5 1052.75,-188.5 1052.75,-109.5 922.75,-109.5"/>
</g>
<!-- rating&#45;&gt;cost -->
<g id="edge5" class="edge">
<title>rating&#45;&gt;cost</title>
<path fill="none" stroke="#c62828" d="M776.26,-149C817.94,-149 869.65,-149 911.39,-149"/>
<polygon fill="#c62828" stroke="#c62828" points="911.36,-152.5 921.36,-149 911.36,-145.5 911.36,-152.5"/>
<text xml:space="preserve" text-anchor="middle" x="849.62" y="-150.2" font-family="Helvetica,sans-Serif" font-size="9.00" fill="#c62828">cost = value × rate</text>
</g>
</g>
</svg>
