<?xml version="1.0" encoding="UTF-8" standalone="no"?>
<!DOCTYPE svg PUBLIC "-//W3C//DTD SVG 1.1//EN"
 "http://www.w3.org/Graphics/SVG/1.1/DTD/svg11.dtd">
<!-- Generated by graphviz version 15.0.0 (20260523.1842)
 -->
<!-- Title: openmeter_migration Pages: 1 -->
<svg width="600pt" height="1108pt"
 viewBox="0.00 0.00 600.00 1108.00" xmlns="http://www.w3.org/2000/svg" xmlns:xlink="http://www.w3.org/1999/xlink">
<g id="graph0" class="graph" transform="scale(1 1) rotate(0) translate(36 1072.09)">
<title>openmeter_migration</title>
<polygon fill="white" stroke="none" points="-36,36 -36,-1072.09 564,-1072.09 564,36 -36,36"/>
<text xml:space="preserve" text-anchor="middle" x="264" y="-1018.79" font-family="Helvetica,sans-Serif" font-size="14.00">Migration Path: OpenMeter → Cost Event Consumer</text>
<g id="clust1" class="cluster">
<title>cluster_before</title>
<polygon fill="#ffebee" stroke="#c62828" points="8,-535.41 8,-954.22 177,-954.22 177,-535.41 8,-535.41"/>
<text xml:space="preserve" text-anchor="middle" x="92.5" y="-938.82" font-family="Helvetica,sans-Serif" font-size="12.00" fill="#c62828">Before: OSAC → OpenMeter</text>
</g>
<g id="clust2" class="cluster">
<title>cluster_transition</title>
<polygon fill="#fff8e1" stroke="#f57f17" stroke-dasharray="5,2" points="185,-402.16 185,-611.12 475,-611.12 475,-402.16 185,-402.16"/>
<text xml:space="preserve" text-anchor="middle" x="330" y="-595.73" font-family="Helvetica,sans-Serif" font-size="12.00" fill="#f57f17">Transition: Both Running (coexistence)</text>
</g>
<g id="clust3" class="cluster">
<title>cluster_after</title>
<polygon fill="#e8f5e9" stroke="#2e7d32" points="304,-8 304,-365.16 520,-365.16 520,-8 304,-8"/>
<text xml:space="preserve" text-anchor="middle" x="412" y="-349.76" font-family="Helvetica,sans-Serif" font-size="12.00" fill="#2e7d32">After: OSAC → Cost Event Consumer</text>
</g>
<!-- collector_before -->
<g id="node1" class="node">
<title>collector_before</title>
<path fill="#ffcdd2" stroke="#c62828" d="M143.5,-923.22C143.5,-923.22 82.5,-923.22 82.5,-923.22 76.5,-923.22 70.5,-917.22 70.5,-911.22 70.5,-911.22 70.5,-899.22 70.5,-899.22 70.5,-893.22 76.5,-887.22 82.5,-887.22 82.5,-887.22 143.5,-887.22 143.5,-887.22 149.5,-887.22 155.5,-893.22 155.5,-899.22 155.5,-899.22 155.5,-911.22 155.5,-911.22 155.5,-917.22 149.5,-923.22 143.5,-923.22"/>
<text xml:space="preserve" text-anchor="middle" x="113" y="-906.97" font-family="Helvetica,sans-Serif" font-size="10.00">OSAC Metering</text>
<text xml:space="preserve" text-anchor="middle" x="113" y="-895.72" font-family="Helvetica,sans-Serif" font-size="10.00">Collector</text>
</g>
<!-- openmeter -->
<g id="node2" class="node">
<title>openmeter</title>
<path fill="#ef9a9a" stroke="#c62828" d="M155.75,-708.84C155.75,-708.84 72.25,-708.84 72.25,-708.84 66.25,-708.84 60.25,-702.84 60.25,-696.84 60.25,-696.84 60.25,-679.09 60.25,-679.09 60.25,-673.09 66.25,-667.09 72.25,-667.09 72.25,-667.09 155.75,-667.09 155.75,-667.09 161.75,-667.09 167.75,-673.09 167.75,-679.09 167.75,-679.09 167.75,-696.84 167.75,-696.84 167.75,-702.84 161.75,-708.84 155.75,-708.84"/>
<text xml:space="preserve" text-anchor="middle" x="114" y="-695.34" font-family="Helvetica,sans-Serif" font-size="10.00">OpenMeter</text>
<text xml:space="preserve" text-anchor="middle" x="114" y="-684.09" font-family="Helvetica,sans-Serif" font-size="10.00">POST /api/v1/events</text>
<text xml:space="preserve" text-anchor="middle" x="114" y="-672.84" font-family="Helvetica,sans-Serif" font-size="10.00">(CloudEvents)</text>
</g>
<!-- collector_before&#45;&gt;openmeter -->
<g id="edge1" class="edge">
<title>collector_before&#45;&gt;openmeter</title>
<path fill="none" stroke="#c62828" d="M113.08,-886.97C113.25,-850.79 113.64,-766.55 113.85,-720.47"/>
<polygon fill="#c62828" stroke="#c62828" points="117.35,-720.62 113.9,-710.6 110.35,-720.59 117.35,-720.62"/>
<text xml:space="preserve" text-anchor="middle" x="141.86" y="-755.79" font-family="Helvetica,sans-Serif" font-size="9.00">CloudEvents</text>
<text xml:space="preserve" text-anchor="middle" x="141.86" y="-746.04" font-family="Helvetica,sans-Serif" font-size="9.00">(JSON POST)</text>
</g>
<!-- om_store -->
<g id="node3" class="node">
<title>om_store</title>
<path fill="#ffcdd2" stroke="#c62828" d="M146,-581.53C146,-583.63 131.66,-585.34 114,-585.34 96.34,-585.34 82,-583.63 82,-581.53 82,-581.53 82,-547.22 82,-547.22 82,-545.12 96.34,-543.41 114,-543.41 131.66,-543.41 146,-545.12 146,-547.22 146,-547.22 146,-581.53 146,-581.53"/>
<path fill="none" stroke="#c62828" d="M146,-581.53C146,-579.43 131.66,-577.72 114,-577.72 96.34,-577.72 82,-579.43 82,-581.53"/>
<text xml:space="preserve" text-anchor="middle" x="114" y="-566.12" font-family="Helvetica,sans-Serif" font-size="10.00">OpenMeter</text>
<text xml:space="preserve" text-anchor="middle" x="114" y="-554.88" font-family="Helvetica,sans-Serif" font-size="10.00">Storage</text>
</g>
<!-- openmeter&#45;&gt;om_store -->
<g id="edge2" class="edge">
<title>openmeter&#45;&gt;om_store</title>
<path fill="none" stroke="#555555" d="M114,-666.62C114,-647.68 114,-619.16 114,-597.21"/>
<polygon fill="#555555" stroke="#555555" points="117.5,-597.31 114,-587.31 110.5,-597.31 117.5,-597.31"/>
<text xml:space="preserve" text-anchor="middle" x="124.12" y="-622.54" font-family="Helvetica,sans-Serif" font-size="9.00">store</text>
</g>
<!-- collector_trans -->
<g id="node4" class="node">
<title>collector_trans</title>
<path fill="#fff9c4" stroke="#f57f17" d="M281.5,-582.38C281.5,-582.38 220.5,-582.38 220.5,-582.38 214.5,-582.38 208.5,-576.38 208.5,-570.38 208.5,-570.38 208.5,-558.38 208.5,-558.38 208.5,-552.38 214.5,-546.38 220.5,-546.38 220.5,-546.38 281.5,-546.38 281.5,-546.38 287.5,-546.38 293.5,-552.38 293.5,-558.38 293.5,-558.38 293.5,-570.38 293.5,-570.38 293.5,-576.38 287.5,-582.38 281.5,-582.38"/>
<text xml:space="preserve" text-anchor="middle" x="251" y="-566.12" font-family="Helvetica,sans-Serif" font-size="10.00">OSAC Metering</text>
<text xml:space="preserve" text-anchor="middle" x="251" y="-554.88" font-family="Helvetica,sans-Serif" font-size="10.00">Collector</text>
</g>
<!-- openmeter&#45;&gt;collector_trans -->
<!-- openmeter_trans -->
<g id="node5" class="node">
<title>openmeter_trans</title>
<path fill="#ffecb3" stroke="#f57f17" d="M288.75,-449.03C288.75,-449.03 205.25,-449.03 205.25,-449.03 199.25,-449.03 193.25,-443.03 193.25,-437.03 193.25,-437.03 193.25,-425.03 193.25,-425.03 193.25,-419.03 199.25,-413.03 205.25,-413.03 205.25,-413.03 288.75,-413.03 288.75,-413.03 294.75,-413.03 300.75,-419.03 300.75,-425.03 300.75,-425.03 300.75,-437.03 300.75,-437.03 300.75,-443.03 294.75,-449.03 288.75,-449.03"/>
<text xml:space="preserve" text-anchor="middle" x="247" y="-432.78" font-family="Helvetica,sans-Serif" font-size="10.00">OpenMeter</text>
<text xml:space="preserve" text-anchor="middle" x="247" y="-421.53" font-family="Helvetica,sans-Serif" font-size="10.00">POST /api/v1/events</text>
</g>
<!-- collector_trans&#45;&gt;openmeter_trans -->
<g id="edge3" class="edge">
<title>collector_trans&#45;&gt;openmeter_trans</title>
<path fill="none" stroke="#f57f17" d="M250.47,-545.93C249.8,-524.13 248.66,-486.51 247.87,-460.5"/>
<polygon fill="#f57f17" stroke="#f57f17" points="251.37,-460.53 247.57,-450.64 244.37,-460.74 251.37,-460.53"/>
<text xml:space="preserve" text-anchor="middle" x="264.99" y="-498.86" font-family="Helvetica,sans-Serif" font-size="9.00">existing</text>
<text xml:space="preserve" text-anchor="middle" x="264.99" y="-489.11" font-family="Helvetica,sans-Serif" font-size="9.00">config</text>
</g>
<!-- cost_trans -->
<g id="node6" class="node">
<title>cost_trans</title>
<path fill="#c8e6c9" stroke="#2e7d32" d="M454.75,-451.91C454.75,-451.91 371.25,-451.91 371.25,-451.91 365.25,-451.91 359.25,-445.91 359.25,-439.91 359.25,-439.91 359.25,-422.16 359.25,-422.16 359.25,-416.16 365.25,-410.16 371.25,-410.16 371.25,-410.16 454.75,-410.16 454.75,-410.16 460.75,-410.16 466.75,-416.16 466.75,-422.16 466.75,-422.16 466.75,-439.91 466.75,-439.91 466.75,-445.91 460.75,-451.91 454.75,-451.91"/>
<text xml:space="preserve" text-anchor="middle" x="413" y="-438.41" font-family="Helvetica,sans-Serif" font-size="10.00">Cost Consumer</text>
<text xml:space="preserve" text-anchor="middle" x="413" y="-427.16" font-family="Helvetica,sans-Serif" font-size="10.00">POST /api/v1/events</text>
<text xml:space="preserve" text-anchor="middle" x="413" y="-415.91" font-family="Helvetica,sans-Serif" font-size="10.00">(same path!)</text>
</g>
<!-- collector_trans&#45;&gt;cost_trans -->
<g id="edge4" class="edge">
<title>collector_trans&#45;&gt;cost_trans</title>
<path fill="none" stroke="#2e7d32" d="M272.51,-545.93C299.81,-523.8 347.2,-485.38 379.32,-459.34"/>
<polygon fill="#2e7d32" stroke="#2e7d32" points="381.2,-462.32 386.76,-453.3 376.79,-456.88 381.2,-462.32"/>
<text xml:space="preserve" text-anchor="middle" x="370.2" y="-498.86" font-family="Helvetica,sans-Serif" font-size="9.00" fill="#2e7d32">new URL</text>
<text xml:space="preserve" text-anchor="middle" x="370.2" y="-489.11" font-family="Helvetica,sans-Serif" font-size="9.00" fill="#2e7d32">same schema</text>
</g>
<!-- collector_after -->
<g id="node7" class="node">
<title>collector_after</title>
<path fill="#a5d6a7" stroke="#2e7d32" d="M443.5,-334.16C443.5,-334.16 382.5,-334.16 382.5,-334.16 376.5,-334.16 370.5,-328.16 370.5,-322.16 370.5,-322.16 370.5,-310.16 370.5,-310.16 370.5,-304.16 376.5,-298.16 382.5,-298.16 382.5,-298.16 443.5,-298.16 443.5,-298.16 449.5,-298.16 455.5,-304.16 455.5,-310.16 455.5,-310.16 455.5,-322.16 455.5,-322.16 455.5,-328.16 449.5,-334.16 443.5,-334.16"/>
<text xml:space="preserve" text-anchor="middle" x="413" y="-317.91" font-family="Helvetica,sans-Serif" font-size="10.00">OSAC Metering</text>
<text xml:space="preserve" text-anchor="middle" x="413" y="-306.66" font-family="Helvetica,sans-Serif" font-size="10.00">Collector</text>
</g>
<!-- cost_trans&#45;&gt;collector_after -->
<!-- cost_after -->
<g id="node8" class="node">
<title>cost_after</title>
<path fill="#81c784" stroke="#2e7d32" d="M454.75,-206.66C454.75,-206.66 371.25,-206.66 371.25,-206.66 365.25,-206.66 359.25,-200.66 359.25,-194.66 359.25,-194.66 359.25,-176.91 359.25,-176.91 359.25,-170.91 365.25,-164.91 371.25,-164.91 371.25,-164.91 454.75,-164.91 454.75,-164.91 460.75,-164.91 466.75,-170.91 466.75,-176.91 466.75,-176.91 466.75,-194.66 466.75,-194.66 466.75,-200.66 460.75,-206.66 454.75,-206.66"/>
<text xml:space="preserve" text-anchor="middle" x="413" y="-193.16" font-family="Helvetica,sans-Serif" font-size="10.00">Cost Consumer</text>
<text xml:space="preserve" text-anchor="middle" x="413" y="-181.91" font-family="Helvetica,sans-Serif" font-size="10.00">POST /api/v1/events</text>
<text xml:space="preserve" text-anchor="middle" x="413" y="-170.66" font-family="Helvetica,sans-Serif" font-size="10.00">(CloudEvents)</text>
</g>
<!-- collector_after&#45;&gt;cost_after -->
<g id="edge5" class="edge">
<title>collector_after&#45;&gt;cost_after</title>
<path fill="none" stroke="#2e7d32" d="M413,-297.84C413,-277.49 413,-243.32 413,-218.25"/>
<polygon fill="#2e7d32" stroke="#2e7d32" points="416.5,-218.28 413,-208.28 409.5,-218.28 416.5,-218.28"/>
<text xml:space="preserve" text-anchor="middle" x="441.12" y="-253.61" font-family="Helvetica,sans-Serif" font-size="9.00">CloudEvents</text>
<text xml:space="preserve" text-anchor="middle" x="441.12" y="-243.86" font-family="Helvetica,sans-Serif" font-size="9.00">(JSON POST)</text>
</g>
<!-- cost_store -->
<g id="node9" class="node">
<title>cost_store</title>
<path fill="#c8e6c9" stroke="#2e7d32" d="M457,-68.19C457,-71.07 437.28,-73.41 413,-73.41 388.72,-73.41 369,-71.07 369,-68.19 369,-68.19 369,-21.22 369,-21.22 369,-18.34 388.72,-16 413,-16 437.28,-16 457,-18.34 457,-21.22 457,-21.22 457,-68.19 457,-68.19"/>
<path fill="none" stroke="#2e7d32" d="M457,-68.19C457,-65.31 437.28,-62.97 413,-62.97 388.72,-62.97 369,-65.31 369,-68.19"/>
<text xml:space="preserve" text-anchor="middle" x="413" y="-52.08" font-family="Helvetica,sans-Serif" font-size="10.00">metering_entries</text>
<text xml:space="preserve" text-anchor="middle" x="413" y="-40.83" font-family="Helvetica,sans-Serif" font-size="10.00">+ cost_entries</text>
<text xml:space="preserve" text-anchor="middle" x="413" y="-29.58" font-family="Helvetica,sans-Serif" font-size="10.00">+ rates</text>
</g>
<!-- cost_after&#45;&gt;cost_store -->
<g id="edge6" class="edge">
<title>cost_after&#45;&gt;cost_store</title>
<path fill="none" stroke="#555555" d="M413,-164.56C413,-143.85 413,-111.11 413,-85.24"/>
<polygon fill="#555555" stroke="#555555" points="416.5,-85.41 413,-75.41 409.5,-85.41 416.5,-85.41"/>
<text xml:space="preserve" text-anchor="middle" x="434" y="-120.36" font-family="Helvetica,sans-Serif" font-size="9.00">store +</text>
<text xml:space="preserve" text-anchor="middle" x="434" y="-110.61" font-family="Helvetica,sans-Serif" font-size="9.00">rate + cost</text>
</g>
<!-- key -->
<g id="node10" class="node">
<title>key</title>
<polygon fill="white" stroke="none" points="213.25,-800.34 213.25,-1010.09 474.75,-1010.09 474.75,-800.34 213.25,-800.34"/>
<polygon fill="#1565c0" stroke="none" points="214.25,-985.84 214.25,-1009.09 473.75,-1009.09 473.75,-985.84 214.25,-985.84"/>
<text xml:space="preserve" text-anchor="start" x="305.75" y="-994.59" font-family="Helvetica,sans-Serif" font-weight="bold" font-size="10.00" fill="white">Why This Works</text>
<text xml:space="preserve" text-anchor="start" x="220.25" y="-971.59" font-family="Helvetica,sans-Serif" font-size="10.00">Same endpoint path</text>
<text xml:space="preserve" text-anchor="start" x="350.75" y="-971.59" font-family="Helvetica,sans-Serif" font-size="10.00">POST /api/v1/events</text>
<text xml:space="preserve" text-anchor="start" x="220.25" y="-948.34" font-family="Helvetica,sans-Serif" font-size="10.00">Same payload format</text>
<text xml:space="preserve" text-anchor="start" x="353.38" y="-948.34" font-family="Helvetica,sans-Serif" font-size="10.00">CloudEvents JSON</text>
<text xml:space="preserve" text-anchor="start" x="220.25" y="-919.47" font-family="Helvetica,sans-Serif" font-size="10.00">Same event types</text>
<text xml:space="preserve" text-anchor="start" x="325.25" y="-925.09" font-family="Helvetica,sans-Serif" font-size="10.00">osac.compute_instance.lifecycle</text>
<text xml:space="preserve" text-anchor="start" x="350.75" y="-913.84" font-family="Helvetica,sans-Serif" font-size="10.00">osac.cluster.lifecycle</text>
<text xml:space="preserve" text-anchor="start" x="220.25" y="-890.59" font-family="Helvetica,sans-Serif" font-size="10.00">Migration effort</text>
<text xml:space="preserve" text-anchor="start" x="356" y="-890.34" font-family="Helvetica,sans-Serif" font-weight="bold" font-size="10.00">URL change only</text>
<text xml:space="preserve" text-anchor="start" x="220.25" y="-861.72" font-family="Helvetica,sans-Serif" font-size="10.00">Coexistence</text>
<text xml:space="preserve" text-anchor="start" x="346.62" y="-867.34" font-family="Helvetica,sans-Serif" font-size="10.00">Both can run in parallel</text>
<text xml:space="preserve" text-anchor="start" x="361.25" y="-856.09" font-family="Helvetica,sans-Serif" font-size="10.00">during validation</text>
<text xml:space="preserve" text-anchor="start" x="220.25" y="-821.59" font-family="Helvetica,sans-Serif" font-size="10.00">Bonus</text>
<text xml:space="preserve" text-anchor="start" x="326.75" y="-832.84" font-family="Helvetica,sans-Serif" font-size="10.00">Cost adds: rating, tiered pricing,</text>
<text xml:space="preserve" text-anchor="start" x="342.5" y="-821.59" font-family="Helvetica,sans-Serif" font-size="10.00">quotas, tenant overrides,</text>
<text xml:space="preserve" text-anchor="start" x="343.62" y="-810.34" font-family="Helvetica,sans-Serif" font-size="10.00">Koku&#45;compatible reports</text>
<polygon fill="none" stroke="black" points="213.25,-800.34 213.25,-1010.09 474.75,-1010.09 474.75,-800.34 213.25,-800.34"/>
</g>
</g>
</svg>
