<?xml version="1.0" encoding="UTF-8" standalone="no"?>
<!DOCTYPE svg PUBLIC "-//W3C//DTD SVG 1.1//EN"
 "http://www.w3.org/Graphics/SVG/1.1/DTD/svg11.dtd">
<!-- Generated by graphviz version 15.0.0 (20260523.1842)
 -->
<!-- Title: rating_pipeline Pages: 1 -->
<svg width="497pt" height="1356pt"
 viewBox="0.00 0.00 497.00 1356.00" xmlns="http://www.w3.org/2000/svg" xmlns:xlink="http://www.w3.org/1999/xlink">
<g id="graph0" class="graph" transform="scale(1 1) rotate(0) translate(36 1319.5)">
<title>rating_pipeline</title>
<polygon fill="white" stroke="none" points="-36,36 -36,-1319.5 461.25,-1319.5 461.25,36 -36,36"/>
<text xml:space="preserve" text-anchor="middle" x="212.62" y="-1266.2" font-family="Helvetica,sans-Serif" font-size="14.00">Rating Pipeline — From Metering to Cost</text>
<g id="clust1" class="cluster">
<title>cluster_rates</title>
</g>
<!-- metering -->
<g id="node1" class="node">
<title>metering</title>
<polygon fill="#e0e0e0" stroke="none" points="149.25,-1119 149.25,-1260.5 337.25,-1260.5 337.25,-1119 149.25,-1119"/>
<polygon fill="#616161" stroke="none" points="150.25,-1236.25 150.25,-1259.5 336.25,-1259.5 336.25,-1236.25 150.25,-1236.25"/>
<text xml:space="preserve" text-anchor="start" x="204.25" y="-1245" font-family="Helvetica,sans-Serif" font-weight="bold" font-size="10.00" fill="white">metering_entries</text>
<text xml:space="preserve" text-anchor="start" x="156.25" y="-1222" font-family="Helvetica,sans-Serif" font-size="10.00">resource_type</text>
<text xml:space="preserve" text-anchor="start" x="240.25" y="-1222" font-family="Helvetica,sans-Serif" font-size="10.00">compute_instance</text>
<text xml:space="preserve" text-anchor="start" x="156.25" y="-1198.75" font-family="Helvetica,sans-Serif" font-size="10.00">meter_name</text>
<text xml:space="preserve" text-anchor="start" x="229.75" y="-1198.75" font-family="Helvetica,sans-Serif" font-size="10.00">vm_cpu_core_seconds</text>
<text xml:space="preserve" text-anchor="start" x="156.25" y="-1175.5" font-family="Helvetica,sans-Serif" font-size="10.00">tenant_id</text>
<text xml:space="preserve" text-anchor="start" x="250.75" y="-1175.5" font-family="Helvetica,sans-Serif" font-size="10.00">tenant&#45;globex</text>
<text xml:space="preserve" text-anchor="start" x="156.25" y="-1152.25" font-family="Helvetica,sans-Serif" font-size="10.00">value</text>
<text xml:space="preserve" text-anchor="start" x="268" y="-1152.25" font-family="Helvetica,sans-Serif" font-size="10.00">240.0</text>
<text xml:space="preserve" text-anchor="start" x="156.25" y="-1129" font-family="Helvetica,sans-Serif" font-size="10.00">period</text>
<text xml:space="preserve" text-anchor="start" x="254.88" y="-1129" font-family="Helvetica,sans-Serif" font-size="10.00">60s interval</text>
<polygon fill="none" stroke="black" points="149.25,-1119 149.25,-1260.5 337.25,-1260.5 337.25,-1119 149.25,-1119"/>
</g>
<!-- find_rate -->
<g id="node2" class="node">
<title>find_rate</title>
<polygon fill="#e8f5e9" stroke="none" points="169.88,-946.5 169.88,-1041.5 316.62,-1041.5 316.62,-946.5 169.88,-946.5"/>
<polygon fill="#2e7d32" stroke="none" points="170.88,-1017.25 170.88,-1040.5 315.62,-1040.5 315.62,-1017.25 170.88,-1017.25"/>
<text xml:space="preserve" text-anchor="start" x="219.25" y="-1026" font-family="Helvetica,sans-Serif" font-weight="bold" font-size="10.00" fill="white">FindRate()</text>
<text xml:space="preserve" text-anchor="start" x="176.88" y="-1003" font-family="Helvetica,sans-Serif" font-size="10.00">1. Look for tenant&#45;specific rate</text>
<text xml:space="preserve" text-anchor="start" x="176.88" y="-979.75" font-family="Helvetica,sans-Serif" font-size="10.00">2. Fall back to global default</text>
<text xml:space="preserve" text-anchor="start" x="176.88" y="-956.5" font-family="Helvetica,sans-Serif" font-size="10.00">3. Check effective date range</text>
<polygon fill="none" stroke="black" points="169.88,-946.5 169.88,-1041.5 316.62,-1041.5 316.62,-946.5 169.88,-946.5"/>
</g>
<!-- metering&#45;&gt;find_rate -->
<g id="edge1" class="edge">
<title>metering&#45;&gt;find_rate</title>
<path fill="none" stroke="#555555" d="M243.25,-1119.08C243.25,-1097.29 243.25,-1073.51 243.25,-1052.64"/>
<polygon fill="#555555" stroke="#555555" points="246.75,-1052.9 243.25,-1042.9 239.75,-1052.9 246.75,-1052.9"/>
<text xml:space="preserve" text-anchor="middle" x="259" y="-1081.45" font-family="Helvetica,sans-Serif" font-size="9.00">unrated</text>
<text xml:space="preserve" text-anchor="middle" x="259" y="-1071.7" font-family="Helvetica,sans-Serif" font-size="9.00">entry</text>
</g>
<!-- rate_tenant -->
<g id="node3" class="node">
<title>rate_tenant</title>
<polygon fill="#c8e6c9" stroke="none" points="77.25,-760.75 77.25,-869 225.25,-869 225.25,-760.75 77.25,-760.75"/>
<polygon fill="#43a047" stroke="none" points="78.25,-846.75 78.25,-868 224.25,-868 224.25,-846.75 78.25,-846.75"/>
<text xml:space="preserve" text-anchor="start" x="114.12" y="-854.5" font-family="Helvetica,sans-Serif" font-weight="bold" font-size="10.00" fill="white">Tenant Override</text>
<text xml:space="preserve" text-anchor="start" x="83.25" y="-833.5" font-family="Helvetica,sans-Serif" font-size="10.00">tenant_id</text>
<text xml:space="preserve" text-anchor="start" x="157.38" y="-833.5" font-family="Helvetica,sans-Serif" font-size="10.00">tenant&#45;globex</text>
<text xml:space="preserve" text-anchor="start" x="83.25" y="-812.25" font-family="Helvetica,sans-Serif" font-size="10.00">price_per_unit</text>
<text xml:space="preserve" text-anchor="start" x="162.62" y="-812.25" font-family="Helvetica,sans-Serif" font-size="10.00">0.015/3600</text>
<text xml:space="preserve" text-anchor="start" x="83.25" y="-791" font-family="Helvetica,sans-Serif" font-size="10.00">cost_type</text>
<text xml:space="preserve" text-anchor="start" x="154" y="-791" font-family="Helvetica,sans-Serif" font-size="10.00">Supplementary</text>
<text xml:space="preserve" text-anchor="start" x="83.25" y="-769.75" font-family="Helvetica,sans-Serif" font-size="10.00">priority</text>
<text xml:space="preserve" text-anchor="start" x="154.38" y="-769.5" font-family="Helvetica,sans-Serif" font-weight="bold" font-size="10.00">1st (preferred)</text>
<polygon fill="none" stroke="black" points="77.25,-760.75 77.25,-869 225.25,-869 225.25,-760.75 77.25,-760.75"/>
</g>
<!-- find_rate&#45;&gt;rate_tenant -->
<g id="edge2" class="edge">
<title>find_rate&#45;&gt;rate_tenant</title>
<path fill="none" stroke="#43a047" d="M219.32,-946.92C208.56,-926.21 195.69,-901.44 184.06,-879.04"/>
<polygon fill="#43a047" stroke="#43a047" points="187.22,-877.54 179.51,-870.27 181.01,-880.76 187.22,-877.54"/>
<text xml:space="preserve" text-anchor="middle" x="235.01" y="-908.95" font-family="Helvetica,sans-Serif" font-size="9.00" fill="#43a047">match?</text>
<text xml:space="preserve" text-anchor="middle" x="235.01" y="-899.2" font-family="Helvetica,sans-Serif" font-size="9.00" fill="#43a047">(tenant + meter)</text>
</g>
<!-- rate_global -->
<g id="node4" class="node">
<title>rate_global</title>
<polygon fill="#e0e0e0" stroke="none" points="261.25,-760.75 261.25,-869 409.25,-869 409.25,-760.75 261.25,-760.75"/>
<polygon fill="#757575" stroke="none" points="262.25,-846.75 262.25,-868 408.25,-868 408.25,-846.75 262.25,-846.75"/>
<text xml:space="preserve" text-anchor="start" x="301.88" y="-854.5" font-family="Helvetica,sans-Serif" font-weight="bold" font-size="10.00" fill="white">Global Default</text>
<text xml:space="preserve" text-anchor="start" x="267.25" y="-833.5" font-family="Helvetica,sans-Serif" font-size="10.00">tenant_id</text>
<text xml:space="preserve" text-anchor="start" x="357.88" y="-833.5" font-family="Helvetica,sans-Serif" font-size="10.00">NULL</text>
<text xml:space="preserve" text-anchor="start" x="267.25" y="-812.25" font-family="Helvetica,sans-Serif" font-size="10.00">price_per_unit</text>
<text xml:space="preserve" text-anchor="start" x="346.62" y="-812.25" font-family="Helvetica,sans-Serif" font-size="10.00">0.005/3600</text>
<text xml:space="preserve" text-anchor="start" x="267.25" y="-791" font-family="Helvetica,sans-Serif" font-size="10.00">cost_type</text>
<text xml:space="preserve" text-anchor="start" x="338" y="-791" font-family="Helvetica,sans-Serif" font-size="10.00">Supplementary</text>
<text xml:space="preserve" text-anchor="start" x="267.25" y="-769.75" font-family="Helvetica,sans-Serif" font-size="10.00">priority</text>
<text xml:space="preserve" text-anchor="start" x="341.38" y="-769.75" font-family="Helvetica,sans-Serif" font-size="10.00">2nd (fallback)</text>
<polygon fill="none" stroke="black" points="261.25,-760.75 261.25,-869 409.25,-869 409.25,-760.75 261.25,-760.75"/>
</g>
<!-- find_rate&#45;&gt;rate_global -->
<g id="edge3" class="edge">
<title>find_rate&#45;&gt;rate_global</title>
<path fill="none" stroke="#555555" stroke-dasharray="5,2" d="M267.18,-946.92C277.94,-926.21 290.81,-901.44 302.44,-879.04"/>
<polygon fill="#555555" stroke="#555555" points="305.49,-880.76 306.99,-870.27 299.28,-877.54 305.49,-880.76"/>
<text xml:space="preserve" text-anchor="middle" x="307.76" y="-908.95" font-family="Helvetica,sans-Serif" font-size="9.00">fallback</text>
<text xml:space="preserve" text-anchor="middle" x="307.76" y="-899.2" font-family="Helvetica,sans-Serif" font-size="9.00">(global)</text>
</g>
<!-- apply_rate -->
<g id="node5" class="node">
<title>apply_rate</title>
<polygon fill="#fff9c4" stroke="none" points="176.62,-610 176.62,-683.25 309.88,-683.25 309.88,-610 176.62,-610"/>
<polygon fill="#f57f17" stroke="none" points="177.62,-659 177.62,-682.25 308.88,-682.25 308.88,-659 177.62,-659"/>
<text xml:space="preserve" text-anchor="start" x="215.88" y="-667.75" font-family="Helvetica,sans-Serif" font-weight="bold" font-size="10.00" fill="white">ApplyRate()</text>
<polygon fill="#fff9c4" stroke="none" points="177.62,-635.75 177.62,-659 308.88,-659 308.88,-635.75 177.62,-635.75"/>
<text xml:space="preserve" text-anchor="start" x="183.62" y="-644.5" font-family="Helvetica,sans-Serif" font-weight="bold" font-size="10.00">Flat:</text>
<text xml:space="preserve" text-anchor="start" x="203.88" y="-644.5" font-family="Helvetica,sans-Serif" font-size="10.00"> value × price_per_unit</text>
<polygon fill="#fff9c4" stroke="none" points="177.62,-611 177.62,-635.75 308.88,-635.75 308.88,-611 177.62,-611"/>
<text xml:space="preserve" text-anchor="start" x="187.75" y="-621.25" font-family="Helvetica,sans-Serif" font-weight="bold" font-size="10.00">Tiered:</text>
<text xml:space="preserve" text-anchor="start" x="220" y="-621.25" font-family="Helvetica,sans-Serif" font-size="10.00"> walk tier bands ↓</text>
<polygon fill="none" stroke="black" points="176.62,-610 176.62,-683.25 309.88,-683.25 309.88,-610 176.62,-610"/>
</g>
<!-- rate_tenant&#45;&gt;apply_rate -->
<g id="edge4" class="edge">
<title>rate_tenant&#45;&gt;apply_rate</title>
<path fill="none" stroke="#555555" d="M180.61,-760.82C192.68,-739.01 206.51,-714.02 218.1,-693.07"/>
<polygon fill="#555555" stroke="#555555" points="221.08,-694.91 222.86,-684.47 214.96,-691.52 221.08,-694.91"/>
<text xml:space="preserve" text-anchor="middle" x="222.74" y="-723.2" font-family="Helvetica,sans-Serif" font-size="9.00">selected</text>
<text xml:space="preserve" text-anchor="middle" x="222.74" y="-713.45" font-family="Helvetica,sans-Serif" font-size="9.00">rate</text>
</g>
<!-- rate_global&#45;&gt;apply_rate -->
<g id="edge5" class="edge">
<title>rate_global&#45;&gt;apply_rate</title>
<path fill="none" stroke="#555555" stroke-dasharray="5,2" d="M305.89,-760.82C293.82,-739.01 279.99,-714.02 268.4,-693.07"/>
<polygon fill="#555555" stroke="#555555" points="271.54,-691.52 263.64,-684.47 265.42,-694.91 271.54,-691.52"/>
<text xml:space="preserve" text-anchor="middle" x="306.12" y="-723.2" font-family="Helvetica,sans-Serif" font-size="9.00">if no</text>
<text xml:space="preserve" text-anchor="middle" x="306.12" y="-713.45" font-family="Helvetica,sans-Serif" font-size="9.00">override</text>
</g>
<!-- tiers -->
<g id="node6" class="node">
<title>tiers</title>
<polygon fill="#fff9c4" stroke="none" points="0,-386.5 0,-532.5 276.5,-532.5 276.5,-386.5 0,-386.5"/>
<polygon fill="#ff8f00" stroke="none" points="1,-508.25 1,-531.5 275.5,-531.5 275.5,-508.25 1,-508.25"/>
<polygon fill="none" stroke="black" points="1,-508.25 1,-531.5 275.5,-531.5 275.5,-508.25 1,-508.25"/>
<text xml:space="preserve" text-anchor="start" x="42.25" y="-517" font-family="Helvetica,sans-Serif" font-weight="bold" font-size="10.00" fill="white">Tiered Pricing Example (MaaS tokens_in)</text>
<polygon fill="#e8f5e9" stroke="none" points="1,-485 1,-508.25 68,-508.25 68,-485 1,-485"/>
<polygon fill="none" stroke="black" points="1,-485 1,-508.25 68,-508.25 68,-485 1,-485"/>
<text xml:space="preserve" text-anchor="start" x="22.12" y="-493.75" font-family="Helvetica,sans-Serif" font-weight="bold" font-size="10.00">Band</text>
<polygon fill="#e8f5e9" stroke="none" points="68,-485 68,-508.25 202.5,-508.25 202.5,-485 68,-485"/>
<polygon fill="none" stroke="black" points="68,-485 68,-508.25 202.5,-508.25 202.5,-485 68,-485"/>
<text xml:space="preserve" text-anchor="start" x="120.25" y="-493.75" font-family="Helvetica,sans-Serif" font-weight="bold" font-size="10.00">Range</text>
<polygon fill="#e8f5e9" stroke="none" points="202.5,-485 202.5,-508.25 275.5,-508.25 275.5,-485 202.5,-485"/>
<polygon fill="none" stroke="black" points="202.5,-485 202.5,-508.25 275.5,-508.25 275.5,-485 202.5,-485"/>
<text xml:space="preserve" text-anchor="start" x="216.5" y="-493.75" font-family="Helvetica,sans-Serif" font-weight="bold" font-size="10.00">Price/unit</text>
<polygon fill="none" stroke="black" points="1,-460.25 1,-485 68,-485 68,-460.25 1,-460.25"/>
<text xml:space="preserve" text-anchor="start" x="16.5" y="-470" font-family="Helvetica,sans-Serif" font-size="10.00">Free tier</text>
<polygon fill="none" stroke="black" points="68,-460.25 68,-485 202.5,-485 202.5,-460.25 68,-460.25"/>
<text xml:space="preserve" text-anchor="start" x="103.38" y="-469.25" font-family="Helvetica,sans-Serif" font-size="10.00">0 → 1,000,000</text>
<polygon fill="none" stroke="black" points="202.5,-460.25 202.5,-485 275.5,-485 275.5,-460.25 202.5,-460.25"/>
<text xml:space="preserve" text-anchor="start" x="227" y="-470" font-family="Helvetica,sans-Serif" font-size="10.00">$0.00</text>
<polygon fill="none" stroke="black" points="1,-435.5 1,-460.25 68,-460.25 68,-435.5 1,-435.5"/>
<text xml:space="preserve" text-anchor="start" x="15" y="-445.25" font-family="Helvetica,sans-Serif" font-size="10.00">Standard</text>
<polygon fill="none" stroke="black" points="68,-435.5 68,-460.25 202.5,-460.25 202.5,-435.5 68,-435.5"/>
<text xml:space="preserve" text-anchor="start" x="82" y="-444.5" font-family="Helvetica,sans-Serif" font-size="10.00">1,000,000 → 10,000,000</text>
<polygon fill="none" stroke="black" points="202.5,-435.5 202.5,-460.25 275.5,-460.25 275.5,-435.5 202.5,-435.5"/>
<text xml:space="preserve" text-anchor="start" x="221.38" y="-445.25" font-family="Helvetica,sans-Serif" font-size="10.00">$0.30/M</text>
<polygon fill="none" stroke="black" points="1,-410.75 1,-435.5 68,-435.5 68,-410.75 1,-410.75"/>
<text xml:space="preserve" text-anchor="start" x="18" y="-420.5" font-family="Helvetica,sans-Serif" font-size="10.00">Volume</text>
<polygon fill="none" stroke="black" points="68,-410.75 68,-435.5 202.5,-435.5 202.5,-410.75 68,-410.75"/>
<text xml:space="preserve" text-anchor="start" x="99.62" y="-419.75" font-family="Helvetica,sans-Serif" font-size="10.00">10,000,000 → ∞</text>
<polygon fill="none" stroke="black" points="202.5,-410.75 202.5,-435.5 275.5,-435.5 275.5,-410.75 202.5,-410.75"/>
<text xml:space="preserve" text-anchor="start" x="221.38" y="-420.5" font-family="Helvetica,sans-Serif" font-size="10.00">$0.20/M</text>
<polygon fill="#fff9c4" stroke="none" points="1,-387.5 1,-410.75 275.5,-410.75 275.5,-387.5 1,-387.5"/>
<polygon fill="none" stroke="black" points="1,-387.5 1,-410.75 275.5,-410.75 275.5,-387.5 1,-387.5"/>
<text xml:space="preserve" text-anchor="start" x="7" y="-396.25" font-family="Helvetica,sans-Serif" font-style="italic" font-size="10.00">15M tokens = 1M×$0 + 9M×$0.30/M + 5M×$0.20/M = $3.70</text>
<polygon fill="none" stroke="black" points="0,-386.5 0,-532.5 276.5,-532.5 276.5,-386.5 0,-386.5"/>
</g>
<!-- apply_rate&#45;&gt;tiers -->
<g id="edge6" class="edge">
<title>apply_rate&#45;&gt;tiers</title>
<path fill="none" stroke="#555555" stroke-dasharray="5,2" d="M223.25,-610.37C212.27,-591.01 198.16,-566.13 184.6,-542.23"/>
<polygon fill="#555555" stroke="#555555" points="187.77,-540.71 179.79,-533.74 181.68,-544.16 187.77,-540.71"/>
<text xml:space="preserve" text-anchor="middle" x="221.66" y="-572.45" font-family="Helvetica,sans-Serif" font-size="9.00">if tiers</text>
<text xml:space="preserve" text-anchor="middle" x="221.66" y="-562.7" font-family="Helvetica,sans-Serif" font-size="9.00">defined</text>
</g>
<!-- cost_entry -->
<g id="node7" class="node">
<title>cost_entry</title>
<polygon fill="#e3f2fd" stroke="none" points="159.75,-166 159.75,-309 326.75,-309 326.75,-166 159.75,-166"/>
<polygon fill="#1565c0" stroke="none" points="160.75,-284.75 160.75,-308 325.75,-308 325.75,-284.75 160.75,-284.75"/>
<text xml:space="preserve" text-anchor="start" x="215.12" y="-293.5" font-family="Helvetica,sans-Serif" font-weight="bold" font-size="10.00" fill="white">cost_entries</text>
<text xml:space="preserve" text-anchor="start" x="166.75" y="-270.5" font-family="Helvetica,sans-Serif" font-size="10.00">metered_value</text>
<text xml:space="preserve" text-anchor="start" x="269.12" y="-270.5" font-family="Helvetica,sans-Serif" font-size="10.00">240.0</text>
<text xml:space="preserve" text-anchor="start" x="166.75" y="-247.25" font-family="Helvetica,sans-Serif" font-size="10.00">cost_amount</text>
<text xml:space="preserve" text-anchor="start" x="258.62" y="-247.25" font-family="Helvetica,sans-Serif" font-size="10.00">$0.001000</text>
<text xml:space="preserve" text-anchor="start" x="166.75" y="-224" font-family="Helvetica,sans-Serif" font-size="10.00">cost_type</text>
<text xml:space="preserve" text-anchor="start" x="248.5" y="-224" font-family="Helvetica,sans-Serif" font-size="10.00">Supplementary</text>
<text xml:space="preserve" text-anchor="start" x="166.75" y="-200.75" font-family="Helvetica,sans-Serif" font-size="10.00">currency</text>
<text xml:space="preserve" text-anchor="start" x="270.25" y="-200.75" font-family="Helvetica,sans-Serif" font-size="10.00">USD</text>
<text xml:space="preserve" text-anchor="start" x="166.75" y="-176.75" font-family="Helvetica,sans-Serif" font-size="10.00">rate_id</text>
<text xml:space="preserve" text-anchor="start" x="242.5" y="-176" font-family="Helvetica,sans-Serif" font-size="10.00">→ tenant override</text>
<polygon fill="none" stroke="black" points="159.75,-166 159.75,-309 326.75,-309 326.75,-166 159.75,-166"/>
</g>
<!-- apply_rate&#45;&gt;cost_entry -->
<g id="edge7" class="edge">
<title>apply_rate&#45;&gt;cost_entry</title>
<path fill="none" stroke="#555555" d="M264.01,-610.04C275.4,-588.4 288.39,-559.78 294.25,-532.5 307.89,-469.06 304.97,-450.5 294.25,-386.5 290.53,-364.26 283.86,-340.88 276.54,-319.45"/>
<polygon fill="#555555" stroke="#555555" points="279.91,-318.47 273.3,-310.2 273.31,-320.79 279.91,-318.47"/>
<text xml:space="preserve" text-anchor="middle" x="327.42" y="-460.7" font-family="Helvetica,sans-Serif" font-size="9.00">cost =</text>
<text xml:space="preserve" text-anchor="middle" x="327.42" y="-450.95" font-family="Helvetica,sans-Serif" font-size="9.00">value × rate</text>
</g>
<!-- tiers&#45;&gt;cost_entry -->
<g id="edge8" class="edge">
<title>tiers&#45;&gt;cost_entry</title>
<path fill="none" stroke="#555555" stroke-dasharray="5,2" d="M172.49,-386.77C182.87,-365.02 194.33,-340.99 204.96,-318.73"/>
<polygon fill="#555555" stroke="#555555" points="207.98,-320.53 209.13,-310 201.66,-317.52 207.98,-320.53"/>
<text xml:space="preserve" text-anchor="middle" x="219.77" y="-348.95" font-family="Helvetica,sans-Serif" font-size="9.00">cost =</text>
<text xml:space="preserve" text-anchor="middle" x="219.77" y="-339.2" font-family="Helvetica,sans-Serif" font-size="9.00">Σ band costs</text>
</g>
<!-- koku -->
<g id="node8" class="node">
<title>koku</title>
<polygon fill="#f3e5f5" stroke="none" points="129.5,0 129.5,-88.5 357,-88.5 357,0 129.5,0"/>
<polygon fill="#7b1fa2" stroke="none" points="130.5,-66.25 130.5,-87.5 356,-87.5 356,-66.25 130.5,-66.25"/>
<text xml:space="preserve" text-anchor="start" x="205.75" y="-74" font-family="Helvetica,sans-Serif" font-weight="bold" font-size="10.00" fill="white">Koku Alignment</text>
<text xml:space="preserve" text-anchor="start" x="135.5" y="-53" font-family="Helvetica,sans-Serif" font-size="10.00">koku_metric</text>
<text xml:space="preserve" text-anchor="start" x="221.25" y="-53" font-family="Helvetica,sans-Serif" font-size="10.00">cpu_core_request_per_hour</text>
<text xml:space="preserve" text-anchor="start" x="135.5" y="-31.75" font-family="Helvetica,sans-Serif" font-size="10.00">cost_type</text>
<text xml:space="preserve" text-anchor="start" x="215.25" y="-31.75" font-family="Helvetica,sans-Serif" font-size="10.00">Infrastructure / Supplementary</text>
<text xml:space="preserve" text-anchor="start" x="135.5" y="-9.75" font-family="Helvetica,sans-Serif" font-size="10.00">unit conversion</text>
<text xml:space="preserve" text-anchor="start" x="211.5" y="-9" font-family="Helvetica,sans-Serif" font-size="10.00">per_second → per_hour (×3600)</text>
<polygon fill="none" stroke="black" points="129.5,0 129.5,-88.5 357,-88.5 357,0 129.5,0"/>
</g>
<!-- cost_entry&#45;&gt;koku -->
<g id="edge9" class="edge">
<title>cost_entry&#45;&gt;koku</title>
<path fill="none" stroke="#7b1fa2" stroke-dasharray="1,5" d="M243.25,-166.1C243.25,-144.19 243.25,-120.37 243.25,-99.71"/>
<polygon fill="#7b1fa2" stroke="#7b1fa2" points="246.75,-99.79 243.25,-89.79 239.75,-99.79 246.75,-99.79"/>
<text xml:space="preserve" text-anchor="middle" x="261.25" y="-128.45" font-family="Helvetica,sans-Serif" font-size="9.00" fill="#7b1fa2">report</text>
<text xml:space="preserve" text-anchor="middle" x="261.25" y="-118.7" font-family="Helvetica,sans-Serif" font-size="9.00" fill="#7b1fa2">mapping</text>
</g>
</g>
</svg>
